<?xml version="1.0" encoding="utf-8"?>
<!-- Generator: Adobe Illustrator 20.1.0, SVG Export Plug-In . SVG Version: 6.00 Build 0)  -->
<svg fill="#5abbed" version="1.1" id="layer" xmlns="http://www.w3.org/2000/svg" xmlns:xlink="http://www.w3.org/1999/xlink" x="0px" y="0px"
	 viewBox="0 0 199 134.3" enable-background="new 0 0 199 134.3" xml:space="preserve">
<path id="Object" fill="none" stroke="#5abbed" stroke-width="6" stroke-linecap="round" stroke-linejoin="round" stroke-miterlimit="10" d="
	M4.5,75c4.1,0,8.8,0,14.7,0c6,0,6.4,7.3,9.4,7.3c6.3-0.2,8.2-20.3,12.6-20.4C47,61.7,50,94.5,53.8,94.5c6.1-0.1,8.4-87.2,12.4-87.3
	c4.7-0.1,8.6,120.3,13.7,120.2c4.5,0,7-94.5,12.2-94.5c4.4,0,7.3,70.1,12.7,70.1c4.3,0,6.6-45.2,12.3-45.3c4.7,0,7.5,30.3,13,30.3
	c4.9-0.1,7.1-24.2,12.5-24.3c4.6,0,6.7,17.4,12.3,17.5c4.4,0.1,6.2-10.6,12.5-11.3c3.2-0.4,3.9,4.7,8.8,4.7c3.9,0,8.9,0,18,0"/>
</svg>
