<?xml version="1.0" encoding="iso-8859-1"?>
<!-- Generator: Adobe Illustrator 19.0.0, SVG Export Plug-In . SVG Version: 6.00 Build 0)  -->
<svg version="1.1" id="Layer_1" xmlns="http://www.w3.org/2000/svg" xmlns:xlink="http://www.w3.org/1999/xlink" x="0px" y="0px"
	 viewBox="0 0 512 512" style="enable-background:new 0 0 512 512;" xml:space="preserve">
<circle style="fill:#21D8DE;" cx="256" cy="256" r="256"/>
<rect x="130.213" y="171.586" style="fill:#FFFFFF;" width="238.592" height="168.696"/>
<rect x="274.961" y="280.312" style="fill:#FF6D3B;" width="41.221" height="29.894"/>
<g>
	<rect x="280.114" y="286.059" style="fill:#E64717;" width="30.908" height="3.439"/>
	<rect x="280.114" y="301.023" style="fill:#E64717;" width="18.29" height="3.439"/>
</g>
<rect x="182.834" y="280.312" style="fill:#16C6CC;" width="41.224" height="14.947"/>
<rect x="187.973" y="286.059" style="fill:#FFFFFF;" width="30.915" height="3.439"/>
<rect x="182.834" y="208.268" style="fill:#16C6CC;" width="41.224" height="44.851"/>
<g>
	<rect x="203.446" y="213.999" style="fill:#FFFFFF;" width="15.459" height="3.439"/>
	<rect x="187.973" y="213.999" style="fill:#FFFFFF;" width="10.795" height="3.439"/>
	<rect x="187.973" y="228.947" style="fill:#FFFFFF;" width="30.915" height="3.439"/>
	<rect x="187.973" y="243.91" style="fill:#FFFFFF;" width="21.851" height="3.432"/>
</g>
<rect x="274.961" y="208.268" style="fill:#242D3C;" width="41.221" height="44.851"/>
<g>
	<rect x="280.114" y="213.999" style="fill:#3E4959;" width="30.908" height="3.439"/>
	<rect x="280.114" y="228.947" style="fill:#3E4959;" width="18.845" height="3.439"/>
	<rect x="302.972" y="228.947" style="fill:#3E4959;" width="8.07" height="3.439"/>
	<rect x="280.114" y="243.91" style="fill:#3E4959;" width="13.732" height="3.432"/>
</g>
<g>
	<rect x="224.045" y="228.947" style="fill:#D9D8D7;" width="41.01" height="3.439"/>
	<rect x="293.855" y="253.093" style="fill:#D9D8D7;" width="3.439" height="17.296"/>
	<rect x="201.728" y="263.003" style="fill:#D9D8D7;" width="3.429" height="17.296"/>
	<polygon style="fill:#D9D8D7;" points="197.711,263.013 203.432,253.103 209.157,263.013 	"/>
	<polygon style="fill:#D9D8D7;" points="265.054,224.956 274.967,230.677 265.054,236.399 	"/>
	<polygon style="fill:#D9D8D7;" points="301.304,270.399 295.579,280.308 289.858,270.399 	"/>
</g>
<circle style="fill:#FFD55C;" cx="130.213" cy="171.728" r="47.629"/>
<path style="fill:#FFC640;" d="M130.207,209.259c-10.567,0-20.715-4.529-27.836-12.414c-0.747-0.832-0.687-2.111,0.152-2.857
	c0.823-0.743,2.101-0.684,2.847,0.149c6.359,7.046,15.416,11.082,24.837,11.082c18.465,0,33.495-15.02,33.495-33.491
	c0-1.11,0.902-2.025,2.015-2.025c1.116,0,2.018,0.915,2.018,2.025C167.734,192.42,150.898,209.259,130.207,209.259z"/>
<path style="fill:#FFF785;" d="M94.7,173.75c-1.113,0-2.018-0.902-2.018-2.018c0-20.691,16.83-37.528,37.521-37.528
	c1.117,0,2.022,0.902,2.022,2.018c0,1.116-0.905,2.025-2.022,2.025c-18.465,0-33.485,15.02-33.485,33.485
	C96.718,172.845,95.813,173.75,94.7,173.75z"/>
<rect x="108.775" y="214.128" style="fill:#FFC640;" width="42.856" height="15.71"/>
<rect x="106.397" y="229.838" style="fill:#3E4959;" width="47.609" height="29.716"/>
<g>
	<rect x="103.936" y="233.142" style="fill:#242D3C;" width="52.535" height="3.297"/>
	<rect x="103.936" y="239.748" style="fill:#242D3C;" width="52.535" height="3.303"/>
	<rect x="103.936" y="246.355" style="fill:#242D3C;" width="52.535" height="3.303"/>
	<rect x="103.936" y="252.961" style="fill:#242D3C;" width="52.535" height="3.303"/>
</g>
<rect x="116.802" y="259.567" style="fill:#CCCBCA;" width="26.816" height="11.878"/>
<g>
	<rect x="122.163" y="175.533" style="fill:#FFFFFF;" width="2.022" height="54.308"/>
	<rect x="136.225" y="175.533" style="fill:#FFFFFF;" width="2.018" height="54.308"/>
	<rect x="113.036" y="173.518" style="fill:#FFFFFF;" width="34.347" height="2.018"/>
</g>
<path style="fill:#E6E5E5;" d="M429.419,340.272c0,1.853-0.704,3.696-2.114,5.103c-1.41,1.414-3.254,2.117-5.1,2.117h-18.769
	v-14.425h18.769c1.846,0,3.69,0.697,5.1,2.111C428.716,336.582,429.419,338.432,429.419,340.272L429.419,340.272z"/>
<circle style="fill:#F2F2F2;" cx="368.805" cy="340.265" r="47.633"/>
<path style="fill:#FF6D3B;" d="M404.886,340.272c0,19.935-16.159,36.091-36.091,36.091c-19.928,0-36.084-16.156-36.084-36.091
	c0-19.922,16.156-36.084,36.084-36.084C388.73,304.187,404.886,320.347,404.886,340.272z"/>
<path style="fill:#E64717;" d="M340.444,348.008c0-19.922,16.153-36.091,36.088-36.091c7.987,0,15.35,2.633,21.329,7.026
	c-6.567-8.929-17.127-14.756-29.065-14.756c-19.928,0-36.084,16.163-36.084,36.084c0,11.948,5.827,22.505,14.762,29.065
	C343.076,363.361,340.444,355.999,340.444,348.008z"/>
<polygon style="fill:#FFFFFF;" points="120.052,387.911 110.242,382.993 110.242,376.683 120.052,371.781 "/>
<rect x="120.039" y="371.778" style="fill:#242D3C;" width="178.44" height="16.13"/>
<rect x="120.039" y="371.778" style="fill:#3E4959;" width="178.44" height="8.063"/>
<polygon style="fill:#242D3C;" points="110.242,382.993 103.936,379.851 110.242,376.683 "/>
<rect x="279.288" y="371.778" style="fill:#FFFFFF;" width="5.698" height="16.13"/>
<g>
</g>
<g>
</g>
<g>
</g>
<g>
</g>
<g>
</g>
<g>
</g>
<g>
</g>
<g>
</g>
<g>
</g>
<g>
</g>
<g>
</g>
<g>
</g>
<g>
</g>
<g>
</g>
<g>
</g>
</svg>
