<svg fill="#BC0000" xmlns="http://www.w3.org/2000/svg" xmlns:xlink="http://www.w3.org/1999/xlink" version="1.1" x="0px" y="0px" viewBox="0 0 100 100" enable-background="new 0 0 100 100" xml:space="preserve"><g><path d="M69.688,46.638c0.077-0.074,0.134-0.161,0.184-0.25c1.303-1.546,1.229-3.866-0.226-5.321c-1.536-1.536-4.036-1.536-5.57,0   l-3.934,3.932l-0.555-0.553c-0.426-0.427-1.118-0.427-1.544,0c-0.428,0.427-0.428,1.119,0,1.546l0.352,0.35   c-0.026,0.021-0.054,0.039-0.078,0.061l-4.887,4.89l-1.629-3.581c0.762-0.848,1.187-1.942,1.187-3.109   c0-1.048-0.343-2.039-0.967-2.845c0.624-0.808,0.967-1.799,0.967-2.847c0-1.049-0.343-2.04-0.967-2.847   c0.624-0.806,0.967-1.797,0.967-2.846c0-0.345-0.038-0.685-0.111-1.016h0.56h3.134c0.329,0,0.639-0.147,0.847-0.4l2.755-3.368   h0.227c1.224,0,2.222-1.127,2.222-2.514s-0.998-2.514-2.222-2.514h-7.803c-0.42-0.913-1.132-2.95-0.626-5.395   c1.689-0.145,3.022-1.564,3.022-3.291c0-1.822-1.481-3.305-3.305-3.305h-6.745c-1.822,0-3.304,1.482-3.304,3.305   c0,1.727,1.332,3.146,3.021,3.291c0.498,2.427-0.214,4.477-0.628,5.395h-7.801c-1.225,0-2.221,1.127-2.221,2.514   s0.996,2.514,2.221,2.514h0.227l2.755,3.367c0.208,0.254,0.518,0.401,0.846,0.401h3.134h0.56c-0.074,0.331-0.111,0.671-0.111,1.016   c0,1.049,0.343,2.04,0.967,2.846c-0.624,0.806-0.967,1.797-0.967,2.847s0.343,2.041,0.967,2.847   c-0.624,0.806-0.967,1.796-0.967,2.845c0,1.167,0.424,2.262,1.187,3.109l-1.52,3.34l-2.341-2.341l0.353-0.353   c0.426-0.427,0.426-1.119,0-1.546c-0.427-0.427-1.12-0.427-1.546,0l-0.353,0.353l-0.533-0.534c-0.427-0.427-1.119-0.427-1.545,0   c-0.427,0.427-0.427,1.119,0,1.546l0.534,0.534l-0.534,0.534c-0.427,0.427-0.427,1.119,0,1.545   c0.213,0.213,0.493,0.319,0.772,0.319c0.28,0,0.561-0.106,0.773-0.319l0.533-0.533l2.919,2.918l-1.435,3.151   c-0.138,0.303-0.13,0.651,0.02,0.947l2.243,4.424v8.31l-9.258,9.236l-1.703-1.702c-0.426-0.427-1.119-0.427-1.545,0   c-0.427,0.426-0.427,1.117,0,1.545l1.701,1.702l-2.84,2.831c-0.427,0.429-0.428,1.119-0.001,1.548   c0.213,0.213,0.493,0.319,0.774,0.319c0.279,0,0.559-0.106,0.772-0.319l2.842-2.835l1.208,1.21   c0.026,0.025,0.055,0.042,0.083,0.064c-0.267,0.545-0.403,0.957-0.403,1.225c0,0.748,1.026,2.554,3.049,5.371   c0.68,0.948,1.249,1.693,1.728,2.279H37.64c-1.567,0-2.842,1.277-2.842,2.844c0,1.567,1.275,2.841,2.842,2.841h21.35   c1.566,0,2.842-1.273,2.842-2.841c0-1.566-1.275-2.844-2.842-2.844h-1.937c0.48-0.586,1.048-1.331,1.729-2.279   c2.022-2.817,3.05-4.623,3.05-5.371c0-0.744-1.027-2.552-3.05-5.37c-3.205-4.465-3.958-4.465-4.456-4.465h-0.867V62.83   L69.688,46.638z M43.719,57.944h9.192l-1.231,2.428H44.95L43.719,57.944z M54.561,53.254l5.305-5.306   c0.022-0.022,0.039-0.05,0.062-0.076l0.303,0.305c0.213,0.213,0.493,0.319,0.773,0.319c0.279,0,0.559-0.106,0.772-0.319   c0.428-0.427,0.428-1.119,0-1.546l-0.087-0.087l3.932-3.932c0.684-0.684,1.796-0.685,2.48,0c0.684,0.684,0.683,1.796-0.001,2.479   c-0.06,0.062-0.11,0.127-0.153,0.198L55.465,57.743l0.238-0.47c0.148-0.296,0.156-0.645,0.02-0.947l-1.335-2.933   C54.449,53.354,54.507,53.307,54.561,53.254z M43.824,14.721c0-0.617,0.501-1.119,1.118-1.119h6.745   c0.617,0,1.119,0.502,1.119,1.119s-0.502,1.119-1.119,1.119h-0.572h-5.6h-0.573C44.326,15.839,43.824,15.337,43.824,14.721z    M46.889,18.025h2.853c-0.355,2.203,0.056,4.108,0.501,5.381h-3.855C46.833,22.133,47.244,20.229,46.889,18.025z M36.292,25.592   h8.409h7.231h8.407c0.034,0.043,0.096,0.151,0.096,0.328s-0.062,0.285-0.096,0.328h-0.685H36.977h-0.685   c-0.035-0.043-0.095-0.152-0.095-0.328C36.197,25.743,36.257,25.635,36.292,25.592z M43.193,30.015h-2.616l-1.294-1.582h18.065   l-1.295,1.582h-2.616h-2.232h-5.778H43.193z M46.812,46.58c-0.625-0.478-0.984-1.198-0.984-1.978c0-0.779,0.359-1.5,0.984-1.977   c0.271-0.206,0.431-0.529,0.431-0.869c0-0.342-0.16-0.664-0.431-0.871c-0.625-0.476-0.984-1.196-0.984-1.976   s0.359-1.501,0.984-1.977c0.271-0.208,0.431-0.529,0.431-0.87c0-0.341-0.16-0.664-0.431-0.87c-0.625-0.476-0.984-1.197-0.984-1.976   c0-0.354,0.081-0.697,0.226-1.016h4.522c0.146,0.318,0.227,0.661,0.227,1.016c0,0.779-0.359,1.5-0.985,1.976   c-0.271,0.208-0.43,0.529-0.43,0.87c0,0.341,0.159,0.662,0.43,0.87c0.625,0.476,0.985,1.197,0.985,1.977s-0.359,1.5-0.985,1.976   c-0.271,0.208-0.43,0.529-0.43,0.871c0,0.34,0.159,0.663,0.43,0.869c0.625,0.477,0.985,1.198,0.985,1.977   c0,0.78-0.359,1.5-0.985,1.978c-0.405,0.309-0.543,0.857-0.332,1.322l3.577,7.857h-9.494l3.577-7.857   C47.356,47.438,47.219,46.888,46.812,46.58z M45.356,62.56h5.28l-5.28,5.267V62.56z M35.458,80.789l7.712-7.693v1.9h-0.867   c-0.498,0-1.251,0-4.457,4.465c-0.59,0.822-1.093,1.556-1.513,2.205L35.458,80.789z M59.646,95.325   c0,0.361-0.295,0.654-0.656,0.654H37.64c-0.362,0-0.656-0.293-0.656-0.654s0.294-0.654,0.656-0.654h4.664h12.022h4.664   C59.352,94.671,59.646,94.964,59.646,95.325z M42.537,92.481c-0.356-0.273-0.962-0.977-1.647-1.856H55.74   c-0.686,0.88-1.291,1.583-1.647,1.856H42.537z M59.607,84.831c-0.258,0.622-1.202,2.103-2.259,3.608H39.28   c-1.057-1.506-2-2.986-2.258-3.608c0.243-0.583,1.097-1.938,2.08-3.351h18.419c0.003,0,0.003-0.001,0.007-0.001   C58.512,82.894,59.365,84.248,59.607,84.831z M55.937,79.295H40.693c0.765-0.998,1.455-1.812,1.844-2.113h1.727h8.103h1.727   C54.481,77.483,55.171,78.297,55.937,79.295z M51.273,74.996h-5.917v-4.082l5.917-5.902V74.996z"/><path d="M45.884,5.466c-0.539,0.927-1.276,2.196-0.168,4.032c0.165,0.271,0.453,0.422,0.75,0.422c0.154,0,0.31-0.04,0.451-0.125   c0.414-0.25,0.547-0.787,0.297-1.2c-0.572-0.95-0.32-1.384,0.183-2.25c0.072-0.125,0.146-0.251,0.217-0.381   c0.95-1.73,0.438-2.896-0.388-4.354c-0.239-0.42-0.772-0.567-1.192-0.329c-0.42,0.238-0.567,0.771-0.33,1.191   c0.742,1.31,0.876,1.741,0.376,2.651C46.016,5.239,45.949,5.354,45.884,5.466z"/><path d="M49.321,6.522c-0.372,0.641-0.933,1.608-0.108,2.976c0.165,0.272,0.453,0.423,0.75,0.423c0.154,0,0.31-0.04,0.451-0.125   c0.414-0.25,0.547-0.787,0.297-1.2c-0.29-0.482-0.194-0.647,0.124-1.195c0.049-0.085,0.099-0.172,0.146-0.26   c0.76-1.38,0.218-2.335-0.259-3.177c-0.237-0.42-0.771-0.568-1.191-0.33c-0.421,0.237-0.568,0.771-0.331,1.191   c0.477,0.842,0.504,1.008,0.248,1.475C49.408,6.375,49.364,6.449,49.321,6.522z"/></g></svg>