<svg fill="#BC0000" xmlns="http://www.w3.org/2000/svg" xmlns:xlink="http://www.w3.org/1999/xlink" version="1.1" x="0px" y="0px" viewBox="0 0 100 100" enable-background="new 0 0 100 100" xml:space="preserve"><g><path d="M85.971,92.516c3.313-3.974,3.113-9.906-0.615-13.637c-3.92-3.917-10.269-3.941-14.222-0.087   c-0.032,0.022-0.067,0.048-0.099,0.079c-1.502,1.501-3.497,2.326-5.621,2.326c-2.121,0-4.115-0.825-5.618-2.326   c-3.099-3.098-3.096-8.141,0-11.236c0.011-0.011,0.015-0.021,0.022-0.029l8.615-8.617c1.914-1.911,2.967-4.454,2.967-7.158   s-1.053-5.246-2.967-7.16c-1.912-1.913-4.453-2.965-7.156-2.965c-2.674,0-5.186,1.031-7.09,2.901l-0.446-0.446   c-0.427-0.426-1.115-0.426-1.539,0c-0.427,0.426-0.427,1.114,0,1.541l0.349,0.349c-0.025,0.021-0.053,0.039-0.074,0.062   l-4.873,4.873l-1.624-3.569c0.759-0.845,1.183-1.936,1.183-3.098c0-1.046-0.342-2.033-0.965-2.836   c0.623-0.806,0.965-1.792,0.965-2.838c0-1.044-0.342-2.033-0.965-2.837c0.623-0.804,0.965-1.792,0.965-2.837   c0-0.342-0.037-0.682-0.111-1.011h0.559h3.124c0.326,0,0.636-0.146,0.844-0.4l2.746-3.356h0.226c1.222,0,2.216-1.123,2.216-2.506   c0-1.381-0.994-2.505-2.216-2.505h-7.78c-0.416-0.91-1.126-2.94-0.623-5.377c1.685-0.144,3.013-1.558,3.013-3.279   c0-1.816-1.478-3.294-3.294-3.294h-6.722c-1.816,0-3.294,1.478-3.294,3.294c0,1.721,1.328,3.135,3.012,3.279   c0.496,2.419-0.213,4.462-0.626,5.377h-7.775c-1.221,0-2.214,1.124-2.214,2.505c0,1.383,0.993,2.506,2.214,2.506h0.226l2.747,3.356   c0.206,0.253,0.516,0.4,0.843,0.4H37.4h0.558c-0.073,0.329-0.11,0.669-0.11,1.011c0,1.047,0.343,2.035,0.964,2.837   c-0.621,0.804-0.964,1.791-0.964,2.837s0.343,2.034,0.964,2.838c-0.621,0.803-0.964,1.79-0.964,2.836   c0,1.162,0.423,2.253,1.183,3.101l-1.515,3.326l-2.333-2.333l0.352-0.352c0.426-0.424,0.426-1.115,0-1.54   c-0.425-0.425-1.115-0.425-1.541,0l-0.351,0.352l-0.532-0.532c-0.425-0.425-1.116-0.425-1.541,0c-0.425,0.425-0.425,1.115,0,1.541   l0.532,0.531l-0.532,0.533c-0.425,0.424-0.425,1.115,0,1.541c0.213,0.212,0.492,0.32,0.77,0.32c0.279,0,0.559-0.107,0.771-0.32   l0.532-0.533l2.91,2.911l-1.431,3.141c-0.137,0.301-0.129,0.648,0.02,0.943l2.235,4.408v13.254h-0.864   c-1.562,0-2.833,1.271-2.833,2.834c0,0.25,0.038,0.492,0.099,0.727c-1.259,0.286-2.204,1.414-2.204,2.76   c0,0.229,0.03,0.45,0.082,0.664c-1.464,0.107-2.624,1.329-2.624,2.82c0,1.49,1.16,2.716,2.624,2.822   c-0.052,0.215-0.082,0.436-0.082,0.664c0,1.346,0.945,2.474,2.204,2.76c-0.062,0.232-0.099,0.475-0.099,0.727   c0,0.227,0.03,0.443,0.08,0.653h-1.895c-1.562,0-2.833,1.271-2.833,2.833c0,1.561,1.271,2.833,2.833,2.833h21.279   c1.562,0,2.832-1.272,2.832-2.833c0-1.562-1.27-2.833-2.832-2.833H51.25c0.05-0.21,0.078-0.429,0.078-0.653   c0-0.252-0.035-0.494-0.098-0.727c1.261-0.286,2.203-1.414,2.203-2.76c0-0.229-0.031-0.449-0.082-0.664   c1.465-0.106,2.623-1.332,2.623-2.822c0-1.491-1.158-2.712-2.623-2.82c0.051-0.214,0.082-0.435,0.082-0.664   c0-1.346-0.942-2.474-2.203-2.76c0.062-0.232,0.098-0.477,0.098-0.727c0-1.562-1.27-2.834-2.832-2.834h-0.865V61.354l2.235-4.408   c0.15-0.295,0.158-0.645,0.021-0.943l-1.331-2.923c0.061-0.04,0.119-0.087,0.172-0.142l5.288-5.287   c0.022-0.023,0.041-0.051,0.061-0.076l0.303,0.303c0.214,0.212,0.49,0.32,0.771,0.32c0.279,0,0.557-0.107,0.771-0.32   c0.425-0.425,0.425-1.116,0-1.541l-0.192-0.192c1.494-1.457,3.457-2.262,5.549-2.262c2.123,0,4.117,0.826,5.619,2.327   s2.328,3.496,2.328,5.619s-0.83,4.118-2.328,5.618l-8.646,8.645c-0.019,0.02-0.03,0.04-0.049,0.061   c-3.894,3.953-3.875,10.33,0.056,14.26c1.912,1.913,4.453,2.967,7.156,2.967c2.664,0,5.165-1.023,7.064-2.88   c0.033-0.026,0.065-0.047,0.097-0.078c3.1-3.099,8.141-3.099,11.239,0c2.877,2.879,3.076,7.431,0.606,10.548l-0.397-0.396   c-0.424-0.426-1.114-0.426-1.539,0c-0.426,0.423-0.426,1.113,0,1.539l0.438,0.438l-3.732,3.735c-0.426,0.426-0.426,1.113,0,1.541   c0.211,0.213,0.49,0.318,0.767,0.318c0.28,0,0.56-0.105,0.771-0.318l3.737-3.735l0.198,0.199c0.213,0.213,0.492,0.317,0.771,0.317   c0.276,0,0.555-0.104,0.769-0.317c0.426-0.427,0.426-1.116,0-1.541L85.971,92.516z M38.029,14.533c0-0.615,0.5-1.114,1.115-1.114   h6.722c0.615,0,1.115,0.5,1.115,1.114c0,0.614-0.5,1.115-1.115,1.115h-0.571h-5.581h-0.57   C38.529,15.647,38.029,15.147,38.029,14.533z M41.083,17.826h2.843c-0.354,2.197,0.056,4.094,0.5,5.363h-3.843   C41.028,21.92,41.438,20.023,41.083,17.826z M30.521,25.369h8.382h7.206h8.379c0.035,0.042,0.096,0.149,0.096,0.325   c0,0.176-0.061,0.285-0.096,0.328h-0.68H31.204h-0.683c-0.034-0.044-0.094-0.151-0.094-0.328   C30.427,25.517,30.486,25.411,30.521,25.369z M37.4,29.777h-2.608L33.503,28.2h18.004l-1.291,1.578H47.61h-2.226h-5.759   L37.4,29.777L37.4,29.777z M41.007,46.285c-0.624-0.474-0.982-1.191-0.982-1.969c0-0.777,0.358-1.496,0.982-1.969   c0.27-0.207,0.43-0.527,0.43-0.867s-0.159-0.662-0.43-0.868c-0.624-0.473-0.982-1.192-0.982-1.97c0-0.777,0.358-1.495,0.982-1.97   c0.271-0.205,0.43-0.526,0.43-0.867c0-0.34-0.16-0.66-0.43-0.867c-0.624-0.475-0.982-1.192-0.982-1.971   c0-0.353,0.081-0.694,0.226-1.011h4.508c0.144,0.317,0.225,0.659,0.225,1.011c0,0.777-0.357,1.496-0.98,1.971   c-0.271,0.207-0.429,0.527-0.429,0.867c0,0.34,0.158,0.662,0.429,0.867c0.624,0.475,0.981,1.194,0.981,1.97   c0,0.777-0.357,1.495-0.981,1.971c-0.271,0.205-0.429,0.527-0.429,0.867c0,0.338,0.158,0.66,0.429,0.866   c0.624,0.474,0.98,1.194,0.98,1.97c0,0.777-0.357,1.495-0.98,1.969c-0.405,0.309-0.542,0.856-0.332,1.32l3.565,7.831h-9.463   l3.565-7.831C41.549,47.141,41.412,46.594,41.007,46.285z M45.858,60.033H39.15l-1.227-2.422h9.162L45.858,60.033z M53.797,94.87   c0,0.36-0.292,0.653-0.652,0.653H31.865c-0.36,0-0.653-0.293-0.653-0.653s0.293-0.651,0.653-0.651h4.648h11.983h4.646   C53.505,94.219,53.797,94.51,53.797,94.87z M36.513,92.037c-0.361,0-0.654-0.292-0.654-0.652c0-0.361,0.293-0.654,0.654-0.654   h11.983c0.36,0,0.653,0.293,0.653,0.654c0,0.36-0.293,0.652-0.653,0.652H36.513z M50.604,88.553h-2.106H36.513h-2.105   c-0.362,0-0.654-0.295-0.654-0.654c0-0.36,0.292-0.654,0.654-0.654h16.195c0.359,0,0.652,0.294,0.652,0.654   C51.256,88.258,50.963,88.553,50.604,88.553z M53.797,84.411c0,0.36-0.292,0.653-0.652,0.653h-2.541H34.408h-2.543   c-0.36,0-0.653-0.293-0.653-0.653c0-0.358,0.293-0.651,0.653-0.651h2.543h16.195h2.541C53.505,83.76,53.797,84.053,53.797,84.411z    M50.604,81.581H34.408c-0.362,0-0.654-0.294-0.654-0.653c0-0.361,0.292-0.654,0.654-0.654h2.105h11.983h2.105   c0.36,0,0.653,0.293,0.653,0.654C51.256,81.287,50.963,81.581,50.604,81.581z M49.15,77.439c0,0.36-0.293,0.654-0.653,0.654H36.513   c-0.361,0-0.654-0.294-0.654-0.654c0-0.359,0.293-0.653,0.654-0.653h1.954h8.076h1.954C48.856,76.786,49.15,77.08,49.15,77.439z    M39.556,74.607V62.212h5.897v12.396H39.556L39.556,74.607z"/><path d="M40.112,5.309c-0.536,0.923-1.271,2.189-0.167,4.019c0.165,0.271,0.452,0.42,0.747,0.42c0.154,0,0.309-0.04,0.45-0.125   c0.412-0.248,0.545-0.785,0.296-1.197c-0.571-0.946-0.319-1.379,0.182-2.242c0.073-0.125,0.146-0.251,0.217-0.38   c0.946-1.725,0.437-2.887-0.387-4.34c-0.237-0.418-0.769-0.565-1.188-0.328c-0.419,0.237-0.566,0.769-0.329,1.187   c0.74,1.305,0.873,1.736,0.375,2.643C40.244,5.082,40.178,5.195,40.112,5.309z"/><path d="M43.539,6.361c-0.369,0.638-0.929,1.604-0.107,2.967c0.164,0.271,0.452,0.42,0.746,0.42c0.155,0,0.309-0.04,0.45-0.125   c0.412-0.248,0.545-0.785,0.296-1.197c-0.29-0.479-0.194-0.646,0.124-1.19c0.048-0.086,0.099-0.171,0.146-0.259   c0.755-1.376,0.217-2.327-0.257-3.167c-0.237-0.418-0.77-0.566-1.188-0.329c-0.419,0.237-0.567,0.769-0.33,1.188   c0.475,0.839,0.502,1.004,0.247,1.47C43.625,6.214,43.582,6.287,43.539,6.361z"/></g></svg>