<svg fill="#BC0000" xmlns="http://www.w3.org/2000/svg" xmlns:xlink="http://www.w3.org/1999/xlink" version="1.1" x="0px" y="0px" viewBox="0 0 100 100" enable-background="new 0 0 100 100" xml:space="preserve"><path d="M81.874,75.218c2.666-3.351,2.454-8.257-0.644-11.354c-3.307-3.305-8.664-3.326-12-0.073  c-0.027,0.022-0.056,0.041-0.08,0.065c-2.467,2.467-6.479,2.467-8.947,0c-1.194-1.195-1.853-2.783-1.853-4.472  c0-1.69,0.658-3.278,1.854-4.475c0.008-0.007,0.012-0.016,0.02-0.023l7.087-7.087c3.331-3.331,3.332-8.75,0.002-12.081  c-1.613-1.614-3.76-2.502-6.042-2.502c-2.184,0-4.237,0.822-5.823,2.306l-0.226-0.223c-0.432-0.434-1.135-0.434-1.568,0  c-0.432,0.432-0.432,1.133,0,1.567l0.133,0.132l-3.524,3.523c-0.467-0.493-1.016-0.914-1.63-1.236v-8.888h5.065  c2.191,0,3.976-1.784,3.976-3.977c0-2.192-1.784-3.977-3.976-3.977h-3.609c-0.061-0.01-0.123-0.019-0.188-0.019h-0.526  c-0.32-0.757-0.777-2.229-0.474-3.963h0.063c0.26,0,0.496-0.094,0.686-0.243c1.039-0.448,1.77-1.482,1.77-2.684  c0-1.611-1.311-2.922-2.922-2.922h-5.531c-1.611,0-2.921,1.311-2.921,2.922c0,1.473,1.096,2.695,2.514,2.893  c0.316,1.75-0.148,3.237-0.469,3.997h-0.03c-0.064,0-0.126,0.009-0.187,0.019h-4.106c-2.193,0-3.977,1.785-3.977,3.977  c0,2.193,1.784,3.977,3.977,3.977h5.064v8.888c-2.035,1.069-3.356,3.205-3.356,5.538c0,2.332,1.321,4.468,3.356,5.539v10.245  c-2.035,1.068-3.356,3.206-3.356,5.538c0,0.697,0.12,1.39,0.351,2.048c-4.151,2.18-6.776,6.47-6.776,11.225  c0,4.341,2.193,8.178,5.529,10.466H37.77c-2.192,0-3.976,1.785-3.976,3.977s1.784,3.978,3.976,3.978h15.932  c2.193,0,3.978-1.786,3.978-3.978s-1.784-3.977-3.978-3.977h-0.816c3.336-2.288,5.531-6.125,5.531-10.466  c0-4.755-2.626-9.046-6.776-11.227c0.229-0.656,0.35-1.349,0.35-2.046c0-2.332-1.321-4.47-3.357-5.538V50.36  c2.036-1.069,3.357-3.205,3.357-5.539c0-0.84-0.175-1.654-0.489-2.404l3.854-3.854l0.094,0.094c0.215,0.215,0.499,0.324,0.781,0.324  c0.284,0,0.568-0.108,0.785-0.324c0.433-0.433,0.433-1.135,0-1.568h-0.001c1.167-1.066,2.665-1.657,4.257-1.657  c1.69,0,3.278,0.658,4.474,1.852c2.467,2.467,2.467,6.479,0,8.947l-7.112,7.111c-0.016,0.017-0.025,0.033-0.04,0.047  c-1.583,1.608-2.458,3.733-2.458,5.992c0,2.282,0.889,4.429,2.501,6.042c1.666,1.666,3.854,2.497,6.041,2.497  c2.154,0,4.305-0.811,5.96-2.424c0.027-0.023,0.056-0.041,0.081-0.065c2.466-2.467,6.479-2.467,8.945,0  c2.232,2.232,2.436,5.729,0.627,8.201l-0.152-0.152c-0.433-0.432-1.136-0.432-1.567,0c-0.432,0.433-0.432,1.135,0,1.566l0.21,0.212  l-2.923,2.922c-0.434,0.435-0.434,1.136,0,1.569c0.217,0.215,0.5,0.323,0.785,0.323c0.282,0,0.565-0.108,0.782-0.323l2.924-2.924  l0.015,0.014c0.216,0.218,0.499,0.325,0.782,0.325c0.285,0,0.567-0.107,0.785-0.325c0.433-0.433,0.433-1.133,0-1.566L81.874,75.218z   M45.047,38.807v-8.404h1.369v8.404H45.047z M42.966,14.827h5.531c0.389,0,0.706,0.317,0.706,0.706c0,0.388-0.317,0.705-0.706,0.705  h-5.531c-0.389,0-0.705-0.317-0.705-0.705C42.261,15.144,42.577,14.827,42.966,14.827z M44.807,18.46h1.849  c-0.208,1.578,0.043,2.957,0.358,3.963H44.45C44.764,21.417,45.015,20.038,44.807,18.46z M36.006,26.419c0-0.97,0.79-1.76,1.76-1.76  h15.931c0.971,0,1.76,0.791,1.76,1.76s-0.789,1.76-1.76,1.76H37.766C36.795,28.179,36.006,27.389,36.006,26.419z M46.416,50.827  v9.172h-1.369v-9.172H46.416z M53.701,92.099c0.97,0,1.76,0.79,1.76,1.76s-0.79,1.76-1.76,1.76H37.77c-0.97,0-1.76-0.79-1.76-1.76  s0.79-1.76,1.76-1.76H53.701z M56.199,79.416c0,5.771-4.697,10.466-10.467,10.466c-5.771,0-10.466-4.694-10.466-10.466  c0-4.102,2.372-7.78,6.072-9.492h8.789C53.826,71.636,56.199,75.314,56.199,79.416z M49.772,66.144c0,0.534-0.112,1.066-0.323,1.562  h-7.435c-0.211-0.496-0.323-1.028-0.323-1.562c0-1.676,1.059-3.197,2.634-3.783c0.096-0.036,0.184-0.086,0.265-0.144h2.284  c0.08,0.058,0.167,0.107,0.264,0.144C48.713,62.946,49.772,64.466,49.772,66.144z M47.138,48.604  c-0.004,0.001-0.008,0.004-0.012,0.005h-2.789c-0.004-0.001-0.008-0.004-0.012-0.005c-1.575-0.587-2.634-2.106-2.634-3.783  s1.059-3.196,2.634-3.782c0.012-0.005,0.021-0.01,0.033-0.016h2.746c0.011,0.005,0.022,0.012,0.034,0.016  c1.576,0.585,2.634,2.105,2.634,3.782S48.713,48.019,47.138,48.604z"/><path d="M46.95,83.905c-3.293,0-5.972-2.68-5.972-5.973c0-0.611-0.496-1.108-1.108-1.108s-1.108,0.497-1.108,1.108  c0,4.517,3.673,8.189,8.189,8.189c0.612,0,1.108-0.496,1.108-1.108C48.059,84.4,47.562,83.905,46.95,83.905z"/><path d="M43.337,5.339c-0.546,0.941-1.293,2.228-0.17,4.089c0.167,0.276,0.46,0.428,0.76,0.428c0.156,0,0.314-0.041,0.458-0.127  c0.418-0.254,0.553-0.798,0.3-1.218C44.104,7.55,44.36,7.108,44.87,6.229c0.074-0.126,0.148-0.255,0.221-0.386  c0.963-1.756,0.443-2.939-0.394-4.416c-0.242-0.427-0.783-0.576-1.209-0.334c-0.426,0.24-0.575,0.782-0.333,1.209  c0.752,1.327,0.888,1.764,0.381,2.688C43.471,5.108,43.404,5.224,43.337,5.339z"/><path d="M46.823,6.409c-0.376,0.65-0.946,1.632-0.109,3.019c0.167,0.276,0.459,0.428,0.76,0.428c0.156,0,0.314-0.041,0.458-0.127  c0.42-0.254,0.554-0.798,0.302-1.217c-0.295-0.489-0.198-0.657,0.125-1.213c0.05-0.086,0.101-0.174,0.15-0.263  c0.769-1.4,0.22-2.369-0.262-3.222c-0.241-0.427-0.783-0.576-1.208-0.336C46.61,3.72,46.46,4.262,46.702,4.688  c0.483,0.854,0.511,1.021,0.251,1.496C46.911,6.26,46.867,6.335,46.823,6.409z"/></svg>