<?xml version="1.0" encoding="iso-8859-1"?>
<!-- Generator: Adobe Illustrator 19.0.0, SVG Export Plug-In . SVG Version: 6.00 Build 0)  -->
<svg fill="#5abbed" xmlns="http://www.w3.org/2000/svg" xmlns:xlink="http://www.w3.org/1999/xlink" version="1.1" id="Layer_1" x="0px" y="0px" viewBox="0 0 512.001 512.001" style="enable-background:new 0 0 512.001 512.001;" xml:space="preserve">
<g>
	<g>
		<path d="M371.049,103.582h-24.513c-9.916-13.912-26.168-23.01-44.515-23.01h-18.775c-0.749,0-1.359-0.609-1.359-1.359    c0-0.939,0.399-1.82,1.069-2.356c17.233-13.802,21.112-37.581,9.436-57.827c-2.965-5.143-7.304-9.435-12.548-12.416    c-15.04-8.551-31.629-8.824-45.513-0.744c-13.245,7.705-21.474,22.003-21.474,37.312c0,13.087,5.846,25.317,16.038,33.555    c0.774,0.626,1.219,1.529,1.219,2.477c0,0.749-0.61,1.359-1.359,1.359h-18.775c-18.348,0-34.599,9.098-44.515,23.01h-24.513    c-30.132,0-54.648,24.515-54.648,54.648v299.123c0,30.132,24.515,54.648,54.648,54.648h199.032c4.765,0,8.629-3.862,8.629-8.629    s-3.863-8.629-8.629-8.629H140.953c-20.617,0-37.39-16.773-37.39-37.39V158.23c0-20.618,16.774-37.39,37.39-37.39h16.315    c-1.253,4.586-1.934,9.404-1.934,14.381c0,20.618,16.774,37.39,37.39,37.39h117.348c4.765,0,8.629-3.862,8.629-8.629    s-3.863-8.629-8.629-8.629H192.724c-11.101,0-20.133-9.032-20.133-20.133c0-20.618,16.774-37.39,37.39-37.39h18.775    c10.265,0,18.616-8.351,18.616-18.617c0-6.185-2.781-11.979-7.628-15.897c-6.119-4.946-9.63-12.285-9.63-20.133    c0-9.187,4.94-17.768,12.893-22.396c8.433-4.904,18.749-4.604,28.306,0.832c2.577,1.463,4.695,3.55,6.127,6.034    c8.587,14.889,3.539,28.679-5.275,35.737c-4.791,3.837-7.538,9.605-7.538,15.825c0,10.265,8.351,18.616,18.616,18.616h18.775    c20.617,0,37.39,16.773,37.39,37.39c0,5.377-2.094,10.434-5.897,14.237c-3.37,3.37-3.369,8.833,0,12.202    c3.371,3.369,8.833,3.37,12.203-0.001c7.062-7.063,10.951-16.452,10.951-26.438c0-4.977-0.681-9.795-1.934-14.381h16.315    c20.617,0,37.39,16.773,37.39,37.39v299.123c0,20.618-16.774,37.39-37.39,37.39c-4.765,0-8.629,3.862-8.629,8.629    s3.863,8.629,8.629,8.629c30.132,0,54.648-24.515,54.648-54.648V158.23C425.696,128.097,401.181,103.582,371.049,103.582z"/>
	</g>
</g>
<g>
	<g>
		<path d="M371.049,138.097c-4.765,0-8.629,3.862-8.629,8.629s3.863,8.629,8.629,8.629c1.585,0,2.876,1.29,2.876,2.876v299.123    c0,1.587-1.291,2.876-2.876,2.876H140.954c-1.585,0-2.876-1.29-2.876-2.876V158.23c0-1.587,1.29-2.876,2.876-2.876    c4.765,0,8.629-3.862,8.629-8.629s-3.863-8.629-8.629-8.629c-11.101,0-20.133,9.032-20.133,20.133v299.123    c0,11.101,9.032,20.133,20.133,20.133h230.095c11.101,0,20.133-9.032,20.133-20.133V158.23    C391.182,147.129,382.15,138.097,371.049,138.097z"/>
	</g>
</g>
<g>
	<g>
		<path d="M348.039,402.706h-14.381v-14.381c0-4.766-3.863-8.629-8.629-8.629s-8.629,3.862-8.629,8.629v14.381H302.02    c-4.765,0-8.629,3.862-8.629,8.629s3.863,8.629,8.629,8.629h14.381v14.381c0,4.765,3.863,8.629,8.629,8.629    s8.629-3.862,8.629-8.629v-14.381h14.381c4.765,0,8.629-3.862,8.629-8.629S352.805,402.706,348.039,402.706z"/>
	</g>
</g>
<g>
	<g>
		<path d="M348.039,189.868H163.964c-4.765,0-8.629,3.862-8.629,8.629s3.863,8.629,8.629,8.629h184.076    c4.765,0,8.629-3.862,8.629-8.629S352.805,189.868,348.039,189.868z"/>
	</g>
</g>
<g>
	<g>
		<path d="M348.039,224.382H163.964c-4.765,0-8.629,3.862-8.629,8.629s3.863,8.629,8.629,8.629h184.076    c4.765,0,8.629-3.862,8.629-8.629S352.805,224.382,348.039,224.382z"/>
	</g>
</g>
<g>
	<g>
		<path d="M348.039,258.896H163.964c-4.765,0-8.629,3.862-8.629,8.629s3.863,8.629,8.629,8.629h184.076    c4.765,0,8.629-3.862,8.629-8.629S352.805,258.896,348.039,258.896z"/>
	</g>
</g>
<g>
	<g>
		<path d="M348.039,293.411H163.964c-4.765,0-8.629,3.862-8.629,8.629s3.863,8.629,8.629,8.629h184.076    c4.765,0,8.629-3.862,8.629-8.629S352.805,293.411,348.039,293.411z"/>
	</g>
</g>
<g>
	<g>
		<path d="M348.039,327.925H163.964c-4.765,0-8.629,3.862-8.629,8.629s3.863,8.629,8.629,8.629h184.076    c4.765,0,8.629-3.862,8.629-8.629S352.805,327.925,348.039,327.925z"/>
	</g>
</g>
<g>
	<g>
		<path d="M256.001,362.439h-92.038c-4.765,0-8.629,3.862-8.629,8.629s3.863,8.629,8.629,8.629h92.038    c4.765,0,8.629-3.862,8.629-8.629S260.767,362.439,256.001,362.439z"/>
	</g>
</g>
<g>
	<g>
		<circle cx="256.005" cy="43.183" r="8.629"/>
	</g>
</g>
<g>
</g>
<g>
</g>
<g>
</g>
<g>
</g>
<g>
</g>
<g>
</g>
<g>
</g>
<g>
</g>
<g>
</g>
<g>
</g>
<g>
</g>
<g>
</g>
<g>
</g>
<g>
</g>
<g>
</g>
</svg>
