<?xml version="1.0" encoding="utf-8"?>
<!-- Generator: Adobe Illustrator 20.1.0, SVG Export Plug-In . SVG Version: 6.00 Build 0)  -->
<svg version="1.1" xmlns="http://www.w3.org/2000/svg" xmlns:xlink="http://www.w3.org/1999/xlink" x="0px" y="0px"
	 viewBox="0 0 70 70" style="enable-background:new 0 0 70 70;" xml:space="preserve">
<style type="text/css">
	.st15{fill:#CCAE93;}
	.st1{opacity:1;}
	.st2{fill:#020203;}
</style>
<circle class="st15" cx="35" cy="35" r="35"/>
<g class="st1">
	<path class="st2" d="M14.8,57.1c3-2.4,3.8-5.6,4.7-8.7c0.2-0.8,0.4-1.7,0.2-2.5c-2.1-7.8,1.6-17.5,9.2-22.5c3.9-1,6.6-4,10.1-5.7
		c0.2-0.1,0.6-0.4,0.7-0.3c1.2,1.1,2.2,0.3,3.3-0.2c1.1-0.4,2.3-0.8,3.4-1.2c0.5-0.2,1-0.3,1.5-0.5c1.7-0.4,1.9-0.3,1.6,1.4
		c-0.1,0.6-0.4,1.2,0,1.8c1.6-0.1,2.8-1.5,4.4-1.8c0,3.2-1.6,6.7-3.5,7.9c0.5-2.1,1.9-3.6,2.1-5.7c-1.5-0.4-2.8,1.5-4.4,0.5
		c-0.2-0.9,0.4-1.8,0-2.9c-2.3,0.3-4.5,1.2-6.7,2.2c-0.5,0.2-0.8,0.6-0.9,1.2c-0.2,1.4-0.7,2.8-0.5,4.4c2.6-0.7,4.8-2.2,7.5-3.8
		c-0.6,2.4-1.3,4.3-1.3,6.4c1.3,0.3,2.1-0.6,3.2-0.9c1.5-0.3,1.7-0.2,1.6,1.3c-0.2,2.7-1,5.3-2.8,7.4c-1.1,1.3-1.2,3-2.1,4.4
		c-2.4,3.7-5.7,6.1-9.5,8.1c-3.5,1.9-7.1,3.1-11.1,2.6c-2.1-0.2-3.4,0.6-4.2,2.5c-0.5,1.3-1.3,2.4-2,3.6
		C17.8,58.3,17.8,58.3,14.8,57.1z M38.3,31.9c-2.9,1.6-6,2.8-8.5,5.1c-0.2,0.2-0.3,0.4-0.5,0.6c-0.4,0.6-0.8,1.5-1.5,1
		c-0.8-0.5,0-1.2,0.2-1.8c0.1-0.4,0.4-0.8,0.5-1.2c1.3-3.1,2-6.4,2-9.8c0-1.8-0.6-2-2-1c-6.7,4.7-9.2,11.4-8.3,19.3
		c0.2,1.8,1.1,3.6,2.9,4.2c1.7,0.6,3.5,0.7,5.4,0.5c4.8-0.6,8.8-3,12.6-5.7c1.9-1.3,3.4-3.1,4.3-5.4c-1.9-0.6-3.5,0.2-5.1,0.8
		c-1.5,0.5-3,1.2-4.5,1.9c-1.5,0.6-2.3,2.4-4.7,2.7C34,39.4,37.2,36.4,38.3,31.9z M39.3,18.9c-2.4,0.8-4.2,2.2-6,3.4
		c-1.4,0.9-2.4,1.9-1.8,3.8c0.2,0.8-0.1,1.7-0.1,2.6c-0.1,2.2-0.8,4.3-1.3,6.8c3.7-2.1,7-4.3,10.7-5.8c-1.1,3.4-2.9,6.4-4.9,9.8
		c2.8-1,5-2.5,7.5-2.5c2.4,0,3.4-1.4,4.5-3.1c0.6-0.9,1.1-1.7,1.4-2.7c0.3-1.1,0.8-2.3,0.3-3.5c-2.5,0.3-4.6,1.1-5.3,3.9
		c-0.2,0.7-0.4,1.7-1.8,1.5c1.6-3.1,3-6.1,2.8-9.7c-1.4,0.7-2.6,1.4-3.9,1.9c-1.6,0.6-2.7,1.4-3.1,3.1c-0.2,0.7-0.5,1.4-1.7,1.2
		C38.1,26,39.4,22.7,39.3,18.9z M17.2,56.7c2.3-1.9,3.1-4.7,4.5-7.2c0.2-0.3-0.2-0.9-0.6-1c-0.6-0.2-0.7,0.3-0.8,0.7
		C19.5,51.7,18.7,54.3,17.2,56.7z"/>
	<path class="st2" d="M55.2,12.1c-0.4,1.6-0.4,2.9-1.6,3.7c-0.8-0.5,0.1-1.2-0.3-1.7c-0.8-0.4-1.3,0.6-2.1,0.4
		c-0.2-0.3-0.1-0.5,0.2-0.7C52.5,13.1,53.6,12.6,55.2,12.1z"/>
	<path class="st2" d="M42.3,21.4c0.8-2,1-2.1,3.8-2.5C44.5,19.9,43.4,20.6,42.3,21.4z"/>
	<path class="st2" d="M48.8,24.1c0.3-1,0.4-1.6,1.1-2c0.1,0.1,0.3,0.2,0.3,0.3C50.1,23.1,49.7,23.6,48.8,24.1z"/>
	<path class="st2" d="M22.9,40.2c-0.8-3.6,0.4-7.3,3-9.6c0.6,0.3,0.2,0.7,0,1c-1.4,2.4-2.6,4.8-2.3,7.7
		C23.7,39.6,23.5,39.9,22.9,40.2z"/>
	<path class="st2" d="M28.9,46.6c3.1-1.2,6.4-2.1,9-4.4C36.7,44.7,32.6,46.7,28.9,46.6z"/>
	<path class="st2" d="M33.4,28.2c-0.4-2.4,1-4.7,3.5-5.9C35.4,24.1,34,25.9,33.4,28.2z"/>
	<path class="st2" d="M47.2,30.8c-0.3,1.5-0.6,3-2.9,3.4C45.5,32.8,46.4,31.8,47.2,30.8z"/>
</g>
</svg>
