<?xml version="1.0" encoding="utf-8"?>
<!-- Generator: Adobe Illustrator 20.1.0, SVG Export Plug-In . SVG Version: 6.00 Build 0)  -->
<svg version="1.1" id="Слой_1" xmlns="http://www.w3.org/2000/svg" xmlns:xlink="http://www.w3.org/1999/xlink" x="0px" y="0px"
	 viewBox="0 0 70 70" style="enable-background:new 0 0 70 70;" xml:space="preserve">
<style type="text/css">
	.st0{opacity:0.7;}
	.st1{fill:#020203;}
</style>
<g class="st0">
	<g>
		<path class="st1" d="M25.7,41.7c1,0.8,0.8,1.9,0.9,3c0.2,2.1,0.3,2.3,2.4,2.3c0.7,0,1.3,0,2,0c0.4-1.2-0.3-2.1-0.4-3.1
			c0-0.5-0.8-1.2,0.3-1.4c0.7-0.1,0.7,0.6,0.7,1.1c0.4,2.4,0.8,4.8,1.2,7.3c0,0.2,0.1,0.3,0,0.5c-0.1,0.2-0.2,0.5-0.5,0.5
			c-0.3,0-0.5-0.1-0.6-0.4c-0.1-0.7-0.2-1.3-0.2-2c-0.1-1-0.5-1.5-1.6-1.6c-3.7-0.1-3.1,0-2.8,2.9c0.1,0.4,0.2,0.8,0.2,1.2
			c0,0.5-0.2,0.9-0.7,0.9c-0.4,0-0.5-0.3-0.5-0.7C26.1,48.8,25.4,45.3,25.7,41.7z"/>
		<path class="st1" d="M41.8,48.5c0,2-1.4,3.5-3.3,3.9c-1.6,0.4-2.5-0.2-3.5-2.2c-0.9-1.8-0.7-3.8-0.8-5.7c0-1.7,2.9-2.8,4.4-1.7
			C40.6,44.4,41.6,46.4,41.8,48.5z M35.5,46.5c0.1,1.2,0,2.4,0.6,3.5c0.5,0.9,0.9,1.8,2.2,1.6c1.1-0.2,2.2-1.2,2.4-2.3
			c0.3-1.4-1.3-4.8-2.5-5.6c-1.2-0.7-2.4-0.3-2.6,1.1C35.5,45.4,35.5,46,35.5,46.5z"/>
		<path class="st1" d="M49.4,45.2c0,1.6-0.9,2.9-2.8,3.6c-1.2,0.4-2,0.8-1.3,2.3c0.2,0.4,0.1,0.9-0.4,1c-0.6,0.1-0.6-0.4-0.7-0.8
			c-0.2-0.8,0-1.8-1.1-2.1c-0.2-0.1-0.5-0.2-0.2-0.5c1.2-1,0.6-2.4,0.5-3.6c-0.2-2.2,0.2-3.2,1.4-3.6c1.3-0.4,3,0.3,3.9,1.8
			C49,43.8,49.3,44.5,49.4,45.2z M44.3,44.5c0.1,0.6,0,1.1,0.1,1.6c0.1,0.7-0.2,1.7,0.8,1.9c0.8,0.2,1.7-0.2,2.3-0.8
			c1-0.9,1-2.5,0-3.7c-0.7-0.8-1.5-1.5-2.6-1.1C43.9,42.8,44.4,43.8,44.3,44.5z"/>
	</g>
	<g>
		<path class="st1" d="M36.2,2.9c0.1-0.3,0.3-0.5,0.6-0.7c-2.2,0.3-4.3,1-6.5,1.3c-1.4,0.2-2.8,0.8-4.2,1c0.2,0.1,0.3,0.2,0.4,0.4
			c0.6-0.1,1.3-0.3,1.9-0.4C31,4,33.6,3.3,36.2,2.9z"/>
		<path class="st1" d="M67.9,62.5c-0.1-0.3-0.5-0.2-0.8-0.3c-0.1-1.3-1.1-2.3-1.4-3.5c-0.2-0.8-0.7-1.6-0.2-2.4
			c0.2-0.3,0.1-0.8,0.1-1.3c0-1.4,0.1-2.8,0.2-4.2c0.3-6.1,0.3-12.2-1.4-18.2c-0.6-2.1-0.9-4.3-1.3-6.4c-0.5-2.6-0.7-5.2-2.3-7.4
			c-0.8-1.1-1-2.5-0.9-3.8c0.2-2.3,0.5-4.6,0.8-6.9c0.3-2.2-0.6-4.1-1.9-5.8c-0.2-0.3-0.5-0.5-0.9-0.6c-3.2-0.5-6.3-1.4-9.6-1.2
			c-1.5,0.1-2.9,0.1-4.4,0.1c-3,0-6,0-9,0.6c-2.7,0.6-5.3,1.3-8,1.9c-0.3,0.1-0.6,0.2-0.7,0.7c1-0.2,1.9-0.4,2.8-0.6
			c2.6-0.4,5.1-1.6,7.7-1.7c6.2-0.3,12.3-0.9,18.5,0.3c1.7,0.3,3.2,0.6,4.1,2.5c0.6,1.3,1,2.5,0.8,3.9c-0.2,1.6-0.7,3.2-0.5,4.9
			c0,0.6-0.2,0.9-0.7,1.3c-2.4,2.1-5.4,3-8.3,3.8c-0.4-0.5-0.1-1.1-0.4-1.5c-0.3,0.2-0.3,0.4-0.3,0.7c0,1.2-0.7,1.8-1.7,2.3
			c-1.2,0.5-2.3,1.2-3.2,2.1c-3.1,2.9-6.8,4.5-10.8,5.4c-0.9,0.2-1.7,0.4-2.7,0.1c-2.9-0.8-6.1-0.6-8.8-2.1
			c-0.2-0.1-0.5-0.1-0.7-0.2c-2.1-0.5-4.3-0.4-6.4,0c-2,0.3-4.1,0-5.9-0.6C8,23.9,6.4,23,5.2,21.7c0,0,0-0.1,0-0.2
			c-0.8-0.3-1.5-0.7-1.1-1.6c0.5-1.2,0-2.2-0.1-3.3c-0.6,0.2-0.1,0.9-0.7,1.1c0-0.9-0.6-1.6-0.2-2.5c0.7-1.5,1-3.2,2-4.6
			C5.3,10,5.6,9.6,6.1,9.4C9.3,8,12.5,6.8,15.9,6c1.7-0.4,3.4-0.8,5.3-0.6c-0.6,0.4-1.2,0.5-1.8,0.7c-0.8,0.2-1.6,0.3-2.4,0.5
			c0.1,0,0.2,0.1,0.3,0.1c0.2,0,0.3,0.1,0.5,0.2c1.8-0.4,3.5-0.8,5.3-1.2c0.2-0.4,0.5-0.8,0.9-1c-0.3,0-0.6-0.1-0.9-0.2
			c-2,0.6-4,0.2-6,0.6c-3.3,0.6-6.3,1.9-9.4,2.9C6,8.4,4.4,9.5,3.8,11.4C3.6,12,3.4,12.8,3,13c-1.4,0.8-0.9,1.9-0.7,3
			c0.1,0.7,0.5,1.5,0.4,2.1c-0.2,1.1,0.4,1.8,0.9,2.7c0.5,0.9,1.2,1.3,2,1.9c0.3,0.3,0.7,0.5,0.5,1c-0.9,2.3-0.6,4.8-0.9,7.2
			c-0.2,2.1-0.4,4.2-0.3,6.2C5.1,40.6,5.1,44,5,47.4c0,0.7-0.1,1.4,0.2,2C6.1,51,6,52.9,6.9,54.5c0.4,0.7,0.4,1.5,0.3,2.3
			c0,1.8-0.6,3.7-0.4,5.5c0.2,1.6-0.3,3-0.9,4.4c-0.3,0.6-0.7,1.2-1.1,1.9c1.7,0.7,3.4,1,5.1,1c3.1,0,6.1,0.1,9.2,0.1
			c7.2-0.1,14.3,0,21.5-0.4c6.7-0.4,13.2-1.8,19.7-3.2c2.5-0.6,4.9-1.5,7.2-2.8C67.7,63,68.1,62.9,67.9,62.5z M65.7,60.7
			c0,0.3-0.2,0.4-0.4,0.5c-0.4,0.2-0.8,0.3-1.1-0.2c-0.2-0.3-0.5-0.7-0.4-1.3c0.5,0,0.9-0.1,1.3,0C65.6,59.8,65.7,60.2,65.7,60.7z
			 M62.9,54.7c-0.1-0.4,1-1,1.5-0.9c0.4,0.1,0.4,0.3,0.4,0.8c-0.1,1-0.7,1.7-1.4,1.6C62.6,56,63,55.2,62.9,54.7z M63.6,48.4
			c0.1,0.5,0.6,0.5,1,0.5c0.9,0.1,0.8,0.9,0.7,1.4c-0.1,0.7-0.8,0.4-1.2,0.4c-0.6,0.1-0.9-0.3-0.8-0.9
			C63.2,49.3,63.2,48.8,63.6,48.4z M63.4,46.7c0-0.6,0.4-0.8,1-0.7c0.6,0.1,0.9,0.3,0.9,0.9c0,0.9-0.3,1.1-1.7,1.3
			C63.3,47.8,63.4,47.3,63.4,46.7z M63.8,51.5c0.5,0,1.2-0.1,1.2,0.8c0.1,0.8-0.7,0.7-1.2,0.8c-0.5,0.1-0.8,0-0.8-0.6
			C63,51.9,63,51.4,63.8,51.5z M63.9,57c1.2-0.1,0.5,1.1,1.3,1.7c-1.8,0.2-2,0.1-2.2-0.8C63,57.2,63.5,57,63.9,57z M65.1,45.3
			c-1.6-0.1-1.7-0.2-1.7-1.3c0-0.6,0.1-0.9,0.8-0.9c0.6,0,1.1,0.1,1.1,0.9C65.3,44.4,65.4,44.8,65.1,45.3z M64.3,42.3
			c-0.7,0-1.1-0.1-1-0.8c0-0.6,0.3-0.7,0.8-0.7c0.5,0.1,1.2,0,1.2,0.8C65.3,42.5,64.6,42.2,64.3,42.3z M65.1,39
			c0,0.5,0.2,1.1-0.6,1.2c-0.8,0.1-1.2-0.2-1.4-1c0-0.2,0-0.4,0-0.5c0-0.5-0.1-0.9-0.1-1.6C64.9,37.5,64.9,37.5,65.1,39z M64.4,34.9
			c0.1,0.5,0.4,1,0.1,1.4c-0.3,0.5-0.9,0.2-1.3,0c-0.7-0.3-0.4-1-0.4-1.6c0-0.5,0.4-0.5,0.9-0.5C64,34.2,64.2,34.5,64.4,34.9z
			 M63.5,31.9c0.1,0.5,0.4,0.9,0.1,1.4c-0.2,0.2-0.4,0.2-0.6,0.1c-0.6-0.2-1.1-1.3-0.9-1.9c0.1-0.3,0.3-0.3,0.6-0.2
			C63.1,31.2,63.5,31.4,63.5,31.9z M63.1,29.8c0,0.3-0.1,0.6-0.5,0.6c-0.6-0.1-0.9-0.5-1-1.1c0-0.2,0-0.5,0.4-0.4
			C62.5,29.1,63.1,29.1,63.1,29.8z M62.6,27.5c0,0.2,0.1,0.5-0.2,0.7c-0.2,0.2-0.5,0-0.7-0.1c-0.9-0.4-0.9-1.2-0.8-2
			C61.7,26.4,62.5,26.5,62.6,27.5z M62.2,25.2c0.1,0.7-0.5,0.5-0.9,0.6c-0.1,0.1-0.2,0.2-0.4,0.3c0,0,0,0,0,0
			c-0.6-0.5-0.4-1.2-0.7-1.8c0.4-0.5,0.8-0.1,1.2,0C62,24.3,62.1,24.8,62.2,25.2z M61.9,22.9c0,0.4-0.1,0.5-0.5,0.6
			c-0.8,0-1.5-0.5-1.6-1.1c-0.1-0.4,0.1-0.6,0.6-0.6C61.3,21.8,61.8,22.2,61.9,22.9z M61,20.9c-1,0.1-1.6,0-1.9-0.9
			c0-0.2,0-0.4,0.2-0.4C60.2,19.6,60.9,19.9,61,20.9z M59.3,18.4c0,0.2-0.1,0.3-0.3,0.3c-0.3-0.1-0.3-0.3-0.3-0.5
			c0-0.2,0-0.4,0.3-0.3C59.2,17.9,59.3,18.1,59.3,18.4z M11.6,25.6c0.9,0.1,1.7,0.2,2.7,0.4c-0.3,0.8-0.8,1.2-1.2,1.6
			c-0.4-0.1-0.4-0.3-0.3-0.6c0.2-0.4,0.5-1-0.4-0.4c-0.4,0.3-0.6-0.2-1-0.3c0,0,0,0,0,0.1c0,0,0,0,0,0C11.5,26,10.7,25.4,11.6,25.6z
			 M11.5,49.2c-0.3-0.2-0.6-0.4-1-0.5c-0.6-0.2-0.8-0.5-0.7-1.1c0.5-1.7,0.3-3.5,0.4-5.3c1.2-0.2,1.6,0.7,2.1,1.3
			c0.3,0.5,0.2,1.2-0.2,1.7c-0.4,0.5-0.9-0.6-1.6,0.1C12,46.4,12.1,47.7,11.5,49.2z M9.5,56c1.4,1.2,0.3,2.3,0.2,3.7
			C9,58.3,9,57.9,9.5,56z M9.5,61.4C9.4,62,9.3,62.6,8.9,63c-0.2-0.1-0.3-0.1-0.4-0.2c-0.3-0.4,0.1-2,0.5-2.1c0,0,0.1,0,0.2,0
			C9.5,60.8,9.5,61.1,9.5,61.4z M9.6,52.2c1.8,0.8,1.8,0.8,1,3.3C9.3,54.5,9.3,54.5,9.6,52.2z M11.5,30.4c0.2,0.5,0.2,0.9,0,1.4
			c-0.5,0.1-0.9-0.1-1.4-0.3c-0.7-0.2-0.8-0.7-0.7-1.3c0-0.4,0.3-0.6,0.6-0.5C10.5,29.9,11.3,29.6,11.5,30.4z M11.5,27
			c0,0.1,0,0.3,0,0.4c0,0,0,0,0,0C11.5,27.3,11.5,27.1,11.5,27z M9.9,49.4c1.6,0.9,1.6,0.9,1.4,2.4C9.5,51.4,9.5,51.4,9.9,49.4z
			 M12.2,42.2c-2.3-0.8-2.5-1.2-1.9-3.7c0.1,0.1,0.1,0.2,0.2,0.3C12.5,39.8,12.5,39.8,12.2,42.2z M10.3,38.5
			C10.3,38.5,10.3,38.5,10.3,38.5c-0.5-1.1-0.5-1.1-0.4-2.8c2.1,0.5,2.3,0.8,2.4,2.7C11.7,38.7,11,37.9,10.3,38.5z M9.7,32.5
			c2,0,2.2,0.4,2.2,2.8C9.7,34.8,9.7,34.8,9.7,32.5z M11.8,27.7c-0.1-0.1-0.2-0.2-0.3-0.3c0.1,0,0.3-0.1,0.4,0.2
			C11.9,27.6,11.9,27.7,11.8,27.7z M10.3,25.5c0-0.1-0.1-0.1-0.1-0.2C10.5,25.3,10.3,25.4,10.3,25.5z M8.8,25.2
			c0.5-0.1,1,0.1,1.4,0.4c-0.2,0.5,0.2,0.8,0.3,1.1c-0.4,0.6-0.9-0.2-1.3,0.1c-0.1,0.2,0,0.4,0.1,0.5c0.4,0.3,0.7,0.6,1.3,0.6
			c0.6,0,0.4,0.6,0.6,0.9c-2,0.3-2,0.3-2.3-1.4C8.7,26.7,8.6,26,8.8,25.2z M6.8,52.4c-0.4-3.1-1-6.3-1.1-9.4
			c-0.1-2.6,0.8-4.9,1.5-7.3c0.1-0.3,0.5-0.6,0.2-1.1c-1,0.9-0.9,2.3-1.5,3.4c-0.6-0.9-0.5-1.4,0.1-4c0.3-1.4,0.8-2.8,1.2-4.2
			c-1,0.3-0.6,1.4-1.4,2.1C5.9,29.6,7,27.9,7.2,26c-0.8-0.1-0.5,0.6-0.9,0.8c-0.1-0.1-0.1-0.2-0.1-0.3c0-0.7,0.1-1.5,0.3-2.2
			c0.1-0.3,0.1-0.6,0.5-0.7c0.4,0,0.7,0.2,0.9,0.5C8,24.4,8,24.6,8,24.9c0.5,3.8,1,7.6,1.2,11.5c0.2,2.6,0.3,5.3,0.2,7.9
			c-0.3,3.7-0.2,7.4-1.1,11.2C7.2,54.6,6.9,53.4,6.8,52.4z M7.4,62.2c0.2-1.1-0.1-2.2,0.6-3.2C8.7,60.2,8,61.2,7.4,62.2z M8,58.9
			c0-0.1,0-0.2,0.1-0.3C8.3,58.8,8.1,58.8,8,58.9z M7,68.3c-0.3,0.3-0.8,0.3-1,0c-0.6-0.7,0.3-0.9,0.5-1.4C7,67.3,7.5,67.7,7,68.3z
			 M7.1,65.5c0.2-0.6,0.2-1.4,0.8-1.8c0.4-0.3,0.8,0.2,0.8,0.7c0,0.8-0.4,1.5-0.8,2.2C7.4,66.4,6.9,66.2,7.1,65.5z M60.8,65.1
			c-0.2-0.8,0.7-1.4,0.4-2c-0.1-0.3-0.2-0.3-0.3-0.1c-0.6,2.1-2.2,2.9-4.3,3.2c-2.4,0.4-4.8,0.8-7.2,1.1l0,0
			c-1.3,0.5-2.6,0.7-3.9,0.7c-0.4-1.2,1.1-1.9,0.7-3.1c-0.4,1-1.5,1.7-1.5,3c0,0.5-0.3,0.4-0.6,0.5c-0.8,0.1-1.6,0.2-2.3-0.1
			c-0.4-1,1-1.6,0.5-2.7c-0.8,0.6-1.1,1.4-1.3,2.2c-0.1,0.5-0.1,0.7-0.7,0.7c-0.2,0-0.5,0-0.7,0c-0.5,0-1.1,0.3-1.5-0.3
			c-0.3-0.5,0.2-0.9,0.4-1.3c0.1-0.2,0.2-0.4,0.1-0.7c-0.7,0-0.9,0.7-1,1c-0.5,1.7-1.8,1.7-3.1,1.6c-0.1,0-0.2,0-0.4-0.1
			c-0.3-0.8,0.9-1.3,0.4-2.4c-0.9,2.2-2.3,3.1-4.5,2.5c-0.2-0.9,1-1.4,0.7-2.5c-0.5,0.7-0.9,1.2-1.2,1.8c-0.4,0.8-0.9,0.9-1.7,0.9
			c-1.7,0-3.4-0.1-5.1-0.3c-0.2-0.9,0.7-1.3,0.5-2.1c-0.6,0-0.6,0.6-0.8,1c-0.6,1.1-1.6,1.4-2.8,1.3c-0.6,0-0.9-0.3-0.6-0.9
			c0.2-0.5,0.6-0.9,0.6-1.5c-0.6,0.3-0.8,0.9-1.1,1.4c-0.5,0.8-1.1,1.2-2.1,1.1c-0.7-0.1-1.3,0.1-2-0.2c-0.2-1,1.1-1.8,0.5-3
			c-0.6,0.4-0.4,1-0.6,1.4c-0.9,1.9-1.9,2.2-3.9,1.1c-0.8,0.2-1.6,0.7-2.4,0.2c0.4-1.9,2.1-3.9,3.8-4.5c0.3,0.5-0.2,0.9,0,1.4
			c0.1-0.1,0.3-0.2,0.4-0.4c0.3-1.2,1-1.6,2.2-1.4c0.2,0,0.3-0.1,0.5-0.1c-1.2-0.9-2.8-0.7-5.7,1.1c0.9-2.9,1-5.6,1.9-8.3
			c0.7,1.8,1.9,3.1,3.3,4.2c1.3,1.1,2.8,2.1,4.7,2.1c-3.4-1.7-6.7-3.5-7.5-7.7c0.8,0,0.7,1.1,1.5,1.1c0.2-0.5-0.3-0.7-0.5-1.1
			c-0.5-1.3-1.3-2.5-0.7-4c0.3-1-0.1-2.1,0.4-3.2c0.7,0.6,1.3,1.1,2,1.6c0.3-0.8-0.3-0.9-0.6-1.2c-0.8-0.8-1.5-1.7-1.1-3
			c0.2-0.4,0.1-1,0.2-1.5c1-0.1,1.3,1.2,2.3,1.2c0.2-0.5-0.3-0.7-0.6-0.9c-2-1.5-2-1.5-1.3-4.1c0.4-0.1,0.5,0.5,0.9,0.5l0.1-0.1
			c-0.9-1.3-1.7-2.7-1.4-4.4c0.7-0.2,0.9,0.9,1.8,0.4c-1.8-1.1-2.9-2.6-2.2-4.8c0.3,0.1,0.5,0.4,0.8,0.3c0.3-0.5-0.2-0.6-0.4-0.8
			c-0.5-0.5-0.9-1-1-1.7c0-0.4,0.1-0.8,0.6-0.7c0.7,0.2,0.9-0.3,1.2-0.8c0.4-0.6,0.9-1.1,1.4-1.7c0.5-0.7,1.1-0.9,2-0.6
			c-0.4,1.2-1.5,2-1.9,3.2c0.9-0.5,1.3-1.4,1.9-2.2c0.7-0.9,1.4-1.4,2.7-1.2c-0.5,1.3-1.5,2.2-2,3.4c1-0.5,1.5-1.5,2-2.3
			c0.9-1.3,1.3-1.3,2.6-0.6c-0.3,1.4-1.8,2-2,3.4c1-0.6,1.5-1.7,2.3-2.5c0.5-0.6,1.9-0.5,2.3,0.1c0.2,0.3,0,0.6-0.1,0.8
			c-0.5,0.8-1.2,1.4-1.5,2.3c0.6,0.4,0.9,0.1,1-0.3c0.2-0.5,0.3-0.9,0.6-1.3c1.3-1.8,1.9-1.9,4-0.8c-0.4,1.4-2.1,2.2-1.8,3.9
			c0.4-1.2,1.4-2.1,2-3.1c0.4-0.7,0.9-0.9,1.7-0.6c0.6,0.3,1.3,0.2,2.1,0.3c-0.2,1.2-1.6,1.9-1.4,3.2c0.6-1,1.3-1.9,2-2.8
			c0.8-1.1,1.9-1.2,3.2-1.3c-0.1,1-1,1.7-1.2,3c0.9-0.7,1-1.5,1.4-2c0.5-0.6,0.7-1.4,1.5-1.7c0.7-0.3,1.3-0.8,2.3-1
			c-0.1,1-1.2,1.6-1.2,2.9c1-0.9,1.3-1.8,1.9-2.6c0.3-0.4,0.4-0.9,0.8-1.2c3.6-3.1,7.4-5.8,12.1-6.9c0.9-0.2,1.9-0.6,2.6-1.2
			c0.3-0.3,0.7-0.6,1.1-0.5c0.3,0,0.7-0.1,0.7,0.3c0.1,0.4-0.3,0.5-0.6,0.5c-0.3,0-0.6,0-0.7,0.4c-0.1,0.5,0,1.1-0.4,1.6
			c-0.3,0.4-0.5,0.8-0.9,1.3c0.9,0.1,0.9-0.8,1.5-1c0.6,0.2,0.4,0.8,0.5,1.3c0.7,2.5,1.4,4.9,2,7.4c1,3.6-0.3,6.7-2.4,9.6
			c-0.5,0.6-1.1,1.2-1.6,1.8c-0.3,0.3-0.5,0.5-0.2,1.1c2.5-2,3.7-4.8,5.1-7.7c0.6,2.2,0.6,2.2-0.4,3.3c0.1,0.6,1.3-0.3,1.1,0.7
			c-0.1,0.6-0.4,1-0.7,1.4c0.2,0.6,1.1-0.1,1.1,0.8c0,0.6,0.3,1.2-0.4,1.6c-0.7,0.4-0.5,0.6,0.1,0.7c0.6,0.1,0.6,0.6,0.6,1
			c0,0.5-0.2,0.8-0.8,0.8c-0.2,0-0.5,0.1-0.7,0.2C61,42.9,61,43.1,61,43.3c0,0.1,0.1,0.2,0.2,0.3c1.5,0.7,1.5,0.7,1.3,2.2
			c-0.6,0.5-1.1-0.4-1.8,0.1c0.6,0.7,2.4,0.5,1.9,2.3c-0.3,1-1.1,0.4-1.6,0.8c1.2,0.9,1.6,1.5,1.3,2.3c-0.1,0.1-0.5,0.1-1.3-0.1
			c0.2,0.7,1,0.9,1.1,1.4c0.1,0.5,0.2,1.1-0.3,1.6c-2.1-2-3.5-4.6-6.2-6c-0.2,0.7,0.3,0.8,0.6,1.1c2.2,1.7,3.8,3.9,5.4,6.2
			c0.4,0.5,0.6,1.1,0.6,1.7c0.2,2.1,1.1,4,1.8,5.9c0.2,0.5,0.5,0.6,0.9,0.6C63.6,64.3,62.3,64.8,60.8,65.1z M65,63.7
			c0-0.2,0-0.3,0-0.5c0.3-1.5,0.4-1.5,1.7-0.7C66.3,63.1,65.7,63.4,65,63.7z M66.8,62.5c0-0.2,0.1-0.3,0.3-0.3
			C67.1,62.4,67,62.5,66.8,62.5z"/>
		<path class="st1" d="M8.8,11.5c1.3-1.9,3.2-3,5.5-3.7C14.5,7.5,14.7,7.2,15,7c-0.9,0.2-1.8,0.5-2.7,0.9C10.4,8.7,9,9.9,8,11.5
			C8.3,11.4,8.5,11.4,8.8,11.5z"/>
		<path class="st1" d="M37.9,16.9c0-0.1-0.1-0.1-0.1-0.2c-0.8,0.2-1.5,0.4-2.3,0.5c-1.7,0.2-3.4,0.7-5.5,0.4
			c1.6-0.5,3.1-0.6,3.3-2.4c0-0.4,0.4-0.4,0.7-0.4c0.7-0.1,1.4-0.3,2.2-0.4c0.7-0.1,1.1-0.5,1.5-1c0.6-0.7,0.5-1.6-0.3-2
			c-2-1.1-4.4-0.7-5.3,1.1c-0.4,0.8-0.9,1-1.7,0.9c-0.4-0.1-0.7-0.1-1.1-0.1c-1.7,0.1-1.7,0.1-2.6-1.3c-0.5-0.8-1.2-0.1-1.8-0.3
			c-0.4-0.1-0.4,0.4-0.3,0.8c-0.6,0.2-0.6,0.9-1,1.4c-0.7-0.9-1.5-0.6-2.3,0c-0.8,0.6-1.5,1.2-2.2,1.9c-0.7,0.8-0.7,1.8,0.2,2.7
			c-3.8-0.6-7.4-1.4-10.7-3.3c-0.2,0.2-0.5,0.3-0.8,0.4c0.7,0.3,1.4,0.6,2.1,1c1.9,1,4,1.2,5.9,2c1.4,0.6,2.8,0.6,4.3,0.4
			c1.4-0.2,2.9-0.5,4.4-0.5c4,0.1,7.9-0.1,11.9-0.9c0.6-0.1,1.3-0.3,1.9-0.5C38.1,17.1,38,17,37.9,16.9z M36.7,11.5
			c0.4,0.1,0.7,0.4,0.7,0.9c0,0.3-0.2,0.6-0.4,0.7c-0.4,0.2-0.7,0-1-0.2c-0.4-0.4-1.1-0.6-1.2-1.4C35.5,11.3,36.1,11.4,36.7,11.5z
			 M33.2,12.1c0.4-0.3,0.7,0,1,0.2c0.4,0.5,1.1,0.7,1.4,1.5c-0.8,0.4-1.5,0.3-2.2,0.3c-0.4,0-0.7-0.2-0.8-0.6
			C32.4,12.9,32.7,12.4,33.2,12.1z M32.2,14.5c0.5,0.3,0.6,0.9,0.2,1.4c-0.5,0.6-1.1,0.1-1.4-0.2c-0.4-0.4-0.6-1-1-1.7
			C30.9,13.9,31.6,14.1,32.2,14.5z M25.9,12.5c0.4,0.2,0.4,0.5,0.5,0.8c0.2,0.5,0,0.9-0.5,0.9c-0.5,0-0.4-0.5-0.4-0.8
			C25.5,13,25.5,12.7,25.9,12.5z M24.6,12.5c0.3,0.5,0.3,1,0.2,1.8C24.2,13.6,24.6,13.1,24.6,12.5z M20.8,17c-0.1,0.5-0.5,0.7-1,0.5
			c-0.5-0.2-0.6-0.6-0.3-1c0.6-0.6,0.7-1.6,1.7-1.7C21.3,15.6,20.9,16.3,20.8,17z M21.2,14.8c0.1-0.2-0.2,0,0-0.1c0,0,0.1,0,0.1,0
			C21.4,14.7,21.3,14.8,21.2,14.8z M22,15c0.1-0.3,0.3-0.7,0.8-0.5c0.4,0.2,0.3,0.6,0.2,1c-0.2,0.6-0.6,1-1.3,1.3
			C21.5,16,21.8,15.5,22,15z M28.5,17.6c-2.3,0.8-4.6-0.2-6.9,0.3c0.9-1,2-1.7,2.2-3.2c1.1,0.7,2,0.4,2.9-0.1c0.1,0.3,0,0.7,0.2,1
			c0.6-0.4,0.7-1.4,1.8-1.1c0.9,0.2,1.3,0.7,1.5,1.6c0,0.2,0.1,0.3,0.1,0.5c-1.5,0.6-2.5,0-3.4-1.1C26.9,16.7,27.3,17.5,28.5,17.6z"
			/>
		<path class="st1" d="M6,13.8c-0.3-0.1-0.6-0.1-0.9-0.1c-0.3,0-0.7,0.1-0.7,0.5c0,0.4,0.3,0.5,0.6,0.4c0.4-0.1,0.7-0.1,0.9,0
			C5.9,14.4,5.9,14.1,6,13.8z"/>
		<path class="st1" d="M52.8,8.1c-0.1,0.1-0.3,0.2-0.4,0.3c-0.1,0.1-0.3,0.3-0.4,0.4c0,0.2-0.1,0.3-0.3,0.4c-1,1.4-2.8,1.9-4,3
			c-0.3,0.3-0.8,0.4-1,0.8c-1.2,1.6-2.9,2.2-4.7,2.5c-0.2,0-0.3,0.1-0.5,0.1c0,0.3-0.2,0.5-0.4,0.7c0.4-0.1,0.9-0.2,1.3-0.3
			c1.8-0.3,3.4-1,4.6-2.5c0.4-0.4,0.9-0.6,1.4-0.9c3.9-2.3,7.1-5.2,9.5-9.3c-2.6,0.5-4.8-0.2-6.9-1.1c-0.5-0.2-1-0.3-1.6-0.4
			c-3.3-0.6-6.6-0.3-9.9,0.1c0.2,0.1,0.4,0.3,0.6,0.5c3-0.3,6-0.4,9,0.2c2.3,0.4,4.6,1.3,6.9,1.9C55.3,6.2,54,7.1,52.8,8.1z"/>
		<path class="st1" d="M12.4,31.6c0,0-0.1,0-0.1,0C12.3,31.6,12.3,31.6,12.4,31.6C12.3,31.5,12.3,31.5,12.4,31.6
			C12.3,31.5,12.3,31.6,12.4,31.6z"/>
		<path class="st1" d="M57.5,9.5c0.3,1.7,0.8,3.4-0.2,5.4c0-1.2,0.3-2.1,0.2-3C57.3,11.1,57.1,10.3,57.5,9.5z"/>
		<path class="st1" d="M7.4,21.9c-0.7-1-0.6-1.9,0.1-3.3C7.5,20,7.2,20.9,7.4,21.9z"/>
		<path class="st1" d="M35.7,22.8c0.6,0.9,0.5,1.6,0.4,2.6C35.4,24.5,35.5,23.8,35.7,22.8z"/>
		<path class="st1" d="M9.7,22.6c-0.8-0.6-0.6-1.3-0.2-2.4C9.8,21.2,9.6,21.9,9.7,22.6z"/>
		<path class="st1" d="M5.2,21.5c-0.7-1.1-0.7-2.3,0-3.5C4.8,19.2,5.4,20.3,5.2,21.5C5.1,21.5,5.2,21.5,5.2,21.5z"/>
		<path class="st1" d="M55.1,12.6c0.8,1,0.3,1.8,0,2.6C55.1,14.4,55.1,13.6,55.1,12.6z"/>
		<path class="st1" d="M27.2,25.2c-0.1-0.8-0.3-1.5-0.4-2.3C27.6,23.6,27.6,24.4,27.2,25.2z"/>
		<path class="st1" d="M32,24.4c0.6,0.5,0.7,1,0.7,1.7C31.8,25.7,32,25.1,32,24.4z"/>
		<path class="st1" d="M29.3,23.5c0.6,0.9,0.8,1.5,0.5,2.2C29.2,25.1,29.4,24.5,29.3,23.5z"/>
		<path class="st1" d="M53,14.6c0.2,0.6,0.2,1.2-0.2,1.9C52.2,15.6,53.1,15.1,53,14.6z"/>
		<path class="st1" d="M39.5,23.5c-0.5-0.5-0.2-1-0.2-1.6C39.6,22.4,39.9,22.9,39.5,23.5z"/>
		<path class="st1" d="M42,20.5c0.2,0.5,0.2,1-0.1,1.5c-0.5-0.1-0.4-0.4-0.4-0.7C41.6,21,41.7,20.7,42,20.5z"/>
		<path class="st1" d="M24.1,22.9c0.6,0.5,0.7,1.2,0.9,2.3C24,24.4,24.1,23.6,24.1,22.9L24.1,22.9z"/>
		<path class="st1" d="M11.8,23.5c-0.4-0.6-0.1-1.1,0-2C12.1,22.4,12,23,11.8,23.5z"/>
		<path class="st1" d="M24.1,22.9c-0.2-0.1-0.2-0.2-0.2-0.4c0,0,0.1,0,0.2,0C24.1,22.6,24.1,22.8,24.1,22.9
			C24.1,22.9,24.1,22.9,24.1,22.9z"/>
		<path class="st1" d="M53.2,42.2c0,1.5,0,2.9,0,4.4c0,1.1-0.2,2.2-0.6,3.2c-0.5,1.3-0.5,2.7-1.1,4c-0.3,0.6-0.7,1-1.2,1.2
			c-1.8,0.8-3.7,1.2-5.6,1.7c-4.3,1-8.6,1.1-12.9,1.3c-3.9,0.2-7.7-0.5-11.4-1.4c-1.1-0.3-1.2-0.6-0.8-1.6c1-2.1,1.3-4.3,1.3-6.6
			c0-3.6,0.1-7.2-0.8-10.8c-0.3-1.3,0-1.6,1.3-1.5c7.7,0.6,15.4,0.4,23-1.1c2-0.4,3.9-0.8,5.9-1.4c1.8-0.6,2.3-0.3,2.7,1.5
			C53.4,37.6,53.3,39.9,53.2,42.2z M20.9,37.1c0,0.2-0.1,0.2-0.1,0.3c0.8,5.9,1.4,11.8-0.5,17.6c-0.3,0.8,0.1,1.2,0.9,1.3
			c3.6,0.4,7.1,1.4,10.7,1.2c1.3-0.1,2.6-0.2,3.8-0.2c4-0.1,7.9-0.8,11.7-1.9c1.1-0.3,2.2-0.8,3.1-1.6c0.4-0.3,0.7-0.6,0.8-1.2
			c0.1-1.2,0.6-2.2,0.9-3.4c0.2-0.9,0.6-1.8,0.5-2.7c-0.2-1.9-0.2-3.8,0-5.7c0.1-1.7-0.1-3.3-0.3-4.9c-0.2-1.4-0.7-1.7-2.1-1.3
			c-2.7,0.7-5.3,1.2-8.1,1.6C35.2,37.4,28.1,37.6,20.9,37.1z"/>
		<path class="st1" d="M57.3,31.2c-0.6-0.6-0.3-1.2-0.4-1.7c-0.1-0.2-0.1-0.5-0.4-0.5c-0.3,0-0.6,0.2-0.6,0.6c0.1,0.7,0.3,1.3,0.1,2
			c-0.7-0.4,0-2.2-1.6-1.6c0-0.6,0.9-0.7,0.6-1.5c-0.7-0.3-1.1,0.6-1.7,0.5c-0.2-0.3,0-0.4,0.2-0.6c1.2-0.9,1.2-0.9,0.8-2.3
			c0-0.1,0.1-0.2,0.2-0.3c0.4,0,0.5,0.3,0.6,0.5c0.1,0.4,0.3,0.7,0.8,0.5c0.4-0.2,0.3-0.6,0.2-1c-0.1-0.2-0.1-0.5-0.2-0.8
			c0.7,0,0.5,1.2,1.3,1c0.5-0.2,0.9-0.7,1.5-0.5c0,0.1,0.1,0.3,0.1,0.3c-1.7,0.6-1.7,1.8-1.3,3.3C57.4,29.7,57.6,30.4,57.3,31.2z
			 M56.4,27.9c0-0.2-0.1-0.3-0.3-0.3c-0.2,0-0.5,0.1-0.5,0.4c0,0.3,0.2,0.4,0.4,0.4C56.3,28.3,56.4,28.1,56.4,27.9z"/>
		<path class="st1" d="M43.3,26.9c0.2-1.4,1.5-2.1,2-3.6C45.3,24.7,44.8,25.4,43.3,26.9L43.3,26.9z"/>
		<path class="st1" d="M55.7,18c0,1.6-1.3,2.4-1.6,3.7C53.9,20.6,54,20.5,55.7,18z"/>
		<path class="st1" d="M47.5,24.9c0.2-1.4,1-2.4,1.7-3.5C49,22.8,48.2,23.9,47.5,24.9z"/>
		<path class="st1" d="M26.1,68.5c0.1-0.9,0.7-1.6,0.9-2.4C27.2,67.2,27.1,68,26.1,68.5z"/>
		<path class="st1" d="M56.3,62.8c-0.1,1.8-0.2,2.2-1.2,3.2C55.3,64.7,55.8,63.8,56.3,62.8z"/>
		<path class="st1" d="M52.2,20.2c-0.3,1.2-0.8,2.3-1.6,3.5C50.7,22.6,51.2,21.4,52.2,20.2z"/>
		<path class="st1" d="M57.6,65.2c0.4-0.9,0.8-1.8,1.2-2.7c0.3,1.2-0.3,2.1-0.8,3C57.9,65.4,57.7,65.3,57.6,65.2z"/>
		<path class="st1" d="M52.1,65.9c-0.1-0.9,0.1-1.7,0.5-2.4C52.9,64.5,52.7,65.3,52.1,65.9z"/>
		<path class="st1" d="M49.5,67.4c-1-1,0.5-1.5,0.5-2.3C50.3,65.9,49.7,66.6,49.5,67.4C49.4,67.4,49.5,67.4,49.5,67.4z"/>
		<path class="st1" d="M12.7,50.9c0.4,0.6,0.8,1.2,1.2,1.9C12.9,52.3,12.9,52.3,12.7,50.9z"/>
		<path class="st1" d="M14.3,40.4c0.5,0.1,0.8,0.5,1.2,1c-0.8,0.1-1.2-0.2-1.3-0.9L14.3,40.4z"/>
		<path class="st1" d="M20.4,29.4c0.1,0.5-0.2,0.9-0.5,1.4C19.6,30.1,20,29.8,20.4,29.4C20.5,29.5,20.4,29.4,20.4,29.4z"/>
		<path class="st1" d="M10.9,67.7c0.2-0.6,0.3-1.1,0.8-1.5C11.6,66.8,11.6,67.4,10.9,67.7z"/>
		<path class="st1" d="M11.6,66.3c0.1-0.3,0-0.7,0.4-0.8C12,65.8,11.9,66.1,11.6,66.3z"/>
		<path class="st1" d="M10.5,68.5c0-0.3,0-0.7,0.4-0.8C10.9,68,10.9,68.3,10.5,68.5z"/>
		<path class="st1" d="M43.2,26.9c0.1,0.2,0.1,0.4-0.1,0.6c0,0-0.1,0-0.1-0.1C42.9,27.1,43,26.9,43.2,26.9
			C43.3,26.9,43.2,26.9,43.2,26.9z"/>
		<path class="st1" d="M19.7,66.6c0-0.1,0-0.2,0.1-0.3c0.1-0.1,0.2,0,0.1,0.1C19.9,66.5,19.8,66.5,19.7,66.6L19.7,66.6z"/>
		<path class="st1" d="M14,14.7c-0.6,0-1.1,0.1-1.7,0.1c-1.4-0.1-2-0.9-1.8-2.2c0.2-1.3,1.7-2.7,3.2-2.9c1.1-0.2,2.3,0.6,2.8,1.8
			c0.2,0.4,0.3,0.7,0.9,0.7c0.9,0.1,1.5,0.5,1.5,1.5c0,1-0.1,2-1.2,2.5c-0.3,0.1-0.6,0.3-0.8,0.3c-1.8,0.6-2.1,0.5-2.8-1.3
			C14.1,15.1,14.1,14.9,14,14.7z M14.3,13.4c1.7-0.9,2-1.4,1.4-2.2c-0.4-0.6-1.2-0.9-1.7-0.6C13.1,11.2,13.2,12,14.3,13.4z
			 M12.7,10.9c-1.2,0.5-1.6,1.3-1.4,2.4c0.1,0.7,0.7,1,1.3,0.8c0.7-0.2,0.9-0.7,0.4-1.3C12.6,12.3,12.8,11.6,12.7,10.9z M16.7,13.1
			c-0.8,0.3-1.3,0.8-1.7,1.3c-0.3,0.4-0.2,1,0.3,1.2c0.4,0.2,0.6-0.2,0.8-0.5C16.3,14.5,16.8,13.9,16.7,13.1z M16.8,15.9
			c0.9-0.3,1.4-0.7,1.4-1.6c0-0.3,0-0.6-0.4-0.7c-0.3-0.1-0.5,0.1-0.6,0.4C17.1,14.5,16.7,15,16.8,15.9z"/>
		<path class="st1" d="M20.1,12.1c-0.9,0-1.7-0.4-2.4-1c-0.7-0.6-0.7-1.9,0-2.6c1.4-1.5,4.8-0.9,5.7,0.9c0.4,0.7,0.2,1.5-0.6,1.9
			C22,11.7,21.1,12,20.1,12.1z M19.4,11.1c0,0.1,0.1,0.2,0.1,0.2c0.1,0,0.2-0.1,0.1-0.1C19.5,11.1,19.4,11.1,19.4,11.1
			c0.1-0.6-0.4-1.1-0.5-1.7c0-0.2-0.2-0.4-0.5-0.4c-0.2,0-0.4,0.3-0.4,0.5C17.7,10.4,18,10.7,19.4,11.1z M20.3,8.2
			c-0.7,0-1,0.3-0.8,0.9c0.2,0.9,1.9,2,2.8,1.9c0.6-0.1,0.9-0.9,0.5-1.4C22.1,8.7,21.1,8.4,20.3,8.2z"/>
		<path class="st1" d="M43.8,13.2c-1.5,0-2-1-1.3-2.4C43,9.8,43.8,9,44.9,8.4c0.7-0.4,1.5-0.6,2-0.1c0.6,0.6,0.8,1.5,0.5,2.4
			C47,12,45.1,13.2,43.8,13.2z M44.6,9.4c-0.8,0.2-1.1,0.8-1.5,1.4c-0.3,0.5-0.6,1.1,0,1.5c0.5,0.3,1.1,0,1.5-0.3
			c0.3-0.2,0.4-0.6,0.2-1C44.6,10.5,44.8,10,44.6,9.4z M46.5,8.8c-0.8,0.8-1.6,1.6-0.5,2.7C47,10.8,47.2,10,46.5,8.8z"/>
		<path class="st1" d="M35.8,5.9c0,1.5-2.4,3.8-3.8,3.6c-0.8-0.1-1.7-1.1-1.5-2c0.4-1.4,1.2-2.7,2.7-3.2C34.4,3.9,35.8,4.8,35.8,5.9
			z M33.1,5c-0.8,0.5-1.4,1-1.7,1.9c-0.1,0.4-0.3,0.8-0.1,1.2c0.2,0.3,0.3,0.5,0.7,0.5c0.4,0,0.6-0.3,0.5-0.6C32.5,7,33,6,33.1,5z
			 M33.5,8.1c0.8-0.3,1.2-1,1.6-1.7c0.2-0.4,0.3-0.9-0.2-1.1c-0.4-0.2-1-0.1-1.2,0.4C33.4,6.5,33,7.2,33.5,8.1z"/>
		<path class="st1" d="M38.2,8c0.1-3.4,3-4.4,5.4-3.8c0.7,0.2,0.9,0.8,0.6,1.4c-0.8,1.4-1.9,2.4-3.6,2.5C39.8,8.2,39,8.1,38.2,8z
			 M40.4,7.4c1.5,0,2.4-0.8,3.1-1.8c0.1-0.2,0.2-0.4,0-0.7c-0.2-0.2-0.5-0.2-0.7-0.1C41.8,5.4,40.8,6,40.4,7.4z M39,6.8
			c1.1-0.3,1.3-0.5,1.9-1.8C39.9,5.2,39.4,5.9,39,6.8z"/>
		<path class="st1" d="M52.4,8.5c-0.1,0.1-0.2,0.3-0.4,0.4c-0.2,0-0.4,0.1-0.4,0.4c-0.4,0-0.7,0-1.1,0c-1.2,0-1.7-0.5-1.6-1.6
			c0.1-1.1,0.5-2,1.3-2.8c1-1,2.3-0.5,2.7,0.8c0.3,0.9-0.1,1.7-0.1,2.5C52.7,8.3,52.6,8.4,52.4,8.5z M52.4,6.4
			c0-0.7-0.2-1.1-0.5-1.1c-0.4,0-1,0.7-1,1.2c0.1,0.5,0.4,0.8,0.9,0.8C52.5,7.4,52.4,6.8,52.4,6.4z M50,6.6
			c-0.5,0.6-0.7,1.1-0.2,1.6c0.5,0.5,1,0.4,1.5-0.2C50.8,7.7,50.3,7.2,50,6.6z"/>
		<path class="st1" d="M27.1,6.7c0.6-0.2,1.2-1.1,2-0.5c0.8,0.6,0.3,1.5,0.2,2.2c-0.1,0.7-0.5,1.4-1.1,1.9c-0.5,0.4-1.1,0.6-1.7,0.3
			c-0.6-0.2-0.9-0.7-0.9-1.4c0-0.8,0.1-1.6,0.8-2.1l0,0c0.1-0.1,0.3-0.2,0.4,0l0,0C26.8,6.9,27,6.8,27.1,6.7L27.1,6.7z M26.9,8.4
			c0.5-0.2,1-0.3,1.5-0.5c0.4-0.2,0.5-0.5,0.3-0.9c-0.2-0.3-0.5-0.3-0.8-0.1C27.4,7.2,26.8,7.6,26.9,8.4c-0.2,0-0.3-0.4-0.5,0
			C26.6,8.4,26.7,8.4,26.9,8.4z M28.6,8.6c-1.1-0.2-1.8,0.2-2.2,1c-0.1,0.2,0.1,0.4,0.2,0.4C27.7,10.2,28.2,9.6,28.6,8.6z"/>
		<path class="st1" d="M26.3,7.1c0-0.2,0.1-0.4,0.4-0.4l0,0c0,0.1,0,0.3,0,0.4c0,0,0,0,0,0C26.6,7.1,26.5,7.1,26.3,7.1L26.3,7.1z"/>
		<path class="st1" d="M26.7,6.7c0-0.1,0-0.3,0.2-0.3c0.1,0,0.1,0.2,0.2,0.3l0,0C27,6.7,26.8,6.7,26.7,6.7L26.7,6.7z"/>
		<path class="st1" d="M6.3,43.4c0.3-1.8,0.7-3.6,1.9-5.5c0.2,1-0.3,1.4-0.5,1.9c-0.2,0.6-0.4,1.3-0.6,1.9c-0.2,0.6-0.3,1.2-0.5,1.7
			C6.6,43.4,6.4,43.4,6.3,43.4z"/>
		<path class="st1" d="M6.9,46.7c-0.3-1.6,0.5-3,0.8-4.4c0.5,0.2,0.4,0.4,0.4,0.6C7.7,44.1,7.3,45.4,6.9,46.7z"/>
		<path class="st1" d="M8.7,46c-0.5,1.2-1,2.3-1.4,3.5c-0.1-1.4,0.4-2.5,1.1-3.7C8.4,46,8.5,46,8.7,46z"/>
		<path class="st1" d="M22.9,55c0.5-0.6,0.9-0.4,1.3-0.4c4.2,0.9,8.5,0.6,12.8,0.1c1.6-0.2,3.2-0.3,4.7-0.4c2.3-0.2,4.4-1,6.6-1.5
			c0.3-0.1,0.6-0.3,0.8,0.1c0.1,0.4-0.2,0.5-0.5,0.6c-2.7,0.6-5.4,1.4-8.3,1.6c-2.2,0.1-4.4,0.4-6.6,0.6
			C30.2,56.1,26.6,55.8,22.9,55z"/>
		<path class="st1" d="M22.4,38.9c0.9,0.1,1.9,0,2.8,0.2c3.2,0.7,6.3,0.1,9.5,0c4.2-0.1,8.2-1.4,12.3-1.8c0.8-0.1,1.6-0.1,2.3-0.7
			c0.2-0.2,0.6-0.3,0.7,0.1c0.1,0.3-0.1,0.6-0.5,0.7c-0.7,0.2-1.4,0.4-2.1,0.4c-2.6,0.1-5.2,0.9-7.8,1.3c-2.2,0.3-4.4,0.4-6.6,0.6
			c-0.6,0.1-1.2,0.1-1.8,0.2c-2.8,0.4-5.5-0.1-8.2-0.4c-0.2,0-0.4-0.2-0.6-0.3C22.4,39.2,22.4,39.1,22.4,38.9z"/>
		<path class="st1" d="M42.4,14.5c0,1.5-2.4,3.8-3.8,3.6c-0.8-0.1-1.7-1.1-1.5-2c0.4-1.4,1.2-2.7,2.7-3.2
			C41,12.6,42.3,13.4,42.4,14.5z M39.6,13.7c-0.8,0.5-1.4,1-1.7,1.9c-0.1,0.4-0.3,0.8-0.1,1.2c0.2,0.3,0.3,0.5,0.7,0.5
			c0.4,0,0.6-0.3,0.5-0.6C39,15.6,39.5,14.7,39.6,13.7z M40.1,16.8c0.8-0.3,1.2-1,1.6-1.7c0.2-0.4,0.3-0.9-0.2-1.1
			c-0.4-0.2-1-0.1-1.2,0.4C39.9,15.2,39.6,15.9,40.1,16.8z"/>
		<path class="st1" d="M41.4,8.3c0.9,1.2,0.1,4.4-1.2,5.1c-0.8,0.4-2.1,0-2.3-0.8c-0.4-1.4-0.5-2.9,0.5-4.2
			C39.2,7.5,40.8,7.4,41.4,8.3z M38.7,9.2c-0.4,0.9-0.6,1.6-0.4,2.5c0.1,0.4,0.2,0.8,0.6,1c0.3,0.1,0.6,0.2,0.8,0
			c0.3-0.2,0.3-0.5,0.1-0.8C39.3,11.1,39.1,10.1,38.7,9.2z M40.8,11.5c0.5-0.7,0.5-1.5,0.4-2.3c0-0.4-0.2-0.9-0.8-0.8
			c-0.5,0.1-0.9,0.5-0.8,1C39.8,10.2,39.9,11,40.8,11.5z"/>
		<path class="st1" d="M32.7,10.2c0,1.5-2.4,3.8-3.8,3.6c-0.8-0.1-1.7-1.1-1.5-2c0.4-1.4,1.2-2.7,2.7-3.2
			C31.3,8.3,32.6,9.1,32.7,10.2z M29.9,9.4c-0.8,0.5-1.4,1-1.7,1.9c-0.1,0.4-0.3,0.8-0.1,1.2c0.2,0.3,0.3,0.5,0.7,0.5
			c0.4,0,0.6-0.3,0.5-0.6C29.3,11.3,29.8,10.4,29.9,9.4z M30.3,12.5c0.8-0.3,1.2-1,1.6-1.7c0.2-0.4,0.3-0.9-0.2-1.1
			c-0.4-0.2-1-0.1-1.2,0.4C30.2,10.9,29.9,11.6,30.3,12.5z"/>
		<path class="st1" d="M49.6,4.3c0,1.5-2.4,3.8-3.8,3.6c-0.8-0.1-1.7-1.1-1.5-2c0.4-1.4,1.2-2.7,2.7-3.2C48.2,2.3,49.5,3.2,49.6,4.3
			z M46.9,3.5c-0.8,0.5-1.4,1-1.7,1.9c-0.1,0.4-0.3,0.8-0.1,1.2C45.3,6.8,45.4,7,45.8,7c0.4,0,0.6-0.3,0.5-0.6
			C46.3,5.4,46.7,4.5,46.9,3.5z M47.3,6.5c0.8-0.3,1.2-1,1.6-1.7c0.2-0.4,0.3-0.9-0.2-1.1c-0.4-0.2-1-0.1-1.2,0.4
			C47.2,4.9,46.8,5.6,47.3,6.5z"/>
		<path class="st1" d="M27.2,5.5c0,1.5-2.4,3.8-3.8,3.6c-0.8-0.1-1.7-1.1-1.5-2c0.4-1.4,1.2-2.7,2.7-3.2C25.8,3.5,27.1,4.4,27.2,5.5
			z M24.4,4.6c-0.8,0.5-1.4,1-1.7,1.9c-0.1,0.4-0.3,0.8-0.1,1.2C22.9,8,23,8.2,23.4,8.2c0.4,0,0.6-0.3,0.5-0.6
			C23.8,6.6,24.3,5.6,24.4,4.6z M24.9,7.7c0.8-0.3,1.2-1,1.6-1.7c0.2-0.4,0.3-0.9-0.2-1.1c-0.4-0.2-1-0.1-1.2,0.4
			C24.7,6.1,24.4,6.8,24.9,7.7z"/>
		<path class="st1" d="M10.8,12.6c0,1.5-2.4,3.8-3.8,3.6c-0.8-0.1-1.7-1.1-1.5-2C6,12.8,6.7,11.5,8.2,11
			C9.4,10.7,10.8,11.5,10.8,12.6z M8.1,11.8c-0.8,0.5-1.4,1-1.7,1.9c-0.1,0.4-0.3,0.8-0.1,1.2c0.2,0.3,0.3,0.5,0.7,0.5
			c0.4,0,0.6-0.3,0.5-0.6C7.5,13.7,8,12.8,8.1,11.8z M8.5,14.9c0.8-0.3,1.2-1,1.6-1.7c0.2-0.4,0.3-0.9-0.2-1.1
			c-0.4-0.2-1-0.1-1.2,0.4C8.4,13.3,8,14,8.5,14.9z"/>
		<path class="st1" d="M18.6,7.6c0,1.5-2.4,3.8-3.8,3.6c-0.8-0.1-1.7-1.1-1.5-2C13.8,7.8,14.5,6.5,16,6C17.2,5.6,18.6,6.5,18.6,7.6z
			 M15.9,6.8c-0.8,0.5-1.4,1-1.7,1.9c-0.1,0.4-0.3,0.8-0.1,1.2c0.2,0.3,0.3,0.5,0.7,0.5c0.4,0,0.6-0.3,0.5-0.6
			C15.3,8.7,15.8,7.8,15.9,6.8z M16.3,9.8c0.8-0.3,1.2-1,1.6-1.7c0.2-0.4,0.3-0.9-0.2-1.1c-0.4-0.2-1-0.1-1.2,0.4
			C16.2,8.2,15.8,8.9,16.3,9.8z"/>
		<path class="st1" d="M40.3,2.8c0,1.5-2.4,3.8-3.8,3.6c-0.8-0.1-1.7-1.1-1.5-2c0.4-1.4,1.2-2.7,2.7-3.2C38.9,0.9,40.2,1.7,40.3,2.8
			z M37.6,2c-0.8,0.5-1.4,1-1.7,1.9c-0.1,0.4-0.3,0.8-0.1,1.2c0.2,0.3,0.3,0.5,0.7,0.5c0.4,0,0.6-0.3,0.5-0.6C37,3.9,37.4,3,37.6,2z
			 M38,5.1c0.8-0.3,1.2-1,1.6-1.7c0.2-0.4,0.3-0.9-0.2-1.1c-0.4-0.2-1-0.1-1.2,0.4C37.9,3.5,37.5,4.2,38,5.1z"/>
		<path class="st1" d="M46.7,5.2c-1,1-4.4,0.8-5.2-0.4C41,4.1,41.2,2.8,42,2.4c1.3-0.6,2.8-1,4.2-0.2C47.2,2.8,47.5,4.4,46.7,5.2z
			 M45.5,2.6c-0.9-0.2-1.7-0.4-2.5,0c-0.4,0.2-0.8,0.3-0.9,0.8C42,3.7,41.9,4,42.2,4.2c0.3,0.3,0.6,0.2,0.8,0
			C43.7,3.5,44.7,3.2,45.5,2.6z M43.5,5c0.8,0.4,1.5,0.2,2.3,0c0.4-0.1,0.9-0.4,0.7-0.9c-0.2-0.4-0.6-0.8-1.1-0.6
			C44.6,3.8,43.8,4.1,43.5,5z"/>
		<path class="st1" d="M23.1,11.8c0,1.5-2.4,3.8-3.8,3.6c-0.8-0.1-1.7-1.1-1.5-2c0.4-1.4,1.2-2.7,2.7-3.2
			C21.7,9.9,23.1,10.8,23.1,11.8z M20.4,11c-0.8,0.5-1.4,1-1.7,1.9c-0.1,0.4-0.3,0.8-0.1,1.2c0.2,0.3,0.3,0.5,0.7,0.5
			c0.4,0,0.6-0.3,0.5-0.6C19.8,12.9,20.3,12,20.4,11z M20.8,14.1c0.8-0.3,1.2-1,1.6-1.7c0.2-0.4,0.3-0.9-0.2-1.1
			c-0.4-0.2-1-0.1-1.2,0.4C20.7,12.5,20.3,13.2,20.8,14.1z"/>
		<path class="st1" d="M38.6,8.3c0,1.5-2.4,3.8-3.8,3.6c-0.8-0.1-1.7-1.1-1.5-2c0.4-1.4,1.2-2.7,2.7-3.2C37.2,6.4,38.5,7.2,38.6,8.3
			z M35.8,7.5c-0.8,0.5-1.4,1-1.7,1.9c-0.1,0.4-0.3,0.8-0.1,1.2c0.2,0.3,0.3,0.5,0.7,0.5c0.4,0,0.6-0.3,0.5-0.6
			C35.2,9.4,35.7,8.5,35.8,7.5z M36.3,10.6c0.8-0.3,1.2-1,1.6-1.7C38,8.5,38.1,8,37.7,7.8c-0.4-0.2-1-0.1-1.2,0.4
			C36.1,9,35.8,9.7,36.3,10.6z"/>
	</g>
</g>
</svg>
