<?xml version="1.0" encoding="utf-8"?>
<!-- Generator: Adobe Illustrator 19.0.1, SVG Export Plug-In . SVG Version: 6.00 Build 0)  -->
<svg version="1.1" id="Layer_1" xmlns="http://www.w3.org/2000/svg" xmlns:xlink="http://www.w3.org/1999/xlink" x="0px" y="0px"
	 viewBox="-49 141 512 512" style="enable-background:new -49 141 512 512;" xml:space="preserve">
<style type="text/css">
	.st0{fill:#BBBABA;}
</style>
<g transform="translate(1 1)">
	<g>
		<g>
			<path class="st0" d="M232.5,325.4c-53.8,0-97.1,43.3-97.1,97.1s43.3,97.1,97.1,97.1s97.1-43.3,97.1-97.1S286.3,325.4,232.5,325.4
				z M232.5,501.9c-44.1,0-79.4-35.3-79.4-79.4s35.3-79.4,79.4-79.4s79.4,35.3,79.4,79.4S276.6,501.9,232.5,501.9z"/>
			<path class="st0" d="M232.5,378.3c-24.7,0-44.1,19.4-44.1,44.1s19.4,44.1,44.1,44.1s44.1-19.4,44.1-44.1S257.2,378.3,232.5,378.3
				z M232.5,449c-15,0-26.5-11.5-26.5-26.5s11.5-26.5,26.5-26.5s26.5,11.5,26.5,26.5S247.5,449,232.5,449z"/>
			<path class="st0" d="M232.5,546.1c-5.3,0-8.8,3.5-8.8,8.8s3.5,8.8,8.8,8.8s8.8-3.5,8.8-8.8C241.3,549.6,237.8,546.1,232.5,546.1z
				"/>
			<path class="st0" d="M232.5,590.2c-5.3,0-8.8,3.5-8.8,8.8s3.5,8.8,8.8,8.8s8.8-3.5,8.8-8.8C241.3,593.7,237.8,590.2,232.5,590.2z
				"/>
			<path class="st0" d="M232.5,298.9c5.3,0,8.8-3.5,8.8-8.8s-3.5-8.8-8.8-8.8s-8.8,3.5-8.8,8.8S227.2,298.9,232.5,298.9z"/>
			<path class="st0" d="M289.8,200l3.6-3.6c1.8-1.8,2.6-3.5,2.6-6.2s-0.9-4.4-2.6-6.2c-8.8-8.8-18.4-16.3-28.8-22.6
				c-0.8-0.7-1.8-1.2-2.7-1.6c-10.2-5.9-21-10.5-32.3-13.8c-1.8-1.3-3.9-1.9-6-1.6c-11.7-2.9-23.9-4.5-36.2-4.5
				c-39.7,0-77.7,15.9-105.9,44.1l-87.4,87.4C-34.1,299.8-50,337.7-50,377.5s15.9,77.7,44.1,105.9c1.8,1.8,3.5,2.6,6.2,2.6
				c1.8,0,4.4-0.9,6.2-2.6l3.6-3.6C36.2,580.2,126.8,652,232.5,652C358.7,652,462,548.7,462,422.5C462,316.8,390.2,226.2,289.8,200z
				 M-14.7,443.7l33.6-33.6c3.5-3.5,3.5-8.8,0-12.4s-8.8-3.5-12.4,0l-29.3,29.3c-3-7.5-5.4-15.3-7-23.3c0.6,0.1,1.2,0.2,1.8,0.2
				c1.8,0,4.4-0.9,6.2-2.6l60-60c3.5-3.5,3.5-8.8,0-12.4s-8.8-3.5-12.4,0L-32,386.8c-0.2-3.1-0.3-6.2-0.3-9.4
				c0-35.3,14.1-68.9,38.8-93.6l87.4-87.4c24.7-24.7,58.3-38.8,93.6-38.8c6.4,0,12.8,0.5,19,1.3l-62.2,62.2c-3.5,3.5-3.5,8.8,0,12.4
				c1.8,1.8,3.5,2.6,6.2,2.6c1.8,0,4.4-0.9,6.2-2.6l70.1-70.1c6.1,1.9,12,4.2,17.8,6.9L206,208.9c-3.5,3.5-3.5,8.8,0,12.4
				c1.8,1.8,3.5,2.6,6.2,2.6s4.4-0.9,6.2-2.6l41.9-41.9c5,3.3,9.9,7,14.6,11l-8.8,8.8L9.1,456c-0.7,0.5-1.3,1.1-1.7,1.7l-7.1,7.1
				C-5.4,458.2-10.4,451.1-14.7,443.7z M232.5,634.3c-100.6,0-187.1-70.6-207.4-169.5L274.9,215c98.9,20.3,169.5,106.8,169.5,207.4
				C444.3,539,349,634.3,232.5,634.3z"/>
			<path class="st0" d="M409,413.7c-5.3,0-8.8,3.5-8.8,8.8s3.5,8.8,8.8,8.8s8.8-3.5,8.8-8.8S414.3,413.7,409,413.7z"/>
			<path class="st0" d="M364.9,413.7c-5.3,0-8.8,3.5-8.8,8.8s3.5,8.8,8.8,8.8s8.8-3.5,8.8-8.8C373.7,417.2,370.2,413.7,364.9,413.7z
				"/>
			<path class="st0" d="M132.7,509.9c-3.5,3.5-3.5,8.8,0,12.4s8.8,3.5,12.4,0s3.5-8.8,0-12.4C141.6,506.3,136.3,506.3,132.7,509.9z"
				/>
			<path class="st0" d="M101.8,540.8c-3.5,3.5-3.5,8.8,0,12.4s8.8,3.5,12.4,0c3.5-3.5,3.5-8.8,0-12.4
				C110.7,537.2,104.5,537.2,101.8,540.8z"/>
			<path class="st0" d="M363.1,304.2c3.5-3.5,3.5-8.8,0-12.4c-2.6-3.5-8.8-3.5-12.4,0s-3.5,8.8,0,12.4S359.6,307.7,363.1,304.2z"/>
			<path class="st0" d="M319.9,322.7c-3.5,3.5-3.5,8.8,0,12.4c3.5,3.5,8.8,3.5,12.4,0s3.5-8.8,0-12.4
				C328.7,319.2,323.4,319.2,319.9,322.7z"/>
			<path class="st0" d="M350.8,540.8c-3.5,3.5-3.5,8.8,0,12.4s8.8,3.5,12.4,0c3.5-2.6,3.5-8.8,0-12.4S354.3,537.2,350.8,540.8z"/>
			<path class="st0" d="M319.9,509.9c-3.5,3.5-3.5,8.8,0,12.4s8.8,3.5,12.4,0s3.5-8.8,0-12.4C328.7,506.3,323.4,506.3,319.9,509.9z"
				/>
		</g>
	</g>
</g>
</svg>
