<?xml version="1.0" encoding="utf-8"?>
<!-- Generator: Adobe Illustrator 19.0.1, SVG Export Plug-In . SVG Version: 6.00 Build 0)  -->
<svg version="1.1" id="Layer_1" xmlns="http://www.w3.org/2000/svg" xmlns:xlink="http://www.w3.org/1999/xlink" x="0px" y="0px"
	 viewBox="0 0 612 792" style="enable-background:new 0 0 612 792;" xml:space="preserve">
<style type="text/css">
	.st0{fill:#FECD39;}
</style>
<g transform="translate(1 1)">
	<g>
		<g>
			<path class="st0" d="M528.5,221.9h-61.1c-6.1,0-10.2,4.1-10.2,10.2s4.1,10.2,10.2,10.2h61.1c6.1,0,10.2-4.1,10.2-10.2
				S534.6,221.9,528.5,221.9z"/>
			<path class="st0" d="M528.5,262.6h-61.1c-6.1,0-10.2,4.1-10.2,10.2s4.1,10.2,10.2,10.2h61.1c6.1,0,10.2-4.1,10.2-10.2
				S534.6,262.6,528.5,262.6z"/>
			<path class="st0" d="M600.8,302.3l-10.2-90.6c-1-17.3-14.3-30.5-31.6-30.5H253.6c0-6.1-4.1-10.2-10.2-10.2h-40.7
				c-6.1,0-10.2,4.1-10.2,10.2v30.5h-40.7c-22.4,0-40.7,18.3-40.7,40.7v10.2H9.2c-6.1,0-10.2,4.1-10.2,10.2S3.1,283,9.2,283H111
				v10.2c0,22.4,18.3,40.7,40.7,40.7h40.7V394H172c-4.1,0-7.1,2-9.2,5.1c-1,3.1-2,7.1,0,10.2l19.3,38.7v137.5l-9.2,18.3
				c-2,3.1-2,7.1,0,10.2s6.1,5.1,9.2,5.1h81.5c4.1,0,8.1-2,9.2-5.1c1-3.1,2-7.1,0-10.2l-9.2-18.3V448l19.3-38.7c2-3.1,2-7.1,0-10.2
				s-6.1-5.1-9.2-5.1h-20.4v-41.5c11,12.1,25.8,21,42.8,25.2c50.5,11.9,102.8,12.2,153.4,1l17.7,60.1c2,4.1,6.1,7.1,10.2,7.1H498
				v70.3c0,11.2-4.1,21.4-12.2,29.5l-4.1,4.1c-9.2,9.2-14.3,21.4-14.3,34.6v6.1c0,15.3,13.2,28.5,28.5,28.5h83.5
				c17.3,0,30.5-13.2,30.5-30.5l1-133.4L600.8,302.3z M151.7,313.5c-11.2,0-20.4-9.2-20.4-20.4v-40.7c0-11.2,9.2-20.4,20.4-20.4
				h40.7v81.5H151.7L151.7,313.5z M244.4,592.6l3.1,6.1h-48.9l3.1-6.1c1-1,1-2,1-4.1V445.9c0-2,0-3.1-1-4.1l-13.2-26.5h14.3h40.7
				h14.3l-13.2,26.5c-1,1-1,2-1,4.1v142.6C243.4,590.5,244.4,591.5,244.4,592.6z M233.2,394h-20.4v-70.3V221.9v-30.5h19.3v105.9
				c0,4.4,0.4,8.7,1,12.9L233.2,394L233.2,394z M485.7,425.5l-15.2-51.7l27.4-6.4v58L485.7,425.5L485.7,425.5z M579.4,598.7h-83.5
				c-4.1,0-8.1-4.1-8.1-8.1v-6.1c0-8.1,3.1-15.3,8.1-20.4l4.1-4.1c11.2-11.2,18.3-27.5,18.3-43.8V354.3c0-3.1-2-6.1-4.1-8.1
				c-0.8-0.4-1.7-0.8-2.5-1.2c-1.9-1.2-4.3-1.6-6.6-0.9l-50.9,12.2c-0.1,0-0.1,0.1-0.2,0.1l-3.9,0.9c-48.9,11.2-99.8,11.2-148.7,0
				c-28.5-6.1-47.9-31.6-47.9-60.1v-95.7H559c5.1,0,10.2,5.1,10.2,11.2v1l10.2,90.6L589.6,456v40.7h-30.5c-6.1,0-10.2,4.1-10.2,10.2
				c0,6.1,4.1,10.2,10.2,10.2h30.5v20.4h-30.5c-6.1,0-10.2,4.1-10.2,10.2s4.1,10.2,10.2,10.2h30.5v30.5
				C589.6,594.6,585.5,598.7,579.4,598.7z"/>
			<path class="st0" d="M294.3,221.9c-6.1,0-10.2,4.1-10.2,10.2v81.5c0,6.1,4.1,10.2,10.2,10.2h81.5c6.1,0,10.2-4.1,10.2-10.2
				C386,267.7,340.1,221.9,294.3,221.9z M304.5,303.4v-60.1c27.5,5.1,55,32.6,60.1,60.1H304.5z"/>
		</g>
	</g>
</g>
</svg>
