<?xml version="1.0" encoding="utf-8"?>
<!-- Generator: Adobe Illustrator 20.1.0, SVG Export Plug-In . SVG Version: 6.00 Build 0)  -->
<svg version="1.1" id="Слой_1" xmlns="http://www.w3.org/2000/svg" xmlns:xlink="http://www.w3.org/1999/xlink" x="0px" y="0px"
	 viewBox="0 0 346 358" style="enable-background:new 0 0 346 358;" xml:space="preserve">
<style type="text/css">
	.st0{opacity:0.8;}
	.st1{fill:#85C27A;}
</style>
<g class="st0">
	<path class="st1" d="M153.9,16.9c0.8-0.1,1.4-0.3,0.5-0.4c-0.3,0.4-1.6,0.1-2.3,0.2C152.1,17,153.1,17,153.9,16.9z"/>
	<path class="st1" d="M223,27.9c-0.7-0.2-2.1-1-2.5-0.8C221.2,27.3,222.5,28.1,223,27.9z"/>
	<path class="st1" d="M96.8,47.2c-0.8,0.4-1.4,1.3-0.5,0.7C96.2,47.8,97.2,47.3,96.8,47.2z"/>
	<path class="st1" d="M218.6,33.1c0.5,0.2,0.9,0.5,1.2,0.4C219.4,33.3,219,33,218.6,33.1z"/>
	<path class="st1" d="M162.4,32c-1.2,0.3-1.6,0-2,0.5c0.8-0.1,0.9,0,1.7-0.1C162,32.3,162.2,32.2,162.4,32z"/>
	<path class="st1" d="M163.6,32.2c0.7-0.1,2.1,0.2,2.5-0.2C165.3,31.9,163.9,31.7,163.6,32.2z"/>
	<path class="st1" d="M213.1,38.8c-0.5-0.1-0.5-0.3-1.2-0.4C211.3,38.5,213.3,39.1,213.1,38.8z"/>
	<path class="st1" d="M190.5,35.4c-0.2-0.1-1.9-0.5-2-0.2C188.7,35.3,190.4,35.7,190.5,35.4z"/>
	<path class="st1" d="M172.9,35.7c-0.2,0.4-0.9-0.1-1.6,0.1C171.1,36.3,174.4,36,172.9,35.7z"/>
	<path class="st1" d="M187.7,36.7c0.6,0,2.1,0.3,2,0C189.1,36.8,187.6,36.5,187.7,36.7z"/>
	<path class="st1" d="M202.7,39.1c-0.4-0.2-1.4-0.8-1.9-0.6C201.5,38.6,202,39.3,202.7,39.1z"/>
	<path class="st1" d="M257,64.6c1.1,0.8,2.4,1.7,3.3,2.3l0,0c0,0,0.1,0.1,0.1,0.1l0.1,0l0.3,0.2l0,0c1.4,0.9,2.8,2.1,4.1,3.3
		l0.8,0.7c0.1,0.1,0.3,0.2,0.4,0.2c0,0,0-0.2-0.2-0.3l-0.8-0.7c-1.4-1.3-2.9-2.6-4.5-3.6l0.1,0c-2.2-2-3.4-3-5.4-4.1
		C255.1,63.1,256,63.8,257,64.6z"/>
	<path class="st1" d="M133.8,47.5c0.7-0.3,0.9-0.1,1.5-0.4C135.8,46.6,133.6,47.3,133.8,47.5z"/>
	<path class="st1" d="M183.4,43.4c-0.6,0.3,1.6,0.4,1.5,0.2C184.4,43.5,184.2,43.3,183.4,43.4z"/>
	<path class="st1" d="M171.5,47.2c-0.3-0.1-1,0.1-1.1,0.2C170.1,47.6,171.7,47.3,171.5,47.2z"/>
	<path class="st1" d="M166.5,50.1C164.1,50.1,165.7,50.5,166.5,50.1L166.5,50.1z"/>
	<path class="st1" d="M89,247.1c0.1-0.1,0.4,0.4,0.6,0.3C89.2,246.8,88.4,246.4,89,247.1z"/>
	<path class="st1" d="M182.4,59C184.4,59.5,184,58.6,182.4,59L182.4,59z"/>
	<path class="st1" d="M72.1,129.6C72.6,130.1,72.7,128.3,72.1,129.6L72.1,129.6z"/>
	<path class="st1" d="M156.1,62.9C154.7,62.7,155.5,63.4,156.1,62.9L156.1,62.9z"/>
	<path class="st1" d="M70.2,134C70.6,133.4,70.4,133.2,70.2,134L70.2,134z"/>
	<path class="st1" d="M248.5,74C248.5,74,248.5,74,248.5,74C248.5,73.9,248.5,74,248.5,74z"/>
	<path class="st1" d="M232.2,59.5c0,0,0,0,0.1,0C232.1,59.4,232.1,59.4,232.2,59.5z"/>
	<path class="st1" d="M72.4,130.7c0,0.3,0.3,0.3,0.3,0.1C72.9,130.4,72.5,129.9,72.4,130.7z"/>
	<path class="st1" d="M214.6,69.8c0.1-0.2,0.8,0.2,0.7-0.1C214.7,69.3,214.1,69.6,214.6,69.8z"/>
	<path class="st1" d="M30.6,107.1c0.9-1.5,1.8-3,2.2-2.4c1.7-3.9,3.7-7,5.9-10.4c0.9-2.6,2.9-4.7,4.5-6.9c0.9-1.3,1.7-2.8,2.7-4.2
		c0.3-0.4,0.9-1,1.3-1.4c2.3-2.9,4.8-6,6.2-7.9l-0.1,0c0.3-0.3,0.5-0.6,0.8-0.9c0.4-0.4,0.9-0.9,1.3-1.4c0.3-0.3,0.5-0.7,0.8-1
		c0.2-0.3,0.5-0.5,0.7-0.8c0.2-0.2,0.4-0.5,0.6-0.7l0,0c1-1.1,1.8-1.7,2.9-2.9l0-0.1c0.6-0.5,1.2-1.1,1.9-1.7c0.5-0.5,0.9-1,1.4-1.5
		l0,0c1.7-1.6,3.6-3.2,5.4-4.8c1.8-1.6,3.5-3.1,4.7-4.4c2.8-1.8,4.9-3.8,8.4-6.3c-0.8,0.1-0.9,0-1.3-0.1c-1.9,1.6-3.9,2.7-5.6,4
		c-1.5,1.2-3.1,3-4.2,3.5c1.2-1.4,3.5-3.3,4.1-4.3l-0.1,0l2.6-2c1.5-1.2,2.9-2.2,4.5-3.2l0.1,0l0,0.1c1.7-1.3,3.3-2.1,4.8-2.9
		c1.5-0.8,2.9-1.7,4.4-3.1l0.4-0.2c0,0,0.1-0.1,0.1-0.1l0,0c0.1,0.1,1-0.3,1.9-0.9c0.9-0.5,1.7-1.1,1.6-1.3c0.4-0.2,0.8-0.5,1.2-0.7
		l1-0.6c0.3-0.2,0.6-0.4,0.5-0.5c-0.1-0.1-0.5,0-0.8,0.2l-0.9,0.5c-0.5,0.3-1.1,0.7-1.7,1l0,0c-0.8,0.2-3,1.6-3.5,2.2l-0.4,0.3l0,0
		c-1.7,0.8-3.1,1.7-4.5,2.6c-1.4,0.9-2.8,2-4.5,3.1l0.1,0c-1.6,1-3.1,2.1-4.5,3.2l-2.8,2.1c-0.1,0.1-0.1,0.1-0.2,0.2
		c-3.1,2.3-6.7,5.4-10.1,8.7c-3.4,3.2-6.5,6.6-8.9,9c-1.5,1.6-3.2,3.7-4.5,5.3c-0.6,0.7-1.3,1.2-1.9,2.1c-1.7,2.1-2.9,4.6-4.6,5.9
		c-1.5,2.4-2.6,4.1-3.8,5.8c-1.2,1.7-2.5,3.3-4.1,5.8c-1.1,2.3-2.5,4.6-3.8,7.1c-1.4,2.4-2.8,5-4.1,7.7c0.2,0.5-0.2,1.8-0.2,1.9
		C28.9,110.1,29.7,108.6,30.6,107.1z"/>
	<path class="st1" d="M235.5,40.6c-1-0.3-1.5-1.2-2.3-1.1C234.2,39.8,234.8,40.7,235.5,40.6z"/>
	<path class="st1" d="M196.1,34.7C193.7,34.1,195,34.9,196.1,34.7L196.1,34.7z"/>
	<path class="st1" d="M169.7,35.9C168.6,36.1,171.8,35.7,169.7,35.9L169.7,35.9z"/>
	<path class="st1" d="M122.3,51.9c0,0,0.1-0.1,0.2-0.2C122.3,51.8,122.3,51.8,122.3,51.9z"/>
	<path class="st1" d="M241.6,59.9c-0.7-0.3-0.6-0.5-0.9-0.8C240.3,59.2,241.4,60.1,241.6,59.9z"/>
	<path class="st1" d="M249.4,64.7c0.2,0.4,1.4,0.9,0.7,0.3c-0.1,0.1-0.1,0.1-0.4-0.1C249.8,64.8,248.8,64.3,249.4,64.7z"/>
	<path class="st1" d="M254,68.2c-0.2-0.1-0.4-0.2-0.1,0.1c0.2-0.1,0.8,0.2,1.2,0.3c-1.1-0.6-1.3-1-1.9-1.2
		C253.5,67.6,253.8,67.9,254,68.2z"/>
	<path class="st1" d="M205,51c0.5,0.1,1,0.7,1.4,0.4C205.9,51.3,205.1,50.7,205,51z"/>
	<path class="st1" d="M177.3,61.3c-0.8,0.2-1.1-0.5-1.3-0.1C176.4,61.2,177,61.7,177.3,61.3z"/>
	<path class="st1" d="M79.1,118.2c0,0,0.1,0,0.1,0C78.8,119.9,79.7,117.3,79.1,118.2z"/>
	<path class="st1" d="M179.6,61.4c-0.7-0.2-1.3,0.1-2-0.3C177.7,61.5,179.3,61.9,179.6,61.4z"/>
	<path class="st1" d="M13,163.7c0-0.3,0-0.7,0-1c0-0.4,0-0.9,0.1-1.3c0-0.2,0-0.4-0.1-0.4c-0.1,0-0.1,0.1-0.1,0.3
		c-0.1,0.6-0.1,1.1-0.1,1.5c0,0.3,0,0.6,0,0.9c0,0.2,0,0.4,0.1,0.4C13,164.1,13,164,13,163.7L13,163.7z"/>
	<path class="st1" d="M15.8,144c0.1-0.3,0-0.5,0-0.6c-0.1,0-0.1-0.1-0.2-0.2c-0.1-0.1-0.2,0-0.2,0.3c-0.1,0.3-0.1,0.6,0,0.7
		c0.1,0.1,0.1,0.2,0.2,0.3C15.6,144.5,15.7,144.3,15.8,144L15.8,144z"/>
	<path class="st1" d="M121.9,24.4c0,0.1,0.4,0,0.7-0.1l0,0c2.4-0.9,5-1.7,7.5-2.4c2.4-0.7,4.9-1.3,7.4-2l3.7-1
		c0.3-0.1,0.6-0.2,0.5-0.3c-0.1-0.1-0.4-0.1-0.8,0c-3.5,0.9-7.3,1.8-10.9,2.9c-2.5,0.7-5.1,1.5-7.7,2.4
		C122.1,24.1,121.9,24.3,121.9,24.4z"/>
	<path class="st1" d="M145.1,18.2c0.2,0,0.4,0,0.5-0.1l0.5-0.1l0.4-0.1c0.2,0,0.3-0.1,0.3-0.1c0,0-0.2-0.1-0.4,0l-0.5,0.1
		c-0.3,0.1-0.6,0.1-0.8,0.1c-0.2,0-0.3,0.1-0.4,0.1C144.8,18.1,144.9,18.2,145.1,18.2z"/>
	<path class="st1" d="M160.9,16c0.3,0,0.7,0,1,0c0.5-0.1,1-0.1,1.5-0.2c0.7-0.1,1.2-0.2,1.7-0.2l-0.1,0c-0.1,0.4,2.5,0.4,2.7,0
		c2.4-0.1,4.9-0.2,7.2-0.2c2,0,4,0,6.1,0.1l0,0c0.4,0,0.6-0.1,0.6-0.2c0-0.1-0.3-0.2-0.7-0.2c-2-0.1-4.1-0.1-6-0.1
		c-2.6,0-5.2,0.1-7.8,0.2l0-0.1l-1.8,0.1l0,0c-0.9,0-1.7,0.1-2.4,0.2c-0.6,0.1-1.2,0.2-1.8,0.2c-0.2,0-0.5,0-0.6,0.1
		C160.6,15.9,160.7,16,160.9,16z"/>
	<path class="st1" d="M184.4,15.6c3.5,0.2,7,0.5,10.4,1c4.2,0.5,8.5,1.3,12.8,2.1l0,0c0.4,0.1,0.7,0.1,0.7,0c0-0.1-0.3-0.3-0.7-0.3
		c-4.2-0.8-8.5-1.6-12.7-2.1c-3.4-0.5-7-0.8-10.5-1c-0.4,0-0.7,0-0.8,0.2C183.7,15.5,184,15.6,184.4,15.6z"/>
	<path class="st1" d="M211.2,19.6l0.4,0.1c0.8,0.2,1.7,0.4,2.3,0.7c0.1,0,0.2,0.1,0.2,0.1c0.1,0,0.2,0,0.3,0c0.1,0,0.1-0.1,0-0.2
		c-0.8-0.4-1.8-0.6-2.7-0.8l-0.4-0.1c-0.2-0.1-0.4,0-0.4,0C210.8,19.4,211,19.5,211.2,19.6z"/>
	<path class="st1" d="M153,20.7c0.3,0,0.6,0,0.9-0.1l-0.1,0c1,0,2.1-0.1,3.2-0.1c0.6-0.3,2.1-0.5,3-0.7c0,0.2,1.3,0,1.3-0.1l-0.1,0
		c0.4-0.1,0.7-0.2,1-0.2l0,0c1.7,0,4.3,0.2,6.2-0.2c0.5,0,1,0,1.4,0l1.1-0.1c0.3,0,0.6,0,0.9,0c0.4,0,0.8-0.1,0.8-0.2
		c0-0.1-0.4-0.2-0.8-0.2l0,0c-0.4,0-0.7,0-1.1,0.1c-0.6,0-1.3,0.1-1.9,0.1c-0.2-0.1-0.4-0.3-1.4-0.3c-0.9,0-2.2,0.1-3.4,0.2
		c-1.2,0.1-2.3,0.3-2.7,0.4c-0.2,0.1-0.4,0.1-0.6,0.2l0,0l-0.4,0c-1.8-0.2-3.9,0.5-6.2,0.9l0.1,0c-0.4,0-0.7,0-1.1,0.1
		c-0.2,0-0.4,0.1-0.4,0.1C152.6,20.7,152.8,20.7,153,20.7z"/>
	<path class="st1" d="M176.3,18.9c-0.2,0-0.4,0-0.4,0.1c0,0.1,0.1,0.1,0.3,0.1c0.1,0,0.2,0,0.3,0c0.3,0,0.6,0,0.9,0
		c0.5,0,0.9,0,1.3,0c0.2,0,0.4,0,0.5,0c0.1,0,0.1-0.1-0.1-0.1c-0.6-0.1-1.3-0.1-1.9-0.1C176.9,18.9,176.6,19,176.3,18.9z"/>
	<path class="st1" d="M183.4,19.1l-1.3,0c-0.2,0-0.3,0-0.3,0.1c0,0,0.1,0.1,0.3,0.1l1.3,0c0.2,0,0.3,0,0.3-0.1
		C183.7,19.1,183.6,19.1,183.4,19.1z"/>
	<path class="st1" d="M235.4,33.1c3.3,1.7,6.7,3.4,10,5.2c2.8,1.5,5.7,3.2,8.3,5c0,0,0.1,0.1,0.1,0.1c0.2,0.1,0.4,0.2,0.5,0.2
		c0.1,0,0-0.2-0.3-0.4c-2.7-1.9-5.6-3.6-8.5-5.1c-3.2-1.7-6.6-3.4-9.8-5.1c-0.3-0.1-0.6-0.2-0.7-0.2C235,32.8,235.1,33,235.4,33.1z"
		/>
	<path class="st1" d="M150,34c0-0.1-0.4-0.1-0.7,0l-0.6,0.1c-1.1,0.2-2.2,0.5-3.2,0.6c-0.3,0-0.7,0.2-0.7,0.3
		c-0.1,0.1,0.1,0.2,0.4,0.1c0.7-0.1,1.5-0.2,2.2-0.4l1.4-0.3l0.6-0.1C149.8,34.3,150,34.1,150,34z"/>
	<path class="st1" d="M172.5,31.7c-0.1-0.1-0.3-0.1-0.5-0.1c-0.4,0.1-0.8,0-1.3,0c-0.5,0-1,0-1.5,0c-0.2,0-0.4,0.1-0.3,0.2
		c0.1,0.1,0.3,0.1,0.5,0.1c0.4,0,0.8,0,1.2,0c0.3,0,0.7,0,1.1,0c0.2,0,0.4,0,0.7-0.1C172.4,31.8,172.6,31.7,172.5,31.7z"/>
	<path class="st1" d="M200.3,34.4C200.3,34.4,200.3,34.4,200.3,34.4c0.2,0,0.3,0,0.3,0l0.1,0c0.4,0,0.8,0.1,1.1,0.1l0,0
		c1.1,0.4,2.8,0.6,3.6,0.7l0,0c0.2,0,0.3,0.1,0.5,0.1c0.3,0.1,0.6,0.2,0.9,0.2c0.4,0.1,0.8,0.1,1.2,0.1c0.2,0,0.1-0.1,0-0.2
		c-0.2-0.1-0.4-0.1-0.6-0.1c-0.3,0-0.6,0-1.2-0.2c-0.2-0.1-0.5-0.1-0.7-0.2c-0.6-0.3-1.8-0.6-3.2-0.8c0.1,0.2-0.4,0.2-0.7,0.2
		c-0.3,0-0.6-0.1-1-0.1l-0.2,0l-0.2,0.1C200.1,34.3,200.1,34.3,200.3,34.4z"/>
	<path class="st1" d="M145.5,39.2c0.5-0.1,1-0.2,1.5-0.3c0.5-0.1,1-0.2,1.5-0.4c0.7-0.2,1.4-0.3,2.1-0.4c0.2,0,0.4-0.1,0.4-0.2
		c0-0.1-0.2-0.1-0.4-0.1c-0.8,0.1-1.5,0.3-2.2,0.5c-1,0.2-1.9,0.5-2.8,0.6c-0.2,0-0.5,0.1-0.5,0.2C145.1,39.2,145.2,39.2,145.5,39.2
		z"/>
	<path class="st1" d="M157,37.2c0.1,0.1,0.4,0.1,0.7,0.1c1.7-0.3,3.6-0.5,5.4-0.6l1.2-0.1l0.1,0c0.3,0,0.5-0.1,0.5-0.2
		c0-0.1-0.2-0.2-0.6-0.1l-1.2,0.1c-1.9,0.1-3.8,0.3-5.7,0.7C157.1,37,156.9,37.1,157,37.2z"/>
	<path class="st1" d="M166.9,36.1c0.2,0.1,0.6,0.1,1,0.1c0,0,0.1,0,0.1,0c0.1,0,0.2,0,0.3-0.1c0-0.1-0.1-0.1-0.2-0.1
		c-0.3,0-0.5,0-0.7,0c-0.1,0-0.3,0-0.4,0C166.8,36,166.8,36.1,166.9,36.1z"/>
	<path class="st1" d="M191.1,37c0,0.1,0.2,0.1,0.4,0.1c0,0,0.1,0,0.1,0c1.8,0.1,3.8,0.4,5.8,0.7l1.2,0.2c0.2,0,0.4,0,0.5-0.1
		c0-0.1-0.2-0.2-0.4-0.2l-1.2-0.2c-2-0.3-4.1-0.6-6-0.7C191.2,36.9,191,36.9,191.1,37z"/>
	<path class="st1" d="M230.7,49.3L230.7,49.3c2.9,1.5,6,3,9,4.6c1.8,0.9,3.6,1.9,5.3,2.9c2.4,1.4,4.9,2.9,7.2,4.4
		c0.2,0.1,0.4,0.2,0.4,0.1c0-0.1-0.1-0.2-0.3-0.4c-2.3-1.6-4.8-3.1-7.3-4.4c-4.6-2.6-9.6-5-14.1-7.3c-1-1-1.5-1.3-3.8-2
		C226.6,47.7,228.7,48.5,230.7,49.3z"/>
	<path class="st1" d="M267.7,72.9c1.3,1.3,2.6,2.6,4,3.8c1.5,1.4,2.8,2.7,3.9,4.2c0,0,0.1,0.1,0.1,0.1c0.1,0.2,0.3,0.3,0.4,0.3
		c0.1,0,0.1-0.2-0.1-0.4c-1.2-1.6-2.7-3.1-4.2-4.5c-1.3-1.3-2.6-2.4-3.7-3.6c-0.2-0.2-0.4-0.4-0.5-0.3
		C267.4,72.5,267.5,72.7,267.7,72.9z"/>
	<path class="st1" d="M197.9,42.9l0.2,0.1l0.2,0.1c0.3,0.1,0.8,0.2,1.3,0.3c0.4,0.1,0.8,0.1,1,0c0.1,0,0-0.1-0.2-0.2
		c-0.2-0.1-0.4-0.1-0.5,0c-0.2,0.1-1-0.1-1.4-0.3l-0.1,0c0-0.1-0.2-0.1-0.4-0.1c-0.2,0-0.3,0-0.3,0.1L197.9,42.9z"/>
	<path class="st1" d="M182.4,61.8l0.9,0c0,0-0.1,0.1-0.1,0.1c0,0.1,0.1,0.1,0.3,0.2l0.1,0c0.2,0,0.3,0,0.3-0.1c0,0,0,0,0-0.1
		c1.4,0.4,3.4,0.7,5.4,1c2,0.3,4.1,0.6,5.8,0.9l0,0l0.3,0.1l0,0c0,0.6,1.6,0.4,2.2,0.5c1,0.2,2.5,1,2.9,0.6l0,0c1.5,0.6,3,1,4.5,1.4
		c1.2,0.3,2.3,0.7,3.4,1.1c0,0,0.1,0,0.1,0c0.1,0,0.3,0,0.3,0c0.1-0.1,0-0.1-0.2-0.2c-1.1-0.5-2.3-0.8-3.5-1.2
		c-1.5-0.4-2.9-0.8-4.2-1.3l0,0l0,0l-0.3-0.1c-0.1,0-0.2-0.1-0.3-0.1c-1.5-0.5-3.3-1.2-4.8-1.1l-0.1,0c-1.7-0.7-3.9-0.8-6.4-1.2
		c-1.1-0.2-2.4-0.5-3.6-0.7c-1.1-0.2-2.1-0.2-2.3,0.1l-0.8,0c-0.1,0-0.2,0-0.2,0.1C182.2,61.7,182.3,61.8,182.4,61.8z"/>
	<path class="st1" d="M323.5,141.8c0,0-0.1,0-0.1,0c0.1,0.1,0.1,0.3,0.2,0.4C323.5,142.1,323.5,141.9,323.5,141.8z"/>
	<path class="st1" d="M306,155c0,0.1,0.1,0.3,0.1,0.3c0,0,0.1-0.1,0.1-0.2c-0.1-0.8-0.3-1.4-0.5-1.9l0.1,0c-0.2-1.8-0.9-3-0.8-4.9
		c-0.2-0.4-0.4-0.8-0.7-1.3c0.3,1.7,0.6,3.4,0.9,5.1c0.1,0.6,0.3,1.1,0.4,1.6c0,0,0.1,0,0.1-0.1C305.8,154,306,154.4,306,155z"/>
	<path class="st1" d="M323.9,145.4c0,0.1,0.1,0.2,0.1,0.3c-0.1-0.8-0.2-1.6-0.3-2.3C323.6,143.8,323.8,144.6,323.9,145.4z"/>
	<path class="st1" d="M80.2,235.2c0.1,0.1,0.1,0.1,0.1,0.1c0.1-0.1,0.1-0.1,0.2,0.1c0.1,0.1,0.1,0.1,0.1,0.1c0,0,0-0.1-0.1-0.2
		c0,0,0,0,0,0c-0.3-0.4-0.5-0.2-0.5-0.2C80.1,235,80.2,235.1,80.2,235.2z"/>
	<path class="st1" d="M100.9,33.7c2.7-1.2,5.4-2.6,8.1-3.9c2.8-1.3,5.7-2.6,8.5-3.5c0.1,0,0.1,0,0.2-0.1c0.2-0.1,0.4-0.2,0.4-0.3
		c0-0.1-0.1-0.1-0.4,0c-3,0.9-6,2.2-8.8,3.6c-2.6,1.3-5.3,2.6-7.9,3.8c-0.3,0.1-0.5,0.3-0.5,0.4C100.5,33.8,100.7,33.8,100.9,33.7z"
		/>
	<path class="st1" d="M158.5,32.5c-0.6,0.1-1.2,0.2-1.8,0.3c-1,0.2-2,0.4-2.9,0.3c-0.3,0-0.6,0.1-0.8,0.2c-0.2,0.1-0.1,0.2,0.2,0.2
		c0.8,0,1.6-0.1,2.4-0.2c0.5-0.1,0.9-0.1,1.3-0.2c0.5-0.1,1-0.2,1.5-0.2c0.3,0,0.6-0.1,0.6-0.2C159.1,32.5,158.9,32.5,158.5,32.5z"
		/>
	<path class="st1" d="M219.9,44.5c0.4,0.1,0.7,0.3,1.1,0.5c0.4,0.2,0.8,0.4,1.3,0.6c0.1,0,0.3,0.1,0.4,0.1c0.2,0,0.3,0,0.3,0
		c0-0.1-0.2-0.2-0.3-0.2c-0.5-0.1-0.9-0.3-1.3-0.6c-0.4-0.2-0.8-0.4-1.3-0.6c-0.2-0.1-0.3-0.1-0.3,0
		C219.6,44.4,219.7,44.5,219.9,44.5z"/>
	<path class="st1" d="M132.7,47.6c-0.3,0-0.8,0.1-1.1,0.3c-0.8,0.5-1.8,0.8-2.9,1.3l-0.2,0.1c-0.1,0-0.2,0.1-0.3,0.1
		c-2.1,0.6-5,1.8-5.7,2.3c0,0,0.1,0,0.1,0c0.5,0.3,0.2,0.4,0.7,0.5c2.2-0.7,4.1-1.4,5.4-2.4l0,0l0,0l0.2-0.1c1.3-0.5,2.6-1,3.7-1.7
		C132.9,47.8,132.9,47.6,132.7,47.6z"/>
	<path class="st1" d="M184.1,47.5c1.2,0.1,2.5,0.2,3.7,0.3c1,0.1,2.1,0.2,3.2,0.4c0,0.2,1,0.2,1.1,0.4c2-0.1,4.1,0.4,6.1,0.9
		c2,0.5,3.9,1.1,5.4,1l0.2,0.1c0.1,0,0.2,0,0.2,0c0,0-0.1-0.1-0.2-0.1l-0.2,0c-0.2-0.6-1.5-0.8-2.1-1.1c0.1,0.1,0.5,0,0.4-0.2
		c-0.2-0.1-1.6-0.5-1.8-0.7c-0.5,0.3-1.5,0.1-2.2-0.2c-0.7-0.3-1-0.6,0-0.7l1.1,0.2l0,0c0.4,0.1,0.9,0.2,1.3,0.3
		c0.8,0.1,1.6,0.2,2.4,0.3c1.5,0.2,2.8,0.8,3.9,0.9c1,0.4,2,0.7,3.1,1c0.8,0.2,1.5,0.4,2.3,0.5c0.3,0.1,0.6,0,0.5-0.1
		c0-0.1-0.3-0.3-0.7-0.4c-1.6-0.3-3.3-0.7-4.6-1.3c-0.1,0-0.1,0-0.2-0.1c0-0.1-0.2-0.2-0.7-0.3l-0.4,0c0.1-0.1,0.1-0.2,0.1-0.3
		c0-0.1,0-0.2,0.2-0.3c0,0,0.1,0,0.1,0c0.5,0.1,1,0.2,1.5,0.3l1.1,0.2l0,0c0.1,0,0.1,0.1,0.2,0.1c0.2,0.1,0.4,0.1,0.5,0.1
		c0.1,0,0.1-0.1-0.1-0.2l-0.2-0.1c-0.1,0-0.1-0.1-0.2-0.1l-0.1-0.1l-0.2,0c-0.4-0.1-0.8-0.2-1.2-0.2c-0.5-0.1-1-0.2-1.5-0.3
		c-1.5-0.9-3.8-1.3-5.9-1.6c-0.8-0.1-1.5-0.2-2.2-0.3c-0.2,0-0.4,0-0.4,0.1c0,0.1,0.2,0.2,0.4,0.2c0.7,0.1,1.5,0.2,2.3,0.3
		c1.9,0.3,3.9,0.6,5.2,1.4c-0.2,0.1-0.2,0.2-0.3,0.4c0,0,0,0.1,0,0.1c-0.7,0-2.3-0.5-2.8-0.4l0,0l0,0c-1.2-0.1-2.5-0.3-3.7-0.6l0,0
		c-0.1-0.5-1.6-0.7-1.4-1c-0.4,0-1.5-0.1-2.7-0.2c-1.2-0.1-2.4-0.1-2.8,0.1c-0.9-0.6-3.1-0.6-2.6-0.2c0.5-0.2,0,0.1,0.3,0.4
		c-0.3-0.2-1.6-0.6-1.4-0.1c0.1,0.2,0.7,0.2,1.3,0.2l0,0l0.2,0c0.1,0.3,0.9,0.5,1.8,0.6c0.9,0.2,1.7,0.3,1.9,0.6
		c-0.6,0-1.8-0.2-2.2,0l0,0.1c-1.2-0.2-2.4-0.3-3.6-0.4c-1.2-0.1-2.4-0.2-3.5-0.3c-0.2,0-0.4,0-0.4,0.1
		C183.7,47.4,183.9,47.5,184.1,47.5z"/>
	<path class="st1" d="M172,46.7c0.1,0.1,0.3,0.1,0.4,0.1l0.5-0.1c0.3-0.1,0.8-0.1,1-0.1c0,0,0.1,0,0.1,0c0.1,0,0.2,0.1,0.3,0.1
		c0,0,0.1,0,0.1,0c0.2,0,0.3-0.1,0.2-0.2c-0.1-0.1-0.3-0.1-0.5-0.2c-0.5-0.1-1.1,0-1.6,0.1c-0.1,0-0.3,0-0.4,0.1
		C172,46.6,171.9,46.7,172,46.7z"/>
	<path class="st1" d="M176,46.9c0.4,0,0.9,0.1,1.4,0.1c0.6,0.1,1.2,0.2,1.8,0.2c0.4,0,0.7,0,1.1-0.1c0.2,0,0.2-0.1,0.1-0.2
		c-0.1-0.1-0.4-0.1-0.6,0c-0.6,0.1-1.2,0-2.1-0.1c-0.5-0.1-1.1-0.2-1.7-0.2c-0.2,0-0.4,0.1-0.4,0.1C175.6,46.8,175.8,46.9,176,46.9z
		"/>
	<path class="st1" d="M185.4,59.6c0.4,0.1,0.8,0.1,1.1,0.1c0.4,0,0.6,0,0.8,0.1l0,0c1.3,0.4,3.3,0.7,4.1,0.6l0,0
		c8.5,1.6,16.1,3.9,22.8,6.5l0.1,0c0.3,0.1,0.5,0.1,0.6,0c0.1-0.1-0.1-0.3-0.4-0.4c-6.6-2.6-14.2-4.9-22.7-6.5c-1-0.5-2.3-0.5-4-0.6
		c-0.4-0.1-0.9-0.1-1.2-0.2c-0.2,0-0.5,0-0.6-0.1c-0.3-0.1-0.6,0-0.8,0.1C184.9,59.4,185.1,59.5,185.4,59.6z"/>
	<path class="st1" d="M142.6,66.4c1.3-0.3,2.9-1,4.8-1.2c0.9-0.4,1.7-0.7,3.1-1l0,0c-0.1,0-0.1,0.1,0,0.1c0.2,0,0.5,0,0.8-0.1l0.1,0
		c0.4-0.1,0.8-0.3,1-0.5c0,0,0.1,0,0.1,0c0.1,0,0.1,0,0.2,0c0.4-0.2,0.9-0.2,1.5-0.3l0.2,0c0.3,0,0.5-0.1,0.5-0.2
		c0-0.1-0.2-0.2-0.4-0.1l-0.2,0c-0.6,0.1-1.3,0.2-2,0.4c0,0,0,0,0,0c-0.3,0.1-0.7,0.1-0.9,0.2l0,0c-1.9,0.1-4.5,1-7,1.7
		c-1.5,0.4-3.7,0.7-4.6,1.6l0.1,0c-0.3,0.2-0.5,0.3-0.6,0.3c0.1-0.4-0.7,0-0.8-0.2c-1.7,0.6-1.9,0.8-3,1.3l0,0
		c-0.3,0.1-0.6,0.2-0.9,0.4l0,0c-2.2,0.8-4.5,1.8-6.6,2.8l0.1,0c-0.2,0.1-0.4,0.2-0.5,0.3c-0.2,0.1-0.3,0.3-0.2,0.3
		c0.1,0,0.3,0,0.5-0.1c0,0,0.1,0,0.1,0l0.2-0.1c0.5-0.1-0.4,0.6,0.4,0.3c0.6-0.6,0.7-0.1,1.1-0.1c-0.1-0.2,0.1-0.4,0.4-0.6
		c0.1,0.1-0.3,0.4,0.1,0.2c2-1.5,3.6-1.3,4.5-2.5c-0.1,0.3,0.6,0.6,0.8,0.1c-0.8,0.2-0.2-0.3,0.2-0.2c-0.1-0.1-0.2-0.2-0.4-0.2
		c0.1,0,0.2-0.1,0.3-0.1c0.1,0.1,0.4,0,0.4,0.2c1.5-0.8,2.5-0.9,3.3-1.3l0,0c0.1,0,0.2-0.1,0.4-0.1c0.3-0.1,0.6-0.2,0.9-0.4
		c0.7,0.1,0.9-0.2,2.2-0.5C142.4,66.6,142.3,66.5,142.6,66.4z"/>
	<path class="st1" d="M157.1,62.7c2.7-0.2,5.5-0.7,8.2-0.9c3.3-0.4,6.8-0.6,10-0.2c0,0,0.1,0,0.1,0c0.2,0,0.3,0,0.4-0.1
		c0.1-0.1-0.1-0.2-0.3-0.2c-3.4-0.4-6.9-0.2-10.3,0.2c-2.8,0.3-5.5,0.7-8.1,0.9c-0.2,0-0.4,0.1-0.4,0.2
		C156.8,62.6,156.9,62.7,157.1,62.7z"/>
	<path class="st1" d="M13.3,199.4c-0.1,0.2,0,1.2,0.1,1.9C13.7,201.1,13.6,200,13.3,199.4z"/>
	<path class="st1" d="M18,227.2c-0.9-2.8-1.7-4.5-2.4-7.7c-0.5-1-0.9-1.6-1.2-1.4c-0.2,0.2-0.2,1.1,0.3,3.2c0.4,1.5,0.8,1.4,1.2,2.6
		c0.1,1.2,0.6,2.8,1.1,4.3c0.5,1.4,1.1,2.7,1.5,2.9C17.8,229.1,18.3,228.8,18,227.2z"/>
	<path class="st1" d="M323.4,141.8c-0.3-0.7-0.5-1.5-0.8-2.2c0.1,0.4,0.2,0.7,0.2,1.1C323,141.4,323.2,141.8,323.4,141.8z"/>
	<path class="st1" d="M323.8,143c-0.1-0.3-0.2-0.5-0.3-0.8c0,0.4,0.1,0.7,0.1,1.1C323.7,143.2,323.7,143,323.8,143z"/>
	<path class="st1" d="M305.6,278.6c2.1-2.9,3.6-6,5.5-8c0.7-1.8,1.6-3.2,2.6-4.9c1-1.6,2.1-3.4,3.3-5.7l-0.1,0.1c0,0,0,0,0,0
		c-0.1,0.2-0.2,0.3-0.3,0.4c-0.1,0-0.1,0,0-0.2c0-0.1,0.1-0.2,0.1-0.3l0,0c-1,1.1-0.6,0-1.4,0.3c0.2-0.7,0.9-1.8,0.5-1.9
		c-0.1,0.2-0.1,0.4-0.2,0.5c0,0.1-0.1,0.3-0.2,0.3c-0.1,0.1-0.1,0-0.1-0.1c0-0.1,0.1-0.2,0.1-0.3l0-0.1l-0.5,0.8
		c-1.6,1.4-1-0.5,0.1-2.8c1.1-2.3,2.7-5.1,3.5-5.6c-0.6,1.9-0.5,2.6-0.4,3.4c0.1,0.7,0.3,1.4-0.4,3.2l0.1-0.1c0,0,0,0,0,0
		c0,0,0-0.1,0.1-0.1c0.1-0.1,0.1-0.2,0.2-0.3c0.1,0,0.1,0,0,0.2c0,0.1-0.1,0.2-0.1,0.3l0,0c0.9-1.2,1.6-1.9,2.3-2.6
		c0.9-1.8,1.5-3,2-4.1c0.6-1.2,1.1-2.3,1.9-4.2c0-0.3,0-0.5-0.1-0.6c1.3-3.3,2.3-5.8,3.2-8.2c0.9-2.4,1.6-4.6,2.3-7.3
		c-0.5,0.4-0.9,1.1-1.4,1.6c-0.6,1.8-1.2,3.3-1.7,4.5c-0.6,0.3,0.2-1.5-0.5-1.2c-0.9,3.1-2,4.6-2.9,7.1c-0.4-0.8,0.3-3.1,1.3-5.7
		c0.9-2.5,2-5.3,2.5-7.1c0.4-0.8,0.7-1.2,1.1-2.2c0.5-1.8,1-3.4,1.5-4.5c0.2-0.1,0.1,0.5,0.2,0.6l0-0.1c0-0.1,0-0.2,0-0.3
		c0-0.1,0-0.3,0.1-0.4c0.1-0.2,0.1-0.4,0.2-0.5c0.1-0.2,0.2-0.1,0.2,0.1l0.1-0.1c0.7-2.5,1.2-4.7,1.7-6.8c0.5-2.1,1-4.2,1.7-6.6
		l-0.1,0c0,0.1,0,0.1,0,0.2l0,0c-0.1,0.4-0.2,0.6-0.3,0.6c-0.1,0-0.1-0.3,0-0.7l0,0c0-0.2,0.1-0.5,0.2-0.7l0,0c-0.7,0,0-3.2,0.1-5.2
		l0,0.2c0,0.3-0.1,0.5-0.2,0.5c-0.1,0-0.1-0.2,0-0.5l0-0.2c-0.3-0.1-0.2-0.9-0.1-1.9c0.2-1,0.5-2,0.6-2.4c-0.1,0.7-0.3,1.8-0.1,1.9
		l0,0c0,0,0-0.1,0-0.1l0,0.1l0,0l0,0l0.1,0.1c0,0,0,0,0,0c0.3-0.9,0.5-2.4,0.7-3.9c0.2-1.8,0.4-3.7,0.6-5.2l-0.1,0.1
		c0,0.1,0,0.1,0,0.2c0,0.4-0.1,0.6-0.2,0.6c-0.1,0-0.1-0.3-0.1-0.7l0,0c0-0.2,0-0.5,0.1-0.7c-0.4-0.4,0-2.9,0.3-3.3
		c0-0.2,0-0.4,0-0.5c0-0.3,0.1-0.7,0.1-0.8c0.1-0.1,0.2,0.1,0.2,0.4c0,0.1,0,0.1,0,0.2c0-3.7,0.6-6.7,0.3-9.2c0,0.1,0,0.2,0,0.2
		c0,0.4-0.1,0.7-0.2,0.7c-0.1,0-0.2-0.3-0.2-0.6l0,0.1l-0.2,0l0-1.4l0.2,0c0-0.2,0-0.4,0-0.6c0,0,0-0.1,0-0.2c0-0.3,0-0.6,0.1-0.7
		c0.1-0.1,0.2,0.2,0.2,0.6c0,0.1,0,0.2,0,0.4l0,0l0-0.5c0.4-1.6,0.5-4.8-0.1-6.7c0-1.8-0.1-3.8-0.3-5.5c-0.2-1.8-0.5-3.4-1-4.4
		c0-4.5-0.9-9.3-2.2-13.9c-1.2-4.7-2.7-9.2-3.6-13.6c-1-2.2-2.1-5.1-3.1-8.1c-1.1-2.9-2.2-5.8-3.3-7.8l0,0.1c0,0.1,0.1,0.2,0.1,0.3
		c0.1,0.2,0.1,0.4,0,0.3c-0.1,0-0.2-0.2-0.2-0.4c0,0,0-0.1-0.1-0.1c-0.1-0.2-0.1-0.3-0.1-0.5l0-0.1c0,0,0,0-0.1,0
		c-0.3-1-0.7-2.2-0.9-3.2c-0.7-1.2-1-1.9-1.3-2.6c-0.3-0.7-0.5-1.5-1-2.8c-0.7-1.8-1.1-1.8-1.8-3.1c-0.2-0.7-0.2-1.2-0.8-2.2
		c-3.1-6-7-12.5-11.4-18.7c-4.4-6.2-9.3-12.1-14-17.3c-1.4-1.2-1-0.6-2.2-1.5l-0.1-0.1c-0.3-0.3-0.5-0.5-0.7-0.7
		c-1.5-2.2-3.5-4-5.6-5.7c-2-1.7-4.1-3.3-6-5l0,0c-0.4-0.4-0.8-0.7-1.3-1.1c-0.1,0-0.1-0.1-0.2-0.1l0,0c-0.8-1-1.4-1.1-2.5-1.9
		l-0.3-0.3c-0.1-0.1-0.3-0.2-0.4-0.3c-2.4-1.9-4.7-3.5-7-5.1l0,0L263,43c-1.8-1.3-3.8-2.7-5.8-3.7l0,0c-0.4-0.4-2-1.4-2.6-1.5
		c-2.4-1.6-5-3-7.5-4.4c-2.7-1.5-5.6-2.9-8.4-4.3l0.1,0c-2.3-0.9-2.8-1.5-5-2.3l0,0c-2.2-0.9-4.4-1.8-6.6-2.6c-2.9-1-5.8-2-8.7-3
		c-0.4-0.1-0.7-0.1-0.8-0.1c-0.1,0.1,0.1,0.2,0.5,0.3c2.9,0.9,5.9,1.9,8.8,3c2.1,0.8,4.2,1.6,6.3,2.5c0.9,0.8,3.6,2.1,5.4,2.4l0,0
		c2.7,1.4,5.5,2.8,8.2,4.2c2.8,1.5,5.5,3,7.9,4.7l-0.1,0c0.3,0.5,1.8,1.2,2.7,1.6c1.7,0.9,3.5,2.2,5.2,3.4l1.4,1
		c1.5,1.3,2.7,2.5,4,3.8c0.9,0.2,1.9,0.5,3.6,1.8c-0.5,0.2,0.7,1.1,1.1,1.6c0.4-0.1,1.3,0.4,2.1,0.9c0.2,0.2,0.5,0.4,0.7,0.6
		c-0.2,1,1.9,1.9,4,3.8c1.6,1.4,2.9,2.7,4,3.8c1.2,1.1,2.2,2.1,3.6,3.3l0,0c0.3,0.3,0.6,0.6,0.9,0.9l0.2,0.2l0,0
		c0.1,0.1,0.1,0.1,0.2,0.1l0,0c0.7,1.2,2.3,2.3,3.2,3.2c1.8,2.3,4,5,6.1,8c0.1,0.8,1,2.1,1.4,3.1c5.9,7.7,10.6,15.6,14.5,23.1
		c3,5.7,5.5,11.2,7.8,16.4c0.2,0.5,0.4,1.1,0.7,1.7c-0.7-0.3-1.8-1.8-2.7-3.6c-1.1-2.8-2.3-5.4-3.3-7.3c-2.3-4.9-3.9-8.3-5.6-11.2
		c-0.2-0.4-0.8-1-1.3-1.8c-1.3-2.1-1.2-2-2.1-2.9c-0.7-1.4-1.1-2.6-1.6-3.8c-1.2-1.3-2.2-2.9-3.2-4.6c-1-1.7-2.1-3.4-3.4-5
		c-0.8-1-2-2-3.1-3.2c-1.6-1.9-2.7-3.5-3.9-4.3c-0.9-1.2-1.8-2.4-3.1-3.9c-0.7-0.3-1.7-1.2-2.8-2.2c-1.1-1.3-2-2.2-2.9-3
		c-0.9-0.7-1.7-1.3-2.7-2c-3.9-4.3-8.8-8.7-14.1-12.3c-0.7-0.8-1.3-1.5-2.7-2.5c-0.8-0.2-2-0.9-3.4-1.8c-1.4-0.9-3.1-2-4.6-2.9l0,0
		c-0.6-0.4-1.2-0.7-1.7-1c-3.1-1.8-4.7-2.9-5.8-4c-1.4-0.4-2.1-0.8-2.9-1.4c-0.7-0.5-1.4-1.1-2.6-1.7c-1.4-0.6-1.5-0.2-3-0.8
		c-2.2-1.4-4.2-2.5-6.6-3.6c-2.3-1.1-5-2.1-8.8-3.1c-0.8-0.4-1.4-0.8-2.1-1.1c-0.5,0.7-2.1-0.1-4.8-0.7c-2.9-1.1-6-1.9-9.1-2.6
		c-3.2-0.7-6.5-1.3-9.7-1.9c0,0.2-0.1,0.3-0.4,0.4c-0.8,0-1.6-0.2-2.3-0.4l0,0c-0.4-0.5-1.5-0.8-2.8-0.9c-1.3-0.1-2.7,0-3.8,0.1
		c-0.4,0-0.8,0-1.2-0.1c-0.4,0-0.7,0-0.7,0.1c0,0.1,0.3,0.2,0.7,0.2l0.3,0c0.4,0,0.9,0.1,1.3,0.1l0,0c0.4,0,1.5,0.1,2.7,0.3
		c1.2,0.2,2.4,0.3,3,0.3c0.7,0.2,1.4,0.3,2.1,0.4c0.4,0,0.7,0.1,1.1,0.1l0,0c2.6,0.3,6,0.9,9.3,1.7c3.4,0.8,6.7,1.7,9.1,2.4l0,0
		l0.4,0.2c0,0,0.1,0,0.1,0c4,1.4,8,2.8,12,4.3c4,1.5,7.9,3.1,11.6,5c0.4,0.2,1.2,0.8,1.5,1c3.8,2,7.4,4,11.1,6.1l0,0
		c0.5,0.3,0.9,0.5,1.4,0.8c1.3,1.2,3.1,2.4,4.9,3.7c1.8,1.3,3.7,2.6,5,3.8c-0.7-0.1-1.8-0.9-2.9-1.7c-1.1-0.8-2.2-1.6-2.8-1.6l0,0
		l-1.1-0.6c-0.3-0.2-0.5-0.2-0.5-0.1c0,0.1,0.2,0.3,0.4,0.4l0.1,0.1l1.3,0.7l-0.1,0c1.2,0.7,3.4,2.4,5.5,4c2.2,1.6,4.3,3.3,5.6,3.8
		c1.3,1.6,3.7,3.5,6.3,5.6c2.6,2.1,5.3,4.5,7.5,6.8c0.6,1.4,2.4,3.5,4.3,5.7c0.8,0.7,1.6,1.4,2.1,1.6c0.1,0.4,0.8,1.2,1.3,1.8
		c0.8,0.4,1.6,1.4,2.4,2.4c0.8,1,1.6,2.2,2.1,2.9c1.9,2.5,4.4,5.3,5.1,7.1c1.6,1.2,2,2.9,2.8,3.9c0.9,1.2,0.8,0.5,1.5,1.6
		c0.5,0.8,0.1,0.6,0.6,1.7c0,0,0.3-0.1,0.4,0.2c0.1,0.3-0.2,0.1,0,0.5c0.6,1,1.4,2.4,2.1,3.3c1,2.1,2.2,4.5,3.4,7
		c1.2,2.5,2.4,5.1,3.6,7.7c1.3,2.9,2.5,5.7,3.5,8.1c0,0.1,0,0.2,0,0.3c-0.2-0.1-0.4-0.8-0.6-0.8l0,0c0,0,0,0.1,0,0.1
		c0,0.1,0,0.2-0.1,0.1c0,0-0.1-0.1-0.1-0.2c0.5,2,1.2,4.4,2.1,6.8c0.9,2.6,1.8,5.4,2.5,8.1c0.6,2.2,0.8,4.7,1.2,6.8
		c0.8,3.8,1.6,7.4,1.7,10.4l-0.5,0.1c-0.3-0.8-0.8-2.5-1.1-4.1c-0.3-1.6-0.5-3.1-0.2-3.6c-0.2-1-0.5-0.6-0.8-1.4
		c0.2,1.4,0.5,3,0.8,4.5l1.5,8.4c0.4,0.6,0.4-0.1,0.9,0.2c0,0.6-0.1,0.7-0.1,1.4c0.3-0.6,0.5,0.9,0.7,2.8c0.1,1.9,0.2,4.1,0.4,5l0,0
		c0,0.2,0.1,0.3,0.1,0.5c0,0.2,0,0.5,0,0.6c0,0.1-0.1,0.1-0.2-0.1c0-0.2-0.1-0.3-0.1-0.5l0,0.1l-0.1,0c-0.2,1.5-0.2,5.2-0.2,9.4
		c0,4.1-0.2,8.7-0.4,11.7c0,0.7,0,0.8,0.2,0.9c-0.6,3.3-1.1,7.5-1.8,12c-0.7,4.5-1.7,9.3-3,13.8c0,0.1,0,0.2-0.1,0.3
		c-1.6,5.2-3.2,10.4-5,15.4c-0.8,2.2-1.7,4.5-2.6,6.7l-0.1,0.2l-0.2,0.3c-0.2,0.2-0.3,0.3-0.3,0.1c0-0.2,0.2-0.6,0.3-0.8l0,0
		c0.9-2.1,1.7-4.2,2.5-6.4c1.2-3.2,2.3-6.5,3.3-9.9l1.7-5.5l0,0c1.3-5.7,2.3-11.1,3.1-16.4c0.7-5.3,1.2-10.5,1.5-15.9
		c-0.1-1.7-0.2-3.5-0.4-5.2c0.3-1,0.5-2.6,0.5-4.1c0-1.6-0.2-3.2-0.4-4.5c-0.4,0.2-0.4,0.7-0.8,0.1c0-1.6,0.3-3.1,0.5-4.6
		c0.2-1.5,0.2-3-0.5-4.6c-0.2-1.2,0.2-0.9,0.1-1.8c-0.2-0.6-0.3-1.9-0.7-1.6c-0.4-4.1-1.1-8.1-1.9-11.8c-0.9-3.7-1.9-7.2-2.8-10.5
		c-0.6-2.2-0.9-4.7-2.1-6.1c-0.1-0.4-0.2-0.8-0.3-1.2c0.4,0.6,0.8,1,1.1,0.9c0.1-0.3-0.5-1.6-0.4-1.8c0.1,0.2,0.1,0.4,0.2,0.6
		c0,0,0,0.1,0,0.1c0.1,0.2,0.1,0.3,0.2,0.3c0.1,0,0.1-0.1,0-0.3c0-0.1,0-0.2-0.1-0.2l0-0.1c1,2,1.8,4.6,2.6,7.3
		c0.4,1.4,0.8,2.9,1.3,4.3c-0.6-2.6-1.4-5-2.2-7.3c-0.9-2.6-1.8-5.1-2.5-7.3c-0.5-1.7-0.9-3.4-1.6-5.5c-1-3-2.3-6-3.8-8.9
		c-1.4-2.9-2.9-5.7-4.4-8.5c-0.6-0.7-0.8-0.1-1.4-1.1c-2.8-4.6-5.3-8.8-8-12.9c-1.3-1.9-2.9-3.8-4.3-5.5c-1.4-1.8-2.6-3.4-3.1-4.8
		c-1.5-1.8-3.1-3.4-4.6-4.8c-1.5-1.4-2.8-2.7-3.7-4.1c-0.4-0.2-0.4,0.3-1.1-0.6c-0.9-1.2-1.9-2.1-3-3c-1.1-0.9-2.3-1.9-3.7-3.1
		c-0.3-0.7-0.5-1.1,0.1-1c-1.2-1.3-1.2-0.7-2.1-1.5c-4.4-4-9.1-7.6-13.9-10.4c-1.9-2-4.9-3.4-8.1-5.2c-2.3-1.4-4.9-3.2-7.5-4.5
		c-4.1-2.1-8.1-3.7-10.7-4.9c-0.9-0.2-1.3,0-2.6-0.5c-0.8-0.5-3.1-1.5-1.9-1.5c-1.4-0.5-3.2-1.6-4.5-1.7c1,0.4,0.1,0.6-0.5,0.3
		c-0.6-0.3-1.5-0.6-2.4-0.9c-0.9-0.3-1.6-0.6-1.7-0.9l0-0.1l-0.1,0c0.2,0,0.3,0,0.5,0.1c0.2,0,0.3,0,0.2-0.1
		c-0.1-0.1-0.4-0.2-0.5-0.2c-0.2,0-0.3,0-0.5-0.1l0,0c-1.2-0.5-1.9-0.7-2.7-1c-0.8-0.2-1.6-0.5-3.2-1l0,0c-0.1-0.1-0.2-0.1-0.3-0.2
		c-0.1-0.1-0.4-0.2-0.6-0.2c-0.2,0-0.3,0-0.1,0.1c0.1,0.1,0.2,0.1,0.2,0.2l-0.1,0c1.2,0.9,0,0.8-1.7,0.3c-1.7-0.4-4-1.1-4.7-1.2
		c-2.1-0.5-3-0.5-3.9-0.7c-1.7-0.3-4.4-1.1-7.3-1.3l0,0c-0.8-0.1-1.5-0.2-2.2-0.2l0,0c-3.7-0.4-7.7-0.8-11.7-1
		c-4-0.2-8.1-0.1-11.8,0.2c-0.6,0-1.1-0.1-1.4-0.3c-2.7,0.5-6.1,0.7-9.6,1c-3.5,0.3-7.1,0.7-9.9,1.5c-1.1,0.1-2.6,0.4-3.5,0.4
		c-1.1,0.8-3.7,0.9-5.5,1.3c-2.7,0.6-5.7,1.6-8.6,2.5c-2.9,0.9-5.6,1.9-7.8,2.5c-0.4,0.3-1,0.6-2,0.9c-1.1,0.3-1.9,0.4-2.4,0.2
		c-6,2-11.2,4.5-16.2,7.2c-5,2.7-9.7,5.7-14.7,8.9c-1.7,2-4.3,3-6.8,4.9c-1.9,1.4-3.4,3.2-5.3,4.6c-0.7,0.6-1.5,0.9-2.2,1.5
		c-3.2,2.6-5.9,5.4-8.3,7.4c-0.2,0.5-1.2,1.5-1.5,2.2c-0.2-0.1-0.3,0-0.8,0.5c-2.4,2.4-5.1,5.3-7.3,7.9c-1.1,1.3-2,2.7-3,3.9
		c-0.4,0.5-0.9,0.8-1.3,1.3c-0.3,0.4-0.2,0.6-0.7,1.1c-3.1,4-6,7.9-8.5,12.5c0.1-1.2-0.9,0.8-1.4,0.9c0.9-1.4,0.3-1.2,1.1-2.4
		c0.5-0.4,1.1-1.3,1.8-2.4c0.7-1.1,1.4-2.3,2.1-3.2c0.3-0.5,0-0.4,0.3-0.9c0.1,0,0.7-0.7,1.2-1.4c0.6-0.8,1.2-1.6,1.4-2.1l0.4-0.6
		c0.2-0.2,0.2-0.4,0.2-0.4c-0.1,0-0.2,0.1-0.4,0.3l-0.4,0.6c-0.6,0.2-1.8,2.2-2.4,2.3c0.9-1.3,2.1-3.4,3.5-5.3
		c1.4-1.9,2.9-3.6,3.9-4.4c-1.3,1.7-2.7,3.5-2.3,3.8c2.7-3.2,5.5-6.9,8.6-9.8c0-0.4,0.6-1.2,1.1-1.9c1.4-1,2.9-2.7,4.8-4.8
		c2.2-1.5,3.6-3.5,6.7-6l0,0c0.2-0.2,0.4-0.4,0.7-0.6c0.3-0.3,0.7-0.6,1-0.8c0.2-0.2,0.5-0.5,0.7-0.7c0.8-0.8,2.2-1.8,3.5-2.8
		c1.3-0.9,2.7-1.8,3.5-2.1c1.6-1.9,4.1-3.3,5.4-4.5c2.6-1.6,5.3-3.4,7.9-5c2.2-1.4,4.5-2.7,6.7-3.8l0.1-0.1c0.2-0.1,0.4-0.3,0.4-0.4
		c0-0.1-0.2-0.1-0.5,0.1c-2.3,1.2-4.7,2.5-6.9,3.9c-2.5,1.6-5.1,3.3-7.6,4.8l-0.1-0.1c2.8-2.1,5.4-3.8,7.9-5.3
		c2.5-1.5,4.9-2.9,7.3-4.1c0.5-0.6,1.6-1.3,2.7-1.8c1.1-0.6,2.4-1,3.3-1.3c1.4-1.2,3.7-1.9,5.3-2.5c2.6-1,5.4-2.3,8-3.4
		c2.6-1.1,5.1-1.9,6.7-2.1c0.4-0.4,2.2-1,3.3-1.4c0.8,0.2,2.2-0.1,3.8-0.5c1.6-0.4,3.3-0.9,4.7-1.1c-0.4-0.2,0.8-0.4,0.7-0.7l0,0
		l0.1,0c0.7-0.1,1.5-0.2,2.3-0.4c0.2,0,0.4-0.1,0.7-0.2c0,0,0.1,0,0.1,0l0,0c0,0.2,1.2-0.1,2.5-0.3c1.3-0.3,2.6-0.7,2.7-0.8l0,0
		c0.4,0,0.8-0.1,0.9,0c0.1,0,0.1,0,0.2,0c0,0,0.1,0,0.1,0c0.1,0,0.2-0.1,0.1-0.1c-0.2-0.1-0.6-0.1-1,0c-0.6-0.3-1.8-0.1-3,0.2
		c-1.2,0.3-2.4,0.8-3.1,1.1c-0.8,0.2-1.5,0.3-2.3,0.4c-0.7-0.1-1.9,0.1-3.1,0.4c-1.2,0.3-2.4,0.8-2.9,1.2c-2.6,0.6-4.4,0.5-7.1,1.7
		c-0.3-0.2-1.7,0.5-1.5,0c-1.3,0.4-1.3,0.8-2.4,1.2c-3,1-6.3,2.4-9.6,3.7c-3.3,1.4-6.4,2.7-8.9,3.7c-1.6,1.2-3.1,1.9-5.1,2.9
		c-1.3,0.7-2.8,1.7-3.9,2.3c-2.6,1.4-4.6,2.3-6.2,3.7c-1.8,1.5-4.8,3.3-7.8,5.3c-3,2-5.9,4.1-7.6,5.8c-0.7,0.4-1.4,0.8-2.6,1.9
		c-0.5,0.5,0,0.5-1.2,1.4c-0.5,0.3-0.9,0.4-1.4,0.6c-2.2,1.8-3.3,3.4-4.1,4.2c-0.8,0.8-1.9,1.5-2.8,2.4c-1.3,1.2-2.5,3-3.9,4.4
		c-1.2,1.3-2.4,2.3-3.5,3.6c-1.3,1.4-2.6,3.1-3.9,4.8c-1.3,1.6-2.4,3.2-3.4,4.5c-0.6,0.8-1,0.9-1.6,1.7c-1.6,2.1-2.8,4.5-4.4,6.9
		c-0.7,1.1-1.6,1.9-2,3.1c-0.3,0.4-0.5-0.1-1,1c-1.8,2.8-3.1,5.5-4.4,8c-1.3,2.5-2.4,5-3.7,7.4c-0.4,1-0.6,1.8-0.8,2.6
		c-0.4,1-0.7,0.7-1.2,2c-0.4,1.1-1,2.4-1,3c-1.6,2.8-3.1,6.7-4.3,10.5c-1.2,3.9-2.2,7.7-3,10.3c-0.3,3-1,6.5-1.7,10.2
		c-0.7,3.7-1.3,7.6-1.4,11.5c-0.4-0.4-0.3,1.5-0.5,1.8c0.4,0.5,0.2,2.9,0.2,4.5c-0.5,1.8-0.8,4.2-0.8,6.9c-0.1,2.6,0.1,5.5,0.1,8.3
		c0,1.4-0.1,2.8-0.1,4.2c0.1,1.4,0.6,3.2,0.1,3.7c-0.2-2.2-0.3-3.7-0.4-5c-0.1-1.3-0.3-2.4-0.6-3.6c0.4-0.1,0-0.7,0.2-1.9
		c-0.4-0.6-0.6-2.3-0.6-4.1c0-1.7,0.2-3.4,0.6-3.8c-0.1-0.3,0.1-3.3,0.1-5l0.1-0.4c0-0.1,0-0.3,0.1-0.4c0-0.2,0-0.4,0-0.5
		c-0.1-0.2-0.2-0.2-0.2,0.1c-0.1,0.3-0.1,0.5-0.2,0.8l0-0.1c-0.4,0.8-0.7,2.2-1,3.3c-0.1-2.1-0.4-5.5,0.5-7.9c0.6-0.7,0.8,0,1.3,0.4
		c0.3-3.6,0.9-7.7,1.6-11.7c0.7-4.1,1.4-8.2,2.1-11.9c0.8-2.1,1.4-4.6,2-7c0.6-2.4,1.3-4.6,2-6.3c0.1-1.8,0.8-3.7,1.5-5.4
		c0.6-1.7,1.2-3.2,1.2-4.3c0.1-0.2,0.1-0.3,0.1-0.3c0.1-0.1,0.1-0.2,0.2-0.3c0.1-0.2,0.1-0.4,0.1-0.5c0-0.2-0.1-0.2-0.3,0.1
		c-0.2,0.4-0.4,0.9-0.6,1.5l0-0.1c-0.3,1.1-0.6,1.5-0.8,1.3c0.2-0.8,0.6-1.7,1-2.7c0.3-0.8,0.7-1.6,1-2.4c0.1-0.3,0.1-0.6,0-0.5
		c-0.1,0-0.3,0.3-0.4,0.7c-0.2,0.7-0.5,1.4-0.8,2.1c-0.5,1.1-1,2.3-1.2,3.5c-1.3,3.7-2.6,5.6-3,7.1c-0.5,1.5-1.3,3.9-1.7,5.3
		c-0.5,1.9-0.8,2.7-1.2,4c-0.6,2.1-1.1,4.9-1.6,7.3c-0.6,2.7-1,4.9-1.4,7c-0.3,2.1-0.6,4-0.8,6.4c-0.2,1-0.6,1-0.7,2.3
		c-0.5,5.9-1,12.2-1.1,18.4c-0.1,6.1,0.2,12.1,0.9,17.2c-0.4,0.2-0.4,1.3-0.2,2.5c0.2,1.1,0.5,2.4,0.7,3.3l-0.4,0.1
		c0.1,0.7,0.2,1.2,0.3,1.6c0,0,0,0,0,0c-0.1-0.1-0.1,0-0.1,0.2c0,0.2,0,0.4,0.1,0.4c0,0,0,0,0,0.1l0,0.1c0.3,3.8,1,8,1.5,11.6
		c-0.2-1.1-0.4,0-0.3,0.5c0.7,3.8,1.7,7,2.6,9.9c0.9,2.9,1.7,5.5,2.3,8.2c1.1,2.3,1.8,4.2,2.3,6.1c0.5,1.9,0.9,3.8,1.4,6.1
		c0.5,0.6,1.3,2.4,1.8,2.8c-0.1-0.6-0.3-1.4,0-1.5c0.7,1.5,1.6,3.5,2.6,5.3l-1.2,0.4c0,0.3-0.1,0.5,0,0.9c0.3,0.7,0.7,1.4,1.1,2.1
		c0.6-0.6,1.8,1.2,2.9,3.2c1.1,1.9,1.9,4,1.4,4.1c1.6,1.5,3.3,3.4,4.2,6.2c0,0,0,0,0,0c0-0.1,0.2,0,0.3,0.2c0,0,0.1,0.1,0.1,0.1
		c0.1,0.2,0.2,0.3,0.2,0.4l0,0c0.4,0.5,1.1,1.4,1.3,1.4c1.2,2.3,2.5,3.4,3.7,4.9c0.4,0.6,1.3,2.1,2.1,3.1c0.5,0.5,1.5,1.5,2.8,3.2
		c0.2,0.3,0.7,1.2,1,1.6c1.2,1.4,2.2,2.4,3.5,3.8c3,3.2,6.2,7.1,10.1,10.4c0.3,0.4,0.1,0.4,0.5,0.8c3.4,2.9,6.5,5.4,9.6,7.9
		c3.2,2.5,6.5,4.9,10.3,7.4c0.3,0.1,0.7,0.2,1.1,0.4c2,1.5,3.9,2.9,6.1,4.2c1.3,0.6,3,1.4,4.8,2.4c0,0,0,0,0,0.1
		c0.5,0.3,1.2,0.7,1.8,1c0.5,0.3,1.1,0.6,1.6,0.9c0.3,0.3,0.3,0.4-0.3,0.3c1.1,0.6,1.7,0.8,2.2,0.8c0.6,0.4,1.2,0.7,1.6,1.1
		c0,0.2-0.2,0.3-0.6,0.3c2.4,1.4,5.8,3.2,8.2,4.3c1.2,0.6,2.9,1.1,4,1.6c1.9,0.8,3.4,1.7,5.3,2.5c2.5,1,5.8,1.9,7.3,2.4
		c2.2,0.7,4.4,1.6,6.4,2.2c5.1,1.3,9.1,2.3,13.2,3.6c2.7,0.2,4.8,0.5,6.8,0.9c2,0.4,3.8,0.7,5.7,1c1.4,0.2,3.1,0.2,4.8,0.4
		c3.4,0.3,5.8,1.1,9.2,0.7c2.7,0.5,6.2,0.1,9.2,0c0.8,0,1.1,0.2,2,0.1c1.8,0,4.1-0.2,6.3-0.5c2.3-0.3,4.6-0.6,6.7-0.9
		c4-0.5,8.1-1.1,12.2-2c4.1-0.8,8.1-1.9,11.9-3.3c3.5-0.4,6.3-1.9,9.2-3c1.1-0.4,2.5-0.9,3.9-1.5c1.4-0.5,2.8-1.1,3.8-1.4
		c1.7-0.7,1.8-0.8,3.1-1.4c1-0.5,3.1-1.4,4.4-2c2-0.9,3.4-1.7,5.2-2.5c2.5-1.6,5.2-3.3,7.8-5c0.1,0,0.2,0,0.2,0c0.1,0,0,0.1-0.2,0.3
		c-0.2,0.2-0.5,0.3-0.6,0.3c-0.1,0-0.1,0-0.2,0.1c0.1,0.3,0.2,0.5,0.8,0.3c2-0.8,4.4-2.3,6.7-3.8c2.3-1.5,4.4-3.1,6-4
		c1.1-0.9,1.6-1.7,2.3-2.5c1.3-0.9,1-0.2,1.4-0.5c1.9-1.5,3-2.7,4.2-4c1.2-1.3,2.5-2.7,4.7-4.6c-0.1,0-0.1,0.1-0.3,0.2
		c-0.2,0.1-0.3,0.1-0.3,0c0-0.1,0.2-0.2,0.3-0.4c0.1-0.1,0.1-0.1,0.2-0.2c0.1-0.1,0.2-0.1,0.3-0.2l0.1-0.1c-0.3-0.5-0.1-1.3,1.8-3
		c0.3-0.3,0.4-0.3,0.4-0.2l0,0c0,0,0-0.1,0-0.2c0-0.1,0.2-0.4,0.4-0.6c0.1-0.1,0.1-0.1,0.2-0.2c0.3-0.2,0.5-0.3,0.5-0.2
		c0,0.1,0,0.1,0,0.1c0.3-0.5,0.4-0.9,0.6-1.3c1.6-1.5,2.5-2.7,3.3-3.9c0.8-1.2,1.5-2.5,2.8-4c1.1-1,2-1.6,3.4-3.3
		c1.4,0.5-1.5,3.7-4.3,6.3c0.5,0.3,0.8,0.4,0.1,2c0.8-0.4,1.6-0.6,2.4-1C298.4,287.4,302.4,283,305.6,278.6z M189,337.4
		c1.3-0.5,3.3-1,5.4-1.5c-1.8,0.3-1.4-0.3-1.5-0.6c-0.2,0-0.4,0.1-0.5,0.1c-0.4,0.1-0.8,0.1-0.9,0c-0.1-0.1,0.1-0.2,0.5-0.3
		c0.1,0,0.2,0,0.3-0.1l0,0c-2.7,0.2-5,0.2-7.3,0.4c-1.3,0.1-3.5,0.8-4.6,0.3c3.5-0.6,6.9-0.6,10-1c0.8-0.1,0.9-0.3,1.8-0.5
		c0.3,0,0.9,0.1,1.4,0.1c0.9-0.1,1.7-0.5,2.2-0.6c0.7-0.1,1.5,0,2.3-0.1c1.6-0.2,3.4-0.7,4.6-0.5c-1.3,0.3-2.3,0.7-3.5,1
		c-0.6-0.1-2,0-3.2,0.4c0.9,0.5,3.1,0.7,5.9,0.4c2.8-0.3,6.3-1,9.7-2c-0.1,0.4,2-0.3,1.5,0.3c-3.6,0.9-6.7,1.6-9.7,2.3
		c-2.9,0.6-5.7,1.2-8.5,1.4c-0.7,0.4-2.2,0.7-3.5,0.8C190.2,337.9,189,337.8,189,337.4z M170.5,306.5c0.7,0.3,2.1,0.4,2.2,0.9
		c-0.5,0.3-1.3,0.3-2.2,0.3c-0.9,0-1.7,0-2.3,0.3l0,0c0.1,0,0.3,0,0.4,0c0,0,0.1,0,0.1,0c0.2,0,0.5,0.1,0.5,0.1
		c0.1,0.1-0.1,0.2-0.4,0.2c-0.1,0-0.2,0-0.3,0l0,0c0.9,0.1,0.7,0.4,1.9,0.4c-0.1,0.5-1.6,0.5-3,0.5c0.1-0.3-0.6-0.4-0.7-0.6l-0.1,0
		c-0.1,0-0.2,0-0.4,0c-0.3,0-0.6-0.1-0.6-0.2c-0.1-0.1,0.1-0.2,0.4-0.2c0.1,0,0.2,0,0.3,0l0,0c-1.4-0.2-1.5-0.7-2.6-1
		c-0.9-0.1,0.2,0.6-1.1,0.3c-0.8-0.3-2.6-0.6-4.3-0.9c-1.7-0.3-3.5-0.5-4.2-0.4l0.2,0c0.1,0,0.2,0,0.3,0c0.1,0,0.3,0,0.4,0.1
		c0.1,0.1,0,0.1-0.1,0.1c-0.1,0-0.2,0-0.2,0l-0.1,0.1l0.7,0.1c0.2,0.3-0.7,0.1-0.8,0.3c1,0.3,3.1,0.6,5.1,0.8c2,0.3,4,0.5,4.9,0.9
		c-1.6,0.3-3.4,0.1-5.3-0.3c-1.9-0.3-3.8-0.8-5.6-0.9c-0.8-0.2-1-0.5-2.2-0.7c-1.3-0.3-1.5,0-2.6-0.2c-2.2-0.6-5.1-1.4-8-2.1
		c-2.9-0.8-5.8-1.6-8.1-2.1c-0.8-0.5-1.7-0.9-2.7-1.4c-0.3,0.1-1.1,0-1.9-0.3c-1.8-0.6-2.3-1.2-4.4-2.1c-1.1-0.5-2.3-0.8-3.7-1.3
		c-1.4-0.5-2.9-1.1-4.6-2.2c-1.3-0.4-2.3-0.5-4-1.4c-0.1-0.3-0.7-0.7-0.3-1l-0.1-0.1c0,0-0.1,0-0.1,0c-0.1,0-0.2,0-0.4-0.1
		c-0.2-0.1-0.3-0.2-0.2-0.3c0.1,0,0.1-0.1,0.2-0.1l0,0l-0.7-0.4c-0.5-0.5-1.3-1.1-0.9-1.5c2,1.2,3,1.5,4.1,1.7
		c1.5,0.9,3.4,2.1,4.9,2.6c-0.4,0.3,1.3,0.8,0.8,1c-0.1,0.1-0.7-0.2-0.8-0.1l1.4,0.6l0-0.1c-0.1,0-0.1-0.1-0.2-0.1l0.1-0.1l0,0l0,0
		l0.1-0.1c0.1,0.1,0.3,0.2,0.4,0.2c0-0.2,0.2-0.2,0.4-0.1c0.4,0.4,3,1.2,3.1,1.2c0.7-0.2-0.9-0.6-0.5-0.8c2.1,0.4,3.1,0.8,4.9,1.8
		c-0.5-0.6,0.1-0.1,0.7,0.3c0.2-0.2,0.3-0.4,1.2-0.1c0.8,0.6-0.2,0.5,0.8,1.1c2.8,1,5.2,2.1,7.2,1.9c2.4,0.9,4.7,1.3,7.6,1.8
		c0.4,0.1,0.2,0.3,0.7,0.4c1.4,0,3.5,0.5,5.6,0.9c2.1,0.4,4.1,0.8,5,0.6c-0.2,0-0.4-0.1-0.4-0.2c2.4,0.3,4.5,0.4,6.2,1
		c0-0.6,1-0.7,2.3-0.6c1.3,0.1,2.9,0.3,4,0.5c0-0.3,0.6-0.2,0-0.5c1.5,0.3,3.3,0.5,4.4,0.9C172.9,306.5,170.4,306.1,170.5,306.5z
		 M206.8,296.5c1.9-0.8,3.4-1.1,5.2-1.4c0.3,0.3-0.6,0.7,0.5,0.5c0.2-0.3,0.9-1.1,1.9-1.1c-0.7,0.6,0.3,0.9,1,1.3
		c0.7,0.4,1,0.8-1.1,1.7c0-0.2-0.1-0.3-0.5-0.2c-0.7,0.7-3.2,0.7-4,0.6l0,0l-0.1,0.1c-0.1,0.1-0.3,0.2-0.5,0.3c-0.1,0-0.2,0-0.3,0
		l-0.1,0.1c-0.7,0.3-0.9,0.6-2,0.9c0.2-0.4-0.4-0.4-0.9-0.4l0,0.1c0,0.1-0.2,0.2-0.5,0.3c-0.3,0.1-0.6,0.1-0.6,0l0-0.1
		c-0.3,0.1-0.3,0.2-0.7,0.3c-0.2-0.1-0.6,0-0.8-0.1l0,0c0,0.1-0.2,0.2-0.4,0.2c-0.1,0-0.3,0-0.3,0l0,0c-0.7,0.2-0.9,0.2-1.4,0.2
		l0,0.1c0,0.1-0.2,0.2-0.5,0.3c-0.3,0.1-0.5,0-0.6,0c-0.2,0.1-1,0.3-1.3,0.3c0,0.1-0.2,0.2-0.4,0.2c-0.2,0-0.3,0-0.3,0
		c-0.9,0.3-0.7-0.1-1.1-0.1c0.6-0.1,0.6,0,1.1-0.1l0,0c0,0,0,0,0-0.1c0,0,0,0-0.1,0c-0.1-0.1,0.1-0.2,0.4-0.3c0.1,0,0.2-0.1,0.3-0.1
		l0,0c-0.7-0.1-0.4-0.6-0.2-0.9c2-0.2,3.3-1.2,6.2-1.8C206.1,296.8,205.1,297.2,206.8,296.5z M287.8,109.3c0.4,0.7,0.1,0.8,0.5,1.5
		c0.3,0.4,0.6,0.4,0.8,0.4c1.1,2.1,1,2.5,1.6,3.9c-0.1,0-0.2-0.3-0.2-0.3c-0.4-0.7-0.6-0.5-0.9-0.3c-0.4-0.9-0.7-1.4-1-2
		c-0.3-0.6-0.7-1.4-1.5-2.5c0.3,0-0.2-0.7-0.1-0.9C287.1,108.3,287.7,109.9,287.8,109.3z M310.9,182.3c0-0.6,0.1-1.2,0.2-1.7l0,0
		c0.2-0.5,0.1-1,0-0.4c-0.2-4.1-0.3-8.8-0.6-13.4c-0.1-1.7-0.3-3.3-0.5-4.9c0.1-0.5,0.1-1.2,0.1-1.7c0,0.1,0,0.1,0,0.2
		c0,0.3,0.2,0.6,0.3,0.6c0.1,0,0.1-0.2,0.1-0.5l0,0c0.2,0,0.2,0.5,0.4,0.4c0.3-0.7-0.5-2.1-0.2-2.4c0.1,0.3,0.1,0.8,0.2,0.8
		c0.2-0.7,0.1-1.9-0.1-3.1c-0.2-1.2-0.4-2.5-0.4-3.5c-0.2-0.8-0.5-0.7-0.6-2c0-0.6-0.1-1.2-0.1-1.8c0.2,0.9,0.5,1.7,0.6,2.5
		c0.6,2.9,1.1,6,1.4,9.1c0.3,3.1,0.5,6.3,0.7,9.3c0.1,1.6,0.5,3.2,0,4.7c0.3,1.6,0.4,3,0.3,4.5c0,1.5-0.1,3.1-0.2,4.9
		c-0.3,7.1-1.1,14.2-2.5,21.3c-1.4,7.1-3.4,14.2-6,21.3c-1,2.7-1.6,5.4-3.3,7.7c-0.3,0.6-0.6,1.2-0.8,1.9l-0.3,0.7l0,0
		c-0.8,2.2-1.9,4.4-3.1,6.7c-1.2,2.3-2.5,4.6-3.8,7.2c-0.6,0.4-1.3,1.5-2,2.1c1.6-2.9,3.2-5.9,4.7-8.7c1.5-2.8,2.8-5.4,3.8-7.5l0,0
		l0.1-0.4c0.2-0.6,0.5-1.2,0.8-1.9c0.1-0.2,0.2-0.5,0.4-0.7l0,0c1.2-3.1,2.3-6,3.3-9c1-3,2.1-6.1,3.3-9.6c0.2-0.8-0.5-0.2,0.1-1.2
		c-0.5,0.4-0.9,1.8-1.4,2.9c-0.3,1.2-0.7,2.4-1.2,3.5c-0.6,1.8-1.3,3.5-1.8,5.2c-0.1,0.2-0.2,0.4-0.2,0.4c-0.1,0-0.1-0.1-0.1-0.3
		c0.3-1.1,0.7-2.2,1.1-3.4l0.8-2.1c0.4-1.1,0.8-2.3,1.1-3.5l-0.1,0.1c1.2-4.1,1.9-7.3,2.6-10.6c0.7-3.2,1.3-6.4,1.8-10.5
		c0-2,0.1-3.4,0.3-5.1c0.2-1.7,0.5-3.6,0.6-6.6l0.1,0.1C310.9,183.5,310.8,182.9,310.9,182.3z M315.8,168c0-3-0.4-7-1.1-10.9
		c-0.6-3.9-1.6-7.8-2.4-10.9c-0.3-1.2-0.3-1.9-0.4-2.8c-0.8-2.4-1.4-4.5-2.1-6.6c0,0,0,0,0,0c0.1,0,0-0.3,0-0.5c0-0.1,0-0.1-0.1-0.2
		c0.5,0.6,0.3-0.6,0.7,0.2c-0.1,0.7,0.4,2.2,0.9,2.4c0-1.1-0.5-3-0.4-3.9c0.1,0.3,0.2,0.4,0.4,0.5c0.1,0.5,0.2,0.9,0.2,1.3
		c0.2,0.7,0.4,1.4,0.6,2c0.1,1.4,0.8,3.7,1.2,6c0.3,1.4,0.4,3.3,0.7,4.8c0.2,1.5,0.5,2.8,1,3c0-0.7-0.1-1.4-0.2-2
		c1,2.7,1.6,6.4,1.9,10.7c0.1,0.4,0.3,0.2,0.3,0.8c0.3,3.5,0.5,6.3,0.6,10.2c0,0.5,0.3,1.1,0.3,1.6c0,0.7-0.1,1.4-0.1,2.1
		c0,1.2,0.2,2.5,0.2,3.7c0,2-0.4,4.2-0.5,6.2c0,0.8,0.2,1.3,0.2,2c0,1.6-0.4,3.1-0.5,4.4c0,0.1,0,0.1,0,0.2l0,0.1l0,0.2l0,0
		c-0.1,1.1-0.2,2.3-0.5,3.6c-0.1,0.3-0.2,0.4-0.2,0.4c-0.1-0.1-0.1-0.3,0-0.6c0.2-1.2,0.4-2.4,0.4-3.4l0,0c-0.3,0.2-0.3-0.3-0.4-0.4
		l-0.1,0.7c-0.3,1.4-0.6,2.8-0.6,4.1c0,0.3-0.1,0.7-0.2,0.8c-0.1,0.1-0.2,0-0.2-0.4c0-0.6,0.1-1.2,0.2-1.8c0.1-1.1,0.4-2.1,0.6-3.1
		l0.2-0.8l0,0c0.1-3,0.3-5.9,0.3-8.7c0-2.9-0.1-5.7-0.4-8.6C316.2,171.8,316.3,170.2,315.8,168z M218.7,315.9
		c-0.1,0.1-0.4,0.3-0.8,0.4l-0.4,0.1l0,0c0,0-1.3,0.3,0.4,0c-0.1,0.4-1.8,1.1-3.7,1.7c-1.9,0.6-4,1-4.8,0.8c4.1-1.2,6-1.9,6.9-2.3
		c0.1-0.1,0.2-0.1,0.3-0.1c-0.1,0-0.1-0.1-0.1-0.1c0.1-0.1,0.3-0.2,0.6-0.3c0.1,0,0.1,0,0.2-0.1l0.4-0.1c1.2-0.4,1.1-0.7,2.3-1
		c-1,0.5-1.5,0.8-1.8,0.9C218.6,315.8,218.7,315.8,218.7,315.9z M220.8,307.3c-1.9,0.7-3.3,1-4.3,0.9c0,0.2-0.6,0.5-1.4,0.7
		c-0.2-0.3-0.9-0.1-1.7,0.2c-0.8,0.3-1.6,0.7-2.2,0.6l0.1,0.3c-2.3,0.6-2.8,0.8-4,0.6c-0.7,0.6-2.3,0.9-3.8,1.3
		c-1.5,0.3-2.8,0.6-3,1.1c-1.8,0.4-1.9,0-2.8,0c-0.4,0.2,0,0.5-1.1,0.6c-0.3-0.1-1.2,0.1-2.2,0.3c-1,0.2-2,0.3-2.6,0.1
		c-1.1,0.5-2.4,0.5-3.8,0.4c-1.4,0-2.9-0.1-4.4,0.5c-0.7-0.3-1.9-0.3-3.2-0.2c-1.3,0.1-2.8,0.2-3.9,0.2c-0.4,0-0.7-0.2-1.2-0.2
		c-2.2,0-4.5,0.1-6.7,0.1c-2.2-0.1-4.3-0.3-5.9-0.9c2,0.2,3.4,0.1,4-0.2c-1.5,0-1.4-0.4-2.3-0.5c-1,0.3-2,0.1-3.2-0.1
		c-1.1-0.2-2.4-0.5-3.9-0.4l0,0c0.1,0,0.2,0.1,0.2,0.1c0,0.1-0.2,0.1-0.4,0.1l-0.2,0l0,0c0.9,0.4,2.3,0.7,3,1.2
		c-0.5,0.3-1.5,0.5-2.5,0.6c-1-0.8-2.6-0.2-3.6-0.2c-2-0.3-2.9-0.7-4.2-1.4c-0.9,0.5-2.8-0.4-5.1-0.7c-0.1,0.2-0.3,0.3-0.9,0.3
		c-0.4-0.6-1.4-0.3-2.3-0.5c-0.3-0.1-0.8-0.4-1.5-0.6c-2.5-0.8-4.8-1.8-7.1-2.6c-1.8-0.6-3.5-0.8-4.8-1.7c-0.7,0.2-2-0.2-3.3-0.8
		c-1.3-0.5-2.8-1.2-3.9-1.4c-0.7-0.6-1.7-1.2-1.9-1.7c1.5,0.5,2.8,1.2,4.2,1.9c1.4,0.7,2.8,1.4,4.5,1.9l-1.1-0.4
		c0.1-0.2,1.4,0.1,2.9,0.4c1.5,0.3,3.1,0.7,3.7,0.9c1.1,0.4,1.2,0.8,2.2,1c0.6-0.1,1.9,0.3,2.8,0.4l0-0.1c0,0,0,0-0.1,0l-0.1,0
		c-0.2-0.1-0.4-0.2-0.3-0.2c0-0.1,0.2-0.1,0.4,0l0,0l0.1,0c0.1,0,0.3,0.1,0.4,0.1c-0.6-0.7-2.7-0.8-3.1-1.6c2.1,0.4,3.7,1.2,5.4,1.1
		c0.3,0.3,1.6,0.6,2.2,0.9c-0.1,0.4-0.8,0.3,0.2,0.8c2.2,0.4,4.7,1.4,6.2,1.1l0,0c-0.1,0-0.2-0.1-0.3-0.1c-0.2-0.1-0.3-0.1-0.2-0.2
		c0.1,0,0.2,0,0.4,0c0,0,0.1,0,0.1,0l0.4,0.1c-0.1-0.4-2.5-0.6-3.4-1c0.4-0.5,2.7,0,4.3,0.1c0.8,0.4,2.1,0.6,3.5,0.8
		c1.4,0.2,2.9,0.3,4.1,0.7c0.5-0.1,1.1-0.2,1.6-0.3c1.8,0.4,3.1,0.5,4.4,0.6c1.3,0.1,2.5,0,4.1,0.1c1.2,0.7,2.2,0.6,3.9,0.2
		c0.4,0.1,0.4,0.4,0.4,0.7c-0.7,0.1-1.8,0.1-2.7,0.2c0.3,0.4-0.6,0.4-0.8,0.6c0.5-0.1,1.4-0.1,2.4-0.1c1.2,0.4,2.7,0.5,4.3,0.4
		c1.6-0.1,3.2-0.3,4.7-0.4c4.4-0.4,9.2-0.8,14.8-1.8c0.3,0.4,1.1,0.5,2.5,0.3c1.9-1,4.7-1.7,7.5-2.3c2.8-0.7,5.7-1.3,8-2.3
		c0.5,0.3,1.6,0.2,2.7-0.2c1.1-0.4,2.4-1,3.4-1.5c0.9,0.1,2.6-0.4,3.3-0.2C221.9,306.4,220.5,306.9,220.8,307.3z M193.5,316.6
		c-0.1-0.1,0-0.2,0.2-0.2c0.1,0,0.1,0,0.2,0c0.2,0,0.4,0,0.5,0c0,0,0,0,0,0l0.1,0c-0.1-0.4,1.1-0.5,2.3-0.8c0.7,0.3,2,0,3.3-0.3
		c1.3-0.3,2.4-0.5,2.8-0.1c-2,0.8-3.9,1-6.7,1.5c-1,0,0.4-0.5-0.5-0.4c0,0.1-0.7,0.2-1.1,0.3c0,0,0,0,0,0c0.1,0.1-0.1,0.2-0.4,0.2
		c-0.3,0.1-0.5,0-0.6,0c0,0,0,0,0-0.1c-0.9,0.3-1.4,0.5-1.5,0.1C192.9,316.8,193.3,316.7,193.5,316.6
		C193.5,316.6,193.5,316.6,193.5,316.6z M187.6,323.7c0.6-0.5-1.2-0.1-0.9-0.5c2.7-0.5,5.4-0.9,7.5-1.1c0.6,0.3-1.3,0.3-0.8,0.6
		c2.1-0.4,4.6-1,5.9-0.7c-2.1,0.5-3.9,0.8-5.7,1.1C191.8,323.3,189.9,323.5,187.6,323.7z M75.7,266l-0.1-0.1l-0.2-0.2
		c-0.2-0.2-0.4-0.4-0.4-0.6c0-0.1,0.1-0.1,0.3,0l0.2,0.2l0,0c-0.8-1.3-0.1-1.1,0.6-1.3c1.8,1.6,2.8,2.5,4.4,4.6
		c1.7,0.9,3.8,3.5,5.7,5.4c1.7,1,3.5,2.7,5.3,4.2c1.8,1.6,3.5,3.1,4.9,3.9c1.1,0.8,1.2,1.4,2.1,2.1c-0.1,0,0.7,0.2,1.1,0.4
		c0.8,0.6,0.8,1.2,1.7,1.5c1,0.6,1.4,0.3,2.5,1c0.7,0.8,2.3,1.8,2.9,2.5c-2.1-1-3.7-1.9-5.1-2.8c-1.4-0.9-2.7-1.9-4.3-3.4
		c-0.7-0.3-1.3-0.5-1.9-0.6c0.6,0.4,0.9,0.7,0.8,0.9c-0.4-0.2-0.4,0-0.5,0.1c-1.5-1.1-2.5-1.5-3.4-1.9c-0.9-0.4-1.8-0.8-2.8-1.9
		c-0.3,0.3-0.5-0.5-1.1-0.5c-1.2-1.5-4.2-4-7-6.7C78.6,270.3,76.1,267.6,75.7,266z M138.5,320L138.5,320c-0.1-0.1-0.2-0.1-0.3-0.1
		c-0.2-0.1-0.3-0.2-0.2-0.2c0.1,0,0.3,0,0.4,0c0,0,0.1,0,0.1,0c0.1,0,0.3,0.1,0.4,0.1c-0.1-0.1-0.5-0.2-0.8-0.3
		c-0.6-0.8,2.1-0.2,1.1-0.9c1.9,0.4,4.8,0.7,7.1,0.8l0,0c-0.1,0-0.1,0-0.2-0.1c-0.1-0.1-0.2-0.1,0-0.1c0.1,0,0.3,0,0.5,0.1
		c0,0,0.1,0,0.1,0.1c-0.4-0.3-1.3-0.6-1.9-0.9c1.3,0.1,1.7,0.1,3.3,0.5l0,0c0,0,0,0,0.1,0c0.1,0,0.2,0,0.3,0c0,0,0.1,0,0.1,0
		c0.2,0.1,0.3,0.1,0.2,0.2c0,0,0,0,0,0c1,0,2.2,0.4,2.1,0.8c-0.4-0.1-0.3,0.1-0.4,0.2c0.1,0,0.3,0.1,0.4,0.1
		c0.3,0.1,0.4,0.2,0.3,0.3c-0.1,0.1-0.5,0.1-0.8,0c-0.1,0-0.3-0.1-0.4-0.1c-0.4,0.4,2,0.5,3.3,0.9c0,0.2-0.5,0.2-0.5,0.4l-0.4-0.1
		l0,0c0.1,0,0.1,0,0.2,0c0.3,0,0.6,0.1,0.6,0.2c0,0.1-0.2,0.1-0.5,0.1c-0.1,0-0.1,0-0.2,0l0,0c0.3,0.2,0.7,0.3,1.2,0.4
		c-1,0.9-4.2,0-6.8-0.1c-1.5-0.6-2.4-0.5-5-1.1c-0.7,0-0.8,0.3-2.1-0.1c-1.7-0.6-3.1-1-4.6-1.4c-1.5-0.4-3.1-0.9-5.1-1.6
		c-0.2-0.7,1-0.4,1.5-0.7c1.8,0.4,2.9,1,3.8,1.5C136.1,319.4,136.9,319.9,138.5,320z M174.1,323.8c-0.4,0-0.5,0.2,0,0.2
		c1.5,0.2,3.7,0,5.7-0.1c2-0.1,3.7-0.2,4.5,0.1c-1.6,0.2-3.5,0.4-5.4,0.5c-1.9,0.1-3.6,0.1-4.7,0c-2.2,0.4-5,0.3-7.8,0
		c-2.8-0.3-5.7-0.8-8.2-0.9c0.4-0.3,1.3-0.3,2.4-0.2c1.1,0.1,2.3,0.2,3.1,0.2c0.1,0.1,0,0.2,0.4,0.3
		C166.9,323.9,170.3,323.5,174.1,323.8z M178.5,318.2c0.3-0.2,1.5-0.3,2.6-0.4c1.1-0.1,2.2,0,2.2,0.2c-1.4,0.2-2.9,0.4-4,0.6
		C179.3,318.4,178.2,318.6,178.5,318.2z M160.2,318c-1.2-0.4-3.7-0.8-5.6-0.7c0.3-0.7-1.2-0.3-2-0.4c-0.3-0.2-0.5-0.4-0.3-0.7
		c1.1,0.5,1.8,0,2.8,0c1.9,0.1,4.1,0.6,5.6,1.1c1.8,0,2.5,0.4,3.2,0.5c1.2,0.2,3.2-0.1,4.4,0.6C165.3,318.4,163,317.8,160.2,318z
		 M158.7,309.5c1.8,0.5,3.5,0.9,5.1,1.1c1.7,0.2,3.4,0.3,5.5,0.3c0.2,0.2,0.8,0.3,0.8,0.6c-1.1,0.5-2.1-0.3-3.1-0.3
		c0,0-0.6,0.2-0.8,0.2c-4.4-0.1-7.9-0.8-9.5-1.3C157.7,310.1,158.9,310.1,158.7,309.5z M175.8,308.4c0.3-0.3-0.5-0.3-0.4-0.6l1.1,0
		c0.1,0.2-0.6,0.3,0,0.4l0.2,0c0,0,0.1,0,0.1-0.1c0,0,0.1,0,0.2,0c0,0,0.1,0,0.1,0c0.1,0,0.2,0.1,0.1,0.1c-0.1,0-0.1,0.1-0.2,0.1
		c0.5,0,0.9,0,0.9,0.1c-0.6,0-0.6,0.1-1.1,0.2l-0.2,0c0,0-0.1,0.1-0.2,0.1c-0.1,0-0.2,0-0.3,0c-0.1,0-0.1-0.1-0.1-0.1
		c0.1,0,0.2-0.1,0.2-0.1L175.8,308.4z M177.6,306.2c0.8-0.2,3-0.2,3,0.2C179.7,306.7,178.2,306.4,177.6,306.2z M179.5,308
		c1.3-0.3,0.2,0.4,1.1,0.3c1.1-0.3,2.8-0.6,4.5-0.7c1.7-0.1,3.3-0.2,4.2,0c-1,0.3-2.5,0.7-4.1,0.8c0,0,0-0.2,0-0.2
		c-0.7,0-2.3,0.2-3.7,0.3c-1.4,0.1-2.7,0.1-2.8-0.3C179.1,308.2,179.5,308.2,179.5,308z M181.9,313.2c-0.1,0.1-0.4,0.2-0.7,0.1
		c-0.3,0-0.4-0.1-0.3-0.2c0,0,0.1-0.1,0.1-0.1l-0.1,0c-1,0.2-1.3,0.6-2.7,0.4c-0.3-0.3,0.5-0.3,0.4-0.6c0.8,0,2.5-0.3,2.7,0
		c0,0,0.1-0.1,0.1-0.1c0.1-0.1,0.3-0.1,0.5-0.1c0,0,0.1,0,0.1,0c0.3,0,0.4,0.1,0.4,0.2c0,0,0,0,0,0l0.1,0c1.2,0,1.5-0.4,2.3-0.2
		c0.2,0.2-0.4,0.4-1.1,0.5c-0.7,0.1-1.5,0.1-1.5,0.1l-0.1,0C182,313.1,182,313.1,181.9,313.2z M179.6,310.1c-0.1-0.1-0.4-0.1-0.8,0
		C178.3,309.6,181.2,309.9,179.6,310.1z M209.1,308.5C206.7,309.3,208.2,308.4,209.1,308.5L209.1,308.5z M219.3,294.3l-0.7,0.3
		c0-0.1-0.1-0.1-0.4,0l-0.1-0.2c0.2-0.1,0.4-0.2,0.3-0.2l0.7-0.3c0,0.1,0.1,0.1,0.4,0l0.1,0.2C219.4,294.1,219.2,294.2,219.3,294.3z
		 M249.2,282.8c0,0.1-0.1,0.2-0.3,0.4c-0.1,0.1-0.2,0.1-0.3,0.1l0,0c-0.8,0.5-0.5,0.7-1.5,1.2l0,0.1c0,0,0.1,0,0.1,0
		c0.1,0,0.1,0.2-0.1,0.3c-0.2,0.2-0.5,0.3-0.6,0.3c-0.1,0-0.1,0-0.2,0l-0.1,0l0.2,0.3c-2.2,1.3-3.6,2.2-5,2.7l0,0c0,0,0,0.1,0,0.1
		c0,0.1-0.2,0.3-0.4,0.4c-0.2,0.1-0.4,0.1-0.3,0c0-0.1,0-0.1,0-0.2c-0.5,0.4-0.4,0.6-1.4,1.1c-0.6,0,0.7-1-0.3-0.5
		c-0.4,0.5-1,1-2.1,1.7c-0.4-0.1-0.5-0.5-1.3-0.1l-0.2,0.1c0,0-0.1,0.1-0.1,0.2c-0.1,0.1-0.2,0.1-0.3,0.2c-0.1,0-0.1,0-0.1-0.1
		c0.1-0.1,0.1-0.2,0.1-0.2c-1.7,1.1,0.7,0.3-0.1,1.1c-2.2,0.8-3.3,1.8-5.6,3.2c-0.2-0.4-0.2-0.8,0.2-1.3c0.1,0.2,1.1-0.7,2-1
		c-1,0.2,0.2-0.6,0.3-1c1.1-0.4,1.5-0.7,2.6-1.4c0.1,0.1,0.4-0.1,0.4,0l0.2-0.1c0,0,0-0.1,0.1-0.1c0,0,0.1-0.1,0.2-0.1
		c0,0,0.1,0,0.1,0c0.1,0,0.2,0,0.1,0.1c0,0.1-0.1,0.1-0.1,0.2c0.5-0.3,0.5,0,0.9-0.2c0.4-0.9,1.5-2,2.1-3c0.8-0.1,2.2-0.9,1.7-0.1
		c2.6-1.6,4.2-3,6.7-4.1c0.7-0.2-0.1,0.3,0.4,0.5c0.4-0.3,0.8-0.6,1-0.6l0.1-0.1c0,0,0-0.1,0-0.1c0-0.1,0.1-0.2,0.3-0.3
		c0,0,0.1-0.1,0.1-0.1c0.2-0.1,0.3-0.1,0.3,0c0,0.1,0,0.1,0,0.2c0.7-0.5,1.4-1,1.6-0.9C250.3,281.9,249.5,282.8,249.2,282.8
		L249.2,282.8z M221,304.5c-0.8,0.6-1.6,0.9-2.5,1.1c-0.1-0.2,0-0.4,0.2-0.6C219.8,304.6,220.6,304.4,221,304.5z M225.3,302.7
		c0.9-0.4,1-0.7,1.5-0.5c-0.7,0.3-0.3,0.5-1.3,0.8L225.3,302.7z M189.7,305.1c0.5,0.2,1.1,0.4,1.9,0.4c0.3-0.3,1.7-0.5,2.9-0.7
		c0,0.2,1,0,0.8,0.3l0.2-0.1c0,0,0.1-0.1,0.1-0.1c0,0,0.1-0.1,0.2-0.1c0,0,0.1,0,0.1,0c0.1,0,0.2,0,0.1,0.1
		c-0.1,0.1-0.1,0.1-0.2,0.2c1.7-0.2,1.5-0.4,0.8-0.8c1.9-0.1,3.1-0.8,4.7-1.2c1.5-0.4,3.3-0.5,5.1-1.1c1.6-0.5,3-1.4,4.5-1.8
		c1.9-0.6,3.9-0.7,5.8-1.4c0.3-0.5,2.4-1.1,2.6-1.6c0.7,0,1.7-0.4,2.8-0.8c1.1-0.4,2.3-0.9,3.2-1.2c0.7,0.3-1.1,1.1,0.1,1l0.1-0.1
		c0,0,0-0.1,0-0.1c0-0.1,0.2-0.2,0.3-0.2c0,0,0.1,0,0.1,0c0.2-0.1,0.3,0,0.3,0c0,0.1,0,0.1,0,0.2l0.6-0.3l0.1,0.2
		c-0.3,0.2-0.6,0.2-0.7,0.2l0,0c0,0.1-0.2,0.2-0.4,0.3c-0.2,0.1-0.4,0.1-0.4,0l0,0c-2.4,1.6-5.5,2.5-9,3.7c0.1,0.2-0.2,0.4-0.6,0.6
		c-1.5,0.4-2.2,0.4-3.3,0.8c-2.9,0.9-5.4,2.1-7.6,2.2c-1.3,0.1-1.2-0.5-2.7-0.2c-1,0.2-2.9,0.9-3.9,1.1c0.4,0.1,1.2,0.1,0.5,0.5
		c-1.1,0.5-1.8,0.3-3,0.2l-0.1,0c0,0,0,0-0.1,0.1c-0.1,0-0.2,0.1-0.3,0.1c-0.1,0-0.2,0-0.1-0.1c0,0,0.1-0.1,0.1-0.1
		c-1.5,0.5-3.1,0.4-4.3,0.9c-1.4,0,0.2-0.7-0.5-0.8c-2.6,0.4-3.9,0.2-4.9-0.1C187.7,305.2,188.1,305.9,189.7,305.1z M161.4,303.2
		c-0.1,0.1-0.4,0.1-0.7,0.1c-0.3-0.1-0.5-0.2-0.4-0.3c0,0,0.1-0.1,0.1-0.1c-0.8-0.3-2.3,0-2.8-0.5c0,0,0,0,0,0
		c0,0.1-0.2,0.1-0.5,0.1c-0.2,0-0.3-0.1-0.3-0.2c0,0,0,0,0,0l0,0c-0.8-0.1-1.6,0-1.8-0.4c0.3-0.2,1.7-0.2,1.8,0.2l0.1,0
		c0,0,0.1-0.1,0.1-0.1c0.1,0,0.2-0.1,0.4,0c0,0,0.1,0,0.1,0c0.2,0,0.3,0.1,0.2,0.2c0,0-0.1,0.1-0.1,0.1c0.8-0.1,2.3,0.2,2.8,0.4
		l0.1,0c0,0,0,0,0,0l0.1-0.1c0.1-0.1,0.3-0.1,0.6-0.1c0,0,0.1,0,0.1,0c0.3,0,0.5,0.2,0.4,0.3l-0.1,0.1c0,0,0,0,0,0
		c0.8,0,0.7-0.4,1.8-0.2l0,0.5c-1-0.2-0.9,0.1-1.8,0l0-0.1L161.4,303.2C161.5,303.2,161.4,303.2,161.4,303.2z M168.8,302.5
		c0.1,0,0.2,0,0.3,0c0.2,0,0.4,0,0.5,0.1c0.1,0.1,0.1,0.2-0.1,0.2l0.1,0c1.7,0.3,1.8,0.4,2.5,1.1c-2,0.4-4.2,0.1-3.6-1
		c0,0-0.1,0-0.1,0c-0.3,0-0.6-0.1-0.6-0.2c0-0.1,0.2-0.2,0.6-0.2c0,0,0,0,0,0c-0.8-0.1-1.2-0.1-1.2-0.3
		C167.5,302.2,168.8,302.2,168.8,302.5C168.8,302.5,168.7,302.5,168.8,302.5C168.7,302.5,168.7,302.5,168.8,302.5z M173.1,303.3
		c0.5,0,0.7-0.2,1.4-0.1c-0.5,0.5,1,0.2,0.7,0.6c-0.5,0-0.8,0.1-1.1,0.1C174.1,303.6,173,303.7,173.1,303.3z M25.1,227.4
		c0.6,1.1,1.4,3,2.1,4.5c0.3-0.7,0.9,0.1,1.3,1.2c0.4,1.1,0.7,2.5,0.3,3c-1.4-2.1-2.6-3.5-3.9-5.3c0-0.7-0.6-2.3-0.7-3.1L25.1,227.4
		z M309.3,249.5c0.4-0.7,0.8-1.5,1.2-2.2l0.9-1.8c0.3-0.6,0.6-1.2,1-1.9c0.1-0.2,0.3-0.4,0.3-0.3c0,0.1,0,0.3-0.2,0.6
		c-0.6,1.1-1.2,2.3-1.8,3.5c-0.4,0.8-0.8,1.6-1.2,2.4c-0.1,0.2-0.3,0.4-0.4,0.4C309.1,249.9,309.1,249.7,309.3,249.5z M315.6,223
		c-0.6,1.9-1.2,3.7-1.6,4.7l0-0.1c-0.4,1.1-0.8,2.3-1.2,3.4c-1.2,3.3-2.5,6.7-4.1,9.9c-0.1,0.2-0.2,0.3-0.3,0.3
		c-0.1,0,0-0.2,0.1-0.4c1.6-3.2,2.9-6.5,4-9.8c0.4-1,0.7-2.1,1.1-3.1c-0.2-0.6-0.6,0.1-0.3-1.3c0.4-1.3,0.9-2.4,1.2-2.7
		c0.2-0.8-0.1-0.9,0.2-1.7c1-2.2,1-3.9,1.9-4.7c0.8-2.2,1.4-4.3,1.8-6.3l0,0c-0.1,0,0-0.5,0.1-0.8c-0.2,0.2-0.3,0.9-0.6,0.8
		c-0.1,0.4-0.1,0.7-0.1,0.8c0,0.1,0,0.2-0.1,0.3c0,0.1-0.1,0.2-0.1,0.1c-0.1-0.2,0-0.8,0.2-1.4l0.1-0.3c0.4-1.8,0.5-2.3,0.7-2.9
		c0.2-0.6,0.3-1.3,0.6-3.2c0.3,0.9,0.5-0.8,1.1-0.3c-0.1,0.4-0.3,1.8-0.6,3.2c-0.2,1.4-0.5,2.9-0.8,3.4l0,0c-0.4,2.2-1.1,4.5-2,7
		C316.7,219.2,316.2,221.1,315.6,223z M299.6,97.5c1.7,2.4,3.4,5,4.8,7.5c1.4,2.5,2.6,4.8,3.6,6.5c0.3,1.1,0.2,1.7,1.2,3.7
		c1.4,1.5,2.5,4.3,4,7.1l0.2,0.4l0.9,2.2c0.3,0.7,0.5,1.4,0.8,2.1c0.1-0.1,0.1-0.3,0.2-0.5c0.1,0.3,0.2,0.6,0.3,1l0,0
		c0,0.1,0.1,0.2,0.1,0.2c0.4,1.4,0.8,3,1.4,3.6c0-0.1,0-0.1,0-0.2c0.3,0.8,0.5,1.6,0.8,2.4c0.6,2.2,1.2,4.5,1.8,6.8
		c0.2,0.8,0.5,1.3,0.7,2c0.7,2.5,1.2,5.2,1.7,7.9c0.7,3.6,1.4,7.3,1.8,11c0.5,3.7,0.8,7.4,0.7,11.1c0.2,1.2,0.3,2.8,0.1,4.1
		c-0.1,0.8-0.1,1.6,0,2.4c0,0.1,0,0.3,0,0.4c0.1,4.8-0.2,9.5-0.7,14.5c-0.5,4.9-1.4,10-2.5,15.4l0,0c0,0.1,0,0.3-0.1,0.5
		c0,0.3-0.1,0.5-0.1,0.7c0,0.1-0.1,0.3-0.1,0.4c-0.1,0.1-0.1,0-0.1-0.1c0-0.2,0.1-0.5,0.1-0.8l0-0.2c-0.1,0,0-0.2,0-0.4
		c-0.4-0.3-0.9,1.9-0.9,0.8c0.5-2.7,1-5.4,1.6-8c0.5-2.6,1-5,1.3-7.2c-0.1,0-0.2,0.5-0.2,0.8c0.2-2.6,0.4-5.6,0.6-8.5
		c0.2-2.9,0.4-5.8,0.9-8.2l0,0c0-0.5,0-0.9,0-1.4c0-0.4,0-0.9,0.1-1.3l0,0c-0.6-1.6-0.7-5-0.9-8.5c-0.2-3.5-0.5-7.1-1.2-9.1
		c-0.2-1.7-0.2-2.7-0.3-3.6c-0.1-0.9-0.1-1.8-0.3-3.2c-0.2-0.9-0.5-0.7-0.7-1.1c-0.6-4.9-1.7-8.8-2.9-12.3
		c-1.2-3.5-2.3-6.6-3.3-10.1c0-0.8,0.3,0.1,0.5-0.3l-0.1-0.4l0,0c-0.1-0.2-0.2-0.4-0.2-0.7c-0.2,0.4-0.4,0.7-0.3,1.9l0.1,0.2
		c0.1,0.1,0.1,0.1,0.2,0.2c0.1,0.1,0.1,0.2,0.1,0.4c0,0.1,0,0.2-0.1,0.1c-0.1-0.1-0.2-0.2-0.2-0.3c0.2,0.6,0.4,1.1,0.3,1.2
		c-0.3-0.5-0.3-0.6-0.4-1.2l-0.1-0.2l-0.1-0.1c0,0-0.1-0.1-0.1-0.2c0,0,0-0.1,0-0.1c0-0.1,0-0.2,0.1-0.1l0.1,0.2
		c0,0,0.1,0.1,0.1,0.1c-0.6-1.4-1-2.2-1.3-3.6l0,0.1c0,0.1,0,0.2,0.1,0.3c0,0.2,0,0.2-0.1,0.1c0,0-0.1-0.1-0.1-0.2
		c0-0.1,0-0.1,0-0.2c0-0.1,0-0.2,0-0.2l-0.1-0.2c0.2,0.6-0.1,0.5-0.3,0.4c-1.2-2.7-2.4-5.7-3.4-8.6c-1.2-1.8-2.1-3.6-3-5.6
		c-0.9-2-1.8-4.1-3-6.4c-0.7-0.7-1.5-2-2.4-3.4c-0.9-1.5-1.9-3.1-2.8-4.6c-2-3.1-3.9-6.5-5.7-8.9c-2.3-3-3.7-4.8-4.8-6.9
		c-0.6,0-1.4-0.9-2.5-2.2c0.2,0,0.5,0.3,0.6-0.1l0,0c0,0,0.1,0,0.1,0c0.2,0,0.4,0.2,0.7,0.4c1.3,1.3,0.6,1.3,1.7,2.5
		c0.1-0.3,0.5,0,1.1,0.7c0.8,1.2,2,2.6,2.7,3.2c0.9,1.7,2.1,3.5,3.3,5.2c1.2,1.7,2.4,3.2,3.5,4.5C298.8,95.9,299.1,96.6,299.6,97.5z
		 M88.7,55.4c-1.7,1.7-4.5,3.7-7.1,5.9c-2.7,2.2-5.2,4.5-6.8,6.4c-1.5,1.3-2.8,2-3.7,3.5l0,0l-0.4,0.3c-0.3-0.1-1.2,1-1.7,1.3
		c-0.6,0.7,0.4,0.4-0.5,1.2c-0.7,0.8-1,0.9-1.6,1.4l0,0c-0.2,0.2-0.4,0.4-0.6,0.5L66,76.4l0,0l0-0.1c-0.1-0.1-0.2-0.1-0.4,0
		l-0.1,0.1l-0.1,0.2c-0.1,0.1-0.3,0.4-0.4,0.6c-0.2,0.2-0.4,0.5-0.5,0.7l0,0c-0.7,1-1.8,2.2-2.8,3.3c-1,1.1-2,2-2.8,2.2
		c1.1-1.8,3.5-4.9,5.7-7.4c1.2-1.3,2.7-2.6,4-3.9c2.7-2.7,5.3-5.6,8.2-8.1c2.2-1.9,4.4-3.3,6.2-4.7c2.4-1.9,5.7-4.6,8.9-6.9
		c3.2-2.3,6.2-4.2,7.9-4.8c4.2-2.7,8.5-5,13-7.1c4.5-2.1,9.3-4,14.4-5.7l0,0c0.5-0.1,0.9-0.3,1.4-0.5c0.5-0.2,1-0.4,1.5-0.5l0,0
		c1.4-0.4,3.6-1.1,5.9-1.7c2.4-0.7,4.9-1.3,7.2-1.9l0,0c2.7-0.6,5.4-1.2,8.1-1.6c1-0.2,1.9-0.3,2.9-0.5c1.7-0.3,3.4-0.5,5.2-0.7
		c0.1,0,0.1,0,0.2,0l0,0c1.3,0,3.3-0.1,5.4-0.2c2.1-0.1,4.2-0.3,5.9-0.5h0c3.2-0.2,6.2-0.1,9.3,0.1l0.1,0c0.1,0,0.3,0,0.4,0
		c3.4,0.2,6.4,0.4,9.3,0.8c2.9,0.3,5.6,0.8,8.3,1.2c5.3,1,10.6,2.2,16.7,4l0,0c0.8,0.3,1.6,0.5,2.3,0.7c1.4,0.4,2.6,0.8,3.7,1.3
		c0.1,0,0.2,0.1,0.3,0.1c0.2,0.1,0.4,0.1,0.5,0.1c0.2,0,0.1-0.2-0.2-0.3c-1.2-0.6-2.7-1.1-4.1-1.5c-0.9-0.3-1.7-0.5-2.5-0.8l0,0
		c-0.7-0.8-2-1-4.1-1.6c-3.5-1-6.3-1.6-10-2.3c-6.8-1.3-13.5-1.9-20.8-2.1l0,0c-3-0.2-6-0.2-9.1,0c-2-0.3-3.6,0.2-5.5,0.3
		c-0.7,0-1.6-0.2-2.2-0.2c-1.7,0.1-3.9,0.4-4.2,0.6c-1.7,0.2-3.4,0.4-5,0.7c-3.7,0.6-7.4,1.3-11.1,2.2c-2.2,0.3-4.5,0.8-6.8,1.4
		c-2.3,0.6-4.5,1.4-6.3,2.2c-0.8,0.3-1.7,0.6-2.4,0.9c-1.3,0.1-3.4,0.8-5.6,1.6c-2.2,0.9-4.5,1.9-6.5,2.7c-2.7,1.1-4.9,1.7-7,3.3
		c-2.8,0.9-6.2,2.8-9.5,4.9c-3.3,2.1-6.5,4.4-9.1,5.9c-0.3-0.4,0-1.1-1.3-0.4c-0.1,0-0.1,0-0.2,0l-0.2-0.2c0.3-0.8,2.2-2.2,3.4-3.3
		c1.7-0.7,3.9-2.1,6.2-3.5c2.2-1.4,4.5-2.7,6.1-3.3c1.9-0.6,2.9-1.3,3.2-0.8c3-1.7,5.7-3.8,9.1-5c0.7-0.5,0.3-0.7,1.7-1.3
		c1.6-0.4,4.2-1,4.9-1.9c1.1-0.1,2.7-0.7,4.5-1.3c1.7-0.6,3.5-1.1,4.8-1.4c1.7-0.8,3.3-1.1,5.4-1.7c1.9-0.5,4.4-1.3,5.4-1.6
		c3.1-0.9,4.7-1.2,6.4-1.4c0.8,0,1.2,0.3,1.1,0.8c1.2-0.6,2.8-0.9,4.5-1.1c1.7-0.2,3.4-0.4,4.7-0.9c2.2,0.2,5.3-0.2,6.9-0.9
		c1.6,0,3.9,0.1,6,0.1c2.1,0,4,0,4.9-0.4c1.2,0.2,3,0.3,4.8,0.3c1.9,0,3.9,0.1,5.6,0.3c2.3,0.2,4.5,0.9,5.6,0.4
		c0.5,0,1.1,0.1,1.7,0.2c1.8,0.4,3,0.9,4.8,1.2c1.9,0.4,4,0.5,6,0.9c0.9,0.2,0.7,0.3,1.3,0.5c1.3,0.4,3.3,0.7,5.1,1.2
		c1.1,0.3,2.6,0.9,3.3,1.2c1.8,0.7,3.6,1.1,5.8,1.9c1.3,0.5,2.3,1,3.4,1.5c1.1,0.5,2.2,1,3.9,1.5c1.4,0.6,0.4-0.6,1.4-0.3
		c1.9,0.7,3.3,1.5,3.9,2.2c2,0.7,4.2,1.7,5.9,2.6c1.7,0.9,2.9,1.8,2.9,2.2c2.6,1.2,5,2.2,8.1,4c0.1,0.4,0.5,0.9,1.3,1.4
		c0.5,0.1,2,0.8,3.5,1.7c1.5,0.9,3.1,1.9,4,2.5c2.3,1.6,4.1,3.4,5.2,4.7c2.3,1.4,3.5,2.6,4.7,2.8c1.3,1.3,2.4,2.1,3.5,2.8
		c1.1,0.7,2.2,1.3,3.4,2.3c1.5,1.3,1,1.8,2.1,2.9c0.9,0.9,3.4,1.8,3.7,3.6c0.8,0.8,0.7,0.1,1.5,0.8c0.9,1,1.4,1.8,2.2,2.8
		c0,0.7-0.2,0.4-0.3,1.1c0.3,0.4,0.8,0.9,0.8,1c1.1,1.3,1.1,0.4,2.1,1.4c0.8,0.7,1.8,1.9,2.8,3c1,1.2,1.9,2.3,2.6,3
		c1.1,1.5,0.6,1.7,1.3,2.9c0.8,0.9,1.7,2.1,2.5,3.2c0.7,1.1,1.2,2,1,2.4c-1.1-0.1-2.9-2.6-4.5-5c-1.3-1.9-1.9-2.6-3.3-4.4
		c-0.7-0.9-1.2-1.8-2-2.8c-1.5-1.9-3.6-3.8-5.5-5.9c-0.7-0.7-1.3-1.7-1.9-2.3c-3.6-3.6-7.7-7.3-11.9-10.5c-4.1-3.3-8.2-6.1-11.6-8.4
		c0,0-0.1-0.1-0.1-0.1l-0.5-0.4c-1.2-1.2-3.4-2.2-5-3.2c-0.6-0.4-1.2-1-1.7-1.3c-2.1-1.3-3.9-2-5.6-2.9c-0.8-0.5-1-0.9-1.8-1.3
		c-1.8-1.1-4.2-1.8-6.5-3c-0.1,0.1,0,0.4-0.5,0.2c0.9,0.9,2.6,1.8,4.6,2.8c2,1,4.2,1.9,5.9,2.9c1.6,0.9,3.6,2.2,5.5,3.4
		c1.9,1.2,3.7,2.3,5,2.8l0.4,0.2c0.4,0.5,1.4,1.2,2.6,1.9c1.2,0.7,2.5,1.6,3.6,2.5c0.1,0.3,1,0.9,0.4,0.9c2.5,1.9,5.1,4.2,7.6,6.3
		c2.5,2.1,4.8,4.1,6.7,5.3c0.8,1.3,2.1,2.6,3.4,3.9c1.3,1.3,2.7,2.7,3.5,4.2l0,0c0,0,0,0-0.1,0c0,0-0.1,0-0.1,0
		c-2.1-1.7-3.9-3.3-5.8-5.1c-1.9-1.8-3.8-3.7-6.2-5.8c-0.9-0.8-0.9-1.2-1.7-1.9c-1-0.8-2.8-2-4.6-3.3c-1.8-1.3-3.6-2.7-4.6-3.9
		c-0.8-0.2-2.1-1.1-3.4-1.9c-1.3-0.9-2.5-1.7-3.1-1.8c-2.6-1.9-6.2-4.2-10-6.3c-3.8-2.1-7.7-4-10.6-5.7c-0.7-0.2-1.4-0.3-2.1-0.3
		c-0.6-0.4-1.1-0.8-1.4-1.1c-0.6-0.1-0.6,0.2-1.3,0c-2.1-0.7-3.7-1.4-5.2-2.1c-1.5-0.7-2.9-1.4-4.5-2c-2.2-0.8-4.3-1.2-6.8-2.1
		c-1.6-1.2-5-2.2-7.7-2c-2.7-0.9-5-1.2-7.4-1.9c-0.3-0.1-0.9-0.6-1.2-0.7c-1.7-0.5-2.8-0.4-5-0.7c-1.1-0.2-0.8,0.2-1.2,0.2
		c-2.4-0.5-4.4-0.9-6.3-0.4c-2.1-0.3-6-0.5-10.2-0.5c-4.2,0-8.8,0.2-12.2,0.3c-1.1,0.3-2.6,0.4-4,0.6c-1.4,0.2-2.6,0.4-3.1,0.6
		c-2.1,0-4.7,0.4-7.6,1c-1.3,0.3-1.3,0-1.8-0.1c-2.4,1-4.8,1.2-7.8,2c-2.8,0.8-4.3,1.6-6,2c-1.4,0.4-2.7,0.5-3.9,0.7
		c-1.8,1-3.8,1.8-5.7,2.5c-1.9,0.8-3.8,1.5-5.4,2.4c-1.5,0.6-2.2,0.5-3.4,0.9c-3,1.5-5.6,2.8-8.4,4.3c-2.8,1.5-5.9,3.2-9.8,5.7
		c-1.3,0.9-1.3,1.4-1.6,2c-1,0.7-1.6,0.9-1.8,0.5C90.3,55,89.3,55.6,88.7,55.4z M95.6,60.8c-4.6,3.3-9,6.9-13.3,10.5
		c-0.7,0.6-0.7,0.9-1.7,1.7c-0.5,0.1-1.4,0.9-2.2,1.8c-0.9,0.9-1.7,1.8-2.4,2c0,0,0-0.1,0-0.2c2.1-2.2,4.5-4.6,7-6.9
		c2.5-2.3,5.1-4.6,7.7-6.5c2.8-2.1,5.8-3.7,7.8-5.7c1.6-0.6,3.1-1.8,4.4-2.9c2.6-1.3,4.9-2.6,7.2-3.8c2.3-1.2,4.6-2.5,7.1-3.7l0,0
		c0.4-0.2,0.7-0.3,1.1-0.5l0.5-0.2l0.7-0.3c0.1,0,0,0.2,0.1,0.2c2.7-0.9,5.7-2.1,8.4-3.1c5.1-1.9,11.1-4,18.1-5.4l0,0
		c0.4-0.1,0.9-0.2,1.3-0.2c0.4-0.1,0.8-0.2,1.1-0.3l0,0c1.3-0.1,3-0.4,4.5-0.8c1.5-0.4,2.9-0.8,3.8-1.1c1.6-0.2,2.8-0.1,4.1-0.1
		c2.8-0.4,7.2-0.7,11.7-0.8c4.5-0.1,9.2,0.1,12.5,0.3l-0.1-0.1c0.6,0.1,1.2,0.2,1.9,0.2l0,0c0.2,0,0.3,0,0.3-0.1
		c0-0.1-0.2-0.1-0.3-0.1c-0.5,0-0.9-0.1-1.4-0.2l0,0c-0.4-0.5-1.5-0.2-1.7-0.8c1.5-0.2,3.2-0.1,4.8,0.2c1.5,0.2,2.8,0.5,3.6,0.7
		c0.1,0,0.2,0,0.3,0.1c0.3,0,0.5,0,0.6,0c0.2-0.1,0-0.2-0.3-0.3c-3.5-0.9-7-1.2-9.6-1c-1.7-0.5-3.2-0.3-5.2-0.3c-1.2,0-3-0.1-5-0.1
		c-2,0-4.2,0-6,0.2c-6.6,0.5-12.9,1.2-17.7,2.6c2.1-0.1,4.5-0.4,5.4-0.3c-2.1,0.6-5,0.6-6.6,1.6c-0.5,0.1-1.1,0.3-1.7,0.4
		c-2-0.1-4.3,0.6-6.4,1c0.2-0.4,1.8-0.8,2.6-1.2l-0.1,0c0.6-0.1,1.1-0.2,1.7-0.3c0.6-0.1,1.2-0.3,1.8-0.5c0.5-0.1,1-0.3,1.6-0.4
		c0.2,0,0.3-0.1,0.3-0.2c0-0.1-0.2-0.1-0.4,0c-0.5,0.1-1.1,0.3-1.6,0.4c-1,0.3-2,0.5-2.9,0.7l0,0c-2.1,0.3-4.3,0.9-6.5,1.6
		c-2.3,0.7-4.5,1.5-6.8,2.3c-1.3,0.4-2.5,0.7-3.9,1.2c-5,1.8-8.6,3.9-11.2,4.3c0.1,0.3-1.6,1.1-1.5,0.6c0.7-0.7,2.2-1.5,3-2.1h0
		l0.1,0c0.5-0.2,1-0.5,1.3-0.8c1.7-0.2,3.4-1.3,5.3-1.5c0-0.5,2-1.2,1.9-1.7c-1.2,0.2-2.7,0.7-4.1,1.2c-1.4,0.6-2.7,1.2-3.6,1.9
		l0.1-0.1c-0.3,0.3-0.8,0.5-1.4,0.8c-0.1,0-0.1,0.1-0.2,0.1l0,0c-1.3,0.3-1.9,0.6-2.8,0.9c-0.8,0.3-1.8,0.7-3.6,1.4
		c-1.2,1.4-3.2,2.4-5.4,3.6c-2.2,1.1-4.7,2.4-6.9,4c-0.8,0.2-1.9,0.9-3,1.7c-1.1,0.8-2.2,1.8-3.1,2.5c-0.5,0.3-0.9,0.4-1.5,0.8
		c-0.5,0.3-1.8,1.4-2.3,1.8c-1.6,1.3-1.7,1.4-3,2.3c-0.8,0.6-1.9,1.5-2.6,2.1c-1.6,1.5-1.8,1.5-2.8,2.4c-1.5,1.3-2.7,2.7-4.2,4.1
		c-1.1,0.5-2.1,1.5-2.9,2.5c-0.9,1-1.6,1.9-2.4,2.3c0.8-1.6,3-3.7,4.5-4.9c0.5-1.2,2.3-2.9,4.2-4.7c1.9-1.8,4-3.5,5.1-4.8
		c1.2-0.3,2.6-2.2,3.6-2.3c0.4-0.9,1.8-2,3.5-3.1c1.7-1.2,3.7-2.4,5.4-3.8c0.9,0,1.8-1.1,3.4-1.8c-0.5-0.1,0.6-0.6,0.8-1
		c3.9-2.3,7.6-4.4,11.4-6.2c0,0.2,0.6,0,0.6,0.2c2.4-1.2,4.9-2.7,7.3-4c2.4-1.2,4.8-2.1,6.9-2.2c0.8-0.5,2.3-1,3.8-1.5
		c1.5-0.5,3.1-0.9,4-1.4c-1,0.3,0.3-0.4,0.6-0.6c3.8-1.2,7-2,10.2-2.8c3.3-0.7,6.7-1.4,11-2.1c0.1,0.4,2,0,2.6,0.1
		c0.2-0.3,1-0.5,2-0.6c1.3-0.1,1.2,0.4,2.6,0.3c1-0.4,2.1-0.4,3.3-0.4c1.2,0,2.3,0,3.3-0.5c1.7,0.3,3.8,0.4,5.9,0.4
		c2.1,0,4.2-0.1,5.9-0.2c2.2,0.3,5.4,0.7,7.9,0.5c2.2,0.5,4.9,0.8,7.6,1.2c2.8,0.4,5.6,0.9,8.1,1.5c1.4,0.4,2.3,0.8,3.6,1.1
		c2.1,0.5,4.3,0.9,5.7,1.2c0.6,0.2,0.4,0.4,0.8,0.6c4.1,1.1,8.2,2.6,12.1,4.3c4,1.7,7.8,3.6,11.7,5.5c3.7,1.9,6.4,3.3,8.9,4.8
		c2.5,1.5,5,3,8.2,5.2c-0.1,0.2,0.8,0.7,0.5,0.8c2.1,1.1,3.8,2.3,5.5,3.5c1.7,1.2,3.3,2.5,5,3.7c0.6,0.6,0.5,0.8,1.1,1.3
		c3,1.8,5.6,4.1,8,6.5c2.4,2.5,4.8,5.1,7.4,7.8c1.1,1.8,3,4.2,4.9,6.7c1.9,2.5,3.9,5.2,5.3,7.5c0.8,1.2,0.9,0.5,1.7,1.8
		c-0.1,0.3,1.1,1.7,1.5,2.5c1.8,2.4,3.2,4.7,4.6,7c1.4,2.4,2.7,4.9,4.3,7.8c0.3,0.8,0.5,1.6,0.8,2.4c1,1.4,1.9,3.1,2.8,4.5
		c-0.3-0.7-0.2-1,0.1-1c0.5,0.8,1.2,2.4,1.8,4.2c-0.3,0.5-0.4,0.2-0.5,0.7c0.6,1.4,1,2.2,1.5,3.2c0.2,0.4,0.3,0.7,0.5,1.1
		c-0.1,0.1-0.1,0.2-0.2,0.5c-0.2-0.3-0.4-0.6-0.6-1.2l0,0.1l0.1,0.3c0.1,0.2,0,0.4,0,0.3c-0.1,0-0.2-0.2-0.2-0.4c0,0,0-0.1,0-0.1
		l-0.1-0.4c0,0,0,0,0,0c-0.1,0.4,0.1,1.3,0.3,2.2c-0.3,0.1-0.6-0.7-1-1.7c-0.4-0.9-0.8-2-1.3-2.5l0,0c0,0.1,0,0.1,0.1,0.2
		c0.1,0.2,0.1,0.3,0,0.3c0,0-0.1-0.1-0.2-0.3l0,0c0,0,0-0.1-0.1-0.1l0,0c0.2,1.1,0.7,2.6,1.2,3.2c0.1,0.5,0.1,1.1-0.1,1.3
		c0,0,0,0,0-0.1c0-0.1-0.1-0.2-0.1-0.2l-0.1,0c-1.2-1.9-1.5-3.8-2.4-5.5c-0.3,1.1-1.1-0.8-1.7-2.4c-0.5-1.6-0.8-3.1,0.4-1
		c0.1,0.3,0.3,0.6,0.4,0.8c0.3,0.6,0.6,1.1,0.8,1.7c0,0.2,0.2,0.4,0.2,0.5c0.1,0.1,0.1,0,0.1-0.2c-0.2-0.9-0.6-1.7-1-2.3
		c-0.1-0.2-0.3-0.5-0.4-0.7l0.1,0c-0.9-2.2-1.9-4.3-2.9-6.8c-1.6-2.1-3.4-5.6-5-8.3c-0.4-0.1,0.1,1.5-0.7,0.5
		c-1.1-1.6-0.8-2.7,0.1-1.6c-0.9-1.7-1.8-3.3-2.8-5c-2.1-3.5-4.6-6.7-7-10c-1.5-2-2.7-4.1-4.4-5.9c-0.4-0.4-0.8-0.6-1.2-1
		c-2.6-2.9-5.3-5.9-8-8.6c-2.7-2.7-5.4-5-7.8-6.6c-1.8-2.2-4.8-4.1-7.1-6.3c-1-0.7-1.2-0.5-2.1-1.2c-1.7-1.7-3.9-3.1-6-4.4
		c-2.1-1.3-4.2-2.5-5.9-3.7c-0.8-0.1-2.2-0.9-3.7-1.7l0,0.1c-0.7-0.4-1.5-0.8-2.3-1.1l0.1,0c-1-0.6-2.5-1.6-4.1-2.4
		c-1.6-0.8-3.1-1.6-4.2-1.8c-1.2-0.4-2.5-1-3.9-1.7c-1.3-0.6-2.7-1.2-4.1-1.6c-0.3-0.1-0.5-0.1-0.5,0c0,0.1,0.3,0.2,0.5,0.3
		c1.2,0.4,2.5,0.9,3.7,1.5c1,0.5,2.1,1,3.1,1.4c0.4,0.2,0.8,0.3,1.2,0.5l0,0.1c2.4,1.3,4.5,2.6,8,4.2c0.3,0.1,0.4,0.1,0.4,0
		c0.5,0.2,1,0.5,1.4,0.7c-0.3,0.3,1.7,1,2.5,1.5c0.4,0.6,0.7,0.9,0,1c1.2,0.5,1.2,0.6,1.3,1.1c0,0.3-1.1-0.4-1.2-0.2l0,0.1l-0.3-0.2
		l-0.4-0.2c0-0.5-1.9-1.3-1.5-1.7c-3.8-1.6-6.7-3.1-9.7-4.7c-2.9-1.5-5.9-3-9.5-4.3c0.9,0.5-1,0.2-1.7,0.1l0,0l-0.4-0.2
		c-0.5-0.2-1-0.5-1.8-0.7c-0.2-0.1-0.4,0-0.3,0.1c0,0.1,0.3,0.2,0.5,0.2c0.5,0.1,0.8,0.3,1.3,0.5l0.4,0.2c0.1,0.2,0.6,0.4,0.7,0.6
		c-0.5,0-0.8,0.1-1.6-0.1c-2.3-1.3-5.3-2.2-8.2-3c-3-0.8-6-1.5-8.4-2.5l0-0.1c0.1,0,0.1,0,0.2,0c1.1-0.1,2.6,0.2,3.6,0.7
		c0.3,0.1,0.7,0.2,0.9,0.1c0.2,0,0.1-0.2-0.1-0.3c-1.4-0.6-3.5-1-5-1l-0.8-0.2l-0.3-0.1c-0.2-0.1-0.5-0.1-0.6,0
		c-0.1,0.1,0,0.2,0.2,0.2l0.3,0.1l0.9,0.3c0,0,0,0,0,0c0.1,0,0.2,0.1,0.3,0.1l0,0.1c-1.1-0.3-3-0.6-4.9-0.8c-2-0.2-4.1-0.4-5.8-0.3
		c0.3,0.6,2.9,0.8,4,0.7c0.7,0.4,2.2,0.6,3.7,0.9c1.5,0.3,3.1,0.6,4.2,1.1c1.2,0.3,0.9-0.2,2.4,0.2c1,0.7,2.6,0.6,4.7,1.2
		c1.9,0.9,4.2,1.6,6.5,2.4c2.3,0.7,4.7,1.5,6.9,2.2c-0.1,0.2,0,0.4,0.3,0.6c1.7,0.6,3.2,1.3,4.5,2c1.4,0.7,2.7,1.3,4.3,1.8
		c0.9,0.6,2.3,1.3,3.7,2c1.5,0.7,3,1.5,4.4,2.3c2.8,1.5,5.2,2.9,7.5,4.3c2.3,1.4,4.5,2.8,6.7,4.4c0.5,0.3,0.7,0.8,1.2,1.1
		c1.3,1,2.9,2.1,4.4,3.1c1.5,1.1,3,2.1,4.2,3.2c0.3,0.5,1.3,1.3,1.6,1.8c1.6,0.8,3.6,2.9,5.4,4.7c2.6,2.6,5.5,5.7,8.1,8.8
		c2.7,3.2,5.1,6.5,7.3,9.5c0.9,0.8,1.9,2.1,2.8,3.6c0.9,1.4,1.8,3,2.6,4.3c0.5,0.7,1,1.2,1.5,1.9c0.7,1.2,1,2.6,1.9,3.5
		c-0.1,0.1-0.1,0.3-0.1,0.6c-0.7-0.2-1.4-1.3-2.3-2.7c-0.9-1.5-1.9-3.3-3.1-5.1c-2.2-3.2-3.5-5.3-4.7-6.4c-2.5-3.7-5.1-7.2-8.2-10.5
		c-0.2-0.2-0.4-0.4-0.5-0.3c-0.1,0.1,0.1,0.3,0.3,0.5c3,3.3,5.6,6.7,8.1,10.4l0.1,0.1l0,0c0.5,1.2,1.5,2.5,2.5,3.8
		c1,1.3,1.8,2.6,2.1,3.6l-0.2,0.2c-1.4-2.1-3.1-4.4-4.6-6.3c-2.3-3.1-4.2-5.9-6.6-8.8c-1.8-2.2-4-4.1-5.9-6.2
		c-0.3-0.3-0.6-0.9-1-1.3c-4-4.1-8.2-7.9-12.6-11.3c-1.5-1.2-3.2-2.4-4.9-3.3c-2.9-2.2-6.4-4.5-10.2-6.7c-3.7-2.2-7.6-4.2-11.4-6.2
		c-0.9-0.4-1.2-0.1-2.3-0.6c-3.9-1.9-8-3.6-11.9-5.1c0-0.2-0.9-0.4-0.7-0.6c-1.6-0.4-1.6-0.5-3.4-1c0.1,0.4-0.6,0.4-1.2,0.3
		c-1.7-0.3-2.9-0.8-4-1.2c-1.2-0.4-2.2-0.8-3.5-0.9c-0.4-0.7-3-0.9-3.8-1c-1.3-0.3-2.7-0.8-3.8-1c-2.1-0.4-3.8-0.4-5.1-0.3
		c-1.2-0.6-3.8-1.1-6.7-1.3c-2.8-0.3-5.9-0.3-7.8-0.4c-0.6-0.3-1.6-0.3-2.5-0.4c-0.9,0-1.7-0.1-1.9-0.6c-5.3,0.1-9.7,0.2-13.8,0.9
		c-1.8-0.1-3.9,0.2-6,0.6c-2.1,0.4-4.2,0.9-6.1,1.4c0-0.2,0.6-0.2,0.7-0.4c-2.7,0.3-5.2,1-7.7,1.7c-2.5,0.7-4.9,1.4-7.4,1.7
		c-2.1,0.7-4,1.4-5,1.4c2.1-1,3.5-1,4.8-1.9l0,0c1.5-0.7,3.4-1.2,5.2-1.6l0.1,0c0.3-0.1,0.6-0.2,0.6-0.3c0-0.1-0.3-0.1-0.6,0l-0.1,0
		c-1.9,0.5-3.9,1-5.7,1.8l0,0c-2.8,0.5-5.5,1.5-8.3,2.7c-2.8,1.2-5.7,2.6-8.9,3.9c-0.8,1-2,0.7-4.1,1.8c-1.1,0.5-0.5,0.6-1.6,1.1
		C105.2,54.3,100.2,57.4,95.6,60.8z M267.8,68.8c-1.6-1.3-3.5-2.7-5.4-4.1c-1.8-1.4-3.6-2.7-4.7-3.9c-0.2-0.6,0.1-0.4,0.7-0.4
		c3.2,2.9,6.6,5.3,9.6,8.2L267.8,68.8z M294.9,108.7c-0.6-0.7-1.3-1.8-2-3c-0.7-1.2-1.3-2.5-1.6-3.5l0-0.1c0.1,0.1,0.2,0.3,0.3,0.3
		c0.4,0.7,1.4,2,2.2,3.3C294.6,107,295.2,108.2,294.9,108.7z M111.9,71c-0.7,0.4-0.8,0-1.7,0.7c-0.8,0.7-2.2,1.6-3.4,2.5
		c-0.7,0.3-1.1,0.2-2,0.9c-3.2,2.5-6.3,5.3-9,7.3c-0.6,0.6-0.2,0.7-1,1.4c-1.3,1-2.7,2.2-4,3.3c-1.3,1.1-2.4,2-3.2,2.1
		c0.2-0.2,0.2-0.4,0.1-0.4c2-2.2,3.3-3.2,4.9-5.1c2.3-1.7,4.5-3.6,6.7-5.4c2.2-1.8,4.4-3.6,6.7-5.1c0.6-0.4,1.3-0.6,1.9-1
		c2.4-1.6,4.9-3.8,8-5.2c0.6-0.3,0.2-0.5,1.1-0.9c1.7-0.9,3-1.5,4.2-2.1c1.2-0.6,2.3-1.2,3.7-2c0-0.2-0.3-0.3,0.1-0.6
		c1-0.6,0.8,0,1.5-0.3c0.8-0.5,0.9-0.9,1.7-1.4c1.4-0.5,4.5-1.6,3.4-0.4c1.8-0.7,3.2-1.3,4.2-2c-0.7,0,0.8-1,1.7-1.4
		c2.6-0.4,4.7-1.1,6.8-1.8c2.1-0.7,4.1-1.3,6.5-1.5c0-0.1-0.1-0.2,0.3-0.3c0.5-0.1,1.7-0.2,2.9-0.4c1.2-0.2,2.5-0.5,3-0.8
		c1.2,0.2,3.1-0.4,5.4-0.5c0.2-0.4-1.1-0.6,0.1-1.3c-2-0.3-3.8,0.9-6.1,0.8l0.1,0c-0.3,0-0.6,0.1-0.8,0.2c-0.1,0.1-0.1,0.1,0,0.2
		c0.1,0,0.2,0,0.3,0c0.1,0,0.1,0,0.2-0.1l0.1,0.2c-1-0.1-1.2,0.4-1.4,0.5c-0.4-0.1-0.5-0.3-0.6-0.6c-1.2,0.3-1.8,0.4-2.3,0.4
		c-0.5,0-1,0-2.1,0.2c-0.5,0.1-1.2,0.4-1.7,0.5c-2.3,0.6-5.6,1-7.7,2.1c-1.7,0.3-3.8,1-5.9,1.7c-2.1,0.7-4.1,1.5-5.6,1.6
		c1.1-1.3,3.3-2.2,5.8-2.9c2.5-0.7,5.1-1.3,7-2.2c2.7-0.5,6.3-1.4,9.7-2c0.7-0.3,0.9-0.7,2-0.9c1-0.2,2.6-0.3,3.9-0.5
		c1.3-0.2,2.3-0.5,2.1-1c-1.3,0.1-2.9,0.4-4.2,0.6c-1.4,0.2-2.5,0.3-3.3,0c1.2,0.2,1.3-0.4,2.5-0.7c2.4,0.1,4.8-0.8,7-1.1
		c2.5-0.3,5.5-0.1,7.4-0.7c0.1,0.3,2.1-0.1,1.9,0.4c1.1-0.4,2.3,0.1,2.6-0.1c-1.4,0,1.4-0.3,1.1,0c-0.3,0-0.7,0-0.7,0.1
		c1.4-0.1,2.7-0.4,2.6,0c0-0.3,1.4-0.2,1.8-0.4c1.2,0.4,3.8,0.5,6,0.5c-0.2,0-0.4-0.1,0-0.1c0.9,0.5,0.6-0.2,1.5,0.3
		c-0.6-0.5,1.3,0,1.1-0.3c-1.6-0.3-1.2-1.5-1.9-1.7c0,0.4-1.8,0.1-2.2,0.3c-1.4-0.3-2.1-0.5-1.6-1.1l-0.1,0l0,0c0.2,0,0.4,0,0.7,0
		c0.2,0,0.4-0.1,0.4-0.2c0-0.1-0.3-0.1-0.5-0.1c-0.1,0-0.3,0-0.5,0l0,0c-1.7-0.1-2.6-0.1-3.3-0.1c-0.7,0-1.4,0-2.8,0
		c0,0.2,0.3,0.3,0.8,0.3l0.3,0c-0.1,0.3,0.1,0.5,0.3,0.7l-0.1,0c-0.7,0.2,0,0.8-1.8,0.6c-0.6-0.1-0.8-0.3-0.8-0.6
		c-1.8,0-3.4,0-4.8-0.1c-0.1-0.1-0.2-0.2-0.3-0.3c-0.1-0.1-0.2-0.1-0.3-0.2l-0.1-0.1l-0.2,0c-1.2-0.3-3-0.3-4.6,0
		c-1.3,0.1-1.2,0-2.5-0.1c0,0.3-1.3,0.4-1.8,0.7l0,0c-1.7,0.3-3.2,0.5-4.7,0.7c-1.5,0.2-3.1,0.4-5.1,0.8l0,0c-2.2,0.4-4.5,1-6.6,1.6
		c-3,0.8-6.1,1.8-9.1,2.8l0,0c-1.8,0.6-3.9,1.3-5.9,2.1c-2.1,0.8-4.2,1.7-6.1,2.5c-2.1,0.9-4,2.2-6,3.1c-0.4,0.2-0.9,0.2-1.1,0.3
		c-1,0.5-1.6,1.1-2.6,1.6c-0.4,0.2-1,0.4-1.5,0.6c-1.9,1-3.5,2-5.1,3c-1.6,1.1-3.2,2.3-5,3.6c-3.9,2.8-8.1,5.9-11.9,9.4
		c-1.7,0.3-1,0.9-2.7,1.2c-0.8,1-1.9,2-2.9,2.9c-1,0.9-1.8,1.8-2,2.4c-0.5,0.2-1.1,0.8-1.7,1.1c-2.1,2.5-4.6,5.1-6.9,7.8
		c-2.3,2.8-4.5,5.7-6.1,8.6c-0.3,0.2-0.7,0.3-1.2,1.1c-0.7,0.9-0.4,0.9-0.9,1.7c-0.8,0.6-1.5,1.9-2.3,3.3c-0.8,1.4-1.6,2.9-2.4,3.7
		l-0.4-0.2c0.2-0.7,0.7-1.7,1.1-2.5c0.5-0.6,1-1.2,1.5-1.9c0.3-0.9,1.1-2.2,1.7-3c1.1-1.6,2.3-2.9,3.3-4.4c1.4-2,1.8-2.5,2.5-3.4
		c2.5-3.2,4.9-6.2,6.8-8.4c1.2-1.3,2.7-2.5,3.9-3.8c0.5-0.5,0.6-1,1.1-1.5c0.5-0.6,1.6-1.5,2.2-2.1c0.8-0.8,2.2-1.6,2.8-2.2
		c0,0,0.3-0.6,0.7-0.9c1.5-1.6,3.6-3.3,5.6-4.9c2-1.6,4-3.1,5.3-4.2c0.5-0.1,1.4-0.7,1.9-0.8c0.1,0.1-0.3,0.4-0.1,0.5
		c1.7-1.3,2-1.5,4.1-2.9c-0.4-0.5,0.3-1.4,1.5-2.4c0.2,0.2,1.1-0.6,1.2-0.3c-0.2,0.2-0.7,1.1,0.1,0.7c0.6-0.9,1.9-1.6,3.3-2.3
		c1.4-0.7,2.7-1.4,3.3-2.3c0.7-0.4,1-0.3,1.6-0.4c-0.7-0.3,1-1.4-0.3-1.2c2.7-1.8,5.9-3.3,8.9-4.6c3-1.3,5.8-2.3,7.9-3.4
		c0.9-0.3,0.9,0.1,2-0.3c2.8-1.2,6.1-2.2,9.2-2.9c3.1-0.8,6.2-1.4,8.8-1.9c5.5-1.2,10.8-1.7,16.2-2.1c5.1-0.4,9.9-0.5,14.7-0.3
		c2.3,0.1,4.7,0.1,7,0.4c2.8,0.3,5.6,0.9,8.1,1.4c2.6,0.5,5,1,7.2,1.3c0.1-0.3-1.1-0.5-1.5-0.8l0,0c0,0,0,0,0,0c0,0,0.1-0.1,0.1-0.1
		c0.6-0.2,1.7,0,2.8,0.3c1.1,0.3,2.3,0.7,3.2,1.1c0.6-0.2,1.7,0.2,2.8,0.5c1.1,0.4,2.3,0.8,3.2,0.9c0.7,0.4,1.7,0.9,2.6,1.3
		c0.8,0.5,1.5,0.9,1.3,1.1c0.3-0.2,1,0,1.9,0.2c0.8,0.4,1.4,0.7,1.3,1.1c-2.1-0.5-2.8-0.9-4-1.6c-1.1-0.6-1.3-0.5-1.5-0.6
		c-0.1-0.1,0.5-0.1,0.4-0.1c-1.7-0.7-3.6-1.1-6.3-1.7c-0.5-0.2-1-0.4-1.6-0.6c-0.2-0.1-0.4-0.1-0.4,0c0,0.1,0.1,0.1,0.3,0.2
		c0.6,0.2,1.1,0.3,1.5,0.5l-0.1,0c2.5,1.4,4.8,1.5,6.9,2.9c0.1,0.4-1.3-0.1-0.5,0.5c3.3,1.1,6.2,2.5,8.9,3.6c1,0.4,2.1,0.5,2.9,0.9
		c1.3,0.7,0.7,0.9,2.3,1.6c2.8,0.7,4.8,2.3,7,3c0.5,0.4,1.2,0.9,1.9,1.4c0.9,0-0.2-0.7,0.1-1.2c0.3,0.1,0.7,0.3,0.7,0.2l0,0
		c0.3,0.2,0.6,0.4,0.9,0.6c0.6,0.3,1.1,0.6,1.7,0.8c0.9,0.4,1.7,0.8,2.4,1.4c0.1,0.1,0.2,0.1,0.3,0.2c2.2,1.6,4.3,3,6.3,4.4
		c2,1.4,4.1,2.9,6.2,4.7c-0.6,0.3,0.7,1.2,0.7,1.8c1.7,1.2,2.7,2.1,3.8,3c1.1,0.9,2.1,1.9,3.8,3.4l0,0c0.3,0.3,0.5,0.5,0.8,0.8l0,0
		c0,0.2,0.2,0.5,0.7,1c1.1,1,2.4,2.1,3.6,3.3c1.3,1.2,2.5,2.4,3.4,3.6c0.6,0.8,0,0.9,0.9,1.9c1.1,0.9,1.9,1.4,3,2.3
		c0.4,0.8,0.7,1.5,1.3,2.5c1.2,1.3,2.4,2.9,3.4,4.5c1,1.6,1.9,3.1,2.7,4.3c0.7,1,1.8,2.6,2.6,3.7c0.6,0.8,1.4,2,2.2,3.1
		c0.8,1.1,1.5,2.1,1.8,2.4c0.3-0.3-0.6-1.7-0.4-2.1c0.4,0.4,1,1.4,1.3,2.1c0.3,0.8,0.4,1.3-0.2,0.8c1.5,2.7,3.2,6,4.8,9.2
		c1.6,3.2,3.2,6.5,4.3,9.3c0.5,0.6,0.1-0.3,0.5-0.3c0.6,0.8,1.2,2.5,1.7,4.3c-0.2,0.5-0.2,0.5-0.7,0.3c0.1,1.1,0.7,2.5,1.3,4.1
		c0.6,1.5,1.1,3.1,1.3,4.5c0,0,0,0,0,0c-0.2,0-0.4,0.3-0.6-0.3c0.1,2.2,0.2,4.3,0.7,7.3c0.1,0.5-0.1,0.4-0.3,0.5
		c0.5,2.2,0.3,4.4,0.7,5.9c0.3,1.5,0.6,2.2,0.1,3.2c-0.3-0.1-0.2-1.5,0.1-1.2c-0.3-0.8-0.5-1.8-0.8-2.7c0-0.8-0.2-1.5-0.4-2.3
		c-0.3,0-0.4-1-0.8-0.6c-0.2,0.5-0.1,1.5,0,2.6c0.1,1,0.2,2.1,0.1,2.8l0,0l0.2,0.7c0,0,0,0,0,0.1l0,0c0.2-0.1,0.3,0.4,0.5,0.3
		c0,2.1,0.3,1.7,0,2.7c0.4,1.2,0.3-0.3,0.9-0.2c0.2,0.9,0.4,3,0.8,4.5c-0.1,0.5-0.3,0.5-0.5,0.1l0.2,4.7c0.1,1.9,0.2,3.8,0.5,4.7
		c0.3,0.2,0.2-0.8,0.5-0.8l0,0.1c0-0.2,0.1-0.4,0.1-0.7c0.1-0.2,0.2-0.3,0.3-0.1c0.1,0.2,0.1,0.6,0,0.8c0,0.1,0,0.2-0.1,0.3
		c0.1,0.4,0.2-0.4,0.2,0.3l-0.6,6.2c-0.2,1.8-0.3,3.4-0.5,5.3c-0.5,0.2-0.2,1.6-0.6,1.5c0.4,0.2,0,2.1,0.4,1.1c0.2,1,0,1.5-0.2,3
		c-0.2,0.1-0.2-0.3-0.1-0.8c-0.5,0.5-0.4,2.8-0.7,3.4c0.3-0.2,0.6,0.7,0.4,0c0.2,0,0.1,1.1-0.1,2.2c-0.2,1.1-0.4,2.2-0.2,2.4
		c-0.5,0.6-1,1.4-1.5,2.2l-0.1,0.2c-0.1,0.2-0.2,0.2-0.2,0c0-0.1,0-0.2,0-0.4c0-0.1,0.1-0.3,0.1-0.4l0.1-0.2c0-1.9,0.9-2.2,1-4.5
		c0.1-0.2-0.4,0.1-0.6,0.3c-0.4-1.1,0-3.7,0.3-6.6c0.3-2.9,0.6-6.1,0.2-8.2c0.5-1.6,0.7-3.6,0.8-5.6c0-2-0.1-4-0.2-5.7
		c-0.1-0.8-0.6,0.1-0.7-0.6c0-1.5-0.2-2.4-0.3-3.2c-0.1-0.8-0.2-1.6-0.1-2.7l0.1,0.1c0-0.2-0.1-0.3-0.1-0.5c0,0,0,0,0-0.1
		c0-0.1,0-0.2,0-0.2c0-0.1,0.1,0,0.1,0.1l0.1,0.3l0.1,0c-0.1-1.3-0.9-1.9-0.7-2.9l0.1,0c-0.1-0.2-0.1-0.3-0.1-0.5c0,0,0,0,0-0.1
		c0-0.1,0-0.2,0-0.2c0-0.1,0.1,0,0.1,0.1l0.1,0.2c0.2-0.2,0.1-0.9,0.1-1.4l-0.2-0.5l0,0.1c-0.3,0.5-0.2,0.6-0.4,0.9
		c-0.3-1.2-0.3-1.9-0.3-2.6c0-0.7,0.1-1.3,0-2.3c0,0,0,0,0,0c0.3-0.7,0.4-2.4-0.1-3.7c-0.6-0.5,0.3,1.7-0.2,1.2
		c-0.5-1.9-0.5-2.8-0.4-3.5l0.1,0c0.1,0.1,0.1,0.2,0.2,0.3c0,0.1,0.1,0.1,0.1,0c0-0.1,0-0.2-0.1-0.3c-0.1-0.1-0.1-0.2-0.2-0.3
		c0,0,0,0,0,0l0-0.1c0-0.9-0.3-2.1-0.6-3.7c0.3,0.6,0.5,1,0.8,2.1c0.6,0.2,0.4-0.2,0.6-0.6c0.1,0.2,0.3,0.5,0.4,0.7
		c-0.1-0.5-0.2-0.9-0.3-1.4c-0.3-1.7-0.7-3.2-1.2-4.5c0.1,0,0.2,0.1,0.3,0.2c-0.3-1-0.6-1.4-0.8-1.8c-0.3-0.5-0.6-1-0.9-2.3
		c-0.4,0.9-1.1-0.2-1.9-2c-0.7-1.8-1.5-4.1-1.8-5.7l0-0.1c0-0.1,0.1-0.2,0.1-0.2l0,0.1c0.5,0,0.9,1,1.3,2.2c0.4,1.1,0.8,2.3,1.3,2.4
		c0.1-0.5-0.5-1.7-0.9-2.9c-0.6-2.1-0.3-1.1-1.2-2.8c-1-1.8-1.4-3.4-2.4-5.5c-0.5-0.9-1.1-1.7-1.6-2.6c-1.6-3-3-5.8-4.4-8.6
		c-1.5-2.8-3-5.5-4.9-8.2c-0.4-0.1-0.9-0.9-1.3-1.3c-1.2-2.1-3-4.7-5-7.3c-2-2.6-4.1-5.2-5.9-7.6c-1.8-1.2-2.7-2.9-4.3-4.1
		c-0.5-1.3-2.3-2.5-3.7-3.7c-1.6-1.5-3.4-3.3-4.6-3.8l0,0c-0.5-0.3-0.9-0.7-1.3-1.2c-0.6-0.5-1.2-1.1-1.9-1.5
		c-1-1.2-2.5-2.4-4.1-3.5c-1.7-1.1-3.4-2.2-4.8-3.3l0,0c-0.7-0.6-1.5-1-2.2-1.3c-0.3-0.1-0.5-0.2-0.5,0c0,0.1,0.2,0.3,0.4,0.4
		c0,0,0.1,0,0.1,0.1c0.6,0.3,1.2,0.6,1.7,1c0.2,0.4,1.2,1,0.7,1.1c-1.9-0.5-4.8-2.2-6.8-3.7c-0.1-0.2-0.2-0.4-0.1-0.4
		c0.4,0,0.6-0.2,1.1-0.1c-0.7-0.5-1.9-1.4-2-0.9l0,0c-0.5-0.3-1.1-0.7-1.7-0.9l0,0c-0.7-0.9-2.8-2-4.8-2.9c-2-1-4-1.9-4.6-2.9
		c-0.1-0.2,0.4-0.3-0.2-0.6c-0.2,0.2-1.7-0.7-2.5-0.9c-0.3,0.5-2-0.1-3.7-0.8c-1.8-0.7-3.7-1.5-4.5-1.8l0,0
		c-0.8-0.3-1.7-0.6-2.5-0.9c-0.2-0.1-0.4-0.1-0.4,0c0,0.1,0.2,0.2,0.4,0.3l0,0c0.8,0.2,1.7,0.5,2.5,0.9l-0.1,0
		c0.8,0.7,2.5,1.3,4.2,1.9c1.7,0.6,3.3,1.3,3.9,2.1c-0.1,0.3-1.3-0.3-1.5-0.1c-1.3-0.5-2.7-1.1-4-1.8c-1.6-0.7-3.2-1.5-4.9-1.8
		c-0.2,0-0.3,0-0.3,0.1c0,0.1,0.2,0.2,0.4,0.2c1.4,0.3,2.9,1,4.5,1.7c1.2,0.5,2.4,1.1,3.6,1.6c0.3,0.1,0.7,0.3,1,0.4l-0.1,0
		c3,1.5,5.5,2.2,7.4,3.3c0.1,0-0.2,0-0.3,0.1c0.4,0.2,1.2,0.8,1.5,0.9c1.3,0.7,3.2,1.6,4.2,2.1c0.4,0.2,0.7,0.4,1.1,0.6
		c0.2,0.5,0.8,1.1,1.2,1.6c-2.8-1.2-2.9-1.5-3.7-1.6c-1.6-1.2-3.4-1.8-5.2-2.7c-0.7-0.4-1.4-0.9-2.2-1.3c-3-1.4-4.3-2-6.4-2.8
		c-1.2-0.4-2.3-1.1-3.4-1.5c-2.4-0.9-5.1-1.3-7.7-2.4c0.2,0.5-1.3-0.2-1.5,0.1c1.7,0.7,3.7,1.4,5.6,2.1c1.9,0.7,3.7,1.5,5,2.4
		c1.2,0.1,2.5,0.7,3.8,1.3c1.3,0.6,2.5,1.3,3.6,1.7c1.5,1.2,3.1,2,4.7,2.8c1.6,0.8,3.3,1.6,5.1,2.8c0.6,0.2,1,0.2,1.7,0.6
		c1.1,1.1,2.5,1.9,3.8,2.7c1.3,0.8,2.6,1.6,3.5,2.8c1.9,0.8,4.3,2.3,6.7,4.2c0.4-0.7,1.1,0,2.7,1.2c0,0.5,0.5,1.1,0,1.4
		c-0.2-0.1-0.3-0.2-0.6-0.5c-0.1-0.1-0.3-0.2-0.4-0.3l0,0c-0.1-0.1-0.2-0.1-0.3-0.1c0,0,0,0.2,0.2,0.3c0.1,0.1,0.2,0.2,0.3,0.3
		c0.1,0.1,0.3,0.2,0.4,0.3c0.2,0.2,0.4,0.3,0.6,0.4c0.7,0.5,1.7,1.4,2.6,2.3c0.9,0.9,1.7,1.7,2.4,2l0,0c0.5,0.3,0.9,0.8,1.4,1.3
		c0.3,0.4,0.7,0.8,1.1,1.1c0.2,0.2,0.4,0.3,0.6,0.5l0,0c1,1.1,1.6,1.8,2.3,2.4c0.6,0.6,1.3,1.1,2.2,1.8c1.9,2.8,4.7,5.9,7,8.9
		c2.3,3,4.2,5.8,4.5,7.9c-0.3-0.4-0.5-0.4-0.8-0.7c-0.2-0.7-0.6-1.3-1-1.9c-0.8-1.2-1.8-2.6-2.9-4c-1.1-1.4-2.2-2.8-3.2-4
		c-0.5-0.6-1.1-0.9-1.6-1.5c-2.4-2.8-5.2-6-7.9-8.8c-1.3-1.3-3.2-3-4.8-4.4c-1.2-1.1-2.3-2.4-3.4-3.3c-2.5-2.1-4.2-3.1-5.5-3.9
		c0.3,0.5-0.8-0.5-0.9-0.7c-0.3,0-1.1-0.6-1.5-0.7c-0.4-1.4-2.3-1.6-2.8-2.3c-0.5-0.1-0.5,0.4-1.2,0.1c-0.9-0.7-1.7-1.6-2.5-2.3
		c-0.8-0.7-1.7-1.2-2.9-1.4c-0.2-0.4-1.8-1.4-1-1.2c-3-1.6-6-3.2-8.3-4.3c-0.1,0.1-0.1,0.4-0.4,0.2c-1.4-0.4-3.3-1.2-4.8-1.9
		c-1.5-0.7-2.7-1.2-2.9-1c-0.3-0.3-1.2-0.7-2.1-1c-0.9-0.3-1.8-0.7-2.2-1c-1.2,0.1-2.5-0.5-4-1c-0.8-0.4-1.7-0.7-2.6-0.9l-1-0.3l0,0
		c-2.4-1.1-5.4-2-9-2.5l0,0c-1.5-0.6-3.1-0.8-4.7-1c-0.6-0.1-1.2-0.1-1.8-0.2l-0.1,0c-0.1,0-0.1,0-0.2,0c-0.6-0.5-1.8-1-2.5-1.1
		c-1.4,0.3-2.5,0.3-5-0.1l0,0c0.1-0.4-1.3-0.3-1.5-0.6c0.1,0,0.2,0,0.3,0l0.2,0c0.1,0,0.2,0,0.2-0.1c0,0-0.1-0.1-0.3-0.1l-0.2,0
		c-0.2,0-0.5,0-0.7,0l0.1-0.1c-1.2-0.2-1.8-0.2-2.3-0.2c-0.5,0-1.1,0-2.4,0.1c0.6,0,0.8,0.2,0.8,0.5c-0.4,0-0.5,0.1-0.7,0.2
		c-0.9,0-1.7,0-2.3-0.1l0.1,0c-1.9-0.4-1.1-0.9-3-1.2c0.3,0.4-1.9,0-3.2,0.2c-0.7-0.1-1.5,0-2.1,0.1c-0.2,0-0.4,0.1-0.7,0.1
		c-0.2,0-0.3,0.1-0.3,0.1c0,0.1,0.2,0.1,0.4,0.1c0.2,0,0.5-0.1,0.7-0.1c0.7-0.1,1.3-0.2,1.8,0l-0.2,0c0,0.1,0.3,0.1,0.4,0.2
		c-0.4,0.3-1.2,0.5-2.1,0.7c1.9-0.1,2.4,0.5,4.4,0.4c1.2-0.3,2.2-0.4,3.5-0.4l-0.1-0.1c0.6,0.1,1.4,0.1,2.2,0.1l0.8,0l-0.1,0.1
		c1.4,0,2.2,0,3.1,0.1c0.8,0,1.6,0.1,2.7,0.3c1.1,0.4,3.4,0.6,4.3,1.2c1.3,0,2.4,0,3.6,0c0,0,0.1,0,0.1,0c0.7,0.1,1.3,0.2,1.9,0.2
		c1.6,0.2,3,0.4,4.4,0.9l-0.1,0c1,0.6,3.2,0.7,4.1,1.5c0.5-0.3,1.5,0,2.6,0.3c1.1,0.3,2.1,0.7,2.6,0.5l0,0l0.9,0.3
		c0.9,0.2,1.7,0.5,2.5,0.9c0,0,0,0,0,0l-0.1,0c0.2,0.5,1,0.9,1.5,1.3c2.3,0.6,4.6,1.6,6.8,2.6c2.2,1,4.4,2,6.7,2.7
		c1.3,0.7,0.6,0.6,1.5,1.1c1.1,0.5,0.1-0.3,1.4,0.3c0.6,0.5,1,1,1.4,1.2c1.6,0.9,1.7,0.4,3,1c0.4,0.7,2,1.6,2.1,2.2
		c4.6,2.5,8.3,5.1,11.8,8.3c0.3,0,0.8,0.3,1.5,0.8c1.3,1.5,2.6,2.1,3.9,3c0.3-0.2,0.2-1,1.1-0.4c1,0.9,1.3,1.5,2.2,2.3l0,0
		c0.1,0.1,0.2,0.2,0.3,0.4l-0.1-0.1l-0.4,0.5c-0.6-0.7-1.3-0.9-2-1.2c-0.7-0.3-1.6-0.7-2.7-1.8c-0.5-0.1-1.1-0.4-1.9-0.9
		c-3.1-2.4-5.9-5-9.2-6.9c-0.4-0.3-1.2-0.5-1.6-0.7c-0.8-0.4-1.5-1.1-2.3-1.5c-0.8-0.4-1.8-0.8-2.5-1.1c-1.5-0.7-2.8-1.6-4.6-2.5
		c-3.4-1.7-7.8-3.6-12.1-5.2c-4.3-1.6-8.5-3-11.5-4c-1.4-0.5-3.6-0.8-4.3-1.5c-5.5-1-10.7-2-16-2.7c-5.3-0.7-10.7-1-16.4-0.4
		c-2.8-0.2-5-0.1-6.9,0.1c-1.9,0.2-3.6,0.6-5.6,1.1c-0.9-0.1-2.1,0.1-3.2,0.4c-1.2,0.2-2.4,0.5-3.5,0.5c-1.9,0.6-3.9,1.1-5.7,1.6
		c-5.1,1.3-9.7,3-14.3,4.8c-1.1,0.4-2.1,0.7-3.3,1.2c-3.6,1.5-6.9,3.6-10.5,5.6C115,69.2,113.2,69.8,111.9,71z M71.1,134.6
		L71.1,134.6c0,0,0-0.1,0-0.1c0-0.2,0.1-0.5,0.2-0.8l0.1-0.2c0-0.1,0-0.2,0-0.2c0,0-0.1,0.1-0.1,0.2l-0.1,0.2
		c-0.1,0.3-0.2,0.6-0.3,0.9l0,0l-0.2-0.1c0.3-0.2,0.6-1.5,0.1-0.6c0.2,0.1-0.2,0.5-0.3,0.6c0.8-1.6-0.2-0.2-0.2-0.1
		c0-0.2,0-0.3,0-0.4c-0.1,0.1-0.2,0.2-0.3,0.4c0-1.4,0.9-1.4,0.9-3.1l0.2,0.1l0-0.1c0,0.4,0,0.7,0.1,0.8l0,0l0.1-0.1l0.1-0.1
		c0.3,0.3-0.6,1.2,0,1.3c0.5-0.4,1.3-3.2,0.6-2.5c0.3,0.4-0.9,0.2-0.6,0.8l0.1,0l-0.2,0.2c0-0.1-0.1-0.3-0.1-0.6l0,0
		c0.2-0.3,0.5-0.5,0.7-0.8c0-0.3-0.1-0.6-0.1-1c0.5-0.5,0.7-0.3,0.9-0.4c0.1-0.4,0.4-1.2,0.7-2c0.3-0.8,0.7-1.5,0.8-1.6
		c0.3,0.9-0.1,0.6,0.8,1c0.6-0.9,1.5-3.3,0.6-2.2c0.4-0.9,0.8-1.4,1.2-1.6c-0.3,0.4-0.5,0.7-0.3,0.9c0.4-0.9,1.5-2.3,1.1-2.7l0,0
		l0.2-0.1c0.3-0.2,0.4-0.3,0.6-0.6l0,0c0.1-0.2,0.1-0.3,0.1-0.4c-0.1,0-0.2,0-0.3,0.2c-0.1,0.1-0.2,0.2-0.3,0.2l-0.1,0.1l0-0.1
		c0.1-0.1,0.2-0.3,0.1-0.4c0-0.1-0.1,0-0.3,0.1c-0.2,0.3-0.3,0.5-0.4,0.8l-0.1,0c-0.6-0.2,0.4-1.1,0.4-1.6c-0.1,0.6,0.4,0.4,0.9-0.5
		c0,0,0.1,0,0.1,0c0,0,0.1-0.1,0.2-0.2l0,0c0-0.1,0-0.2,0-0.2c-0.1,0-0.2,0-0.3,0.1l0.1-0.1c0-0.9,0.6-0.8,0.7-1.4
		c-0.6,0.6,0.2-0.2,0.5-0.8l0.1-0.1c0,0.1,0,0.2,0,0.3c0,0,0,0.1,0,0.1c0,0,0,0.1,0.1,0.1c0,0.1,0,0.2,0.1,0.3c0,0.1,0,0.2,0,0.2
		c0,0,0,0,0,0c-0.1,0.3-0.2,0.6-0.3,0.9c0,0.1,0,0.1,0.1,0.1c0,0,0.1-0.1,0.1-0.1c0,0,0-0.1,0-0.1c0.1-0.3,0.2-0.6,0.3-0.8
		c0.1,0,0.1-0.1,0.2-0.2c0.1-0.1,0.1-0.2,0.2-0.3c0.1-0.2,0.3-0.4,0.4-0.6c0.1-0.1,0.3-0.3,0.4-0.5c0.1-0.1,0.1-0.2,0.1-0.3l0.1-0.2
		c0-0.1,0.1-0.1,0.1-0.2c0.6-0.8,1.2-1.6,1.7-2.4c0.4-0.6,0.7-1.1,1-1.6c0.1,0,0.4-0.3,0.6-0.7c0.3-0.3,0.6-0.7,0.8-1
		c0.1-0.2,0.2-0.3,0.3-0.4c0.7-0.5,1.1-1.8,1.4-2.4c-0.5,0.6-0.4-0.2,0.1-0.7c0.2,0.4,0.3,0.4,0.9-0.2c0.1-0.8,0.4-1.2,1.8-3
		c0.2,0.2,0.4,0,0.8-0.4c0.2-0.1,0.4-0.2,0.8-0.5l0,0c0.1-0.1,0.1-0.2,0.1-0.2c0,0-0.1,0-0.2,0.1c-0.3,0.3-0.4,0.3-0.6,0.4l0,0
		l0.1-0.1c0.7-1.3,1.6-1.5,1.7-2.3c0-0.1,0.1-0.1,0.1-0.1c0.2-0.2,0.4-0.5,0.5-0.7c0.1-0.1,0.2-0.3,0.3-0.4c0,0,0-0.1,0.1-0.1l0,0
		c0.1,0.3,0.9-0.3,1.7-1c0.8-0.7,1.6-1.7,1.7-2.1l0,0c0.1-0.1,0.2-0.2,0.2-0.3l0,0c0.5-0.1,1.1-0.6,1.6-0.7c0.8-0.9,1.7-1.7,2.5-2.3
		c0.8-0.7,1.4-1.3,1.4-1.9l0.4-0.3c0.1-0.1,0.1-0.2,0.1-0.2c0,0-0.1,0-0.2,0.1l-0.4,0.3l-0.1-0.1l-0.1,0c0.1-0.1,0.2-0.3,0.3-0.4
		c1-0.6,0.9-1.3,1.5-1.5c-0.1,0.1-0.2,0.2-0.2,0.2c0,0.1,0,0.1,0.2,0.1c0.1-0.1,0.2-0.1,0.4-0.2c0.1-0.1,0.2-0.1,0.2-0.2l0,0.1
		c0.7-0.6,0.8,0,1.6-0.7l0.1-0.1l0,0.1c0,0.1,0,0.1,0,0.2c0,0.1,0,0.1,0.2,0.1c0.1,0,0.1-0.1,0.2-0.1c0.1-0.1,0.2-0.2,0.2-0.2
		c0-0.1,0-0.2,0.1-0.3c0,0,0,0,0,0c0.4-0.2,0.8-0.5,1.2-0.8l0.7-0.5l0.1-0.1c0,0,0,0,0,0l0.1,0c0.2-0.5,0.7-0.4,0.7-0.7l0,0
		c0.2-0.1,0.4-0.2,0.6-0.3l0.3-0.1c0.1,0,0.1-0.1,0.2-0.1c0.1-0.1,0.2-0.2,0.3-0.3c0-0.1-0.1-0.2-0.3-0.1l-0.3,0.1l-0.4,0.2
		l-0.1-0.1c0.5-0.6,1.3-0.5,1.3-0.9c-0.3,0.2-0.6,0.4-0.7,0.2c0-0.1,0.4-0.9,0.6-0.7c-0.3,0.2-0.5,0.6-0.1,0.4
		c0-0.2,0.4-0.9,0.8-0.9c-0.2,0.1-0.4,0.3-0.4,0.4c0,0.1,0.2,0.1,0.4,0c0.2-0.1,0.3-0.2,0.5-0.3l0.1-0.1l0,0.1
		c0.4-0.3,0.4,0.2,0.8-0.1c-0.1-0.9,1.5-1.2,2.4-2.2c-0.9,0.4-0.1-0.2,0.2-0.7c0.2-0.1,0.4-0.2,0.6-0.4c0.4,0.1,1.6-0.4,2-1
		c-0.4,0.9,1.5-0.5,1.5-0.1c0.7-0.7,0.5-1.1,2-1.7l-0.3-0.4l0,0c0.7-0.1,1.2-0.6,1.5-0.6c-0.3,0.2-0.6,0.5-0.2,0.4
		c0.2-0.3,0.7-0.5,1.2-0.5c0.1-0.6,0.9-1.1,0.3-1.3c-0.1,0.2-0.7,0.4-1.4,0.7c-0.7,0.3-1.4,0.6-1.7,1l0,0l-0.3,0.2l0,0
		c-2.4,1.2-3.3,1.9-4.8,2.8l0,0c-0.3,0.2-0.6,0.3-0.9,0.5c-1.7,0.7-3.4,2-5.2,3.3c-1.8,1.3-3.6,2.7-5.4,3.7c-0.4,0.4-0.5,0.8-1,1.3
		c-1.9,1.3-3.6,1.6-5.1,3.7c-0.4,0.1-0.9,0.4-1,0c0.3-0.6,1.1-1.1,1.7-1.6c0.2-0.5-0.7-0.1,0-0.9c1.5-1.3,2.6-1.4,3.8-2.3
		c0.6-0.5,1-1.4,1.8-1.5c-0.5-0.3,0.4-1.1,1.4-1.9c0.8-0.5,0.9,0.1,2-0.7c1.3-0.9,1.4-1.4,2.1-2.1c0.9-0.6,1.3-0.5,1.9-0.7
		c2-1.5,4.4-3.3,6.7-4.2c0.6-1,2.2-1.4,3.4-2c1.5-0.8,2.7-1.7,4.3-2.4c0.4-0.2,1.3-0.4,1.6-0.5c3.4-1.2,6.5-2.9,9.7-4.3
		c0.6-0.2,0.7,0.1,1.7-0.3c0.6-0.3,1.1-0.6,1.8-0.8c0.5,0,0.6,0.3,1.5,0.1c2.5-1.1,5.2-1.7,7.8-2.2c2.6-0.5,5.1-0.8,7.4-1.4
		c0.2,0.2,1.3-0.1,1.4,0.2c3.3-0.8,6.3-1,9.4-1c3.1,0,6.2,0.1,9.9-0.1l0-0.4l0,0c0.2,0,0.3,0,0.5,0c0.3,0,0.5,0,0.7,0
		c0.1,0,0.3,0,0.4,0c0.1,0,0.1-0.1,0-0.1c-0.4-0.1-0.8-0.1-1.2-0.1c-0.1,0-0.2,0-0.4,0l0,0c-2.5-0.1-4.7-0.2-7-0.2
		c-2.3,0-4.7,0-7.4,0.1c-0.3-0.2-0.9-0.3-1.1-0.5c4.1-0.6,8.7-0.8,13.2-0.6c4.5,0.1,9,0.6,13.1,1.3c1,0.2,2.2,0.2,3,0.4
		c0.9,0.2,1.4,0.5,2.3,0.7c1.7,0.3,2.2,0.4,3.3,0.7c1.8,0.5,3.6,0.8,5.6,1.3c2.8,0.8,5.1,1.6,7.4,2.5l7.4,2.9c0.3,0,0.7,0,1,0
		c-0.1,0.3-0.6,0-0.1,0.5c2.4,1.2,4.9,2.3,7.4,3.5c2.4,1.2,4.8,2.6,6.7,4.2c0,0.2,0.3,0.4,0.1,0.6c-2.4-1.2-4.1-2.2-5.9-3.2
		c-1.8-1-3.6-1.9-6.1-2.9l0,0c-0.8-0.4-1.6-0.8-2.5-1.1c-1.2-0.5-2.5-1-3.2-1.4c-0.2-0.1-0.4-0.2-0.5-0.1c-0.1,0-0.1,0.1,0,0.2
		c0.9,0.6,2.3,1.1,3.6,1.6c0.8,0.3,1.6,0.6,2.3,1c1.1,1.1,3.5,1.7,5.2,2.6c1,0.5,1.8,1.3,2.8,1.8c2,1.1,4.2,2.2,6.3,3.6
		c0.7,0.5,1.4,1.2,2.1,1.6c0.8,0.5,1.5,0.8,2.2,1.3c3.3,2.3,5.9,4.9,8.6,7.1c2.5,2,4.7,4.3,6.7,6.3c0.8,0.8,1.9,1.9,2.7,2.9
		c0.8,1,1.3,1.9,0.8,2.5c-2.3-1.9-4.6-4.3-7-6.7c-2.4-2.4-4.8-4.7-7.3-6.5c-0.3-0.2-0.9-0.4-1.2-0.6c-0.9-0.6-2.3-1.7-3.4-2.5
		c-2.4-1.8-5.3-3.8-6.9-4.8c-1-0.7-2.3-1.2-3.4-1.8c-0.6-0.4-1.1-0.9-1.9-1.3c-4.1-2.2-7.5-3.4-10-4.4l0,0c-0.5-0.2-0.9-0.4-1.4-0.7
		c-0.4-0.2-0.9-0.4-1.4-0.6c-0.2-0.1-0.5-0.1-0.5,0c0,0.1,0.1,0.2,0.3,0.3c0.4,0.2,0.8,0.4,1.2,0.6c0.5,0.3,1,0.5,1.6,0.8l0,0
		c0.5,0.3,2.1,1.2,3.7,2c1.6,0.8,3.3,1.6,4.1,1.8c1.3,1.2,3.4,1.7,5.1,2.7c1.1,0.6,1.8,1.4,2.1,1.6c1.1,0.8,2.5,1.4,3.4,1.8
		c-0.8,0,0.3,0.1,0.5,0.3c0,0-0.4,0.1-0.4,0c0.4,0.3,0.7,0.2,1.2,0.5c-0.1,0,0,0.3,0.2,0.4c1.3,1,3.6,2.2,4.8,3.2c0,0,0,0.3,0.1,0.4
		c0.1,0.1,0.9,0.5,1.1,0.7c0.7,0.7,0.8,1.1,1.3,1.5c1.1,0.9,2.8,2.5,3.4,3c0,0,0.3-0.1,0.4,0c0.4,0.3,1.4,1.3,0.6,0.8
		c1.3,1.3,2.7,2.4,4,3.7c1.3,1.3,2.6,2.7,3.8,4.5c1,0.9,1.5,1.4,2,1.8c0.5,0.5,1,0.9,1.9,1.9c-0.1-0.1-0.3-0.2-0.4-0.3
		c-0.1-0.1-0.1-0.1-0.1,0c0,0,0,0.1,0.1,0.2c0,0,0,0,0.1,0.1c0.2,0.2,0.4,0.3,0.6,0.5l-0.1,0c1.2,1.8,1.6,1.9,3,3.3
		c-0.1,0.1-0.4-0.2-0.2,0.2c0.3,0.4,1,1.4,1.7,2.4c0.7,1,1.5,2,1.9,2.5c-0.1-0.1-0.5-0.5-0.5-0.4c1.1,1.5,1.5,2,2.4,3
		c0.6,0.8,0.3,1.1,1,2c0.6,1.1,1.5,1.6,1.9,2.5c0.2,0.4,0.7,2.1,0.5,2.1c0.7,0.5,1.4,1.5,2,2.6c0.6,1.1,1.2,2.3,1.7,3.3
		c0.4,0.7,0.9,1.2,1.3,1.9c1.2,2.3,1.9,5.1,2.6,7.7c0.5-1,1,1.4,1.5,2.1c0,0,0,0,0,0.1c0,0,0,0.1,0,0.1c0.5,1.2,1,2.5,1.4,3.8
		l0.8,2.5l-0.1,0c0.5,1.8,0.9,3.1,1.2,4.4c0.3,1.3,0.6,2.5,1,4.1l0,0l0.2,1.9l0,0.2l0,0.1c0,0,0,0.1,0,0.1l0,0
		c-0.1,1.2,0.4,1.8,0.6,3.9c0.1,0.1,0.1,0.2,0.2,0.2c0.1,1.1,0.1,2,0.1,2.7c0,0.4-0.2-0.1-0.2,0c0-0.1,0.4,1.8-0.1,0.7
		c0.1,0.6,0.1,1.9,0,2.7c-0.2-0.1-0.2-0.8-0.3-1.3l0,0c0,0.1,0,0.2,0,0.3c0,0.2-0.1,0.3-0.1,0.2c-0.1,0-0.1-0.2-0.1-0.3
		c0,0,0-0.1,0-0.1c0-0.1,0-0.2,0-0.3l0,0c-0.3,0.8-0.4,2.2-0.5,3.6c-0.1,1.4-0.1,2.9-0.4,3.9c0,1,0.3,1,0.2,2c0,1.2-0.4,1.5-0.5,2.3
		c0.3,1.5,0.1,2.5-0.1,3.4c-0.2,0.9-0.5,1.7-0.3,2.9c-0.2,0.6-0.4-0.2-0.6,0.6c0.3,0.9,0.3,2.3-0.1,3.6l0,0c0,0,0.1-0.1,0.1-0.1
		c0.1-0.1,0.2,0.1,0.2,0.4c0,0.3-0.1,0.5-0.2,0.6c0,0-0.1,0.1-0.1,0.1l0,0l0.1,0c0.2,1.8-0.4,4.3-1,6.2c-0.2,3.3-1.5,6-2.3,8.9
		c0.1,0.8-0.1,2-0.4,3.1c-0.3,1.2-0.7,2.3-1.1,2.9c-0.5,3-1.8,6.3-3.3,9.6c-1.5,3.3-3.2,6.6-4.4,9.8c-0.3,0.7-0.4,0.3-0.7,0.8
		c-0.9,2.4-2.2,4.6-3.6,5.8c-2,3.8-4.1,6.6-6.2,9.5l0,0c0.1-0.1,0.3-0.2,0.3-0.1c0.1,0.1,0,0.3-0.2,0.5c0,0,0,0.1-0.1,0.1l0,0
		c0.1,0.3,0.4,0,0.6,0c-0.5,0.7-0.8,0.8-0.7,0.3c-0.3,0.4-0.4,0.4-0.5,0.4c-0.1,0.1-0.2,0.2-0.2,0.3l0,0c-0.1,0.2-0.3,0.3-0.4,0.3
		c-0.1,0,0-0.3,0.1-0.5l0-0.1c0,0,0,0,0,0l0,0c-0.9,1.1-1.2,2-1.7,3.2c-3.1,3.5-6.4,6.6-9.1,9.7c-1,0.8-1.1,0.1-2.3,1.3
		c0.2,0,0.4-0.1,0.5,0c-1.4,1.6-3.3,3.3-4.2,4.5c-0.4,0.1-1.4,0.8-2.1,1.5c0.2-0.1,0.3-0.1,0.3,0c0,0.1-0.1,0.3-0.3,0.4
		c0,0-0.1,0.1-0.2,0.1c-0.1,0.3-0.2,0.8,0.6,0.1c0,0,0,0.1-0.1,0.1c-0.5,0.3-1,0.6-1.5,0.9c-0.2,0.4-0.4,0.7-0.7,1.1
		c-0.3,0-1,0.3-0.8,0.1c-1.4,1.2-1.5,1-3.1,1.6c0,0.4-0.2,1.5-1.1,1.8l0,0.1c0,0,0,0.1,0,0.1c-0.3,0.1-0.6,0.3-0.8,0.4c0,0,0,0,0,0
		l0,0c-0.2,0.1-0.3,0.2-0.4,0.3c-0.3,0.2-0.6,0.3-0.9,0.5c0,0-0.1,0-0.1,0.1c-0.5,0.1-1,0.1-1.7,0.4c-0.3,0.2-0.1,0.4,0,0.5
		c-0.1,0.1-0.2,0.1-0.3,0.2c-0.3,0.1-0.5,0.2-0.7,0.4c-0.2,0.1-0.4,0.2-0.6,0.3c-0.2-0.1-0.3-0.1-1.4,0.4c0,0,0.1,0,0.1,0
		c0.1,0,0.1,0.1,0,0.1c-0.1,0.1-0.2,0.1-0.2,0.1c0,0,0,0-0.1,0l-0.1,0.1c0,0.3-1.2,0.5-1.8,0.9c0.4,0,0.3,0.1,0.2,0.2
		c-1.1,0.6-2.1,1.1-3.1,1.6c-0.1,0-0.2,0-0.3,0.1c-0.6,0.2-1.1,0.5-1.5,0.7c-0.1,0-0.2,0.1-0.2,0.1c0.1-0.1,0.1-0.2,0.1-0.4
		c0,0-0.1,0.1-0.1,0.1l-0.2,0.2c-0.1,0.1-0.2,0.1-0.3,0.1c-0.1,0-0.1-0.1,0-0.1l0.2-0.1l0-0.1c-1.3,0.5-2.6,0.9-4.5,1.9
		c-0.2,0.2-0.2,0.2-0.2,0.3c0,0-0.1,0-0.1,0c0,0,0,0,0-0.1c-0.4-0.1-1.3,0.2-2.3,0.6c-1,0.4-2,0.8-2.6,1.2l0,0c0,0,0.1,0,0.1,0
		c0.2-0.1,0.5-0.1,0.5,0c0,0,0,0.1-0.1,0.2c-0.1,0-0.2,0.1-0.2,0.1c-1.8,0.6-3.8,1-5.5,1.6c-0.9,0.3-1.9,0.5-2.9,0.8
		c-2.3,0.6-4.7,1.2-6.7,1.3l0,0c0,0,0,0,0,0.1c0,0.1-0.1,0.1-0.3,0.2c-0.2,0-0.3,0-0.3-0.1c0,0,0,0,0,0l-0.1,0
		c-1.8,0.4-3.6,0.8-5.4,1.2c-2.1,0-4.3,0.1-6.6,0.2c-2.9,0.1-6,0.4-9,0.3c-1,0-2.2-0.3-3.3-0.4c-1.6-0.1-3.5-0.1-5-0.3
		c-0.5-0.1-0.9-0.3-1.3-0.3c-3.7-0.5-7.4-0.9-10.8-1.7c-0.7,0-0.9,0.5-1.7,0.1c0-0.2,0.6,0,0.7-0.1c-1.1,0-1.3-0.8-1.9-0.5
		c0.2,0,0.4,0.2,0,0.1c-3-1-6-1.7-9.5-3.1c-0.7-0.1-0.8,0.2-1.7,0c-0.4-0.4-0.5-0.7-1.2-0.5c0-0.2,0.1-0.3-0.2-0.5
		c-1.3-0.2-2.4-1-5-1.7c0.1-0.1,0.5-0.1-0.2-0.4c-1.1-0.1-1.9-0.7-2.9-0.6l-0.2,0c0.1,0,0.2,0,0.3-0.1c0,0,0-0.1-0.1-0.2l0,0
		c-0.1,0-0.2,0-0.2,0c0,0-0.1,0-0.1,0l-0.8-0.3l-0.1,0c-0.3-0.3-0.8-0.6-1.2-0.9l-0.2-0.1c-0.2-0.1-0.4-0.1-0.5-0.2l0,0
		c-2.9-1.8-4.9-2.8-6.8-3.8c-1.9-1-3.6-1.9-5.7-3.5c-0.2,0-0.4,0.1-0.7,0c0.3-0.2-0.4-0.8-1.1-1.2c-0.7-0.4-1.4-0.7-1.1-0.2
		c0-0.1,0.3,0,0.3,0.2c-0.4-0.2-0.4,0-0.7,0l0,0.1c-0.2-0.1-0.3-0.3-0.5-0.4c-0.4-0.2-0.7-0.4-1-0.5c-0.3-0.1-0.7-0.3-1-0.5l0.2-0.4
		c0,0,0,0,0,0c0.1,0,0.3,0.1,0.4,0.1c0,0.1,0,0.2,0,0.3c0,0.1,0.2,0.3,0.4,0.4c0.2,0.1,0.4,0.1,0.4,0c0-0.2,0-0.5-0.5-0.9l-0.1-0.1
		l-0.1-0.1c-0.3-0.2-0.7-0.3-1-0.4c0,0-0.1-0.1-0.1-0.1c0-0.1-0.1-0.1-0.1-0.2c-0.1-0.2-0.3-0.5-0.7-0.8c-0.1,0-0.1-0.1-0.2-0.1
		c-0.2-0.1-0.3-0.1-0.3,0c0,0.1,0.1,0.2,0.3,0.3c0.2,0.1,0.3,0.2,0.4,0.5c0.1,0.1,0.1,0.2,0.2,0.3l-0.2,0.4
		c-0.8-0.5-1.7-0.6-2.1-1.4c0.2,0.1,0.3,0.2,0.3,0.1c0.5,0.4-0.3,0.1,0.1,0.4c0.4-0.2-0.6-1.2,0.4-1.3c-0.4-0.7-1-0.7-1.8-1.4l0,0
		l0,0c0-0.1,0.1-0.2-0.1-0.4l-0.1-0.1l-0.1-0.1l-0.2-0.2c-0.2-0.2-0.5-0.4-0.7-0.5l0,0l-0.8-0.6c-0.1,0.1-0.2,0.4-0.5,0.2
		c0-0.8-1.2-0.7-2-1.7c-0.6-0.7,0.6-0.4,0.2-0.8c-0.8-0.3-0.9-0.6-1.5-1.3c-0.6-0.2-1.7-0.1-2.3-1.3c0.4,0.4,0.6,0.4,0.4,0l-0.2-0.1
		c0.2,0,0.3,0,0.4-0.1c0,0,0-0.1-0.1-0.2l0,0c-0.1-0.1-0.2-0.1-0.2-0.1c0,0-0.1,0.1-0.2,0.1c-0.3-0.4,0.1-0.5-0.3-0.9
		c-0.7-0.4,0.1,0.8-0.9,0c0.4,0.2,0.4-0.1,0.1-0.6c-0.4,0.5-0.2,0-0.5-0.5c-0.3,0.5-0.1,0.7-1,0.2c0.2-0.3,0.5,0.2,0.3-0.4l-0.1-0.1
		c0.2,0.1,0.3,0.2,0.4,0.1c0,0,0.1-0.1,0-0.3c0-0.1-0.1-0.1-0.1-0.2c-0.1-0.1-0.1-0.1-0.2-0.1c-0.1,0-0.1,0-0.1,0.1
		c-0.6-0.7-1.3-1.5-0.4-0.9c-0.4-0.8-2.2-1.9-2.1-1.6l0.1,0.1c-0.2-0.1-0.4-0.3-0.6-0.7L92,251c0.1-0.1,0.6,0.2,0.2-0.3
		c-0.5-0.4-1.3-1.5-2-2.3c-0.7-0.8-1.2-1.4-1.4-0.8c0.2,0,0.4,0.6,0.6,0.8c-0.5-0.5-0.5,0.1-1-0.4l-0.6-0.7l-0.1-0.2
		c0-0.1-0.1-0.2-0.1-0.2c-0.1-0.1-0.2-0.2-0.3-0.2c-0.1-0.1-0.2,0-0.1,0.2c0.1,0.2,0.2,0.3,0.3,0.5l-0.1-0.1
		c-0.9-0.4,0.8,1.6-0.2,1.2c0.7,0.9,0.3-0.4,1.3,0.6c0.4,1.1,0.3,1.3-0.2,1c-0.5-0.3-1.2-1.2-1.9-2.1c-0.2-0.5,0.1-0.8,0.5-0.5
		c-0.3-0.5-0.7-0.5-0.6-0.8c0.5-0.2,0.1-0.9,0.6-1.1c0.6,0.9,1.8,1.1,1.1,0.4h0c0.1,0,0.1-0.1,0-0.2c0,0-0.1-0.1-0.1-0.1
		c-0.1-0.1-0.1-0.1-0.2-0.1c-0.1,0-0.1,0-0.2,0l0-0.1c-0.6-0.9-1.3-1.6-0.8-1.5c-1.1-1.7-1.4-1.5-2.5-2.6c-1.7-2.5-2.7-3.5-3.4-5.2
		c-0.4,0.3-1.4-1.3-1.7-2c0.2,0.3,0.2,0.1,0.2,0l0.1,0.2l0.1,0.2c0.1,0.1,0.1,0.1,0.2,0.1c0,0,0-0.1-0.1-0.2l0,0l-0.1-0.2
		c-0.1-0.2-0.2-0.3-0.4-0.5l0.1,0c-0.3-1-0.5-1.5-0.8-2.1c-0.4-0.6-0.9-1.3-1.8-2.8l-0.1-0.1l0,0c0.1,0.1,0.2,0.1,0.3,0.2
		c0.1,0.1,0.1,0.1,0.1,0c0,0,0-0.1-0.1-0.2c0,0,0,0,0-0.1c-0.1-0.1-0.2-0.2-0.3-0.3l0,0c-0.2-0.7-0.3-1.4-0.4-2
		c-0.2-0.1-0.4-0.2-0.7-0.5c-0.1-0.4-0.3-0.7-0.4-1c-0.1-0.1-0.1-0.2-0.2-0.3l0,0c-1.1-1.9-0.7-2.3-1.6-3.2c0.2-0.1,0.3-0.3,0.3-0.5
		c-0.6-1.9-1.8-2.7-1.2-3.3c-0.3-1-0.5-0.2-0.8-1l0,0c0-0.2,0-0.4,0-0.7c0,0,0.1,0.1,0.1,0.1l0.1,0.1c0.1,0.1,0.1,0,0.1-0.1
		c0,0,0-0.1,0-0.1c0-0.1-0.1-0.1-0.1-0.2l-0.1-0.1c-0.1-0.1-0.1-0.1-0.2-0.2c0,0,0-0.1-0.1-0.1l-0.2-0.4l0,0
		c0.4-0.4-0.1-0.2-0.3-0.4c0-0.1,0.1-0.1,0.1-0.2c0,0,0-0.1,0-0.2l0,0c0-0.1-0.1-0.2-0.1-0.2c-0.1,0-0.2,0.2-0.2,0.4l-0.1-0.2
		c-0.4-1.3-0.4-3.6-1.3-4c0.6,0-0.3-0.6,0-0.7c0.1-0.1,0.3,0.5,0.4,0.5c-0.4-1.2-0.2-0.8-0.5-1.5l0,0l0-0.1c0-0.1,0-0.2,0-0.3
		c0,0,0-0.1,0-0.2c0,0,0-0.1,0-0.1c0-0.1-0.1-0.1-0.1,0c0,0.1,0,0.3,0,0.4l0,0l0,0c-0.1-0.1-0.8-1.4-0.2-1.3c-0.3-0.9-0.5-1-0.8-1.4
		c0.1-0.1,0.3-0.1,0.2-0.4c-0.3-0.5-0.6-0.4-0.6-1.1l0,0c0-0.2,0-0.6-0.1-0.8c0-0.1,0-0.2-0.1-0.2c-0.1-0.3-0.3-0.4-0.4-0.3l0,0
		l0,0.1c0,0.1,0,0.3,0,0.5l0,0l0-0.1c-0.1-1.1-0.6-2-0.6-2.8c0,0.1,0,0.1,0.1,0.2c0.1,0.3,0.2,0.6,0.4,0.7c0.1,0,0.1,0,0.1-0.2
		c0,0,0-0.1,0-0.1c0-0.1-0.1-0.2-0.1-0.2c-0.1,0-0.1-0.2-0.2-0.4c-0.1-0.2-0.2-0.5-0.3-0.6l0,0l-0.1-0.3c0.4-0.4,0-2.8-0.6-3.2
		c0.4-0.2-0.2-1.1-0.3-1.6c-0.1-0.6,0.1-1.1,0.1-1.7c-0.1-0.7-0.4-1.8-0.5-2.7c-0.2-0.9-0.3-1.5-0.1-1.1c-0.5-2.1-0.9-4.7-0.7-7.4
		c-0.1-0.1-0.2,0-0.3-0.3l-0.1,0.1c0-0.2,0-0.3,0-0.5c0,0,0,0,0-0.1c0-0.1,0-0.2-0.1-0.2c0,0-0.1,0-0.1,0.1
		c-0.1-1.1-0.1-2.4,0.2-3.4c-0.6,0.6-0.3-0.3-0.3-1.3c0-0.6,0-2.8-0.3-4.2c-0.1-0.8,0.3-0.7,0.4-1c0-0.2-0.2-1.1-0.2-1.3
		c0-0.2,0.2,0.6,0.2,0c0-1.2-0.3-2.7,0.3-3.6c-0.1-0.2-0.3-0.3-0.3-0.6c0.2-1.6,0.5-2.5,0.6-3.4c0.2-0.9,0.3-1.8,0.4-3.3
		c0.2,0,0.2-0.8,0.4-0.6c0-1.6,0.2-4,0.6-3.8c0.2-1.5,0.5-2.7,0.8-4c0.3-1.3,0.7-2.7,1.1-4.4c0.1,0,0.1,0.3,0.2,0.4
		c0.2-1.3,0.9-3.6,1.6-5.8C70.1,138.1,70.9,135.9,71.1,134.6z"/>
	<path class="st1" d="M311.7,182.8c0-0.9-0.1-1.8,0-3.1c-0.5-0.4-0.1,2.5-0.5,1.3c-0.1,0.9-0.2,1.8-0.1,2.6
		C311.4,183.1,311.3,183,311.7,182.8z"/>
</g>
</svg>
