<?xml version="1.0" encoding="utf-8"?>
<!-- Generator: Adobe Illustrator 17.1.0, SVG Export Plug-In . SVG Version: 6.00 Build 0)  -->
<!DOCTYPE svg PUBLIC "-//W3C//DTD SVG 1.1//EN" "http://www.w3.org/Graphics/SVG/1.1/DTD/svg11.dtd">
<svg version="1.1" id="badges_1_" xmlns="http://www.w3.org/2000/svg" xmlns:xlink="http://www.w3.org/1999/xlink" x="0px" y="0px"
	 viewBox="0 0 100 100" enable-background="new 0 0 100 100" xml:space="preserve">
<g id="badges">
	<g id="_x36_">
		<g id="text_2_">
			<g>
				<g>
					<path fill="#FFFFFF" d="M16.8,70.3L16.8,70.3c-0.1,0-0.1,0.1-0.1,0.1v0.1c0,0.1,0,0.1-0.1,0.2c0,0.1-0.1,0.1-0.2,0.2l-0.2,0.1
						l-0.9-1.6l0.3-0.1c0.1-0.1,0.2-0.1,0.3-0.1c0.1,0,0.2,0,0.2,0.1h0.1h0.1l0,0l5.2-2.9c0.1,0,0.1-0.1,0.1-0.1v-0.1
						c0-0.1,0-0.1,0.1-0.2c0-0.1,0.1-0.1,0.2-0.2l0.2-0.1l0.9,1.6l-0.2,0.1c-0.1,0.1-0.2,0.1-0.3,0.1c-0.1,0-0.2,0-0.2-0.1h-0.1
						h-0.1L16.8,70.3z"/>
					<path fill="#FFFFFF" d="M17.7,73.7c-0.1-0.2-0.2-0.5-0.3-0.7c-0.1-0.2-0.1-0.5-0.1-0.7c0-0.2,0.1-0.5,0.2-0.6
						c0.1-0.2,0.2-0.3,0.5-0.6l4.1-2.8c0.2-0.1,0.5-0.2,0.7-0.3c0.2,0,0.5,0,0.7,0c0.2,0.1,0.5,0.1,0.6,0.3c0.2,0.1,0.3,0.3,0.5,0.6
						c0.1,0.2,0.2,0.5,0.3,0.7c0.1,0.2,0.1,0.5,0.1,0.7s-0.1,0.5-0.2,0.6c-0.1,0.2-0.2,0.3-0.5,0.6l-0.7,0.5l-0.2-0.3
						c-0.1-0.1-0.1-0.3-0.1-0.5s0.1-0.3,0.2-0.3l0.1-0.1c0.2-0.1,0.3-0.3,0.3-0.6s0-0.3-0.2-0.6c-0.1-0.1-0.2-0.3-0.5-0.3
						c-0.2-0.1-0.5,0-0.7,0.1l-4.1,2.8c-0.2,0.1-0.3,0.3-0.3,0.5c0,0.2,0,0.3,0.1,0.6c0.1,0.1,0.1,0.1,0.2,0.2
						c0.1,0.1,0.2,0.1,0.3,0.1c0.1,0,0.2,0,0.3,0c0.1,0,0.2,0,0.3-0.1l0.1-0.1c0.1-0.1,0.2-0.1,0.5-0.1c0.1,0,0.3,0.1,0.5,0.2
						l0.2,0.5l-0.8,0.6c-0.2,0.1-0.5,0.2-0.7,0.2s-0.5,0-0.7-0.1c-0.2-0.1-0.3-0.2-0.6-0.3C17.9,74.2,17.8,73.9,17.7,73.7z"/>
					<path fill="#FFFFFF" d="M26,72.6h-0.1l-1.7,1.6c-0.1,0.1-0.1,0.1,0,0.2l0.9,0.9v0.1v0.1L24.6,76c-0.1,0.1-0.1,0.1-0.2,0
						l-0.9-0.9c-0.1-0.1-0.1-0.1-0.2,0l-1.8,1.6c-0.1,0.1-0.1,0.1,0,0.2l0.8,0.8c0,0.1,0.1,0,0.2,0c0.1-0.1,0.2-0.1,0.3-0.1
						c0.1,0,0.2,0.1,0.3,0.2l0.2,0.3l-0.8,0.8c-0.1,0-0.1,0.1-0.2,0.1s-0.1,0-0.2-0.1l-0.5-0.5l-1.5-1.7l-0.5-0.5l0.2-0.2
						c0.1-0.1,0.2-0.2,0.3-0.2c0.1,0,0.1,0,0.2,0s0.2,0,0.2,0l4.4-4.1l0.1-0.1v-0.1c0-0.1,0-0.1,0-0.2s0.1-0.2,0.2-0.2l0.2-0.2
						l2.4,2.5c0.1,0.1,0.1,0.1,0.1,0.2c0,0.1,0,0.1-0.1,0.1l-1,0.8l-0.2-0.3c-0.1-0.1-0.2-0.2-0.2-0.3s0-0.2,0.1-0.2
						c0,0,0-0.1,0.1-0.1v-0.1L26,72.6C26.1,72.6,26,72.6,26,72.6z"/>
					<path fill="#FFFFFF" d="M27.3,83.3c-0.2-0.1-0.5-0.3-0.6-0.5c-0.1-0.2-0.2-0.3-0.3-0.6c0-0.2-0.1-0.5,0-0.7
						c0-0.2,0.1-0.5,0.3-0.7l2.8-4.1c0.1-0.2,0.3-0.3,0.6-0.5c0.2-0.1,0.5-0.2,0.6-0.2c0.2,0,0.5,0,0.7,0.1c0.2,0.1,0.5,0.2,0.7,0.3
						c0.2,0.1,0.5,0.3,0.6,0.5c0.1,0.2,0.2,0.3,0.3,0.6c0.1,0.2,0.1,0.5,0,0.7c0,0.2-0.1,0.5-0.3,0.7l-0.5,0.7l-0.3-0.2
						c-0.1-0.2-0.2-0.3-0.2-0.5c0-0.1,0-0.3,0.1-0.5l0.1-0.1c0.1-0.2,0.2-0.5,0.1-0.7c-0.1-0.2-0.2-0.3-0.3-0.5
						c-0.1-0.1-0.3-0.2-0.6-0.1c-0.2,0-0.3,0.1-0.6,0.3l-2.8,4.1c-0.1,0.2-0.1,0.3-0.1,0.6s0.1,0.3,0.3,0.5c0.1,0.1,0.2,0.1,0.2,0.1
						c0.1,0,0.2,0,0.3,0c0.1,0,0.2,0,0.3-0.1c0.1,0,0.2-0.1,0.2-0.2l0.1-0.1c0.1-0.1,0.2-0.2,0.3-0.2c0.1,0,0.3,0,0.5,0.1l0.5,0.2
						l-0.6,0.8c-0.1,0.2-0.3,0.3-0.6,0.5c-0.2,0.1-0.5,0.1-0.6,0.1c-0.2,0-0.5,0-0.7-0.1C27.8,83.6,27.5,83.5,27.3,83.3z"/>
					<path fill="#FFFFFF" d="M32.1,86.1c-0.2-0.1-0.5-0.2-0.7-0.5c-0.2-0.1-0.3-0.3-0.5-0.6s-0.1-0.5-0.1-0.7s0.1-0.5,0.2-0.7
						l2.3-4.4c0.1-0.2,0.2-0.5,0.5-0.6c0.2-0.1,0.3-0.2,0.6-0.2s0.5,0,0.7,0s0.5,0.1,0.7,0.2c0.2,0.1,0.5,0.2,0.6,0.5
						c0.2,0.1,0.3,0.3,0.5,0.6c0.1,0.2,0.1,0.5,0.1,0.7s-0.1,0.5-0.2,0.7l-2.3,4.5c-0.1,0.2-0.2,0.5-0.5,0.6
						c-0.2,0.1-0.3,0.2-0.6,0.2c-0.2,0-0.5,0-0.7,0C32.5,86.3,32.3,86.2,32.1,86.1z M35.8,80.6c0.1-0.1,0.1-0.2,0.1-0.3
						c0-0.1,0-0.2-0.1-0.3c0-0.1-0.1-0.1-0.2-0.2c-0.1-0.1-0.1-0.1-0.2-0.2c-0.1,0-0.2-0.1-0.3-0.1s-0.2,0-0.3,0
						c-0.1,0-0.2,0.1-0.3,0.1c-0.1,0.1-0.1,0.1-0.2,0.3l-2.3,4.4c-0.1,0.1-0.1,0.2-0.1,0.3s0,0.2,0.1,0.3c0,0.1,0.1,0.2,0.2,0.2
						c0.1,0.1,0.1,0.1,0.2,0.2c0.1,0,0.2,0.1,0.3,0.1c0.1,0,0.2,0,0.3,0c0.1,0,0.2-0.1,0.2-0.1c0.1-0.1,0.1-0.1,0.2-0.3L35.8,80.6z"
						/>
					<path fill="#FFFFFF" d="M39.1,87.4l-0.3,1.1c0,0.1-0.1,0.1-0.1,0.1c-0.1,0-0.1,0-0.2,0l-0.2-0.1l-3.2-1l0.1-0.3
						c0-0.1,0.1-0.2,0.2-0.3c0.1-0.1,0.1-0.1,0.2-0.1h0.1l0.1-0.1l1.9-5.6c0-0.1,0-0.1,0-0.1v-0.1c0-0.1-0.1-0.1-0.1-0.2
						c0-0.1,0-0.2,0-0.3l0.1-0.3l1.7,0.6l-0.1,0.3c0,0.1-0.1,0.2-0.2,0.2c-0.1,0-0.1,0.1-0.2,0.1h-0.1c0,0,0,0.1-0.1,0.1l-1.9,5.6
						v0.1c0,0,0,0.1,0.1,0.1l0.9,0.3h0.1l0.1-0.1C38,87.1,38,87,38.1,87c0.1,0,0.2,0,0.5,0.1L39.1,87.4z"/>
					<path fill="#FFFFFF" d="M43.7,81.6c0.3,0.1,0.6,0.1,0.8,0.3c0.2,0.1,0.3,0.2,0.5,0.5c0.1,0.2,0.1,0.3,0.2,0.6
						c0,0.2,0,0.5,0,0.7l-0.9,4.5c-0.1,0.6-0.3,0.9-0.7,1.1c-0.3,0.2-0.8,0.3-1.4,0.2L40,89.1l0.1-0.3c0-0.1,0.1-0.2,0.1-0.3
						c0.1-0.1,0.1-0.1,0.2-0.1c0.1,0,0.1-0.1,0.2-0.2l1.2-5.9c0-0.1,0-0.1,0-0.1s0-0.1-0.1-0.1s-0.1-0.1-0.1-0.2c0-0.1,0-0.2,0-0.3
						l0.1-0.3L43.7,81.6z M43.9,83.4c0-0.2,0-0.5,0-0.7c-0.1-0.2-0.2-0.2-0.5-0.3h-0.7h-0.1c0,0,0,0.1-0.1,0.1l-1.2,5.9v0.1
						c0,0,0,0.1,0.1,0.1l0.8,0.1c0.2,0,0.5,0,0.6-0.1c0.1-0.1,0.2-0.3,0.2-0.6L43.9,83.4z"/>
					<path fill="#FFFFFF" d="M49.5,84.7c0,0.1,0.1,0.2,0.2,0.5c0.1,0.1,0.3,0.2,0.6,0.3s0.5,0.2,0.7,0.5c0.2,0.1,0.5,0.3,0.7,0.5
						c0.2,0.2,0.3,0.3,0.6,0.6c0.1,0.2,0.2,0.5,0.2,0.8v1c0,0.2,0,0.6-0.1,0.7c-0.1,0.2-0.2,0.3-0.5,0.6c-0.2,0.1-0.3,0.2-0.6,0.3
						c-0.2,0.1-0.5,0.1-0.8,0.1c-0.2,0-0.6,0-0.8-0.1c-0.2-0.1-0.5-0.1-0.7-0.3c-0.2-0.1-0.3-0.3-0.5-0.5c-0.1-0.2-0.1-0.5-0.1-0.7
						V88h0.6c0.2,0,0.3,0,0.5,0.1c0.1,0.1,0.1,0.2,0.1,0.3v0.5c0,0.1,0,0.2,0.1,0.2c0,0.1,0.1,0.1,0.2,0.2c0.1,0,0.2,0.1,0.2,0.1
						c0.1,0,0.2,0,0.3,0s0.2,0,0.3,0s0.2-0.1,0.2-0.1c0.1,0,0.1-0.1,0.2-0.2c0-0.1,0.1-0.1,0.1-0.2v-1.1c0-0.2-0.1-0.5-0.2-0.6
						c-0.1-0.1-0.3-0.3-0.5-0.5c-0.2-0.1-0.5-0.2-0.7-0.5c-0.2-0.1-0.5-0.2-0.7-0.5c-0.2-0.1-0.3-0.3-0.5-0.6
						c-0.1-0.2-0.2-0.5-0.2-0.8v-0.8c0-0.3,0-0.6,0.1-0.8s0.2-0.3,0.3-0.6c0.1-0.1,0.3-0.2,0.6-0.3c0.2-0.1,0.5-0.1,0.7-0.1
						c0.2,0,0.6,0,0.8,0.1c0.2,0.1,0.5,0.1,0.6,0.3c0.2,0.1,0.3,0.3,0.5,0.5c0.1,0.2,0.1,0.5,0.1,0.7v0.8h-0.5c-0.2,0-0.3,0-0.5-0.1
						c-0.1-0.1-0.2-0.2-0.2-0.5v-0.5c0-0.1,0-0.1-0.1-0.2c0-0.1-0.1-0.1-0.2-0.1c-0.1,0-0.1-0.1-0.2-0.1c-0.1,0-0.2,0-0.2,0
						c-0.1,0-0.1,0-0.2,0c-0.1,0-0.1,0.1-0.2,0.1c-0.1,0-0.1,0.1-0.2,0.1c0,0.1-0.1,0.1-0.1,0.2L49.5,84.7z"/>
					<path fill="#FFFFFF" d="M55.9,90c-0.2,0-0.6,0-0.8,0s-0.5-0.1-0.7-0.2c-0.2-0.1-0.3-0.2-0.5-0.5c-0.1-0.2-0.2-0.5-0.2-0.7
						l-0.7-5c0-0.2,0-0.6,0-0.7c0.1-0.2,0.2-0.5,0.3-0.6c0.1-0.1,0.3-0.3,0.6-0.3c0.2-0.1,0.5-0.2,0.7-0.2c0.2,0,0.6,0,0.8,0
						s0.5,0.1,0.7,0.2c0.2,0.1,0.3,0.2,0.5,0.5c0.1,0.2,0.2,0.5,0.2,0.7l0.8,4.9c0,0.2,0,0.6,0,0.7c-0.1,0.2-0.1,0.5-0.3,0.6
						c-0.1,0.1-0.3,0.3-0.6,0.3C56.4,89.8,56.2,90,55.9,90z M55.8,83.3c0-0.1-0.1-0.2-0.1-0.3c-0.1-0.1-0.1-0.1-0.2-0.2
						c-0.1,0-0.2-0.1-0.3-0.1s-0.2,0-0.3,0c-0.1,0-0.2,0-0.3,0.1c-0.1,0-0.2,0.1-0.2,0.2c-0.1,0.1-0.1,0.1-0.1,0.2
						c0,0.1,0,0.2,0,0.3l0.8,4.9c0,0.1,0.1,0.2,0.1,0.3c0.1,0.1,0.1,0.1,0.2,0.2c0.1,0,0.2,0.1,0.3,0.1s0.2,0,0.3,0s0.2,0,0.3-0.1
						c0.1,0,0.2-0.1,0.2-0.2c0.1-0.1,0.1-0.1,0.1-0.2c0-0.1,0-0.2,0-0.3L55.8,83.3z"/>
					<path fill="#FFFFFF" d="M62.3,86.8l0.3,1.1c0,0.1,0,0.1,0,0.2c0,0.1-0.1,0.1-0.1,0.1l-0.2,0.1l-3,0.9l-0.1-0.3
						c0-0.1-0.1-0.2,0-0.3c0-0.1,0-0.1,0.1-0.2c0,0,0-0.1,0.1-0.1v-0.1l-1.8-5.8c0-0.1,0-0.1-0.1-0.1h-0.1c-0.1,0-0.1-0.1-0.2-0.1
						C57,82.1,57,82.1,57,81.9l-0.1-0.3l1.7-0.6l0.1,0.2c0,0.1,0,0.2,0,0.3c0,0.1-0.1,0.1-0.1,0.2c0,0,0,0.1-0.1,0.1v0.1l1.7,5.6
						c0,0,0,0.1,0.1,0.1h0.1l0.9-0.2c0,0,0.1,0,0.1-0.1v-0.1c0-0.1,0-0.2,0.1-0.3s0.2-0.1,0.3-0.2H62.3z"/>
					<path fill="#FFFFFF" d="M62.8,79.5c0.3-0.1,0.6-0.2,0.8-0.2s0.5,0,0.7,0.1c0.2,0.1,0.3,0.2,0.5,0.3c0.1,0.2,0.2,0.3,0.3,0.6
						l1.8,4.2c0.2,0.5,0.2,0.9,0.1,1.4c-0.1,0.5-0.5,0.7-1,1l-2.1,0.9l-0.1-0.2c-0.1-0.1-0.1-0.2-0.1-0.3c0-0.1,0-0.2,0.1-0.2
						c0.1-0.1,0.1-0.1,0-0.2l-2.3-5.4c0-0.1-0.1-0.1-0.1-0.1h-0.1c-0.1,0-0.1,0-0.2-0.1c-0.1-0.1-0.1-0.1-0.2-0.2l-0.1-0.3
						L62.8,79.5z M64,80.8c-0.1-0.2-0.2-0.3-0.3-0.5c-0.1-0.1-0.3-0.1-0.6,0l-0.7,0.3c0,0-0.1,0-0.1,0.1v0.1l2.5,5.4
						c0,0,0,0.1,0.1,0.1H65l0.7-0.3c0.2-0.1,0.3-0.2,0.3-0.5c0-0.2,0-0.3-0.1-0.6L64,80.8z"/>
					<path fill="#FFFFFF" d="M74.4,80.5L74.4,80.5c0,0.1,0.1,0.1,0.1,0.1h0.1c0.1,0,0.1,0,0.2,0s0.2,0.1,0.2,0.2l0.2,0.2l-1.5,1.1
						l-0.2-0.2c-0.1-0.1-0.1-0.2-0.1-0.3c0-0.1,0-0.2,0-0.2v-0.1c0,0,0-0.1-0.1-0.1L72,79c-0.1-0.1-0.1-0.1-0.2,0l-1,0.8
						c-0.1,0.1-0.1,0.1,0,0.2l1.5,2l0,0l0,0c0,0.1,0.1,0.1,0.1,0.1h0.1c0.1,0,0.1,0,0.2,0c0.1,0,0.2,0.1,0.2,0.2l0.2,0.2l-1.5,1.1
						l-0.2-0.2c-0.1-0.1-0.1-0.2-0.1-0.3c0-0.1,0-0.2,0-0.2v-0.1c0,0,0-0.1-0.1-0.1l0,0l-3.4-4.9c0-0.1-0.1-0.1-0.1-0.1h-0.1
						c-0.1,0-0.1,0-0.2,0s-0.2-0.1-0.2-0.2l-0.2-0.2l1.5-1.1l0.2,0.2c0.1,0.1,0.1,0.2,0.1,0.3s0,0.2,0,0.2v0.1c0,0,0,0.1,0.1,0.1
						L70,79l0.1,0.1h0.1l1-0.8l0.1-0.1v-0.1L70,76.3c0-0.1-0.1-0.1-0.1-0.1h-0.1c-0.1,0-0.1,0-0.2,0c-0.1,0-0.2-0.1-0.2-0.2
						l-0.2-0.2l1.5-1.1l0.2,0.2c0.1,0.1,0.1,0.2,0.1,0.3c0,0.1,0,0.2,0,0.2v0.1c0,0,0,0.1,0.1,0.1L74.4,80.5z"/>
					<path fill="#FFFFFF" d="M72.2,74v0.1l1.6,1.6c0.1,0.1,0.1,0.1,0.2,0l0.9-0.9h0.1h0.1l0.5,0.5c0.1,0.1,0.1,0.1,0,0.2l-0.9,0.9
						c-0.1,0.1-0.1,0.1,0,0.2l1.8,1.8c0.1,0.1,0.1,0.1,0.2,0l0.8-0.8c0,0,0-0.1,0-0.2c-0.1-0.1-0.1-0.2-0.1-0.3s0.1-0.2,0.2-0.3
						l0.3-0.3l0.8,0.8c0,0,0.1,0.1,0.1,0.2c0,0.1,0,0.1-0.1,0.2l-0.5,0.5l-1.6,1.6l-0.5,0.5l-0.2-0.2c-0.1-0.1-0.2-0.2-0.2-0.3
						c0-0.1,0-0.1,0-0.2c0-0.1,0-0.2-0.1-0.2l-4.2-4.2l-0.1-0.1h-0.1c-0.1,0-0.1,0-0.2,0c-0.1,0-0.2-0.1-0.2-0.2l-0.3-0.1l2.4-2.4
						C73,72,73,72,73.1,72c0.1,0,0.1,0,0.1,0.1l0.8,0.8l-0.2,0.3c-0.1,0.1-0.2,0.2-0.3,0.2c-0.1,0-0.2,0-0.3-0.1c0,0-0.1,0-0.1-0.1
						h-0.1L72.2,74L72.2,74z"/>
					<path fill="#FFFFFF" d="M81.6,72.8c0.1,0,0.1,0,0.2,0c0.1,0,0.1,0,0.2,0.1l0.3,0.2l-0.6,0.7c-0.1,0.1-0.2,0.2-0.3,0.2
						c-0.1,0-0.2,0-0.3-0.1l-1.7-1.2c-0.2-0.1-0.3-0.2-0.6-0.2s-0.3,0.1-0.5,0.2L78,73.3c-0.1,0.1,0,0.1,0,0.2l1.8,1.4
						c0.1,0,0.1,0.1,0.1,0.1H80c0.1,0,0.1,0,0.2,0c0.1,0,0.2,0,0.3,0.1l0.2,0.2l-1.1,1.5l-0.2-0.2c-0.1-0.1-0.1-0.1-0.2-0.2
						c0-0.1,0-0.2,0-0.2V76c0,0,0-0.1-0.1-0.1L74.5,72c0,0-0.1,0-0.1-0.1h-0.1c-0.1,0-0.1,0-0.2,0c-0.1,0-0.2,0-0.3-0.1l-0.3-0.1
						l1.4-1.8c0.2-0.2,0.3-0.5,0.6-0.6c0.2-0.1,0.5-0.2,0.6-0.2c0.2,0,0.5,0,0.7,0.1c0.2,0.1,0.5,0.2,0.7,0.3l0.9,0.7
						c0.2,0.1,0.3,0.3,0.5,0.5c0.1,0.2,0.1,0.3,0.1,0.6c0,0.1,0.1,0.1,0.2,0.1c0.2-0.1,0.5,0,0.7,0c0.2,0.1,0.5,0.2,0.7,0.3l1.2,0.9
						C81.5,72.8,81.5,72.8,81.6,72.8L81.6,72.8z M76.5,70.4c-0.2-0.1-0.3-0.2-0.6-0.2s-0.3,0.1-0.5,0.2L75.2,71
						c-0.1,0.1-0.1,0.1,0,0.2l2,1.6h0.1h0.1l0.5-0.6c0.1-0.2,0.2-0.3,0.1-0.6c-0.1-0.2-0.2-0.3-0.3-0.5L76.5,70.4z"/>
					<path fill="#FFFFFF" d="M77.5,67.3C77.5,67.4,77.7,67.4,77.5,67.3l2,1.2c0.1,0,0.1,0,0.2-0.1l0.7-1.1c0,0,0-0.1,0.1-0.1h0.1
						l0.6,0.3c0.1,0,0.1,0.1,0,0.2l-0.7,1.1c0,0.1,0,0.1,0,0.2l2.1,1.2c0.1,0,0.1,0,0.2,0l0.6-0.9c0-0.1,0-0.1-0.1-0.2
						c-0.1-0.1-0.1-0.1-0.1-0.2c0-0.1,0-0.2,0.1-0.3l0.2-0.3l1,0.6c0.1,0,0.1,0.1,0.1,0.1c0,0.1,0,0.1,0,0.2l-0.3,0.6l-1,1.8
						l-0.3,0.6L82.8,72c-0.1-0.1-0.2-0.1-0.3-0.2c0-0.1-0.1-0.1-0.1-0.2s0-0.2-0.1-0.2l-5.2-2.9c-0.1,0-0.1,0-0.1,0h-0.1
						c-0.1,0-0.1,0.1-0.2,0.1c-0.1,0-0.2,0-0.3-0.1l-0.2-0.1l1.7-2.9c0-0.1,0.1-0.1,0.1-0.1c0.1,0,0.1,0,0.2,0l1,0.6l-0.2,0.3
						c-0.1,0.1-0.1,0.2-0.2,0.3c-0.1,0.1-0.2,0.1-0.3,0h-0.1c0,0-0.1,0-0.1,0.1l-0.6,0.9C77.5,67.3,77.5,67.3,77.5,67.3z"/>
				</g>
			</g>
			<g>
				<g>
					<path fill="#FFFFFF" d="M29.2,24.3L29.2,24.3c0.1,0.1,0.1,0.1,0.1,0.1h0.1c0.1,0,0.1,0,0.2,0s0.2,0.1,0.2,0.2l0.2,0.2L28.8,26
						l-0.2-0.2c-0.1-0.1-0.1-0.2-0.1-0.2c0-0.1,0-0.2,0-0.2v-0.1c0,0,0-0.1-0.1-0.1l0,0l-4-4.5l-0.1-0.1h-0.1c-0.1,0-0.1,0-0.2,0
						s-0.2-0.1-0.2-0.2L23.5,20l1.4-1.1l0.2,0.2c0.1,0.1,0.1,0.2,0.1,0.3c0,0.1,0,0.2,0,0.2v0.1c0,0,0,0.1,0.1,0.1L29.2,24.3z"/>
					<path fill="#FFFFFF" d="M31.9,23.5c-0.2,0.1-0.5,0.2-0.7,0.3c-0.2,0.1-0.5,0.1-0.7,0.1s-0.5-0.1-0.6-0.2
						c-0.2-0.1-0.3-0.2-0.6-0.5l-2.8-4.1c-0.1-0.2-0.2-0.5-0.3-0.7c0-0.2,0-0.5,0-0.7c0.1-0.2,0.1-0.5,0.3-0.6
						c0.1-0.2,0.3-0.3,0.6-0.6c0.2-0.1,0.5-0.2,0.7-0.3s0.5-0.1,0.7-0.1c0.2,0,0.5,0.1,0.6,0.2c0.2,0.1,0.3,0.2,0.6,0.5l0.5,0.7
						l-0.3,0.2c-0.1,0.2-0.3,0.2-0.5,0.2S29,17.9,29,17.8l-0.1-0.1c-0.1-0.2-0.3-0.3-0.6-0.3s-0.3,0-0.6,0.2
						c-0.1,0.1-0.2,0.2-0.3,0.5c-0.1,0.2,0,0.5,0.1,0.7l2.8,4.1c0.1,0.2,0.3,0.3,0.5,0.3c0.2,0,0.3,0,0.6-0.1
						c0.1-0.1,0.1-0.1,0.2-0.2s0.1-0.2,0.1-0.3c0-0.1,0-0.2,0-0.3c0-0.1,0-0.2-0.1-0.3l0-0.2c-0.1-0.1-0.1-0.2-0.1-0.5
						c0-0.1,0.1-0.3,0.2-0.5l0.5-0.2l0.6,0.8c0.1,0.2,0.2,0.5,0.3,0.7c0,0.2,0,0.5-0.1,0.7c-0.1,0.2-0.2,0.3-0.3,0.6
						C32.4,23.1,32.2,23.4,31.9,23.5z"/>
					<path fill="#FFFFFF" d="M31.8,15.1v0.1l1,2c0,0.1,0.1,0.1,0.2,0.1l1.1-0.6h0.1c0,0,0.1,0,0.1,0.1l0.2,0.6c0,0.1,0,0.1-0.1,0.2
						l-1.1,0.6c-0.1,0-0.1,0.1-0.1,0.2l1.1,2.3c0,0.1,0.1,0.1,0.2,0.1l0.9-0.5c0.1,0,0.1-0.1,0-0.2c0-0.1,0-0.2,0-0.3
						c0-0.1,0.1-0.2,0.3-0.2l0.3-0.2l0.6,1c0,0.1,0,0.1,0,0.2s-0.1,0.1-0.1,0.1l-0.6,0.3l-1.8,1h-0.5l-0.1-0.2
						c-0.1-0.1-0.1-0.2-0.1-0.3c0-0.1,0-0.2,0.1-0.2c0.1-0.1,0.1-0.2,0-0.2l-2.8-5.3c0-0.1-0.1-0.1-0.1-0.1h-0.1
						c-0.1,0-0.1,0-0.2-0.1c-0.1,0-0.1-0.1-0.2-0.2l-0.1-0.2l3-1.6c0.1,0,0.1,0,0.2,0c0.1,0,0.1,0.1,0.1,0.1l0.6,1h-0.5
						c-0.1,0.1-0.2,0.1-0.3,0.1s-0.2,0-0.2-0.1c0,0,0-0.1-0.1-0.1h-0.1L31.8,15.1L31.8,15.1z"/>
					<path fill="#FFFFFF" d="M41.8,18.8C41.5,19,41.3,19,41,19c-0.2,0-0.5,0-0.7-0.1c-0.2-0.1-0.3-0.2-0.5-0.3
						c-0.1-0.2-0.2-0.3-0.3-0.7L38.1,13c-0.1-0.2-0.1-0.5,0-0.7c0-0.2,0.1-0.5,0.2-0.6c0.1-0.2,0.3-0.3,0.5-0.5
						c0.2-0.1,0.5-0.2,0.7-0.3c0.2-0.1,0.5-0.1,0.8-0.1c0.2,0,0.5,0,0.7,0.1c0.2,0.1,0.3,0.2,0.6,0.3c0.1,0.2,0.2,0.3,0.3,0.7
						l0.2,0.8l-0.5,0.1c-0.2,0-0.3,0-0.5,0c-0.1-0.1-0.2-0.2-0.2-0.3v-0.1c-0.1-0.2-0.2-0.5-0.5-0.6s-0.3-0.1-0.6,0
						c-0.2,0-0.3,0.1-0.5,0.3c-0.1,0.1-0.1,0.3-0.1,0.7l1.4,4.7c0.1,0.2,0.2,0.3,0.3,0.5c0.2,0.1,0.3,0.1,0.6,0
						c0.1,0,0.2-0.1,0.2-0.1c0.1-0.1,0.1-0.1,0.2-0.2c0.1-0.1,0.1-0.2,0.1-0.2c0-0.1,0-0.2,0-0.3v-0.2c0-0.1,0-0.3,0-0.5
						c0.1-0.1,0.2-0.2,0.3-0.3L43,16l0.2,0.9c0.1,0.2,0.1,0.5,0,0.7c0,0.2-0.1,0.5-0.2,0.6c-0.1,0.1-0.3,0.3-0.6,0.5
						C42.2,18.7,42,18.8,41.8,18.8z"/>
					<path fill="#FFFFFF" d="M45.9,18.1c-0.2,0-0.6,0-0.8,0s-0.5-0.1-0.7-0.2c-0.2-0.1-0.3-0.2-0.5-0.5c-0.1-0.2-0.2-0.5-0.2-0.7
						l-0.7-5c0-0.2,0-0.6,0-0.7c0.1-0.2,0.2-0.5,0.3-0.6c0.3-0.2,0.6-0.3,0.8-0.5c0.2-0.1,0.5-0.1,0.7-0.2c0.2,0,0.6,0,0.8,0
						c0.2,0,0.5,0.1,0.7,0.2c0.2,0.1,0.3,0.2,0.5,0.5c0.1,0.2,0.2,0.5,0.2,0.7l0.7,5c0,0.2,0,0.6,0,0.7c-0.1,0.2-0.2,0.5-0.3,0.6
						c-0.1,0.1-0.3,0.3-0.6,0.3C46.5,17.9,46.3,18.1,45.9,18.1z M45.9,11.4c0-0.1-0.1-0.2-0.1-0.3c-0.1-0.1-0.1-0.1-0.2-0.2
						c-0.1,0-0.2-0.1-0.2-0.1c-0.1,0-0.2,0-0.3,0s-0.2,0-0.3,0.1c-0.1,0-0.2,0.1-0.2,0.1c-0.1,0.1-0.1,0.1-0.1,0.2
						c0,0.1,0,0.2,0,0.3l0.7,4.9c0,0.1,0.1,0.2,0.1,0.3c0.1,0.1,0.1,0.1,0.2,0.2c0.1,0,0.2,0.1,0.3,0.1c0.1,0,0.2,0,0.3,0
						s0.2,0,0.3-0.1c0.1,0,0.2-0.1,0.2-0.1c0.1-0.1,0.1-0.1,0.1-0.2c0-0.1,0-0.2,0-0.3L45.9,11.4z"/>
					<path fill="#FFFFFF" d="M51.9,16.3v1.1c0,0.1,0,0.1-0.1,0.2c0,0-0.1,0.1-0.2,0.1h-0.2h-3.3v-0.3c0-0.1,0-0.2,0.1-0.3
						c0-0.1,0.1-0.1,0.1-0.2c0,0,0.1,0,0.1-0.1v-0.1v-6c0-0.1,0-0.1,0-0.1s0,0-0.1-0.1c0,0-0.1-0.1-0.2-0.2c0-0.1-0.1-0.2-0.1-0.3
						V9.6h1.8v0.3c0,0.1,0,0.2-0.1,0.3s-0.1,0.1-0.2,0.2c0,0-0.1,0-0.1,0.1v0.1v6c0,0.1,0,0.1,0,0.1l0.1,0.1h0.9c0,0,0.1,0,0.1-0.1
						v-0.1c0-0.1,0-0.2,0.1-0.3c0.1,0,0.2-0.1,0.5-0.1L51.9,16.3z"/>
					<path fill="#FFFFFF" d="M55.5,10c0.3,0,0.6,0.1,0.8,0.2c0.2,0.1,0.3,0.2,0.5,0.5c0.1,0.1,0.2,0.3,0.2,0.6c0,0.2,0,0.5,0,0.7
						l-0.6,4.5c-0.1,0.6-0.2,0.9-0.6,1.2c-0.3,0.2-0.8,0.3-1.4,0.3l-2.3-0.3v-0.3c0-0.1,0.1-0.2,0.1-0.3s0.1-0.1,0.2-0.1
						c0.1,0,0.1-0.1,0.1-0.2l0.8-5.9c0-0.1,0-0.1,0-0.1s0-0.1-0.1-0.1s-0.1-0.1-0.1-0.2c0-0.1,0-0.2,0-0.3V9.7L55.5,10z M55.9,11.9
						c0-0.2,0-0.5-0.1-0.6s-0.2-0.2-0.5-0.3l-0.8-0.1h-0.1v0.1l-0.8,6V17c0,0,0,0,0.1,0.1l0.8,0.1c0.2,0,0.5,0,0.6-0.1
						s0.2-0.3,0.2-0.6L55.9,11.9z"/>
					<path fill="#FFFFFF" d="M62.1,14.1c0,0.1,0,0.3,0,0.5c0.1,0.1,0.2,0.3,0.3,0.6c0.1,0.2,0.3,0.5,0.5,0.7
						c0.2,0.2,0.3,0.5,0.5,0.7c0.1,0.2,0.2,0.5,0.2,0.8c0,0.2,0,0.6-0.1,0.8l-0.2,0.8c-0.1,0.2-0.2,0.5-0.5,0.6s-0.3,0.2-0.6,0.3
						c-0.2,0.1-0.5,0.1-0.7,0.1c-0.2,0-0.5-0.1-0.8-0.2c-0.2-0.1-0.5-0.2-0.7-0.3c-0.2-0.1-0.3-0.3-0.5-0.5
						c-0.1-0.2-0.2-0.3-0.2-0.7c0-0.2,0-0.5,0.1-0.7l0.2-0.8l0.5,0.2c0.2,0.1,0.3,0.1,0.3,0.2c0.1,0.1,0.1,0.2,0,0.5v0.5
						c0,0.1,0,0.2,0,0.2c0,0.1,0.1,0.1,0.1,0.2c0.1,0.1,0.1,0.1,0.2,0.2c0.1,0.1,0.2,0.1,0.2,0.1c0.1,0,0.2,0,0.3,0s0.2,0,0.3,0
						s0.2-0.1,0.2-0.1c0.1,0,0.1-0.1,0.1-0.2l0.5-1c0.1-0.2,0.1-0.5,0-0.7c-0.1-0.2-0.2-0.5-0.3-0.6c-0.1-0.2-0.3-0.5-0.5-0.6
						c-0.2-0.2-0.3-0.5-0.5-0.7c-0.1-0.2-0.2-0.5-0.2-0.7c0-0.2,0-0.6,0.1-0.8l0.2-0.7c0.1-0.2,0.2-0.5,0.3-0.7
						c0.1-0.1,0.3-0.2,0.6-0.3s0.5-0.1,0.7-0.1c0.2,0,0.5,0.1,0.7,0.1c0.2,0.1,0.5,0.2,0.7,0.3c0.2,0.1,0.3,0.3,0.5,0.5
						c0.1,0.2,0.2,0.3,0.2,0.6s0,0.5-0.1,0.7l-0.2,0.8l-0.5-0.1c-0.2-0.1-0.3-0.1-0.3-0.3c-0.1-0.1-0.1-0.3,0-0.5l0.1-0.3
						c0-0.1,0-0.1,0-0.2c0-0.1-0.1-0.1-0.1-0.2c-0.1-0.1-0.1-0.1-0.2-0.1c-0.1,0-0.1-0.1-0.2-0.1c-0.1,0-0.1,0-0.2,0
						c-0.1,0-0.2,0-0.2,0c-0.1,0-0.1,0-0.2,0.1c-0.1,0-0.1,0.1-0.1,0.2L62.1,14.1z"/>
					<path fill="#FFFFFF" d="M64.8,21.6c-0.2-0.1-0.5-0.2-0.6-0.5c-0.2-0.1-0.3-0.3-0.3-0.6c-0.1-0.2-0.1-0.5-0.1-0.7
						s0.1-0.5,0.2-0.7l2.4-4.4c0.1-0.2,0.3-0.5,0.5-0.6c0.2-0.1,0.3-0.2,0.6-0.2c0.2,0,0.5,0,0.7,0c0.2,0,0.5,0.1,0.7,0.2
						c0.2,0.1,0.5,0.2,0.6,0.5c0.2,0.1,0.3,0.3,0.3,0.6c0.1,0.2,0.1,0.5,0.1,0.7c0,0.2-0.1,0.5-0.2,0.7L67.2,21
						c-0.1,0.2-0.3,0.5-0.5,0.6c-0.2,0.1-0.3,0.2-0.6,0.2c-0.2,0-0.5,0-0.7,0C65.2,21.8,65,21.7,64.8,21.6z M68.6,16.1
						c0.1-0.1,0.1-0.2,0.1-0.3s0-0.2-0.1-0.3c0-0.1-0.1-0.2-0.1-0.2c-0.1-0.1-0.1-0.1-0.2-0.2c-0.1,0-0.2-0.1-0.3-0.1
						c-0.1,0-0.2,0-0.3,0c-0.1,0-0.2,0-0.3,0.1c-0.1,0.1-0.1,0.1-0.2,0.3l-2.4,4.3c-0.1,0.1-0.1,0.2-0.1,0.3s0,0.2,0.1,0.3
						c0,0.1,0.1,0.2,0.2,0.2c0.1,0.1,0.1,0.1,0.2,0.2c0.1,0,0.2,0.1,0.2,0.1c0.1,0,0.2,0,0.3,0c0.1,0,0.2,0,0.3-0.1
						c0.1-0.1,0.2-0.1,0.2-0.3L68.6,16.1z"/>
					<path fill="#FFFFFF" d="M70.7,23.6L70,24.5c0,0.1-0.1,0.1-0.2,0.1s-0.1,0-0.2,0l-0.2-0.1l-2.5-1.9l0.2-0.2
						c0.1-0.1,0.2-0.2,0.2-0.2c0.1,0,0.1-0.1,0.2,0h0.1c0,0,0.1,0,0.1-0.1l3.5-4.9c0-0.1,0.1-0.1,0.1-0.1v-0.1c0-0.1,0-0.1,0-0.2
						c0-0.1,0-0.2,0.1-0.3l0.2-0.2l1.5,1l-0.2,0.2c-0.1,0.1-0.1,0.1-0.2,0.2c-0.1,0-0.2,0-0.2,0h-0.1c0,0-0.1,0-0.1,0.1l-3.6,4.9
						c0,0,0,0.1-0.1,0.1v0.1l0.8,0.6h0.1c0,0,0.1,0,0.1-0.1c0.1-0.1,0.2-0.2,0.3-0.1c0.1,0,0.2,0.1,0.3,0.2L70.7,23.6z"/>
					<path fill="#FFFFFF" d="M77.2,20.7c0.2,0.2,0.3,0.5,0.5,0.7c0.1,0.2,0.1,0.5,0.1,0.7s0,0.5-0.1,0.6c-0.1,0.2-0.2,0.5-0.5,0.6
						L74,26.4c-0.3,0.3-0.8,0.6-1.1,0.7c-0.5,0-0.8-0.1-1.2-0.6L70,24.8l0.2-0.2c0.1-0.1,0.2-0.2,0.3-0.2c0.1,0,0.2,0,0.2,0
						c0.1,0,0.2,0,0.2-0.1l4.1-4.3l0.1-0.1v-0.1c0-0.1,0-0.1,0-0.2s0.1-0.2,0.2-0.3l0.2-0.2L77.2,20.7z M76.5,22.3
						c0.2-0.2,0.2-0.3,0.3-0.6c0-0.2,0-0.3-0.2-0.6l-0.6-0.6H76h-0.1l-4.2,4.3v0.1v0.1l0.6,0.6c0.1,0.1,0.3,0.2,0.6,0.2
						s0.3-0.1,0.6-0.3L76.5,22.3z"/>
					<path fill="#FFFFFF" d="M78,32.7L78,32.7c-0.1,0-0.1,0-0.1,0.1V33c0,0.1,0,0.1-0.1,0.2c0,0.1-0.1,0.2-0.2,0.2l-0.2,0.2l-1-1.5
						l0.2-0.2c0.1-0.1,0.2-0.1,0.3-0.1c0.1,0,0.2,0,0.2,0h0.1c0,0,0.1,0,0.1-0.1l2.1-1.5c0.1-0.1,0.1-0.1,0-0.2l-0.7-1
						c-0.1-0.1-0.1-0.1-0.2,0l-2,1.5l0,0l0,0c-0.1,0-0.1,0.1-0.1,0.1v0.1c0,0.1,0,0.1-0.1,0.2c0,0.1-0.1,0.2-0.2,0.2l-0.2,0.2
						l-1-1.5l0.2-0.2c0.1-0.1,0.2-0.1,0.3-0.1c0.1,0,0.2,0,0.2,0h0.1c0,0,0.1,0,0.1-0.1l0,0l5-3.3c0.1,0,0.1-0.1,0.1-0.1V26
						c0-0.1,0-0.1,0.1-0.2c0-0.1,0.1-0.1,0.2-0.2l0.2-0.2l1,1.5l-0.2,0.3c-0.1,0.1-0.2,0.1-0.3,0.1c-0.1,0-0.2,0-0.2,0h-0.1
						c0,0-0.1,0-0.1,0.1l-1.8,1.2l-0.1,0.1v0.1l0.7,1l0.1,0.1h0.1l1.8-1.2c0.1,0,0.1-0.1,0.1-0.1v-0.1c0-0.1,0-0.1,0-0.2
						s0.1-0.2,0.2-0.2l0.2-0.2l1,1.5l-0.1,0.1c-0.1,0.1-0.2,0.1-0.3,0.1c-0.1,0-0.2,0-0.2,0h-0.1c0,0-0.1,0-0.1,0.1L78,32.7z"/>
					<path fill="#FFFFFF" d="M84.4,32.1h-0.1l-2,1c-0.1,0-0.1,0.1-0.1,0.2l0.6,1.1v0.1c0,0,0,0.1-0.1,0.1l-0.6,0.2
						c-0.1,0-0.1,0-0.2-0.1l-0.6-1.1c0-0.1-0.1-0.1-0.2-0.1l-2.3,1.1c-0.1,0-0.1,0.1-0.1,0.2l0.5,1c0,0.1,0.1,0.1,0.2,0
						c0.1,0,0.2,0,0.3,0c0.1,0.1,0.2,0.1,0.2,0.3l0.2,0.3l-1,0.5c-0.1,0-0.1,0-0.2,0c-0.1,0-0.1-0.1-0.1-0.1l-0.3-0.6l-0.9-1.9
						l-0.2-0.6l0.2-0.1c0.1-0.1,0.2-0.1,0.3-0.1s0.2,0,0.2,0.1c0.1,0.1,0.2,0.1,0.2,0l5.4-2.6c0.1,0,0.1-0.1,0.1-0.1v-0.1
						c0-0.1,0-0.1,0.1-0.2c0-0.1,0.1-0.1,0.2-0.2l0.3-0.1l1.5,3c0,0.1,0,0.1,0,0.2s-0.1,0.1-0.1,0.1l-1,0.5l0-0.3
						c-0.1-0.1-0.1-0.2-0.1-0.3c0-0.1,0-0.2,0.1-0.2c0,0,0.1,0,0.1-0.1v-0.1L84.4,32.1C84.5,32.2,84.5,32.1,84.4,32.1z"/>
					<path fill="#FFFFFF" d="M81.2,41.1c0,0.1,0,0.1-0.1,0.2c0,0.1-0.1,0.1-0.2,0.1l-0.5,0.1l-0.2-0.9c0-0.2,0-0.3,0-0.5
						c0.1-0.1,0.2-0.2,0.3-0.2l2-0.7c0.2-0.1,0.5-0.2,0.6-0.3c0.1-0.1,0.1-0.3,0-0.6l-0.2-0.7c0-0.1-0.1-0.1-0.2-0.1l-2.1,0.7
						c-0.1,0-0.1,0-0.1,0.1c0,0,0,0.1-0.1,0.1c0,0.1-0.1,0.1-0.1,0.2c-0.1,0.1-0.1,0.1-0.2,0.2l-0.3,0.1L79,37.4l0.3-0.1
						c0.1,0,0.2,0,0.3,0c0.1,0,0.2,0.1,0.2,0.1H80h0.1l5.8-1.8c0.1,0,0.1,0,0.1-0.1v-0.1c0-0.1,0-0.1,0.1-0.2
						c0.1-0.1,0.1-0.1,0.3-0.2l0.3-0.1l0.7,2.1c0.1,0.3,0.1,0.6,0.1,0.8s-0.1,0.5-0.2,0.7c-0.1,0.2-0.2,0.3-0.5,0.5
						c-0.2,0.1-0.5,0.2-0.7,0.3l-1,0.3c-0.2,0.1-0.5,0.1-0.7,0.1c-0.2,0-0.3-0.1-0.6-0.2c-0.1,0-0.1,0-0.2,0.1
						c-0.1,0.2-0.2,0.3-0.3,0.5c-0.2,0.1-0.5,0.2-0.7,0.3l-1.5,0.6C81.2,40.9,81.2,40.9,81.2,41.1C81.2,41,81.2,41,81.2,41.1z
						 M86,38.3c0.2-0.1,0.5-0.2,0.6-0.3c0.1-0.1,0.1-0.3,0.1-0.6l-0.2-0.6c0-0.1-0.1-0.1-0.2-0.1l-2.5,0.8c0,0,0,0-0.1,0.1v0.1
						l0.2,0.7c0.1,0.2,0.2,0.3,0.3,0.5c0.2,0,0.3,0,0.7,0L86,38.3z"/>
					<path fill="#FFFFFF" d="M87.7,41.8h-0.1l-2.3,0.3c-0.1,0-0.1,0.1-0.1,0.2l0.2,1.2v0.1c0,0,0,0.1-0.1,0.1l-0.6,0.1
						c-0.1,0-0.1,0-0.2-0.1l-0.2-1.2c0-0.1-0.1-0.1-0.2-0.1l-2.5,0.5c-0.1,0-0.1,0.1-0.1,0.1l0.2,1c0,0.1,0.1,0.1,0.1,0.1
						c0.1,0,0.2,0,0.3,0.1s0.1,0.2,0.1,0.3l0.1,0.5l-1.1,0.1c-0.1,0-0.1,0-0.2,0c-0.1,0-0.1-0.1-0.1-0.2l-0.1-0.7l-0.3-2l-0.1-0.7
						h0.2c0.1,0,0.2,0,0.3,0c0.1,0,0.1,0.1,0.2,0.1c0.1,0.1,0.2,0.1,0.3,0.1l5.9-1c0.1,0,0.1,0,0.1-0.1c0,0,0-0.1,0.1-0.1
						c0-0.1,0.1-0.1,0.1-0.2c0.1,0,0.2-0.1,0.3-0.1h0.3l0.6,3.4c0,0.1,0,0.1,0,0.2c0,0.1-0.1,0.1-0.1,0.1l-1.1,0.2l-0.1-0.3
						c0-0.1,0-0.2,0-0.3c0-0.1,0.1-0.2,0.2-0.2h0.1v-0.1L87.7,41.8C87.7,41.9,87.7,41.9,87.7,41.8z"/>
				</g>
			</g>
			<g>
				<path fill="#FFFFFF" d="M21.8,48.1c-0.8,0.2-1.7,0.3-2.6,0.3c-6.9,0-10.5-3.7-10.5-7.9c0-5.3,5.9-11.3,18.5-11.3
					C35,29.2,42,31.8,42,37c0,2.6-1.8,5.2-5.8,6.5c5.3,1.5,7.8,4.7,7.8,8.1c0,4.7-5.1,9.5-14.8,9.5c-4.9,0-7.8-0.7-9.7-1.1
					c-2,0.9-4.3,1.4-6.4,1.4l0.7-3.6c0.5-0.1,1-0.1,1.6-0.1c1.5,0,2.8,0.2,4.1,0.7c2.9-2,4.6-6.9,6.1-13.8c1.1-5.3,2-8.9,3.2-11.2
					l3.8,0.7c-1,2-2,4.5-2.8,8.8c1.2,0,2.5,0.1,3.6,0.2c3.2-1.1,4.7-3.4,4.7-5.6c0-4.4-5.5-6.7-11.3-6.7c-10.2,0-14.8,5.1-14.8,9.4
					c0,3.2,2.6,5.9,7.2,5.9c0.7,0,1.2-0.1,1.8-0.1L21.8,48.1z M40.1,51.5c0-3-2-6-6.3-7.2c-1.2,0.2-2.7,0.5-4.2,0.5
					c-1.5,7.6-4.4,11.9-7.8,14.2c1.9,0.5,4.3,0.9,7.7,0.9C36.3,59.7,40.1,55.5,40.1,51.5z"/>
				<path fill="#FFFFFF" d="M57.9,47.7c0.2,0,1.1,0.2,1.1,0.5c-2,3.7-4.2,6.7-8.2,6.7c-3.6,0-5.1-2.3-5.1-5c0-3.8,3.2-8.6,7.8-8.6
					c2,0,3.2,1,3.2,2.4c0,2-2.5,4.7-7.4,5.3c0,0.1,0,0.3,0,0.5c0,1.7,0.7,3,2.6,3C54.3,52.4,56.3,50.7,57.9,47.7z M49.3,47.9
					c3.2-1,4.5-3,4.5-4.1c0-0.5-0.2-0.7-0.7-0.7C51.5,43.1,49.9,45.5,49.3,47.9z"/>
				<path fill="#FFFFFF" d="M69.9,47.7c0.2,0,1.1,0.2,1.1,0.5c-2,3.7-4.2,6.7-8.2,6.7c-3.6,0-5.1-2.3-5.1-5c0-3.8,3.2-8.6,7.8-8.6
					c2,0,3.2,1,3.2,2.4c0,2-2.5,4.7-7.4,5.3c0,0.1,0,0.3,0,0.5c0,1.7,0.7,3,2.6,3C66.3,52.4,68.3,50.7,69.9,47.7z M61.3,47.9
					c3.2-1,4.5-3,4.5-4.1c0-0.5-0.2-0.7-0.7-0.7C63.4,43.1,61.7,45.5,61.3,47.9z"/>
				<path fill="#FFFFFF" d="M73.5,47.3c0-0.9-0.3-1.5-0.8-2.1l-1.7,3c0,0-1.1-0.1-1.1-0.3l0,0c0.8-1.4,1.2-2.8,1.7-4.2
					c-0.5-0.7-0.8-1.4-0.8-2.4c0-0.9,0.3-2,0.9-3.5l3.2,0.7c-0.1,1.9-0.5,3.3-1.1,4.7c1.4,1,3.2,2.1,3.2,3.7c0,1.8-2.8,4.6-2.8,7.1
					c0,3.2,2.8,4.4,5.9,4.4c3.6,0,5.8-2,5.8-4.1c0-1.2-0.8-2.5-2.3-3.4l2.4-2c2.3,1.2,3.4,2.9,3.4,4.7c0,3-3.3,6.1-9.3,6.1
					c-4.6,0-9.1-2.1-9.1-5.8C70.8,51.2,73.5,48.8,73.5,47.3z"/>
			</g>
			<g>
				<g>
					<path fill="#FFFFFF" d="M48.4,34.3v1.1c0,0.1,0,0.1,0.1,0.1c0,0,0.1,0,0.1,0.1v0.1c0,0,0,0-0.1,0h-0.9h-0.1v-0.1
						c0,0,0-0.1,0.1-0.1s0.1-0.1,0.1-0.1V33c0-0.1,0-0.1-0.1-0.1c0,0-0.1,0-0.1-0.1v-0.1c0,0,0,0,0.1,0h0.8c0.5,0,0.7,0.1,0.9,0.2
						c0.2,0.1,0.3,0.3,0.3,0.7C49.7,34,49.3,34.3,48.4,34.3z M48.4,32.8v1.2c0.1,0,0.3,0,0.3,0c0.1,0,0.1-0.1,0.2-0.1
						c0-0.1,0.1-0.2,0.1-0.3c0-0.2,0-0.3-0.1-0.3c0-0.1-0.1-0.1-0.2-0.2C48.8,32.8,48.5,32.8,48.4,32.8z"/>
					<path fill="#FFFFFF" d="M51.2,34.2v1.1c0,0.1,0,0.1,0.1,0.1c0,0,0.1,0,0.1,0.1v0.1c0,0,0,0-0.1,0h-0.9h-0.1v-0.1
						c0,0,0-0.1,0.1-0.1s0.1-0.1,0.1-0.1v-2.5c0-0.1,0-0.1-0.1-0.1c0,0-0.1,0-0.1-0.1v-0.1c0,0,0,0,0.1,0h0.7c0.5,0,0.7,0.1,0.9,0.2
						c0.2,0.1,0.3,0.3,0.3,0.6c0,0.5-0.2,0.7-0.8,0.8c0.1,0,0.2,0.1,0.3,0.2c0.1,0.1,0.1,0.2,0.2,0.3l0.2,0.7c0,0.1,0,0.1,0.1,0.1
						l0.1,0.1l0,0v0.1c0,0,0,0-0.1,0h-0.6c0,0-0.1,0-0.1-0.1l-0.3-1.1c0-0.1-0.1-0.2-0.1-0.2C51.4,34.3,51.4,34.3,51.2,34.2z
						 M51.2,32.8v1.2c0.2,0,0.3,0,0.5-0.1c0.1-0.1,0.1-0.2,0.1-0.5c0-0.2,0-0.3-0.1-0.5C51.6,32.8,51.5,32.8,51.2,32.8z"/>
					<path fill="#FFFFFF" d="M55.3,35.8h-1.9h-0.1v-0.1c0,0,0-0.1,0.1-0.1l0.1-0.1V33c0-0.1,0-0.1-0.1-0.1c0,0-0.1,0-0.1-0.1v-0.1
						c0,0,0,0,0.1,0h1.4h0.1c0.1,0,0.1,0,0.1,0c0.1,0,0.1,0,0.1,0v0.6c0,0,0,0,0,0.1c0,0,0,0-0.1,0h-0.1c0,0-0.1,0-0.1-0.1
						s0-0.2-0.1-0.2c0-0.1-0.1-0.1-0.3-0.1h-0.1V34h0.1c0.1,0,0.1,0,0.1,0s0.1-0.1,0.1-0.2v-0.1l0,0h0.1h0.1v0.8c0,0,0,0-0.1,0h-0.1
						c0,0,0,0-0.1,0c0,0,0,0,0-0.1s-0.1-0.1-0.1-0.2h-0.1l0,0v1.2h0.3c0.1,0,0.2,0,0.3-0.1c0,0,0.1-0.2,0.2-0.5c0,0,0-0.1,0.1-0.1
						h0.1h0.1v1.1H55.3z"/>
					<path fill="#FFFFFF" d="M56.2,35.3v-2.5c0-0.1,0-0.1-0.1-0.1c0,0-0.1,0-0.1-0.1v-0.1c0,0,0,0,0.1,0h1l0.3,1.5l0.3-1.5h0.9h0.1
						v0.2c0,0,0,0.1-0.1,0.1S58.6,33,58.6,33v2.5c0,0.1,0,0.1,0.1,0.1c0,0,0.1,0,0.1,0.1v0.1c0,0,0,0-0.1,0h-0.8h-0.1v-0.1
						c0,0,0-0.1,0.1-0.1s0.1-0.1,0.1-0.1V33l-0.6,2.8h-0.2L56.7,33v2.5c0,0.1,0,0.1,0.1,0.1c0,0,0.1,0,0.1,0.1v0.1c0,0,0,0-0.1,0
						h-0.6h-0.1v-0.1c0,0,0-0.1,0.1-0.1C56.1,35.4,56.2,35.4,56.2,35.3z"/>
					<path fill="#FFFFFF" d="M60.3,35.3c0,0.1,0,0.1,0.1,0.1c0,0,0.1,0,0.1,0.1v0.1c0,0,0,0-0.1,0h-0.9h-0.1v-0.1c0,0,0-0.1,0.1-0.1
						s0.1-0.1,0.1-0.1v-2.5c0-0.1,0-0.1-0.1-0.1c0,0-0.1,0-0.1-0.1v-0.1c0,0,0,0,0.1,0h0.9h0.1v0.2c0,0,0,0.1-0.1,0.1
						S60.3,33,60.3,33V35.3z"/>
					<path fill="#FFFFFF" d="M63.2,35c0,0.2-0.1,0.5-0.2,0.6c-0.1,0.1-0.3,0.2-0.7,0.2c-0.2,0-0.5-0.1-0.7-0.2
						c-0.2-0.1-0.2-0.3-0.2-0.6v-2.1c0-0.1,0-0.1-0.1-0.1c0,0-0.1,0-0.1-0.1v-0.1c0,0,0,0,0.1,0h0.8h0.1v0.2c0,0,0,0.1-0.1,0.1
						S62,33,62,33v2.1c0,0.3,0.1,0.5,0.3,0.5s0.5-0.1,0.5-0.5v-2c0-0.1,0-0.1-0.1-0.1c0,0-0.1,0-0.1-0.1v-0.1c0,0,0,0,0.1,0h0.6h0.1
						l0,0c0,0,0,0.1-0.1,0.1S63.1,33,63.1,33v2H63.2z"/>
					<path fill="#FFFFFF" d="M64.2,35.3v-2.5c0-0.1,0-0.1-0.1-0.1c0,0-0.1,0-0.1-0.1v-0.1c0,0,0,0,0.1,0h1l0.3,1.5l0.3-1.5h1h0.1
						v0.2c0,0,0,0.1-0.1,0.1c-0.1,0-0.1,0.1-0.1,0.1v2.5c0,0.1,0,0.1,0.1,0.1c0,0,0.1,0,0.1,0.1v0.1c0,0,0,0-0.1,0H66l0,0v-0.1
						c0,0,0-0.1,0.1-0.1c0.1,0,0.1-0.1,0.1-0.1V33l-0.8,2.8h-0.2L64.7,33v2.5c0,0.1,0,0.1,0.1,0.1c0,0,0.1,0,0.1,0.1v0.1
						c0,0,0,0-0.1,0h-0.6h-0.1v-0.1c0,0,0-0.1,0.1-0.1C64.2,35.4,64.2,35.4,64.2,35.3z"/>
				</g>
				<polygon fill="#FFFFFF" points="69.5,34.8 69.3,35.7 69,34.8 68.2,34.8 68.8,34.3 68.5,33.5 69.3,34 70,33.5 69.6,34.3 
					70.3,34.8 				"/>
				<polygon fill="#FFFFFF" points="45.5,34.8 45.1,35.7 44.9,34.8 44,34.8 44.7,34.3 44.5,33.5 45.1,34 45.8,33.5 45.6,34.3 
					46.3,34.8 				"/>
			</g>
		</g>
		<path id="icon_6_" fill="#FFFFFF" d="M56.5,74.8c0,0-0.1-0.5-0.6-0.6c-0.5-0.1-0.7,0.2-0.8,0c-0.1-0.1,0-0.5,0.3-0.7
			s0.7-0.1,0.7-0.1s-0.1-0.2-0.3-0.2c-0.3,0.1-0.6,0.1-0.6,0.1s0-0.1,0.3-0.2c0.2,0,0.3,0,0.6,0c0.3-0.1,0.5-0.3,0.5-0.3
			s-0.2,0.1-0.7-0.1c-0.2-0.1-0.3-0.3-0.3-0.3s0.5,0.3,1,0c0.3-0.2,0.2-0.6,0.2-0.6S56.8,72,56.7,72c-0.2,0-0.3,0-0.6-0.3
			c-0.2-0.2-0.3-0.3-0.3-0.3H56c0,0-0.1-0.3-0.3-0.5c-0.3-0.1-0.9-0.1-1.1,0.2c-0.3,0.3-0.5-0.2-0.2-0.2s0.3-0.1,0.3-0.1
			s-0.2-0.1-0.3-0.2c-0.2-0.2-0.2-0.5-0.2-0.5l0.3,0.1c0,0-0.1-0.1-0.2-0.9c-0.1-0.8-0.3-1.2-0.5-1.4c0.2-0.1,0.5-0.2,0.6-0.5
			c0.5-0.6,0.3-1.1,0.3-1.7c0-0.6,0.3-0.7,0.3-0.7s-0.5,0-0.7,0.5c-0.1,0.2-0.1,0.6-0.1,0.7c0,0.1,0,0.3,0,0.3S54,66.4,53.8,66
			c-0.1-0.2-0.1-0.9,0.2-1.4s0.9-0.5,1-0.3c0.1,0.1,0.2,0.2,0.2,0.2s0-0.1,0-0.2s-0.1-0.2-0.1-0.2s0.2,0.1,0.5,0.2
			c0.2,0,0.6,0,1-0.2c0.6-0.5,0.6-1.1,0.2-1.5c-0.6-0.5-1-0.3-1.5-0.3c-0.5,0-0.6-0.1-0.6-0.1s0,0.1,0.1,0.2
			c0.1,0.1,0.3,0.1,0.3,0.1s-0.1,0.1-0.3,0.1c-0.3,0-0.7,0.1-0.9,0.5c-0.3,0.2-0.5,0.6-0.5,0.6s0.3,0,0.8-0.1s0.5-0.5,0.7-0.7
			c0.2-0.2,0.5-0.2,0.5-0.2s-0.2,0-0.2,0.1c0,0.2,0.1,0.3,0.1,0.3s0.1-0.8,0.9-0.6c0.8,0.2,0.6,1.2-0.1,1.5c-0.5,0.2-0.8,0-0.8,0
			s0.2-0.1,0.2-0.2c0.1-0.2,0.1-0.3,0.1-0.3s-0.2,0.1-0.9,0.2c-0.9,0.1-1.4,0.8-1.4,1.7c0,0.7,0.5,1.1,0.5,1.1h-0.2
			c0,0,0.3,0.3,0,0.9c-0.2,0.5-0.7,0.7-1,0.7h-0.1c-0.6,0-1.2-0.3-1.6-1.1c-0.5-0.8-0.1-1.5-0.1-1.5s0.1,0.1,0.5,0.2
			c0.3,0,0.6-0.2,0.6-0.2s-0.3,0-0.6-0.1c-0.2-0.2-0.2-0.5-0.2-0.5s0.1,0.2,0.6,0.2s0.6-0.2,0.9-0.2s0.5,0.2,0.5,0.2
			s0.1-0.5-0.2-0.6c-0.2-0.1-0.6,0-0.8-0.1c-0.2,0-0.6-0.2-0.6-0.2s0.5,0.2,0.8,0c0.3-0.2,0.2-0.5,0.2-0.5S52.4,64,51.9,64
			c-0.3,0-0.5-0.2-0.5-0.2s0.5,0.1,0.8-0.1c0.3-0.2,0.7-0.2,0.8,0c0.1,0.2-0.2,0.2-0.2,0.2s0.1,0,0.2,0c0.1,0,0.5-0.2,0.3-0.6
			c0-0.3-0.2-0.5-0.8-0.5c-0.1,0-0.3,0-0.6,0c-0.2-0.1-0.3-0.2-0.3-0.2s0.2,0.1,0.8,0s0.9,0.1,0.9,0.1s-0.2-0.3-1-0.3s-1-0.5-1-0.5
			s0.3,0.5,0.9,0.2c0.7-0.2,1-0.7,1-0.7s-0.3-0.2-0.9,0c-0.3,0.1-0.6,0.3-0.9,0.2c-0.3-0.1-0.5-0.6-0.5-0.6s0.2,0.2,0.6,0.3
			s0.6-0.2,0.7-0.3c0.2-0.1,0.3-0.1,0.3-0.1s-0.2-0.1-0.6,0.1c-0.2,0.1-0.5,0.1-0.8-0.1c-0.1-0.1-0.6-0.2-0.6-0.2s0.3,0,0.7,0.1
			c0.2,0,0.5,0.1,0.7-0.1c0.2-0.2,0.1-0.5,0.1-0.5s-0.2,0.2-0.5,0.2c-0.1,0-0.6,0-1.1,0c0-0.1,0.1-0.7,0.2-1
			c0.2-0.5,0.8-0.9,0.8-0.9s-0.8,0-1,0.3c-0.3,0.2-0.5,0.6-0.5,0.6s0.1-0.6-0.5-1.6c-0.6,1-0.5,1.6-0.5,1.6s-0.1-0.2-0.5-0.6
			c-0.3-0.2-1-0.6-1-0.6s0.6,0.5,0.8,0.9c0.1,0.3,0.2,0.9,0.2,1c-0.6,0-0.6,0.1-0.6,0.2c0,0.1,0.1,0.1,0.1,0.1s-0.3,0-0.5,0.1
			c-0.1,0.1-0.2,0.1-0.3,0.2c-0.1,0.1,0,0.2,0,0.2s-0.1,0.1-0.1,0.2c0,0.1,0.1,0.2,0.1,0.2s0-0.1,0.2-0.1c0.2,0,0.5,0,0.6,0
			s-0.1-0.1,0.2-0.2c0.3,0,0.5,0.3,0.3,0.6c-0.1,0.2-0.3,0.5-0.5,0.2c-0.1-0.2-0.5-0.3-1-0.3c-0.5,0-0.6,0.2-1,0.1
			c-0.3,0-0.5-0.1-0.5-0.1s0,0.2,0.3,0.3s0.8,0.1,1,0c0.2-0.1,0.5-0.2,0.5-0.2s-0.1,0.1,0,0.3s0.3,0.3,0.3,0.6s-0.2,0.2-0.2,0.2
			s0.1,0,0.3-0.1c0.2-0.1,0.1-0.5,0.1-0.5s0.1,0.1,0.1,0.2c0,0.1-0.1,0.2-0.1,0.2l0.2-0.1c0,0,0.1,0.2-0.3,0.3
			c-0.5,0.1-0.7,0.3-0.9,0.6c-0.2,0.2-0.1,0.8-0.1,0.8s-0.3-0.2-0.6-0.5C46.4,64,46,64,46,64s0.1-0.3,0-0.7
			c-0.1-0.5-0.5-0.5-0.5-0.5s0-0.1-0.2-0.2c-0.2-0.1-0.6,0-0.6,0s0.1,0,0.2,0.1c0.1,0.1,0.1,0.2,0.1,0.2s-0.3,0.2-0.3,0.6
			c0,0.2,0,0.3,0.1,0.5c-0.1-0.1-0.2-0.2-0.5-0.2c-0.3,0.3-0.5,0.6-0.5,0.6s-0.2-0.1-0.3,0c-0.3,0.1-0.3,0.3-0.3,0.3
			s0.1-0.1,0.3-0.1c0.1,0,0.2,0.1,0.2,0.1s-0.1,0.5,0.3,0.6c0.2,0.1,0.6,0,0.8-0.1c-0.1,0.2-0.5,0.3-0.5,0.9c0,0.6,0.3,0.7,0.3,0.7
			s0,0.1-0.1,0.2c-0.1,0.1-0.2,0.2-0.2,0.2s0.3,0,0.6-0.1c0.2-0.2,0.2-0.3,0.2-0.3s0.2,0,0.3-0.3c0.1-0.2,0.1-0.5-0.1-0.7
			c-0.2-0.2,0-0.5,0.1-0.3c0.1,0,0.5,0.2,0.5,0.7c0.1,0.3,0,0.7,0,0.7s0.2-0.1,0.3-0.2c0.1-0.2,0.1-0.5,0.1-0.5s0.1,0.1,0.2,0.5
			c0,0.3-0.3,0.5-0.3,0.5s0.2,0.1,0.6,0c0.2-0.1,0.2-0.2,0.3-0.5c0,0.2,0,0.6-0.6,0.8c-0.3,0.1-0.7,0-1.4,0.1
			c-0.2,0-0.7,0.3-0.7,0.3s-0.1-0.3-0.3-0.5c-0.3-0.2-0.6,0-0.6,0s-0.1-0.1-0.3,0c-0.2,0-0.5,0.3-0.5,0.3s0.1,0,0.2,0
			c0.1,0,0.2,0.1,0.2,0.1s-0.2,0.3,0,0.6c0.1,0.1,0.2,0.2,0.3,0.2c-0.1,0-0.3,0-0.5,0.1c-0.2,0.2-0.2,0.3-0.2,0.3s-0.2,0-0.3,0.2
			c-0.2,0.2-0.1,0.5-0.1,0.5s0.1-0.2,0.2-0.3c0.1-0.1,0.3-0.1,0.3-0.1s0.1,0.3,0.6,0.2c0.2-0.1,0.5-0.3,0.6-0.6
			c0,0.2-0.1,0.6,0.1,0.9c0.3,0.5,0.7,0.2,0.7,0.2s0,0.1,0,0.2c0,0.2-0.1,0.3-0.1,0.3s0.2-0.2,0.3-0.5c0.1-0.2,0-0.3,0-0.3
			s0.1-0.1,0.1-0.5c0-0.2-0.2-0.3-0.5-0.5c-0.3-0.1-0.2-0.3-0.1-0.3c0.1-0.1,0.5-0.1,0.8,0.1c0.2,0.2,0.3,0.5,0.3,0.5
			s0.1-0.2,0.1-0.5c0-0.2-0.2-0.3-0.2-0.3s0.3,0,0.6,0.1c0.2,0.2,0.6,0.5,0.6,0.5s0.2-0.6,0.9-0.3c0,0,0,0,0.1,0
			c0.1,0.1,0.3,0.1,0.6,0.2c1,0.6,1.1,1.1,0.9,1.1c-0.2,0.1-0.6-0.3-1.4-0.5c-0.8-0.2-1.1,0.1-1.1,0.1l0.2,0.1c0,0-0.5-0.1-1,0.3
			c-0.7,0.3-0.8,0.7-0.8,0.7h0.3c0,0-0.3,0.3-0.6,1s0,1,0,1l0.2-0.1c0,0,0.1,0.3,0.5,0.5c0.3,0.1,0.7-0.1,0.7-0.1S46.3,73.4,46,74
			c-0.3,0.7-0.3,0.9-0.5,0.8c-0.2-0.1-0.6-0.3-0.9-0.2c-0.3,0.1-0.3,0.3-0.3,0.3s-0.2,0.1-0.2,0.3c0,0.2,0,0.3,0,0.3
			s0.1-0.2,0.2-0.3c0.1-0.1,0.2,0.3,1,0.3c0.8,0,1.5-0.3,1.5-0.3s0.1-0.2,0.5-0.2c0.3,0.1,0.3,0.6,0.9,0.6c0.6,0,0.6-0.3,0.6-0.3
			s0.1,0,0.2,0.1c0.1,0.1,0.1,0.2,0.1,0.2s0.1-0.2,0-0.5c-0.1-0.2-0.3-0.3-0.3-0.3s-0.1-0.2-0.6-0.3c-0.5-0.1-0.9,0.1-0.7-0.2
			c0.2-0.3,0.5-0.3,0.7-0.3c0.1,0,0.2,0.2,0.2,0.2s0-0.3-0.1-0.7c-0.2-0.5,0.2-1,0.7-1.1c0.8-0.2,1.2,0.1,1.2,0.1s-0.1,0.3,0,0.7
			c0.1,0.6,0.5,0.7,0.5,0.7v-0.2c0,0,0.2,0.5,0.7,0.7c0.5,0.2,1,0.1,1,0.1l-0.2-0.2c0,0,0.6,0.1,1-0.2c0.5-0.3,0.6-0.7,0.7-1.2
			c0-0.5,0.3-0.5,0.5-0.2c0.1,0.2-0.2,0.2-0.3,1c-0.2,0.7-0.1,0.8-0.2,1c-0.1,0.1-0.2,0.3-0.6,0.1c-0.1-0.1-0.3-0.1-0.6,0
			c-0.2,0.1-0.1,0.3-0.1,0.3s-0.1,0.1-0.1,0.2c-0.1,0.1,0,0.3,0,0.3s0-0.2,0.1-0.2c0.1-0.1,0.2,0,0.3,0c0.1,0.1,0.3,0.2,0.8,0.2
			c0.3,0,1-0.2,1-0.2s0-0.3,0.3-0.2c0.3,0,0.6,0.6,1,0.6c0.6,0,0.6-0.3,0.6-0.3s0.1,0.1,0.2,0.1c0.1,0.1,0.1,0.1,0.1,0.1
			s0.1-0.2,0-0.5C56.7,74.9,56.5,74.8,56.5,74.8z"/>
		<path fill="#FFFFFF" d="M99.3,51.4c-0.2-0.5-0.5-0.8-0.5-1.4s0.2-0.9,0.5-1.4c0.3-0.6,0.7-1.1,0.7-2.1l0,0l0,0l0,0
			c-0.1-1-0.5-1.6-0.9-2c-0.3-0.5-0.7-0.7-0.7-1.2c-0.1-0.5,0.1-0.9,0.3-1.4c0.2-0.6,0.6-1.2,0.3-2.3l0,0l0,0l0,0
			c-0.2-0.9-0.8-1.5-1.2-1.9c-0.3-0.3-0.7-0.7-0.8-1.1c-0.1-0.5,0-0.9,0.1-1.5c0.1-0.6,0.3-1.4,0-2.3l0,0l0,0l0,0
			c-0.3-0.9-0.9-1.4-1.5-1.7c-0.5-0.3-0.8-0.6-1-1c-0.2-0.5-0.1-0.9-0.1-1.4c0.1-0.7,0.1-1.4-0.2-2.3l0,0l0,0l0,0
			c-0.5-0.9-1.1-1.1-1.7-1.5c-0.5-0.2-0.9-0.5-1.1-0.9c-0.2-0.5-0.2-0.9-0.2-1.4c0-0.7-0.1-1.4-0.6-2.1l0,0l0,0l0,0
			c-0.6-0.8-1.2-1-1.8-1.2c-0.5-0.2-0.9-0.3-1.2-0.7c-0.3-0.3-0.5-0.8-0.5-1.4c-0.1-0.7-0.2-1.4-0.9-2l0,0l0,0l0,0
			c-0.7-0.7-1.4-0.8-2-0.9c-0.6-0.1-0.9-0.1-1.4-0.5c-0.3-0.3-0.5-0.8-0.7-1.2c-0.1-0.7-0.3-1.4-1.1-1.9l0,0l0,0l0,0
			c-0.8-0.6-1.5-0.7-2.1-0.7c-0.6,0-0.9,0-1.4-0.3c-0.5-0.2-0.6-0.7-0.8-1.1c-0.2-0.6-0.6-1.2-1.5-1.7l0,0l0,0l0,0
			c-0.8-0.5-1.6-0.5-2.3-0.3c-0.6,0.1-0.9,0.1-1.5-0.1c-0.5-0.2-0.7-0.6-1-1C70.3,5,70,4.3,69.1,4l0,0l0,0l0,0
			c-0.9-0.3-1.6-0.1-2.3,0c-0.6,0.1-0.9,0.2-1.4,0S64.7,3.5,64.3,3c-0.5-0.5-0.9-1-1.8-1.2l0,0l0,0l0,0c-0.9-0.2-1.6,0-2.3,0.2
			c-0.5,0.2-0.9,0.3-1.4,0.3c-0.6-0.1-0.8-0.3-1.2-0.7c-0.5-0.5-1-0.9-2-1l0,0l0,0l0,0c-1,0-1.6,0.3-2.1,0.7
			c-0.5,0.2-0.8,0.5-1.4,0.5c-0.6,0-0.9-0.2-1.4-0.6c-0.6-0.5-1.1-0.7-2.1-0.7l0,0l0,0l0,0c-1,0.1-1.6,0.5-2,0.9
			C46.2,1.8,45.8,2,45.4,2c-0.6,0.1-0.9-0.1-1.4-0.3c-0.6-0.2-1.2-0.6-2.1-0.5l0,0l0,0l0,0c-1,0.1-1.5,0.7-1.9,1.1
			c-0.3,0.5-0.7,0.7-1.1,0.8c-0.5,0.1-0.9,0-1.4-0.2c-0.6-0.2-1.4-0.5-2.3-0.1l0,0l0,0l0,0c-0.9,0.3-1.4,0.9-1.7,1.5
			c-0.3,0.5-0.6,0.8-1,0.9c-0.5,0.2-0.9,0.1-1.5,0c-0.6-0.1-1.4-0.2-2.3,0.2l0,0l0,0l0,0c-0.9,0.5-1.2,1-1.6,1.6
			c-0.2,0.5-0.5,0.9-0.9,1.1c-0.5,0.2-0.9,0.2-1.4,0.2c-0.7,0-1.4,0-2.3,0.5l0,0l0,0l0,0c-0.8,0.6-1,1.2-1.2,1.9
			c-0.2,0.5-0.3,0.9-0.8,1.2c-0.5,0.3-0.8,0.3-1.4,0.3c-0.6,0.1-1.4,0.2-2,0.9l0,0l0,0l0,0c-0.7,0.7-0.9,1.4-1,1.9
			c-0.1,0.5-0.2,0.9-0.6,1.4c-0.3,0.3-0.8,0.5-1.2,0.6c-0.6,0.1-1.4,0.3-2,1l0,0l0,0l0,0c-0.7,0.8-0.7,1.5-0.7,2.1
			c0,0.6-0.1,0.9-0.3,1.4c-0.3,0.5-0.7,0.6-1.2,0.8c-0.7,0.2-1.2,0.6-1.8,1.4l0,0l0,0l0,0c-0.5,0.8-0.5,1.6-0.5,2.1
			c0,0.6,0,0.9-0.2,1.4c-0.2,0.5-0.6,0.7-1,0.9c-0.6,0.3-1.1,0.7-1.6,1.6l0,0l0,0l0,0c-0.5,0.9-0.2,1.6-0.1,2.3
			c0.1,0.6,0.2,0.9,0,1.5c-0.2,0.5-0.6,0.8-0.9,1c-0.6,0.3-1.1,0.8-1.4,1.8l0,0l0,0l0,0c-0.2,0.9,0,1.7,0.2,2.3
			c0.2,0.5,0.3,0.9,0.2,1.4c-0.9,0.5-1.2,0.8-1.6,1.2c-0.5,0.5-0.9,1-1,1.9l0,0l0,0l0,0c-0.1,1,0.1,1.6,0.5,2.1
			c0.2,0.5,0.5,0.8,0.5,1.4c0,0.6-0.2,0.9-0.6,1.2c-0.3,0.6-0.8,1.1-0.9,2.1l0,0l0,0l0,0c0.1,1,0.5,1.6,0.9,2.1
			c0.3,0.5,0.6,0.8,0.6,1.2c0,0.6-0.2,0.9-0.5,1.4c-0.3,0.6-0.6,1.2-0.5,2.1l0,0l0,0l0,0c0.1,1,0.7,1.5,1,1.9
			c0.3,0.3,0.6,0.7,0.8,1.2c0.1,0.5,0,0.9-0.2,1.4c-0.2,0.6-0.5,1.2-0.2,2.3l0,0l0,0l0,0c0.2,0.9,0.8,1.4,1.4,1.8
			c0.5,0.3,0.8,0.6,0.9,1c0.2,0.5,0.1,0.9,0,1.5c-0.1,0.7-0.3,1.4,0.1,2.3l0,0l0,0l0,0c0.5,0.9,1,1.2,1.6,1.6
			c0.6,0.6,0.9,0.8,1.1,1.2c0.2,0.5,0.2,0.9,0.2,1.4c0,0.7,0,1.4,0.5,2.1l0,0l0,0l0,0c0.6,0.8,1.1,1.1,1.8,1.4
			c0.5,0.2,0.9,0.3,1.2,0.8c0.3,0.5,0.3,0.8,0.3,1.4c0.1,0.7,0.1,1.4,0.7,2.1l0,0l0,0l0,0c0.7,0.7,1.4,0.9,2,1
			c0.6,0.1,0.9,0.2,1.2,0.6c0.3,0.3,0.5,0.8,0.6,1.4s0.3,1.4,1,1.9l0,0l0,0l0,0c0.7,0.7,1.5,0.8,2,0.9c0.6,0,1,0.1,1.4,0.3
			c0.5,0.3,0.6,0.7,0.8,1.2c0.2,0.6,0.5,1.2,1.2,1.9l0,0l0,0l0,0c0.8,0.5,1.6,0.5,2.3,0.5c0.6,0,0.9,0,1.4,0.2
			c0.5,0.2,0.7,0.7,0.9,1.1c0.3,0.6,0.7,1.1,1.6,1.6l0,0l0,0l0,0c0.9,0.5,1.6,0.3,2.3,0.2c0.6-0.1,0.9-0.1,1.5,0
			c0.5,0.2,0.7,0.6,1,0.9c0.3,0.6,0.8,1.1,1.7,1.5l0,0l0,0l0,0c0.9,0.3,1.7,0,2.3-0.1c0.6-0.1,0.9-0.3,1.4-0.2
			c0.5,0.1,0.8,0.5,1.1,0.8c0.5,0.5,1,1,1.9,1.1l0,0l0,0l0,0c1,0.1,1.6-0.1,2.1-0.5c0.5-0.2,0.9-0.5,1.4-0.3c0.6,0,0.8,0.2,1.2,0.6
			c0.5,0.3,1.1,0.8,2,0.9l0,0l0,0l0,0c1,0,1.6-0.3,2.1-0.7c0.5-0.3,0.8-0.6,1.4-0.6c0.6,0,0.9,0.2,1.4,0.5c0.6,0.3,1.2,0.7,2.1,0.7
			l0,0l0,0l0,0c1-0.1,1.5-0.7,2-1c0.5-0.3,0.7-0.7,1.2-0.7c0.5-0.1,0.9,0.1,1.4,0.3c0.6,0.2,1.2,0.5,2.3,0.2l0,0l0,0l0,0
			c0.9-0.2,1.5-0.8,1.8-1.2c0.3-0.3,0.7-0.7,1.1-0.9c0.5-0.2,0.9-0.1,1.4,0c0.6,0.1,1.4,0.3,2.3,0l0,0l0,0l0,0
			c0.9-0.3,1.2-1,1.6-1.6c0.3-0.5,0.5-0.8,1-1c0.5-0.2,0.9-0.2,1.5-0.1c0.7,0.1,1.4,0.1,2.3-0.3l0,0l0,0l0,0
			c0.8-0.6,1.1-1.1,1.5-1.7c0.2-0.5,0.5-0.9,0.8-1.1c0.5-0.3,0.8-0.3,1.4-0.3c0.7,0,1.4-0.1,2.1-0.7l0,0l0,0l0,0
			c0.8-0.6,1-1.2,1.1-1.9c0.1-0.6,0.2-0.9,0.7-1.2c0.3-0.3,0.8-0.5,1.4-0.5c0.7-0.1,1.4-0.2,2-0.9l0,0l0,0l0,0
			c0.7-0.7,0.8-1.5,0.9-2c0.1-0.6,0.1-0.9,0.5-1.4c0.3-0.3,0.7-0.6,1.2-0.7c0.6-0.2,1.2-0.5,1.8-1.2l0,0l0,0
			c0.6-0.8,0.7-1.5,0.6-2.1c0-0.6,0-1,0.2-1.4c0.2-0.5,0.7-0.6,1.1-0.9c0.6-0.3,1.2-0.6,1.7-1.5l0,0l0,0l0,0
			c0.5-0.9,0.3-1.6,0.2-2.3c-0.1-0.6-0.1-0.9,0.1-1.4c0.2-0.5,0.6-0.7,1-1c0.5-0.3,1.1-0.8,1.5-1.7l0,0l0,0l0,0
			c0.3-0.9,0.1-1.6,0-2.3c-0.1-0.6-0.3-0.9-0.1-1.5c0.1-0.5,0.5-0.8,0.8-1.1c0.5-0.5,1-0.9,1.2-1.9l0,0l0,0l0,0
			c0.2-0.9-0.1-1.7-0.3-2.3c-0.2-0.5-0.3-0.9-0.3-1.4c0.1-0.6,0.3-0.8,0.7-1.2c0.5-0.5,0.8-1,0.9-2l0,0l0,0l0,0
			C100,52.5,99.7,51.8,99.3,51.4z M98.4,55c-0.3,0.5-0.8,0.9-0.9,1.7c-0.1,0.8,0.1,1.4,0.3,1.8c0.2,0.6,0.5,1,0.3,1.7
			c-0.2,0.7-0.6,1-1,1.5c-0.5,0.3-0.9,0.8-1.1,1.6c-0.2,0.8,0,1.4,0.1,1.9c0.1,0.6,0.2,1,0,1.7c-0.2,0.7-0.7,1-1.1,1.4
			s-0.9,0.7-1.4,1.4c-0.3,0.7-0.2,1.4-0.1,1.9c0.1,0.6,0.1,1.1-0.1,1.7c-0.3,0.7-0.8,0.9-1.4,1.1c-0.6,0.2-1.1,0.6-1.5,1.1
			c-0.3,0.6-0.3,1.2-0.3,1.8c0,0.6,0,1.1-0.5,1.7c-0.5,0.6-0.9,0.8-1.5,0.9c-0.6,0.2-1.1,0.5-1.6,1c-0.6,0.6-0.6,1.2-0.7,1.7
			c-0.1,0.6-0.2,1.1-0.7,1.6c-0.5,0.6-1,0.7-1.6,0.7c-0.6,0.1-1.2,0.2-1.8,0.7c-0.6,0.6-0.7,1.1-0.9,1.7c-0.1,0.6-0.3,1-0.9,1.5
			s-1.1,0.5-1.7,0.5c-0.6,0-1.2,0.1-1.8,0.6c-0.7,0.5-0.9,1-1.1,1.5s-0.5,1-1,1.4c-0.6,0.3-1.1,0.3-1.7,0.2
			c-0.6-0.1-1.2-0.1-1.9,0.2s-1,0.9-1.4,1.4s-0.6,1-1.2,1.2c-0.7,0.2-1.2,0.1-1.7,0c-0.6-0.1-1.1-0.3-1.9,0
			c-0.7,0.3-1.1,0.7-1.5,1.1s-0.7,0.8-1.4,1c-0.7,0.2-1.1,0-1.7-0.2c-0.6-0.1-1.1-0.5-1.9-0.3c-0.8,0.1-1.2,0.6-1.7,0.9
			c-0.5,0.3-0.8,0.8-1.5,0.9c-0.7,0-1.1-0.2-1.7-0.6c-0.5-0.3-1-0.6-1.8-0.6c-0.8,0-1.2,0.5-1.8,0.8c-0.5,0.3-0.9,0.6-1.6,0.6
			c-0.7,0-1.1-0.3-1.6-0.7s-0.9-0.7-1.7-0.8c-0.8-0.1-1.4,0.1-1.8,0.3c-0.5,0.2-1,0.5-1.7,0.3c-0.7-0.1-1.1-0.5-1.5-0.9
			c-0.5-0.5-0.8-0.9-1.6-1.1s-1.4,0-1.9,0.2c-0.6,0.2-1,0.3-1.7,0.1c-0.7-0.2-1-0.7-1.4-1.1s-0.7-1-1.5-1.2
			c-0.7-0.2-1.4-0.2-1.9-0.1c-0.6,0.1-1.1,0.1-1.7-0.1c-0.7-0.3-0.9-0.8-1.1-1.2c-0.3-0.5-0.6-1.1-1.2-1.5c-0.7-0.5-1.2-0.3-1.8-0.3
			c-0.6,0-1.1,0-1.7-0.3c-0.6-0.5-0.8-0.9-0.9-1.5c-0.2-0.6-0.5-1.1-1-1.6c-0.6-0.5-1.2-0.5-1.8-0.6c-0.6-0.1-1-0.1-1.6-0.7
			c-0.6-0.5-0.7-1-0.8-1.6c-0.1-0.6-0.3-1.1-0.8-1.7c-0.6-0.6-1.1-0.7-1.7-0.9c-0.6-0.1-1-0.2-1.6-0.8c-0.5-0.6-0.5-1.1-0.6-1.7
			c0-0.6-0.1-1.2-0.6-1.8c-0.5-0.6-1.1-0.8-1.6-1c-0.5-0.2-1-0.5-1.4-1C8,75.3,8,74.7,8,74.2c0-0.6,0-1.1-0.3-1.8
			c-0.3-0.7-0.9-1-1.4-1.2c-0.5-0.3-0.9-0.6-1.2-1.2c-0.3-0.7-0.2-1.1-0.1-1.7c0.1-0.6,0.2-1.2,0-1.9c-0.2-0.7-0.8-1.1-1.2-1.5
			c-0.5-0.3-0.9-0.7-1-1.4c-0.1-0.7,0-1.2,0.2-1.7c0.2-0.6,0.5-1.1,0.2-1.9c-0.1-0.6-0.5-1.1-0.9-1.5c-0.3-0.5-0.7-0.8-0.8-1.5
			c-0.1-0.7,0.1-1.1,0.3-1.7c0.2-0.5,0.6-1,0.6-1.8c0-0.8-0.5-1.2-0.8-1.7c-0.3-0.5-0.7-0.9-0.7-1.6c0-0.7,0.3-1.1,0.7-1.6
			c0.3-0.5,0.7-1,0.8-1.7C2.4,46,2,45.5,1.8,45c-0.2-0.5-0.5-1-0.3-1.7c0.1-0.7,0.5-1.1,0.8-1.5C2.6,41.4,3,41,3.2,40.3
			c0.2-0.8,0-1.4-0.2-1.9s-0.3-1-0.2-1.7c0.2-0.7,0.6-1,1-1.4c0.5-0.3,1-0.7,1.2-1.5c0.2-0.7,0.1-1.4,0-1.9
			c-0.1-0.6-0.2-1.1,0.1-1.7c0.3-0.7,0.8-0.9,1.2-1.2c0.5-0.3,1-0.6,1.4-1.2C8,27.1,8,26.5,8,26c0-0.6,0-1.1,0.3-1.7
			c0.3-0.6,0.9-0.8,1.4-1c0.6-0.2,1.1-0.5,1.6-1c0.5-0.6,0.5-1.2,0.6-1.8c0-0.6,0-1.1,0.6-1.7c0.5-0.6,1-0.7,1.6-0.8
			c0.6-0.1,1.1-0.3,1.7-0.9c0.5-0.6,0.7-1.1,0.8-1.7c0.1-0.6,0.2-1,0.8-1.6c0.6-0.5,1-0.6,1.6-0.7c0.6-0.1,1.2-0.1,1.8-0.6
			c0.6-0.5,0.8-1,1-1.6c0.1-0.8,0.3-1.2,0.9-1.7c0.6-0.3,1.1-0.3,1.7-0.3c0.6,0,1.2,0,1.8-0.3c0.7-0.3,0.9-1,1.2-1.5
			c0.2-0.5,0.6-0.9,1.1-1.2c0.7-0.3,1.1-0.2,1.7-0.1c0.6,0.1,1.1,0.1,1.9-0.1c0.7-0.2,1.1-0.8,1.5-1.2s0.7-0.9,1.4-1.1
			c0.7-0.2,1.2,0,1.7,0.1c0.6,0.2,1.1,0.3,1.9,0.2c0.8-0.2,1.1-0.7,1.6-1.1c0.3-0.5,0.8-0.8,1.5-0.9s1.2,0.1,1.7,0.3
			c0.6,0.2,1.1,0.6,1.8,0.3c0.8,0,1.2-0.3,1.7-0.7s0.9-0.7,1.6-0.7c0.7,0,1.1,0.2,1.6,0.6s1,0.7,1.8,0.8c0.8,0,1.4-0.3,1.8-0.6
			c0.5-0.2,1-0.6,1.7-0.6c0.7,0.1,1.1,0.5,1.5,0.8c0.5,0.3,0.9,0.8,1.7,0.9c0.8,0.1,1.4-0.2,1.9-0.3c0.6-0.2,1-0.3,1.7-0.2
			c0.7,0.2,1,0.6,1.4,1s0.8,0.8,1.5,1.1c0.7,0.2,1.4,0.1,1.9,0c0.6-0.1,1-0.2,1.7,0s0.9,0.7,1.2,1.2C70,6.1,70.3,6.7,71,7
			c0.7,0.3,1.4,0.2,1.9,0.2c0.6-0.1,1.1-0.1,1.7,0.3c0.6,0.3,0.8,0.9,1,1.4c0.2,0.6,0.5,1.1,1.1,1.5c0.6,0.5,1.2,0.5,1.8,0.6
			c0.6,0,1.1,0.1,1.7,0.5c0.6,0.5,0.8,0.9,0.9,1.5c0.1,0.6,0.3,1.2,0.9,1.7c0.6,0.6,1.2,0.6,1.8,0.7c0.6,0.1,1.1,0.2,1.6,0.7
			c0.5,0.6,0.6,1,0.7,1.6c0.1,0.6,0.2,1.2,0.7,1.8c0.6,0.6,1,0.8,1.6,1c0.6,0.2,1,0.3,1.5,0.9c0.5,0.6,0.5,1.1,0.5,1.7
			c0,0.6,0,1.2,0.3,1.9c0.3,0.7,1,0.9,1.5,1.1s1,0.5,1.4,1.1c0.3,0.7,0.2,1.1,0.1,1.7c-0.1,0.6-0.1,1.2,0.1,1.9
			c0.3,0.7,0.9,1,1.4,1.4c0.5,0.3,0.9,0.7,1.1,1.2c0.2,0.7,0.1,1.1,0,1.7c-0.1,0.6-0.3,1.1-0.1,1.9c0.2,0.8,0.7,1.1,1.1,1.6
			c0.5,0.3,0.8,0.8,1,1.5c0.1,0.7-0.1,1.2-0.3,1.7c-0.2,0.6-0.5,1.1-0.3,1.8c0.1,0.8,0.6,1.2,0.9,1.7c0.3,0.5,0.7,0.9,0.7,1.6
			c0,0.7-0.2,1.1-0.6,1.7c-0.3,0.5-0.6,1-0.6,1.8c0,0.8,0.3,1.4,0.6,1.8c0.3,0.5,0.6,0.9,0.6,1.7C99,54.1,98.8,54.5,98.4,55z"/>
	</g>
</g>
</svg>
