<?xml version="1.0" encoding="utf-8"?>
<!-- Generator: Adobe Illustrator 17.1.0, SVG Export Plug-In . SVG Version: 6.00 Build 0)  -->
<!DOCTYPE svg PUBLIC "-//W3C//DTD SVG 1.1//EN" "http://www.w3.org/Graphics/SVG/1.1/DTD/svg11.dtd">
<svg version="1.1" id="badges_1_" xmlns="http://www.w3.org/2000/svg" xmlns:xlink="http://www.w3.org/1999/xlink" x="0px" y="0px"
	 viewBox="0 0 100 100" enable-background="new 0 0 100 100" xml:space="preserve">
<g id="badges">
	<g id="_x35_">
		<g>
			<path fill="#E6E7E8" d="M16.2,51.8c0-0.6-0.1-1.3-0.1-2.1c0-18.7,15.2-33.9,33.9-33.9s34,15.2,34,33.9c0,0.6,0,1.3-0.1,1.9
				c-0.2-0.1-0.4-0.2-0.6-0.2c0-0.6,0.1-1.1,0.1-1.7c0-18.4-15-33.4-33.4-33.4c-18.4,0.1-33.4,15-33.4,33.4c0,0.6,0,1.2,0.1,1.7
				C16.6,51.7,16.3,51.7,16.2,51.8z M50.4,26.3C38,26.3,27.9,35.9,26.9,48c0.2-0.1,0.6-0.2,0.8-0.2c1-11.6,10.8-20.7,22.6-20.7
				c11.9,0,21.6,9.2,22.6,20.8c0.2,0.1,0.6,0.2,0.8,0.2C73,36,62.8,26.3,50.4,26.3z M82.6,51.1c0-0.5,0-0.9,0-1.3
				c0-18-14.6-32.6-32.6-32.6c-17.9,0.1-32.6,14.7-32.6,32.6c0,0.5,0,1,0,1.4c0.2-0.1,0.4-0.2,0.6-0.2c0-0.4,0-0.8,0-1.2
				c0-17.6,14.3-31.9,31.9-31.9s31.9,14.3,31.9,31.9c0,0.4,0,0.7,0,1.1C82.2,51,82.3,51,82.6,51.1z M13.8,58.6
				c-0.4-1.4-0.9-2.9-1.3-4.2c24.3-11.6,51-11.6,75.4,0c-0.4,1.4-0.9,2.9-1.3,4.4c-0.6,2.2-1.3,4.4-2,6.6c-1.3-0.6-2.5-1.1-3.7-1.7
				c-20.1-8.4-41.7-8.3-61.8,0.2c-1.1,0.5-2.3,1-3.4,1.5C15.1,63,14.4,60.8,13.8,58.6z M80.3,56.9l1,1L81,59.3l1.3-0.7l1.3,0.7
				l-0.3-1.4l1-1l-1.4-0.2l-0.6-1.3l-0.6,1.3L80.3,56.9z M16.3,56.9l1,1L17,59.3l1.3-0.7l1.3,0.7l-0.3-1.4l1-1l-1.4-0.2l-0.6-1.3
				l-0.6,1.3L16.3,56.9z M99.1,65c-5.1-1.9-7.9-2.9-12.1-4.5l-1.8,6.3l-0.9-0.4c-1.1-0.6-2.3-1-3.6-1.6v-0.1c-0.1,0-0.2,0.1-0.2,0.1
				c0.1-0.2,0.2-0.2,0.2-0.4h-0.1c-0.2-0.1-0.3-0.2-0.5-0.2c-0.1,0.2-0.2,0.5-0.3,0.7c0,0,0,0-0.1,0c-0.1,0.2-0.2,0.5-0.3,0.8
				C73.8,76.1,62.7,83.2,50,83.2s-23.7-7.1-29.4-17.6c-0.1-0.2-0.2-0.5-0.3-0.7c0,0,0,0-0.1,0c-0.1-0.2-0.2-0.5-0.3-0.7
				c-0.2,0.1-0.3,0.2-0.5,0.2h-0.1c0.1,0.1,0.2,0.2,0.2,0.3c-0.1,0-0.2-0.1-0.2-0.1c0,0.1,0.1,0.1,0.1,0.2c-1.2,0.5-2.3,1-3.2,1.4
				l-0.9,0.4l-1.9-6.4C9,61.9,6,62.9,0.8,64.9c1.9,1.4,2.9,2.2,4.4,3.4c-0.6,2.3-0.8,3.3-1.9,7.4C8,73,15.6,69.7,21.6,68.4
				c6.2,9.3,16.6,15.4,28.4,15.4s22.3-6.1,28.4-15.3c5.9,1.3,13.5,4.6,18.2,7.3c-1.1-4-1.3-5.1-1.9-7.4C96.2,67.2,97.3,66.4,99.1,65
				z M21.2,63.7c-0.2,0.1-0.4,0.2-0.6,0.2C25.9,74.8,37.1,82.4,50,82.4s24.2-7.6,29.4-18.5c-0.2-0.1-0.4-0.2-0.6-0.2
				C73.7,74.3,62.7,81.8,50,81.8C37.4,81.8,26.5,74.4,21.2,63.7z M71.1,60.9c-0.2-0.1-0.6-0.2-0.8-0.2c-3.9,7-11.3,11.7-19.9,11.7
				s-16.1-4.8-19.9-11.8c-0.2,0.1-0.6,0.2-0.8,0.2c4,7.4,11.7,12.4,20.7,12.4C59.3,73.3,67,68.3,71.1,60.9z"/>
			<rect x="44.7" y="68.2" fill="#E6E7E8" width="10.7" height="0.3"/>
			<rect x="46.7" y="69.3" fill="#E6E7E8" width="6.7" height="0.3"/>
			<g id="icon_2_">
				<path fill="#E6E7E8" d="M46.2,34.9l0.5,0.1l-0.1,2.1c-1.7,0.7-1.2-0.6-1.2-0.6c-1.4,0.3-1-1.1-1-1.1c-2.1-0.4-0.4-2.2-0.4-2.2
					c-0.1-2.4,1.7-1.1,1.7-1.1c-0.2-1,1.3-1.2,1.3-1.2c-0.1-1.7,1.7-1,1.7-1c0.6-1.7,2,0,2,0c2.1-1.3,2.1,1.6,2.1,1.6
					c2.7-0.5,1.3,1.7,1.3,1.7l0.5,0.2h-8.5V34.9z M51.1,30.5c0.2,0.1,0.4,0.1,0.4,0s-0.1-0.2-0.2-0.3c-0.2-0.1-0.4-0.1-0.4,0
					C50.9,30.3,51,30.4,51.1,30.5z M50,30.3c0.3,0.1,0.6,0.1,0.6-0.1c0.1-0.2-0.2-0.3-0.4-0.5c-0.3-0.1-0.6-0.1-0.6,0.1
					C49.5,30,49.7,30.2,50,30.3z"/>
				<g>
					<rect x="47.1" y="33.7" fill="#E6E7E8" width="6.9" height="0.6"/>
					<polygon fill="#E6E7E8" points="54,43.4 47.1,43.4 47.1,44.1 54,44.1 					"/>
					<rect x="47.3" y="34.9" fill="#E6E7E8" width="1.5" height="7.8"/>
					<rect x="49.1" y="34.9" fill="#E6E7E8" width="2.1" height="7.8"/>
					<rect x="51.7" y="34.9" fill="#E6E7E8" width="1.7" height="7.8"/>
					<path fill="#E6E7E8" d="M54,37.2V38c0.2-0.1,0.9-0.1,1.2,0.1c0.1,0,0.2,0.2,0.2,0.6c0,0-0.1,1.9-0.1,2.1
						C55.2,40.9,54.7,41,54,41v0.9c1.6,0.2,2.1-0.6,2.1-0.7l0.1-0.1l0.1-2.5l0,0c0-0.7-0.3-1-0.6-1.3C55.1,36.8,54,37.1,54,37.2z"/>
				</g>
			</g>
		</g>
		<g id="text">
			<g>
				<path fill="#E6E7E8" d="M26,63.9l-0.4-0.2l-1.4,0.7L23.9,64l1.4-0.7l0.1-0.4l0.4,0.2l1.4-0.8l0.2,0.5l-1.4,0.8L26,63.9z"/>
				<path fill="#E6E7E8" d="M27,67.9l-1-0.2l-0.7-1.1l0.2-1l0.8-0.6l0.1-0.4l0.4,0.1l0.8-0.6l1,0.2l0.7,1.1l-0.2,1L28.4,67l-0.3-0.5
					l0.5-0.3l0.1-0.5L28.1,65l-0.5-0.2L26,65.9l-0.1,0.5l0.5,0.7l0.5,0.2l0.4-0.2l0.3,0.5L27,67.9z"/>
				<path fill="#E6E7E8" d="M28.8,71.1l-1.5-1.7l1.2-1v-0.4l0.4,0.1l1.2-1l1.5,1.7l-0.3,0.2l-1.2-1.3l-0.8,0.7l0.9,1l-0.4,0.3
					l-0.9-1l-0.8,0.7l1.1,1.3L28.8,71.1z"/>
				<path fill="#E6E7E8" d="M34.4,74.9l-1,0.1l-1.1-0.8l-0.2-1l0.6-0.8v-0.3H33l0.6-0.8l1-0.1l1.1,0.8l0.2,1l-0.5,0.6l-0.5-0.3
					l0.3-0.5l-0.2-0.5l-0.7-0.5l-0.6,0.1l-1.2,1.6l0.1,0.5l0.7,0.5h0.5l0.2-0.4l0.5,0.3L34.4,74.9z"/>
				<path fill="#E6E7E8" d="M38.7,75.8l-0.4,0.1l-0.5,0.9l-1,0.2l-1.2-0.6l-0.3-0.9l0.5-0.9l-0.2-0.4l0.4-0.1l0.5-0.9l1-0.2l1.2,0.6
					l0.3,0.9l-0.5,0.9L38.7,75.8z M37.6,76.3l1-1.7l-0.2-0.5l-0.8-0.4l-0.5,0.2l-1,1.7l0.2,0.5l0.8,0.4L37.6,76.3z"/>
				<path fill="#E6E7E8" d="M41.3,78.8L39.1,78l0.6-1.5l-0.2-0.4l0.4-0.2l0.6-1.4l0.6,0.2l-1.1,3l1.7,0.6L41.3,78.8z"/>
				<path fill="#E6E7E8" d="M45.4,79.1l-0.8,0.5l-1.9-0.4l0.3-1.6l-0.2-0.3l0.4-0.2l0.3-1.6l1.9,0.4l0.6,0.8L45.4,79.1z M44.9,78.8
					l0.4-2L45,76.4l-1.2-0.2l-0.6,2.6l1.2,0.2L44.9,78.8z"/>
				<path fill="#E6E7E8" d="M51.7,79.4L51,80h-1.3L49,79.4v-0.7h0.6v0.4l0.4,0.3h0.8l0.4-0.3v-0.4l-0.4-0.2h-1l-0.7-0.6v-0.9
					l0.7-0.6H51l0.7,0.6v0.6h-0.6v-0.4l-0.4-0.3H50l-0.4,0.3v0.4l0.4,0.3h1l0.7,0.6V79.4z"/>
				<path fill="#E6E7E8" d="M55.9,77.6l-0.2,0.3l0.2,1l-0.6,0.7l-1.3,0.2l-0.8-0.5l-0.2-1l-0.3-0.2l0.2-0.3l-0.2-1l0.6-0.7l1.3-0.2
					l0.8,0.5l0.2,1L55.9,77.6z M55.2,78.7l-0.3-2l-0.5-0.2l-0.9,0.2L53.2,77l0.3,2l0.5,0.2l0.9-0.2L55.2,78.7z"/>
				<path fill="#E6E7E8" d="M59.7,78.4l-2.2,0.6l-0.4-1.5l-0.4-0.2l0.2-0.4l-0.5-1.6l0.6-0.2l0.9,3.2l1.7-0.5L59.7,78.4z"/>
				<path fill="#E6E7E8" d="M63.2,76.3l-0.4,0.9L60.9,78l-0.6-1.4l-0.4-0.2l0.2-0.4l-0.6-1.5l1.8-0.8l0.9,0.3L63.2,76.3z M62.5,76.3
					l-0.8-1.8l-0.5-0.2l-1.1,0.5l1.1,2.5l1.1-0.5L62.5,76.3z"/>
				<path fill="#E6E7E8" d="M68.1,71.4l-0.1,0.4l1,1.3l-0.4,0.3l-1-1.3l-1.3,1l1,1.3L67,74.6l-1-1.3h-0.4l0.1-0.4l-1-1.3l0.5-0.3
					l1,1.3l1.3-1l-1-1.3l0.5-0.3l1,1.3H68.1z"/>
				<path fill="#E6E7E8" d="M71.9,70.2l-1.6,1.7l-1.1-1.1h-0.4v-0.4l-1.2-1.1l1.6-1.7l0.4,0.4l-1.2,1.3l0.8,0.7l1-1l0.4,0.4l-1,1
					l0.7,0.7l1.2-1.3L71.9,70.2z"/>
				<path fill="#E6E7E8" d="M74.4,67.1l-0.3,0.5l-1.7-0.3l-0.4,0.6l1.3,1l-0.3,0.5l-1.3-1l-0.4,0.1V68L70,67l1.1-1.4l1-0.1l0.6,0.5
					l0.2,1L74.4,67.1z M71.9,66.2L71.6,66h-0.5l-0.6,0.8l0.9,0.6l0.6-0.8L71.9,66.2z"/>
				<path fill="#E6E7E8" d="M76.2,64l-1.1,2l-1.4-0.8l-0.4,0.2L73.2,65l-1.4-0.8l1.1-2l0.5,0.2l-0.9,1.5l1,0.6l0.6-1.2l0.5,0.2
					l-0.6,1.2l1,0.5l0.9-1.5L76.2,64z"/>
			</g>
			<g>
				<path fill="#E6E7E8" d="M42.5,61.7C42.5,61.8,42.5,61.8,42.5,61.7v1.2c0,0.1,0,0.1,0.1,0.1h0.6c0,0,0,0,0.1,0c0,0,0,0,0,0.1v0.3
					c0,0.1,0,0.1-0.1,0.1h-0.6c-0.1,0-0.1,0-0.1,0.1v1.3c0,0.1,0,0.1,0.1,0.1h0.6c0,0,0.1,0,0.1-0.1s0-0.1,0.1-0.2
					c0.1,0,0.1-0.1,0.2-0.1h0.2v0.6c0,0,0,0.1-0.1,0.1h-0.1h-0.3h-1h-0.3v-0.2c0-0.1,0-0.2,0-0.2c0-0.1,0.1-0.1,0.1-0.1
					c0.1,0,0.1-0.1,0.1-0.1v-2.9v-0.1c0,0,0,0-0.1-0.1l-0.1-0.1c0,0,0-0.1,0-0.2v-0.2h1.7c0.1,0,0.1,0,0.1,0v0.1v0.6h-0.2
					c-0.1,0-0.2,0-0.2,0c-0.1,0-0.1-0.1-0.1-0.2v-0.1c0,0,0,0-0.1,0L42.5,61.7L42.5,61.7z"/>
				<path fill="#E6E7E8" d="M44.6,62.4c0,0.1,0,0.2,0.1,0.2c0.1,0.1,0.2,0.2,0.2,0.2c0.1,0.1,0.2,0.2,0.3,0.2s0.2,0.2,0.3,0.2
					c0.1,0.1,0.2,0.2,0.2,0.3c0.1,0.1,0.1,0.2,0.1,0.4v0.6c0,0.2,0,0.2-0.1,0.3c-0.1,0.1-0.2,0.2-0.2,0.2s-0.2,0.1-0.3,0.2
					c-0.1,0-0.2,0.1-0.4,0.1c-0.2,0-0.2,0-0.4-0.1c-0.1,0-0.2-0.1-0.3-0.2c-0.1-0.1-0.2-0.2-0.2-0.2c-0.1-0.1-0.1-0.2-0.1-0.3v-0.4
					h0.2c0.1,0,0.2,0,0.2,0.1s0.1,0.1,0.1,0.2v0.2c0,0.1,0,0.1,0,0.2l0.1,0.1c0.1,0,0.1,0.1,0.2,0.1c0.1,0,0.1,0,0.2,0s0.1,0,0.2,0
					s0.1,0,0.2-0.1c0.1,0,0.1-0.1,0.1-0.1s0.1-0.1,0.1-0.2v-0.6c0-0.1,0-0.2-0.1-0.3c-0.1-0.1-0.2-0.2-0.2-0.2
					c-0.1-0.1-0.2-0.2-0.3-0.2s-0.2-0.2-0.3-0.2c-0.1-0.1-0.2-0.2-0.2-0.2S44,62.6,44,62.4V62c0-0.2,0-0.2,0.1-0.4
					c0.1-0.1,0.1-0.2,0.2-0.2s0.2-0.1,0.3-0.2c0.1,0,0.2-0.1,0.4-0.1c0.2,0,0.2,0,0.4,0.1c0.1,0,0.2,0.1,0.3,0.2
					c0.1,0.1,0.2,0.2,0.2,0.2c0.1,0.1,0.1,0.2,0.1,0.3v0.4h-0.2c-0.1,0-0.2,0-0.2-0.1c-0.1-0.1-0.1-0.2-0.1-0.2v-0.2
					c0-0.1,0-0.1,0-0.1l-0.1-0.1c0,0-0.1,0-0.2-0.1c-0.1,0-0.1,0-0.2,0c0,0-0.1,0-0.2,0s-0.1,0-0.2,0.1l-0.1,0.1v0.1L44.6,62.4
					L44.6,62.4z"/>
				<path fill="#E6E7E8" d="M48.5,61.3c0,0,0.1,0.1,0.1,0.2v0.2V62h-0.3c-0.1,0-0.1,0-0.1-0.1c0,0-0.1-0.1-0.1-0.2s0-0.1-0.1-0.1
					h-0.2c0,0,0,0-0.1,0c0,0,0,0,0,0.1v2.9v0.1c0,0,0,0,0.1,0.1l0.1,0.1c0,0,0.1,0.1,0.1,0.2v0.2h-0.9v-0.2c0-0.1,0-0.1,0.1-0.2
					l0.1-0.1c0,0,0,0,0-0.1c0,0,0,0,0-0.1v-2.9v-0.1c0,0,0,0-0.1,0h-0.2c0,0,0,0-0.1,0c0,0,0,0,0,0.1c0,0.1,0,0.1-0.1,0.2
					c0,0-0.1,0.1-0.2,0.1h-0.2v-0.3v-0.2c0-0.1,0-0.2,0.1-0.2c0.1,0,0.1-0.1,0.2-0.1h1.7C48.4,61.3,48.5,61.3,48.5,61.3z"/>
				<path fill="#E6E7E8" d="M49,64.8v0.3c0,0,0,0.1-0.1,0.1s-0.2,0-0.2,0s-0.2,0-0.2,0s-0.1,0-0.1-0.1l0,0v-0.3c0,0,0-0.1,0.1-0.1
					s0.2,0,0.2,0S48.9,64.7,49,64.8C49,64.8,49,64.8,49,64.8z"/>
				<path fill="#E6E7E8" d="M51.9,64.9L51.9,64.9c0.1,0.1,0.2,0.2,0.2,0.2v0.2h-0.9v-0.2c0-0.1,0-0.1,0.1-0.2l0.1-0.1l0,0
					c0,0,0,0,0-0.1v-2.6c0,0,0-0.1-0.1-0.1h-0.2c0,0,0,0-0.1,0c0,0-0.1,0-0.1-0.1L50.9,62c0,0,0-0.1,0-0.2v-0.1c0.1,0,0.2,0,0.3-0.1
					c0.1-0.1,0.2-0.1,0.2-0.2c0,0,0-0.1,0.1-0.1c0,0,0.1-0.1,0.2-0.1H52v3.5C51.8,64.8,51.9,64.8,51.9,64.9
					C51.9,64.8,51.9,64.8,51.9,64.9z"/>
				<path fill="#E6E7E8" d="M53.4,61.3c0.2,0,0.2,0,0.4,0.1c0.1,0,0.2,0.1,0.3,0.2c0.1,0.1,0.2,0.2,0.2,0.2c0.1,0.1,0.1,0.2,0.1,0.3
					v2.5c0,0.2-0.1,0.5-0.2,0.6c-0.2,0.2-0.4,0.2-0.6,0.2s-0.5-0.1-0.6-0.2c-0.2-0.2-0.2-0.3-0.2-0.6l0,0l0,0l0,0v-0.4l0,0h0.2
					c0.1,0,0.1,0,0.2,0l0.1,0.1c0,0,0,0.1,0.1,0.1v0.1v0.1c0,0.2,0.1,0.2,0.1,0.2c0.1,0.1,0.2,0.1,0.2,0.1c0.1,0,0.2,0,0.2-0.1
					c0.1-0.1,0.1-0.2,0.1-0.3v-0.9l0,0l0,0c-0.1,0.1-0.1,0.1-0.2,0.2c-0.1,0-0.2,0.1-0.2,0.1c-0.2,0-0.5-0.1-0.6-0.2
					c-0.2-0.2-0.2-0.4-0.2-0.6v-0.8c0-0.2,0-0.2,0.1-0.3c0.1-0.1,0.1-0.2,0.2-0.2s0.2-0.1,0.3-0.2C53.1,61.3,53.2,61.3,53.4,61.3z
					 M53.7,62c0-0.2,0-0.2-0.1-0.3c-0.1-0.1-0.2-0.1-0.2-0.1c-0.1,0-0.2,0-0.2,0.1c-0.1,0.1-0.1,0.2-0.1,0.3v0.8
					c0,0.2,0,0.2,0.1,0.3c0.1,0.1,0.2,0.1,0.2,0.1c0.1,0,0.2,0,0.2-0.1c0.1-0.1,0.1-0.2,0.1-0.3V62z"/>
				<path fill="#E6E7E8" d="M56.5,64.6v0.6v0.1l-0.1,0.1h-0.3l0,0H55c-0.1,0-0.1,0-0.2,0l-0.1-0.1l-0.1-0.1v-0.1v-0.7
					c0-0.1,0-0.2,0.1-0.3c0-0.1,0.1-0.2,0.2-0.2c0.1-0.1,0.2-0.2,0.2-0.2c0.1-0.1,0.2-0.2,0.2-0.2c0.1-0.1,0.2-0.2,0.2-0.2
					c0.1-0.1,0.2-0.1,0.2-0.2c0.1-0.1,0.1-0.1,0.2-0.2c0-0.1,0.1-0.2,0.1-0.2v-0.6c0-0.1,0-0.2,0-0.2c0-0.1-0.1-0.1-0.1-0.1
					s-0.1-0.1-0.2-0.1s-0.1,0-0.2,0c-0.1,0-0.1,0-0.2,0s-0.1,0-0.2,0.1L55.3,62c0,0.1,0,0.1,0,0.2v0.1v0.3h-0.2
					c-0.2,0-0.2,0-0.2-0.1s-0.1-0.2-0.1-0.2v-0.1v-0.1c0-0.2,0-0.2,0.1-0.3s0.1-0.2,0.2-0.2c0.1-0.1,0.2-0.1,0.3-0.2
					c0.1,0,0.2-0.1,0.3-0.1c0.2,0,0.2,0,0.3,0.1c0.1,0,0.2,0.1,0.3,0.2c0.1,0.1,0.2,0.2,0.2,0.2c0.1,0.1,0.1,0.2,0.1,0.3v0.6
					c0,0.1,0,0.2-0.1,0.3c-0.1,0.1-0.1,0.2-0.2,0.2c-0.1,0.1-0.2,0.2-0.2,0.2c-0.1,0.1-0.2,0.2-0.2,0.2c-0.1,0.1-0.2,0.2-0.2,0.2
					c-0.1,0.1-0.2,0.1-0.2,0.2c-0.1,0.1-0.1,0.1-0.1,0.2s0,0.1,0,0.2v0.3c0,0.1,0,0.1,0,0.1h0.1H56c0,0,0.1,0,0.1-0.1l0.1-0.1
					c0.1-0.1,0.1-0.1,0.2-0.1C56.3,64.6,56.5,64.6,56.5,64.6z"/>
				<path fill="#E6E7E8" d="M57.8,65.3c-0.2,0-0.2,0-0.4-0.1c-0.1,0-0.2-0.1-0.3-0.2C57.1,65,57,64.9,57,64.8
					c-0.1-0.1-0.1-0.2-0.1-0.3V62c0-0.2,0-0.2,0.1-0.3s0.1-0.2,0.2-0.2c0.1-0.1,0.2-0.1,0.3-0.2c0.1,0,0.2-0.1,0.4-0.1
					c0.2,0,0.2,0,0.4,0.1c0.1,0,0.2,0.1,0.3,0.2c0.1,0.1,0.2,0.2,0.2,0.2c0.1,0.1,0.1,0.2,0.1,0.3v2.5c0,0.2,0,0.2-0.1,0.3
					c-0.1,0.1-0.1,0.2-0.2,0.2s-0.2,0.1-0.3,0.2C58.1,65.3,57.9,65.3,57.8,65.3z M58.2,62c0-0.1,0-0.2,0-0.2c0-0.1-0.1-0.1-0.1-0.1
					s-0.1-0.1-0.2-0.1s-0.1,0-0.2,0s-0.1,0-0.2,0c-0.1,0-0.1,0-0.2,0.1l-0.1,0.1c0,0.1,0,0.1,0,0.2v2.5c0,0.1,0,0.2,0,0.2
					c0,0.1,0.1,0.1,0.1,0.1s0.1,0.1,0.2,0.1c0.1,0,0.1,0,0.2,0s0.1,0,0.2,0s0.1,0,0.2-0.1l0.1-0.1c0-0.1,0-0.1,0-0.2V62z"/>
			</g>
			<g>
				<g>
					<path fill="#231F20" d="M27.7,58.6c0.1,0.2,0.1,0.2,0.2,0.4c0,0.2-0.1,0.2-0.2,0.3c-0.9,0.2-1.3,0.4-2.2,0.6
						c-0.3,0.1-0.6,0-0.7-0.2c-1-3.2-1.6-4.9-2.6-8.2c0-0.1,0.1-0.2,0.2-0.3c0.2-0.1,0.4-0.2,0.6-0.2c0.2-0.1,0.4,0,0.4,0.1
						c1,3.1,1.4,4.7,2.4,7.8c0.6-0.2,1-0.3,1.7-0.5C27.4,58.5,27.6,58.6,27.7,58.6z M27.2,59C27.2,59,27.1,59,27.2,59
						c-0.8,0.2-1.2,0.3-2,0.6c-1-3.2-1.5-4.8-2.5-7.9h-0.1c0,0,0,0-0.1,0c-0.1,0-0.1,0.1-0.1,0.1c1,3.2,1.5,4.8,2.5,8
						c0,0.1,0.1,0.1,0.2,0.1c0.8-0.2,1.2-0.4,2-0.6C27.2,59.1,27.2,59.1,27.2,59L27.2,59z"/>
					<path fill="#231F20" d="M32.1,50.4c0.6,2.9,0.9,4.4,1.5,7.3c0,0.2-0.1,0.2-0.2,0.3c-0.2,0.1-0.4,0.1-0.6,0.2
						c-0.2,0-0.3,0-0.3-0.2c-0.3-1.6-0.5-2.3-0.9-3.9c-0.9,0.2-1.3,0.3-2.1,0.5c0.4,1.5,0.6,2.3,1,3.9c0,0.2-0.1,0.2-0.2,0.3
						c-0.2,0.1-0.4,0.1-0.6,0.2c-0.2,0-0.3,0-0.4-0.2c-0.7-2.9-1.1-4.3-1.9-7.1c-0.2-0.9,0.7-1.8,2.1-2.1
						C30.7,49,31.9,49.5,32.1,50.4z M31.5,50.6c-0.2-0.6-1.1-1-2.1-0.8c-1,0.2-1.7,1-1.6,1.7c0.7,2.8,1.1,4.2,1.8,7
						c0,0,0.1,0.1,0.1,0l0,0c0.1,0,0.1-0.1,0.1-0.1c-0.4-1.6-0.6-2.4-1-4c1.3-0.3,1.9-0.5,3.2-0.7c0.3,1.6,0.6,2.5,0.9,4
						c0,0,0.1,0.1,0.1,0l0,0l0.1-0.1C32.4,54.8,32.1,53.3,31.5,50.6z M31.3,50.6c0.2,1.1,0.4,1.7,0.6,2.9c-1.3,0.2-1.9,0.4-3.2,0.7
						c-0.3-1.1-0.4-1.7-0.7-2.9c-0.2-0.6,0.5-1.3,1.4-1.4C30.3,49.7,31.2,50,31.3,50.6z M30.7,50.7c-0.1-0.4-0.6-0.6-1.3-0.5
						c-0.6,0.2-1,0.6-1,1c0.2,1,0.4,1.5,0.6,2.5c0.9-0.2,1.3-0.3,2.1-0.5C31.1,52.2,31,51.7,30.7,50.7z"/>
					<path fill="#231F20" d="M37.4,50c0-0.2-0.1-0.3-0.1-0.5c-0.1-0.4-0.6-0.6-1.2-0.6c-0.6,0.1-1,0.5-1,0.9c0.4,2.4,0.6,3.6,1,5.9
						c0.1,0.4,0.6,0.6,1.1,0.6s1-0.5,0.9-0.9c-0.2-1-0.2-1.5-0.4-2.5c-0.3,0-0.4,0.1-0.7,0.1c-0.2,0-0.3-0.1-0.4-0.2
						c0-0.2-0.1-0.2-0.1-0.5c0-0.2,0.1-0.2,0.3-0.2c0.7-0.1,1-0.2,1.7-0.2c0.2,0,0.3,0.1,0.4,0.2c0.2,1.3,0.2,2,0.4,3.2
						c0.1,0.9-0.8,1.7-2.1,1.9c-1.2,0.2-2.4-0.3-2.5-1.2c-0.4-2.4-0.6-3.6-1.1-5.9c-0.2-0.9,0.8-1.7,2.2-2c1.3-0.2,2.5,0.4,2.7,1.3
						c0,0.2,0,0.3,0.1,0.5c0,0.2-0.2,0.2-0.3,0.2c-0.2,0-0.4,0.1-0.6,0.1C37.6,50.2,37.5,50.1,37.4,50z M38,49.4c0,0.1,0,0.2,0,0.2
						l0.1,0.1c0,0,0,0,0.1,0c0.1,0,0.1-0.1,0.1-0.1c0-0.1,0-0.2,0-0.2c-0.1-0.7-1-1.1-2.1-1c-1,0.2-1.8,0.9-1.7,1.5
						c0.4,2.4,0.6,3.6,1,5.9c0.1,0.6,1,1.1,1.9,1c1-0.2,1.7-0.8,1.6-1.4c-0.2-1.2-0.2-1.8-0.4-3c0-0.1-0.1-0.1-0.1-0.1
						c-0.4,0.1-0.6,0.1-1.1,0.2c-0.1,0-0.1,0-0.1,0.1l0,0l0.1,0.1c0.4-0.1,0.6-0.1,1-0.2c0.2,1.2,0.2,1.7,0.4,2.9
						c0.1,0.6-0.6,1.2-1.3,1.3c-0.9,0.2-1.6-0.2-1.7-0.8c-0.4-2.4-0.6-3.6-1-5.9c-0.1-0.6,0.6-1.2,1.5-1.3
						C37,48.4,37.9,48.8,38,49.4z"/>
					<path fill="#231F20" d="M41.8,48.3c0.1,1.3,0.2,2,0.3,3.2c0.7-0.1,1.1-0.1,1.8-0.2c0.2,0,0.3,0.1,0.3,0.2c0,0.2,0,0.2,0,0.5
						c0,0.1-0.2,0.2-0.3,0.2c-0.7,0.1-1.1,0.1-1.8,0.2c0.1,1.3,0.2,2,0.3,3.2c0.7-0.1,1-0.1,1.7-0.2c0.2,0,0.3,0.1,0.3,0.2
						s0,0.2,0,0.5c0,0.2-0.2,0.2-0.3,0.2c-1,0.1-1.4,0.1-2.3,0.2c-0.3,0-0.6-0.2-0.6-0.4c-0.3-3.3-0.6-5-0.9-8.3
						c0-0.2,0.2-0.5,0.6-0.5c1-0.1,1.6-0.2,2.6-0.2c0.2,0,0.3,0.1,0.4,0.2c0,0.2,0,0.2,0,0.5c0,0.2-0.2,0.2-0.3,0.2
						C42.9,48.2,42.6,48.2,41.8,48.3z M41.6,52c-0.2-1.6-0.2-2.4-0.4-4c0.9-0.1,1.3-0.1,2.1-0.2c0.1,0,0.1,0,0.1-0.1c0,0,0,0,0-0.1
						l-0.1-0.1c-0.9,0.1-1.3,0.1-2.2,0.2c-0.1,0-0.1,0-0.1,0.1c0.3,3.3,0.5,5,0.8,8.3c0,0.1,0.1,0.1,0.1,0.1
						c0.8-0.1,1.2-0.1,2.1-0.2c0,0,0.1,0,0.1-0.1c0,0,0,0,0-0.1L44,55.9c-0.8,0.1-1.2,0.1-1.9,0.2C41.9,54.4,41.8,53.6,41.6,52
						c0.9-0.1,1.3-0.1,2.1-0.2c0.1,0,0.1,0,0.1-0.1c0,0,0,0,0-0.1l-0.1-0.1C42.8,51.8,42.4,51.9,41.6,52z"/>
					<path fill="#231F20" d="M50.6,50.5c0,0.5-0.7,1.1-0.7,1.2s0.7,0.7,0.7,1.2c0,1.3,0,2,0,3.2c0,0.2-0.2,0.2-0.3,0.2
						c-0.2,0-0.4,0-0.6,0c-0.2,0-0.3-0.1-0.3-0.2c0-1.3,0-2,0-3.2c0-0.4-0.5-0.7-1-0.7c-0.4,0-0.6,0-1,0c0.1,1.6,0.1,2.4,0.2,4
						c0,0.2-0.2,0.2-0.3,0.2c-0.2,0-0.4,0-0.6,0c-0.2,0-0.3-0.1-0.3-0.2C46,52.7,46,51,45.8,47.5c0-0.2,0.3-0.5,0.7-0.5
						c0.7,0,1.1,0,1.8-0.1c1.4,0,2.5,0.7,2.5,1.6C50.6,49.4,50.6,49.8,50.6,50.5z M50.1,48.7c0-0.7-0.9-1.3-1.9-1.2
						c-0.7,0-1.1,0-1.8,0.1c-0.1,0-0.2,0-0.2,0.1c0.2,3.3,0.2,5,0.3,8.4l0.1,0.1c0,0,0,0,0.1,0c0,0,0.1,0,0.1-0.1
						c-0.1-1.7-0.1-2.5-0.2-4.1c0.6,0,1,0,1.6-0.1c0.9,0,1.6,0.5,1.6,1c0,1.2,0,1.8,0,3c0,0,0,0.1,0.1,0.1l0,0c0.1,0,0.1,0,0.1-0.1
						c0-1.2,0-1.8,0-3c0-0.6-1.2-1.2-1.2-1.2s1.2-0.6,1.2-1.2C50.1,49.8,50.1,49.4,50.1,48.7z M49.8,48.7c0,0.7,0,1.1,0,1.8
						c0,0.6-0.7,1.1-1.6,1.1c-0.6,0-1,0-1.6,0.1c-0.1-1.6-0.1-2.4-0.2-4c0.7,0,1,0,1.7-0.1C49,47.5,49.8,48,49.8,48.7z M49.3,48.7
						c0-0.4-0.5-0.7-1.1-0.7c-0.5,0-0.6,0-1.1,0c0.1,1.3,0.1,2,0.1,3.2c0.4,0,0.6,0,1,0c0.6,0,1-0.3,1-0.7
						C49.3,49.8,49.3,49.4,49.3,48.7z"/>
					<path fill="#231F20" d="M60.1,51.1c-0.1,0.5-0.9,1-0.9,1.1c0,0.1,0.6,0.8,0.6,1.3c-0.1,0.7-0.2,1.1-0.2,1.8
						c-0.1,0.9-1.2,1.4-2.5,1.3c-0.6-0.1-1-0.1-1.7-0.2c-0.3,0-0.6-0.2-0.6-0.5c0.2-3.3,0.3-5,0.6-8.3c0-0.2,0.3-0.4,0.7-0.4
						c0.7,0.1,1.1,0.1,1.8,0.2c1.3,0.2,2.4,1,2.3,1.9C60.3,50,60.2,50.4,60.1,51.1z M59.8,49.2c0.1-0.7-0.7-1.3-1.8-1.4
						c-0.7-0.1-1.1-0.1-1.8-0.2c-0.1,0-0.1,0-0.1,0.1c-0.2,3.3-0.3,5-0.6,8.3c0,0.1,0,0.1,0.1,0.1c0.6,0.1,1,0.1,1.7,0.2
						c1,0.1,1.8-0.4,1.9-1c0.1-0.7,0.2-1.1,0.2-1.8c0.1-0.6-1.1-1.3-1.1-1.3s1.3-0.5,1.3-1C59.7,50.3,59.7,49.9,59.8,49.2z
						 M59.6,49.2c-0.1,0.7-0.2,1.1-0.2,1.8c-0.1,0.6-0.9,1-1.7,1c-0.6-0.1-1-0.1-1.6-0.2c0.1-1.6,0.2-2.4,0.3-4
						c0.6,0.1,1,0.1,1.7,0.2C59,48,59.7,48.6,59.6,49.2z M57.7,52.1c0.9,0.1,1.6,0.6,1.5,1.3C59.1,54,59,54.4,59,55.2
						c-0.1,0.6-0.8,1-1.7,1c-0.6-0.1-1-0.1-1.5-0.2c0.1-1.6,0.2-2.4,0.3-4C56.7,52,57.1,52.1,57.7,52.1z M59,49.1
						c0.1-0.4-0.4-0.8-1-0.8c-0.5-0.1-0.6-0.1-1.1-0.1c-0.1,1.3-0.2,2-0.2,3.2c0.4,0,0.6,0.1,1.1,0.1c0.6,0.1,1.1-0.2,1.1-0.6
						C59,50.2,59,49.8,59,49.1z M57.6,52.5c-0.4,0-0.6-0.1-1-0.1c-0.1,1.3-0.2,2-0.2,3.2c0.4,0,0.6,0.1,1,0.1c0.6,0.1,1-0.2,1.1-0.6
						c0.1-0.7,0.1-1.1,0.2-1.8C58.6,52.9,58.2,52.5,57.6,52.5z"/>
					<path fill="#231F20" d="M63.6,49c-0.2,1.3-0.3,2-0.5,3.2c0.7,0.1,1.1,0.2,1.8,0.3c0.2,0,0.3,0.2,0.3,0.2c0,0.2-0.1,0.2-0.1,0.5
						c0,0.1-0.2,0.2-0.4,0.2c-0.7-0.2-1-0.2-1.7-0.3c-0.2,1.3-0.3,2-0.5,3.2c0.7,0.1,1,0.2,1.7,0.3c0.2,0,0.3,0.2,0.2,0.2
						c0,0.2-0.1,0.2-0.1,0.5c0,0.2-0.2,0.2-0.3,0.2c-1-0.2-1.3-0.2-2.3-0.4c-0.3-0.1-0.6-0.3-0.6-0.6c0.5-3.3,0.7-5,1.2-8.2
						c0-0.2,0.4-0.4,0.8-0.3c1,0.2,1.5,0.2,2.5,0.4c0.2,0,0.3,0.2,0.3,0.3c0,0.2-0.1,0.2-0.1,0.5c0,0.2-0.2,0.2-0.4,0.2
						C64.7,49.1,64.3,49.1,63.6,49z M62.5,52.5c0.2-1.6,0.3-2.4,0.6-4c0.9,0.2,1.3,0.2,2.1,0.3c0.1,0,0.1,0,0.1-0.1c0,0,0,0,0-0.1
						c0,0,0-0.1-0.1-0.1c-0.9-0.2-1.3-0.2-2.2-0.4c-0.1,0-0.1,0-0.1,0.1c-0.5,3.3-0.7,5-1.2,8.2c0,0.1,0,0.1,0.1,0.1
						c0.8,0.2,1.2,0.2,2.1,0.3c0,0,0.1,0,0.1-0.1c0,0,0,0,0-0.1c0,0,0-0.1-0.1-0.1c-0.8-0.2-1.1-0.2-1.9-0.3
						C62.1,54.8,62.3,54,62.5,52.5c0.8,0.1,1.2,0.1,2,0.2c0.1,0,0.1,0,0.1-0.1c0,0,0,0,0-0.1c0,0,0-0.1-0.1-0.1
						C63.7,52.7,63.3,52.6,62.5,52.5z"/>
					<path fill="#231F20" d="M68.9,50c-0.3,1.3-0.4,1.9-0.7,3.2c0.7,0.2,1,0.2,1.7,0.4c0.2,0.1,0.3,0.2,0.2,0.3
						c-0.1,0.2-0.1,0.2-0.1,0.4c0,0.1-0.2,0.2-0.4,0.2c-0.7-0.2-1-0.2-1.7-0.4c-0.3,1.3-0.4,1.9-0.7,3.2c0.7,0.2,1,0.2,1.7,0.4
						c0.2,0.1,0.3,0.2,0.2,0.3c-0.1,0.2-0.1,0.2-0.1,0.4s-0.2,0.2-0.4,0.2c-0.9-0.2-1.3-0.3-2.3-0.5c-0.3-0.1-0.6-0.3-0.6-0.6
						c0.6-3.2,1-4.9,1.7-8.2c0.1-0.2,0.4-0.4,0.8-0.3c1,0.2,1.5,0.3,2.5,0.6c0.2,0.1,0.3,0.2,0.3,0.3c-0.1,0.2-0.1,0.2-0.1,0.4
						c0,0.2-0.2,0.2-0.4,0.2C70,50.2,69.7,50.2,68.9,50z M67.7,53.4c0.3-1.6,0.5-2.4,0.8-4c0.9,0.2,1.3,0.2,2.1,0.5
						c0.1,0,0.1,0,0.1,0s0,0,0-0.1c0,0,0-0.1-0.1-0.1c-0.9-0.2-1.3-0.3-2.2-0.5c-0.1,0-0.1,0-0.2,0.1c-0.7,3.2-1,4.9-1.7,8.2
						c0,0.1,0,0.1,0.1,0.1c0.8,0.2,1.2,0.2,2,0.5h0.1c0,0,0,0,0-0.1c0,0,0-0.1-0.1-0.1c-0.8-0.2-1.1-0.2-1.9-0.4
						c0.3-1.6,0.5-2.4,0.9-4c0.8,0.2,1.2,0.2,2,0.5h0.1c0,0,0,0,0-0.1c0,0,0-0.1-0.1-0.1C68.9,53.7,68.5,53.6,67.7,53.4z"/>
					<path fill="#231F20" d="M76.8,54.8c-0.2,0.5-1,0.9-1,0.9c0,0.1,0.5,0.9,0.3,1.3c-0.4,1.3-0.6,1.8-1,3.1c0,0.1-0.2,0.2-0.4,0.1
						c-0.2-0.1-0.4-0.1-0.6-0.2c-0.2-0.1-0.2-0.2-0.2-0.3c0.4-1.3,0.6-1.8,1-3.1c0.2-0.4-0.2-0.9-0.8-1c-0.4-0.2-0.6-0.2-1-0.3
						c-0.4,1.5-0.6,2.3-1.1,3.8c0,0.2-0.2,0.2-0.4,0.2c-0.2-0.1-0.4-0.1-0.6-0.2c-0.2-0.1-0.3-0.2-0.2-0.3c0.9-3.3,1.3-5,2.2-8.3
						c0.1-0.2,0.4-0.3,0.8-0.2c0.7,0.2,1,0.3,1.7,0.5c1.3,0.4,2.2,1.4,1.9,2.3C77.1,53.7,77,54,76.8,54.8z M76.8,52.9
						c0.2-0.6-0.5-1.4-1.5-1.7c-0.7-0.2-1-0.3-1.7-0.5c-0.1,0-0.2,0-0.2,0c-0.9,3.2-1.3,4.8-2.1,8.1c0,0,0,0.1,0.1,0.1l0,0h0.1
						c0.5-1.6,0.6-2.4,1.1-4c0.6,0.2,1,0.2,1.6,0.5c0.9,0.2,1.4,1,1.3,1.5c-0.4,1.2-0.6,1.7-1,2.9c0,0,0,0.1,0.1,0.1l0,0
						c0.1,0,0.1,0,0.1,0c0.4-1.2,0.6-1.7,1-2.9c0.2-0.6-0.8-1.5-0.8-1.5s1.3-0.2,1.5-0.7C76.5,53.9,76.5,53.6,76.8,52.9z M76.5,52.8
						c-0.2,0.7-0.3,1-0.6,1.7c-0.2,0.6-1,0.8-1.9,0.6c-0.6-0.2-1-0.2-1.6-0.5c0.4-1.6,0.6-2.3,1-3.9c0.6,0.2,1,0.2,1.7,0.5
						C76.1,51.5,76.8,52.2,76.5,52.8z M76,52.6c0.2-0.4-0.2-0.9-0.9-1c-0.4-0.2-0.6-0.2-1-0.3c-0.3,1.3-0.6,1.9-0.9,3.2
						c0.4,0.1,0.6,0.2,1,0.3c0.6,0.2,1.1,0,1.3-0.4C75.7,53.6,75.8,53.3,76,52.6z"/>
				</g>
			</g>
			<g>
				<path fill="#E6E7E8" d="M22.5,44.8l0.6,0.7L23,46.8l1.6,0.2l-0.1,0.6l-1.6-0.2l-0.3,0.3l-0.2-0.3l-1.6-0.2l0.2-1.8l0.8-0.6H22.5
					z M22.2,45.4h-0.3l-0.4,0.2l-0.1,1l1,0.2l0.1-1L22.2,45.4z"/>
				<path fill="#E6E7E8" d="M25.8,41l-0.2,0.6l-1.7,0.3l-0.2,0.6l1.5,0.5l-0.2,0.6l-1.5-0.5l-0.3,0.2l-0.2-0.4l-1.6-0.5l0.5-1.7
					l0.9-0.4l0.7,0.2l0.5,0.8L25.8,41z M23.1,41L22.8,41l-0.5,0.2l-0.2,1l1,0.3l0.2-1L23.1,41z"/>
				<path fill="#E6E7E8" d="M27.3,37.6l-1,2.1L25,39l-0.4,0.2l-0.1-0.4L23,38l1-2.1l0.5,0.2l-0.7,1.6l1,0.5l0.6-1.2l0.5,0.2
					l-0.6,1.2l1,0.5l0.7-1.6L27.3,37.6z"/>
				<path fill="#E6E7E8" d="M28.6,32.2l0.1,0.4l1.3,0.9l-0.3,0.5l-2.3-1.6l0.9,1.7L28,34.5l-1.9-0.2l2.3,1.6l-0.3,0.5l-1.3-0.9
					l-0.4,0.1l-0.2-0.4l-1.3-1l0.3-0.5l2.4,0.2l-1.1-2.1l0.3-0.5l1.3,1L28.6,32.2z"/>
				<path fill="#E6E7E8" d="M30.3,30.3v0.4l1.2,1.1l-0.4,0.4L30,31.1l-0.4,0.1v-0.4l-1.2-1.1l0.4-0.4l1.2,1.1L30.3,30.3z"/>
				<path fill="#E6E7E8" d="M34.1,27L34,27.4l0.6,0.7l-0.2,1l-1,0.9l-1-0.1l-0.6-0.8h-0.4l0.1-0.4l-1-1.3l0.4-0.3l1.8,2.2h0.6
					l0.6-0.6l0.1-0.5l-1.8-2.1l0.4-0.3l1,1.3L34.1,27z"/>
				<path fill="#E6E7E8" d="M38.7,24.3l-0.2,0.4l0.8,1.4l-0.5,0.2l-1.3-2.5v2l-0.5,0.2L35.4,25l1.3,2.5l-0.5,0.2l-0.8-1.4l-0.4-0.1
					l0.2-0.4l-0.8-1.4l0.6-0.3l2.1,1.3V23l0.6-0.3l0.8,1.4L38.7,24.3z"/>
				<path fill="#E6E7E8" d="M46.4,22.2l-0.2,0.3l0.2,1l-0.6,0.8l-0.4,0.1l0.1,0.4l-0.6,0.1l-0.1-0.4l-0.4,0.1L43.6,24l-0.2-1
					L43,22.8l0.2-0.3l-0.2-1l0.6-0.8l1.3-0.2l0.8,0.5l0.2,1L46.4,22.2z M45.7,23.3l-0.4-1.9l-0.5-0.2L44,21.3l-0.3,0.4l0.4,2
					l0.5,0.2h0.2l-0.1-0.4l0.6-0.2l0.1,0.4h0.2L45.7,23.3z"/>
				<path fill="#E6E7E8" d="M51.2,21.9l-0.3,0.3v1l-0.7,0.6h-1.3l-0.7-0.6v-1L47.8,22l0.3-0.3v-1.6h0.6l0,2.9l0.4,0.3h0.9l0.4-0.3
					l-0.1-2.9h0.6v1.6L51.2,21.9z"/>
				<path fill="#E6E7E8" d="M55.5,24.4L55,24.3l-0.2-1l-1.5-0.2L52.8,24l-0.6-0.1l0.9-1.5l-0.2-0.3l0.5-0.2l0.9-1.6l0.6,0.1
					L55.5,24.4z M54.7,22.7l-0.3-1.6l-0.8,1.4L54.7,22.7z"/>
				<path fill="#E6E7E8" d="M59.1,25.5L57,24.8l0.5-1.5l-0.2-0.4l0.4-0.2l0.5-1.5l0.6,0.2l-1,3.1l1.7,0.6L59.1,25.5z"/>
				<path fill="#E6E7E8" d="M62.2,24.8L61.8,25l-0.7,1.4l-0.5-0.2l0.7-1.4l-0.2-0.4l0.4-0.1l0.7-1.5l0.4,0.2L62,24.5L62.2,24.8z"/>
				<path fill="#E6E7E8" d="M66.5,25.8l-1-0.6L65,26.1l0.2,0.4l-0.4,0.1L63.9,28l-0.5-0.3l0.9-1.3l-0.2-0.4l0.4-0.1l0.6-1l-0.9-0.6
					l0.3-0.5l2.3,1.4L66.5,25.8z"/>
				<path fill="#E6E7E8" d="M70.5,28.4l-2.5,0.7L67,30.3L66.6,30l1.1-1.3l0.3-2.5l0.5,0.4l-0.2,1.9L70,28L70.5,28.4z"/>
				<path fill="#E6E7E8" d="M72.7,36.1l-1-0.1l-1-1.6l1.3-0.9l0.1-0.4l0.4,0.1l1.3-0.9l1,1.5l-0.2,1l-0.6,0.4l-0.6-0.1l-0.2,0.6
					L72.7,36.1z M72.7,35.6l0.2-0.2l0.1-0.5l-0.6-0.9l-0.9,0.6l0.6,0.9L72.7,35.6z M73.9,34.6l0.2-0.2l0.2-0.5l-0.6-0.9l-0.9,0.6
					l0.6,0.9H73.9z"/>
				<path fill="#E6E7E8" d="M73.9,40l-1-2.1l1.4-0.6l0.2-0.4l0.4,0.2l1.5-0.6l1,2.1l-0.5,0.2l-0.7-1.6l-1,0.5l0.6,1.2l-0.5,0.2
					l-0.6-1.2l-1,0.4l0.7,1.6L73.9,40z"/>
				<path fill="#E6E7E8" d="M75.6,43.7l-0.8-0.5l-0.3-1.3l0.4-0.9l0.6-0.2l0.2,0.6l-0.4,0.1L75,42l0.2,0.8l0.4,0.3l0.4-0.1l0.2-0.5
					l-0.2-1l0.4-0.9l0.9-0.2l0.8,0.5l0.3,1.2l-0.4,0.9l-0.6,0.2l-0.2-0.6l0.4-0.1l0.2-0.5l-0.2-0.8L77.3,41l-0.4,0.2l-0.2,0.5l0.2,1
					l-0.4,0.9L75.6,43.7z"/>
				<path fill="#E6E7E8" d="M78.8,47.3l-0.2-1.1l-1,0.2l-0.2,0.4L77,46.4l-1.6,0.2L75.4,46l1.6-0.2l0.2-0.3l0.3,0.3l1-0.2l-0.1-1.1
					l0.6-0.1l0.3,2.7L78.8,47.3z"/>
			</g>
		</g>
	</g>
</g>
</svg>
