<?xml version="1.0" encoding="iso-8859-1"?>
<!-- Generator: Adobe Illustrator 19.0.0, SVG Export Plug-In . SVG Version: 6.00 Build 0)  -->
<svg version="1.1" id="Layer_1" xmlns="http://www.w3.org/2000/svg" xmlns:xlink="http://www.w3.org/1999/xlink" x="0px" y="0px"
	 viewBox="0 0 495.993 495.993" style="enable-background:new 0 0 495.993 495.993;" fill="#CD9C67" xml:space="preserve">
<g>
	<g>
		<g>
			<path d="M495.578,238.505c-4.424-118.504-96.432-220.04-214.016-236.192c-13.944-1.912-28.112-2.632-41.784-2.184l-39.2-0.112
				c-0.016,0-0.024,0-0.04,0c-4.48,0-8.68,1.736-11.848,4.904c-3.184,3.168-4.936,7.392-4.936,11.88
				c0,7.968,5.672,14.888,13.488,16.448l4.128,0.832h0.008c24.376,4.872,42.208,25.632,42.376,49.912
				c0,25.528-14.144,48.68-36.904,60.424l-6.064,3.128l2.128,6.48c5.544,16.864,6.336,34.232,2.368,51.616
				c-11.16,48.896-58.88,80.344-110.92,73.224c-31.408-4.32-46.208-19.848-52.232-28.72c-4.312-6.36-11.408-10.152-18.976-10.152
				c-6.304,0-12.4,2.648-16.72,7.256s-6.552,10.856-6.152,17.144c8.48,129.864,117.184,231.6,247.472,231.6
				c68,0,131.432-26.976,178.624-75.96C473.538,371.081,498.114,306.609,495.578,238.505z M414.85,408.937
				c-44.144,45.824-103.488,71.056-167.096,71.056c-121.88,0-223.568-95.168-231.504-216.648c-0.128-1.912,0.536-3.752,1.856-5.16
				c1.328-1.408,3.12-2.192,5.048-2.192c2.264,0,4.408,1.168,5.744,3.136c7.52,11.08,25.736,30.424,63.288,35.576
				c60.36,8.32,115.68-28.472,128.696-85.504c4.128-18.096,3.832-36.176-0.888-53.848c24.68-15.28,39.76-42.088,39.752-72.016
				c-0.224-31.272-23.456-58.584-55.24-64.944l-4.136-0.832c-0.352-0.072-0.616-0.4-0.616-0.76l0.784-0.784l39.488,0.104
				c13.072-0.448,26.32,0.248,39.368,2.04c110,15.112,196.064,110.096,200.2,220.944C481.962,302.825,458.97,363.137,414.85,408.937
				z"/>
			<path d="M311.754,71.993c-13.232,0-24,10.768-24,24s10.768,24,24,24s24-10.768,24-24S324.986,71.993,311.754,71.993z
				 M311.754,103.993c-4.408,0-8-3.592-8-8s3.592-8,8-8c4.408,0,8,3.592,8,8S316.162,103.993,311.754,103.993z"/>
			<path d="M391.754,127.993c-13.232,0-24,10.768-24,24s10.768,24,24,24s24-10.768,24-24S404.986,127.993,391.754,127.993z
				 M391.754,159.993c-4.408,0-8-3.592-8-8s3.592-8,8-8c4.408,0,8,3.592,8,8S396.162,159.993,391.754,159.993z"/>
			<path d="M391.754,255.993c-13.232,0-24,10.768-24,24s10.768,24,24,24s24-10.768,24-24S404.986,255.993,391.754,255.993z
				 M391.754,287.993c-4.408,0-8-3.584-8-8c0-4.416,3.592-8,8-8c4.408,0,8,3.584,8,8
				C399.754,284.409,396.162,287.993,391.754,287.993z"/>
			<path d="M271.754,231.993c-13.232,0-24,10.768-24,24s10.768,24,24,24s24-10.768,24-24S284.986,231.993,271.754,231.993z
				 M271.754,263.993c-4.408,0-8-3.584-8-8c0-4.408,3.592-8,8-8c4.408,0,8,3.592,8,8
				C279.754,260.409,276.162,263.993,271.754,263.993z"/>
			<path d="M255.754,383.993c-13.232,0-24,10.768-24,24s10.768,24,24,24s24-10.768,24-24S268.986,383.993,255.754,383.993z
				 M255.754,415.993c-4.408,0-8-3.584-8-8c0-4.416,3.592-8,8-8c4.408,0,8,3.584,8,8
				C263.754,412.409,260.162,415.993,255.754,415.993z"/>
			<path d="M127.754,335.993c-13.232,0-24,10.768-24,24s10.768,24,24,24s24-10.768,24-24S140.986,335.993,127.754,335.993z
				 M127.754,367.993c-4.408,0-8-3.584-8-8c0-4.416,3.592-8,8-8c4.408,0,8,3.584,8,8
				C135.754,364.409,132.162,367.993,127.754,367.993z"/>
			<rect x="343.754" y="367.993" width="16" height="16"/>
			<rect x="303.754" y="167.993" width="16" height="16"/>
			<rect x="191.754" y="319.993" width="16" height="16"/>
			<rect x="423.754" y="207.993" width="16" height="16"/>
			<rect x="151.754" y="407.993" width="16" height="16"/>
		</g>
	</g>
</g>
<g>
</g>
<g>
</g>
<g>
</g>
<g>
</g>
<g>
</g>
<g>
</g>
<g>
</g>
<g>
</g>
<g>
</g>
<g>
</g>
<g>
</g>
<g>
</g>
<g>
</g>
<g>
</g>
<g>
</g>
</svg>
