<svg xmlns="http://www.w3.org/2000/svg" width="1025.97" height="462.469" viewBox="0 0 1025.97 462.469">
  <metadata><?xpacket begin="﻿" id="W5M0MpCehiHzreSzNTczkc9d"?>
<x:xmpmeta xmlns:x="adobe:ns:meta/" x:xmptk="Adobe XMP Core 5.6-c138 79.159824, 2016/09/14-01:09:01        ">
   <rdf:RDF xmlns:rdf="http://www.w3.org/1999/02/22-rdf-syntax-ns#">
      <rdf:Description rdf:about=""/>
   </rdf:RDF>
</x:xmpmeta>
                                                                                                    
                                                                                                    
                                                                                                    
                                                                                                    
                                                                                                    
                                                                                                    
                                                                                                    
                                                                                                    
                                                                                                    
                                                                                                    
                                                                                                    
                                                                                                    
                                                                                                    
                                                                                                    
                                                                                                    
                                                                                                    
                                                                                                    
                                                                                                    
                                                                                                    
                                                                                                    
                           
<?xpacket end="w"?></metadata>
<defs>
    <style>
      .cls-1 {
        fill-rule: evenodd;
      }
    </style>
  </defs>
  <path id="Pellentesque_porttitor_justo_копия_2" data-name="Pellentesque porttitor justo копия 2" class="cls-1" d="M568.4,300.933q-0.51-10.876-1.87-23.8,17.677,1.7,26.52,2.21-10.883,8.67-24.65,21.59h0Zm58.99-43.52q-4.424-2.888-15.13-2.89l-12.41.17-5.27-.17q-15.133-.338-26.01-1.36-4.423-.338-6.63-0.34-20.4,0-20.4,18.02a41.923,41.923,0,0,0,.85,8.075q0.847,4.335,1.02,5.185a62.241,62.241,0,0,1,1.53,7.99,84.709,84.709,0,0,1,.68,11.39,107.736,107.736,0,0,1-1.36,16.66,12.712,12.712,0,0,1-1.785,4.335A58.634,58.634,0,0,1,538.142,330a34.156,34.156,0,0,0-5.44,7.31,14.946,14.946,0,0,0-1.87,6.97,6.1,6.1,0,0,0,1.02,3.74,3.575,3.575,0,0,0,3.06,1.36q3.06,0,6.8-3.06l-0.85,5.44q-0.173,1.193-.765,5.185a48.254,48.254,0,0,0-.6,7.055q0,9.353,5.78,9.35a9.336,9.336,0,0,0,5.44-2.125,31.121,31.121,0,0,0,5.1-4.675,28.807,28.807,0,0,0,5.355-8.5A77.541,77.541,0,0,0,564.662,347q1.53-6.286,2.72-14.62a36.262,36.262,0,0,0,.17-3.825,26.115,26.115,0,0,1,.34-4.335,10.942,10.942,0,0,1,1.19-3.57q1.187-2.207,6.205-6.46t14.875-12.07q18.87-14.957,29.155-24.735T629.6,261.493a4.74,4.74,0,0,0-2.21-4.08h0Zm70.129,102.51a72.522,72.522,0,0,0-25.5-4.76,66.193,66.193,0,0,0-22.78,4.08q2.207-7.306,4.08-15.64,9.18-1.186,14.45-2.21a17.957,17.957,0,0,0,6.97-3.06q3.4-2.378,3.4-5.44,0-4.59-6.8-4.59l-2.38.17q-6.63.853-13.26,2.04l1.19-10.71q0.51-4.756.85-14.28a38.884,38.884,0,0,0,15.98,3.4,42.863,42.863,0,0,0,13.94-2.38,10.692,10.692,0,0,0,5.185-3.4,7.516,7.516,0,0,0,1.955-4.76,4.42,4.42,0,0,0-1.445-3.485,6.394,6.394,0,0,0-4.335-1.275,29.491,29.491,0,0,0-3.06.34,34.347,34.347,0,0,1-5.61.68,23.779,23.779,0,0,1-17.68-7.735,54.684,54.684,0,0,1-11.73-18.955,4.629,4.629,0,0,0-2.89-2.72q-1.364-1.358-4.42-1.36a17.607,17.607,0,0,0-9.35,2.975q-4.762,2.978-4.76,6.375a4.1,4.1,0,0,0,.85,2.72q7.307,10.034,7.31,28.9,0,7.14-1.53,22.44a131.322,131.322,0,0,1-4,22.44q-2.977,11.053-7.9,24.82a5.46,5.46,0,0,0-.34,2.04,3.225,3.225,0,0,0,1.53,2.975,7.751,7.751,0,0,0,4.08.935,20.62,20.62,0,0,0,5.865-.935,18.7,18.7,0,0,0,5.355-2.465q13.26-8.16,26.01-8.16a54.041,54.041,0,0,1,16.32,2.89,13.464,13.464,0,0,0,4.59.68,12.426,12.426,0,0,0,9.18-3.57q3.226-3.226,3.23-5.95,0-2.207-2.55-3.06h0Zm24.472-116.79q-9.18,72.764-15.13,131.24-0.51,4.933,6.12,4.93a19.984,19.984,0,0,0,9.775-2.805q5.012-2.805,5.355-6.375,1.186-10.876,5.27-47.43,6.286-53.55,9.01-83.98,0.167-4.08-5.27-4.08a21.182,21.182,0,0,0-9.69,2.635q-5.1,2.638-5.44,5.865h0Zm40.626,0q-9.18,72.764-15.13,131.24-0.51,4.933,6.12,4.93a19.984,19.984,0,0,0,9.775-2.805q5.012-2.805,5.355-6.375,1.186-10.876,5.27-47.43,6.287-53.55,9.01-83.98,0.167-4.08-5.27-4.08a21.182,21.182,0,0,0-9.69,2.635q-5.1,2.638-5.44,5.865h0Zm94.533,116.79a72.522,72.522,0,0,0-25.5-4.76,66.193,66.193,0,0,0-22.78,4.08q2.207-7.306,4.08-15.64,9.18-1.186,14.45-2.21a17.957,17.957,0,0,0,6.97-3.06q3.4-2.378,3.4-5.44,0-4.59-6.8-4.59l-2.38.17q-6.63.853-13.26,2.04l1.19-10.71q0.51-4.756.85-14.28a38.884,38.884,0,0,0,15.98,3.4,42.863,42.863,0,0,0,13.94-2.38,10.692,10.692,0,0,0,5.185-3.4,7.516,7.516,0,0,0,1.955-4.76,4.42,4.42,0,0,0-1.445-3.485,6.394,6.394,0,0,0-4.335-1.275,29.491,29.491,0,0,0-3.06.34,34.347,34.347,0,0,1-5.61.68,23.779,23.779,0,0,1-17.68-7.735,54.684,54.684,0,0,1-11.73-18.955,4.629,4.629,0,0,0-2.89-2.72q-1.363-1.358-4.42-1.36a17.607,17.607,0,0,0-9.35,2.975q-4.763,2.978-4.76,6.375a4.1,4.1,0,0,0,.85,2.72q7.307,10.034,7.31,28.9,0,7.14-1.53,22.44a131.322,131.322,0,0,1-4,22.44q-2.977,11.053-7.905,24.82a5.46,5.46,0,0,0-.34,2.04,3.225,3.225,0,0,0,1.53,2.975,7.751,7.751,0,0,0,4.08.935,20.62,20.62,0,0,0,5.865-.935,18.7,18.7,0,0,0,5.355-2.465q13.26-8.16,26.01-8.16a54.041,54.041,0,0,1,16.32,2.89,13.464,13.464,0,0,0,4.59.68,12.426,12.426,0,0,0,9.18-3.57q3.227-3.226,3.23-5.95,0-2.207-2.55-3.06h0Zm75.115-79.05q0.676-4.417-5.44-4.42a20.469,20.469,0,0,0-9.69,2.635q-4.933,2.638-5.44,6.035-2.55,16.493-3.57,32.47-10.71-23.288-16.15-38.08-1.192-3.4-6.29-3.4a18.556,18.556,0,0,0-9.86,3.06q-4.933,3.06-4.59,6.8l-0.17.68a778.936,778.936,0,0,0-6.63,87.55,3.948,3.948,0,0,0,1.7,3.91,9.052,9.052,0,0,0,4.93,1.19,18.894,18.894,0,0,0,9.69-2.805q4.757-2.805,4.76-6.375,0.337-24.137,1.7-45.39l2.04,4.76q12.917,28.223,18.87,44.2,1.358,4.253,8.16,3.57a19.027,19.027,0,0,0,7.99-2.465q3.736-2.123,4.76-5.015v-0.34a0.151,0.151,0,0,0,.17-0.17,5.456,5.456,0,0,0,.34-1.53,5.658,5.658,0,0,0-.34-1.7q-1.02-13.6-1.02-26.86v-27.37s1.36-10.311,4.08-30.94h0Zm56.111-4.25q-2.212.344-6.97,0.68l2.21-22.78q0.337-3.57-4.5-6.375a19.615,19.615,0,0,0-9.945-2.805q-6.463,0-6.97,4.76l-3.06,29.41-8.67,1.19q-4.933.683-8.67,1.19a6.152,6.152,0,0,0-3.57,1.53,3.74,3.74,0,0,0-1.19,2.72,6.311,6.311,0,0,0,1.36,3.74q1.186,1.874,2.38,3.4a5.425,5.425,0,0,0,2.465,1.955,9.812,9.812,0,0,0,3.655.255l10.71-1.36q-2.55,24.824-4.08,43.605t-2.04,36.805q-0.173,3.57,4.845,6.375a20.526,20.526,0,0,0,10.115,2.805,8.279,8.279,0,0,0,4.675-1.19,4.409,4.409,0,0,0,1.955-3.57q0.51-19.546,2.21-39.61t4.59-47.26q0.51,0,8.84-1.19l5.95-.68q4.757-.677,4.76-4.42a7.584,7.584,0,0,0-1.36-3.74,14.758,14.758,0,0,0-4.165-4.59,9.014,9.014,0,0,0-5.525-.85h0Zm78.262,83.3a72.522,72.522,0,0,0-25.5-4.76,66.231,66.231,0,0,0-22.78,4.08q2.22-7.306,4.08-15.64,9.18-1.186,14.45-2.21a17.9,17.9,0,0,0,6.97-3.06q3.405-2.378,3.4-5.44c0-3.06-2.26-4.59-6.8-4.59l-2.38.17q-6.63.853-13.26,2.04l1.19-10.71q0.51-4.756.85-14.28a38.9,38.9,0,0,0,15.98,3.4,42.8,42.8,0,0,0,13.94-2.38,10.689,10.689,0,0,0,5.19-3.4,7.513,7.513,0,0,0,1.95-4.76,4.42,4.42,0,0,0-1.44-3.485,6.408,6.408,0,0,0-4.34-1.275,29.78,29.78,0,0,0-3.06.34,34.227,34.227,0,0,1-5.61.68,23.786,23.786,0,0,1-17.68-7.735,54.952,54.952,0,0,1-11.73-18.955,4.6,4.6,0,0,0-2.89-2.72c-0.9-.905-2.38-1.36-4.42-1.36a17.631,17.631,0,0,0-9.35,2.975q-4.755,2.978-4.756,6.375a4.1,4.1,0,0,0,.85,2.72q7.314,10.034,7.306,28.9,0,7.14-1.53,22.44a131.409,131.409,0,0,1-3.99,22.44q-2.979,11.053-7.906,24.82a5.46,5.46,0,0,0-.34,2.04,3.225,3.225,0,0,0,1.53,2.975,7.751,7.751,0,0,0,4.08.935,20.6,20.6,0,0,0,5.866-.935,18.67,18.67,0,0,0,5.35-2.465q13.26-8.16,26.01-8.16a53.948,53.948,0,0,1,16.32,2.89,13.5,13.5,0,0,0,4.59.68,12.426,12.426,0,0,0,9.18-3.57c2.16-2.151,3.23-4.135,3.23-5.95q0-2.207-2.55-3.06h0Zm65.94-56.27a7.4,7.4,0,0,0,5.1,1.53,20.583,20.583,0,0,0,10.37-3.06q5.265-3.06,5.27-6.29a3.56,3.56,0,0,0-1.53-2.89,87.242,87.242,0,0,0-17.43-11.73,39.582,39.582,0,0,0-17.76-4.25,38.252,38.252,0,0,0-10.37,1.53,34.761,34.761,0,0,0-15.05,8.755q-6.54,6.375-6.54,14.025a17.592,17.592,0,0,0,2.89,9.52,31,31,0,0,0,5.44,6.29q3.225,2.893,7.82,6.29c3.74,2.835,5.83,4.479,6.29,4.93l4.59,3.91q6.285,5.272,10.37,9.35a39.222,39.222,0,0,1,6.63,8.67q2.55,4.762,2.55,7.99,0,4.59-5.27,4.59-6.465,0-15.81-6.12-10.2-6.63-20.74-20.91-1.71-2.207-5.44-2.21a18.665,18.665,0,0,0-9.95,3.145q-5.01,3.148-5.01,6.885a5.484,5.484,0,0,0,1.02,3.06q19.545,26.863,42.67,30.77a45.679,45.679,0,0,0,6.8.51,43.515,43.515,0,0,0,18.95-4.25,26.256,26.256,0,0,0,12.84-12.24,20.253,20.253,0,0,0,2.04-8.5,22.388,22.388,0,0,0-3.66-11.985,54.747,54.747,0,0,0-8.07-10.2q-4.425-4.335-11.9-10.795-1.53-1.358-6.97-5.1-6.63-4.59-10.71-8.075a16.052,16.052,0,0,1-5.27-7.395,16.888,16.888,0,0,1-.85-4.08q0-3.4,3.4-3.4,4.245,0,12.15,4.5a82.36,82.36,0,0,1,11.14,7.225h0Zm67.36,47.26a56.072,56.072,0,0,1-2.13,5.355,15.21,15.21,0,0,1-2.97,4.505,5.77,5.77,0,0,1-4.25,1.7,6.9,6.9,0,0,1-2.38-.51q-5.955-2.04-7.82-10.37a35.013,35.013,0,0,1-1.19-9.52q0-12.916,7.31-29.07,4.92-10.876,10.54-16.83a12.122,12.122,0,0,1,1.44-1.615q1.11-1.1,2.04-1.87a3.258,3.258,0,0,1,2.13-.765,6.882,6.882,0,0,1,2.72.68l1.36,0.34q-0.69,9.014-1.36,16.065-0.69,7.058-1.19,11.815-1.71,16.32-2.38,24.65-0.69,2.383-1.87,5.44h0Zm22.44,52.36q-0.855-8.841-.85-21.25,0-5.1.34-14.96t1.7-29.58a111.511,111.511,0,0,0,2.38-17.68q0.51-9.18.51-20.91,1.02-13.26,1.36-20.57,0.165-4.418-5.78-4.42a19.11,19.11,0,0,0-6.55,1.275,16.757,16.757,0,0,0-5.69,3.315q-13.44-1.186-25.16,9.775a78.416,78.416,0,0,0-18.7,27.8q-6.975,16.83-6.97,31.62a42.766,42.766,0,0,0,1.87,12.92,21.241,21.241,0,0,0,9.26,11.73,28.107,28.107,0,0,0,14.71,3.91,35.874,35.874,0,0,0,15.3-3.4c-0.12,2.609-.17,6.46-0.17,11.56q0,37.74,9.86,65.11,1.35,3.738,5.78,3.74a16.83,16.83,0,0,0,9.26-3.23q4.845-3.231,5.7-6.29l11.22-42.16a2.443,2.443,0,0,0-.77-3.06,7.158,7.158,0,0,0-4.16-1.02,22.477,22.477,0,0,0-7.99,1.615,15.688,15.688,0,0,0-6.46,4.165h0Zm67.71-116.79q-0.51,10.034-1.27,20.74t-1.96,19.72q-1.53,11.054-2.38,16.15a57.375,57.375,0,0,1-3.48,11.645q-2.64,6.548-6.89,9.265a1.618,1.618,0,0,1-.68.51l-1.36-.34a12.948,12.948,0,0,1-4.76-1.445,15.578,15.578,0,0,1-4.08-2.805q-4.935-4.418-4.93-14.45,0-2.378.34-6.46a107.2,107.2,0,0,1,3.74-18.955q2.715-9.263,7.65-23.035,1.875-4.928,5.27-14.79a9.071,9.071,0,0,0,.34-2.04,3.546,3.546,0,0,0-1.7-3.145,8,8,0,0,0-4.42-1.105,19.277,19.277,0,0,0-8.24,1.955q-4.17,1.957-5.19,4.845-2.55,7.14-4.59,11.73-6.8,17.34-10.37,29.58a85.365,85.365,0,0,0-3.57,23.97q0,2.212.34,6.63a24.6,24.6,0,0,0,9.44,17.51,30.093,30.093,0,0,0,19.12,6.46,35.406,35.406,0,0,0,31.11-19.21,85.6,85.6,0,0,0,9.44-29.07q2.115-15.467,2.97-37.57,0-3.908.34-10.37a3.541,3.541,0,0,0-1.53-3.485,8,8,0,0,0-4.42-1.105,19.029,19.029,0,0,0-9.43,2.635q-4.68,2.639-4.85,6.035h0Zm97.61,73.44a72.522,72.522,0,0,0-25.5-4.76,66.189,66.189,0,0,0-22.78,4.08q2.2-7.306,4.08-15.64,9.18-1.186,14.45-2.21a17.964,17.964,0,0,0,6.97-3.06c2.26-1.585,3.4-3.4,3.4-5.44q0-4.59-6.8-4.59l-2.38.17q-6.63.853-13.26,2.04l1.19-10.71q0.51-4.756.85-14.28a38.867,38.867,0,0,0,15.98,3.4,42.89,42.89,0,0,0,13.94-2.38,10.659,10.659,0,0,0,5.18-3.4,7.529,7.529,0,0,0,1.96-4.76,4.427,4.427,0,0,0-1.45-3.485,6.379,6.379,0,0,0-4.33-1.275,29.208,29.208,0,0,0-3.06.34,34.468,34.468,0,0,1-5.61.68,23.771,23.771,0,0,1-17.68-7.735,54.654,54.654,0,0,1-11.73-18.955,4.644,4.644,0,0,0-2.89-2.72c-0.91-.905-2.38-1.36-4.42-1.36a17.6,17.6,0,0,0-9.35,2.975c-3.18,1.985-4.76,4.11-4.76,6.375a4.092,4.092,0,0,0,.85,2.72q7.305,10.034,7.31,28.9,0,7.14-1.53,22.44a131.429,131.429,0,0,1-4,22.44q-2.97,11.053-7.9,24.82a5.44,5.44,0,0,0-.34,2.04,3.225,3.225,0,0,0,1.53,2.975,7.751,7.751,0,0,0,4.08.935,20.6,20.6,0,0,0,5.86-.935,18.736,18.736,0,0,0,5.36-2.465q13.26-8.16,26.01-8.16a54.051,54.051,0,0,1,16.32,2.89,13.424,13.424,0,0,0,4.59.68,12.426,12.426,0,0,0,9.18-3.57q3.225-3.226,3.23-5.95,0-2.207-2.55-3.06h0ZM507.566,548.528a58.837,58.837,0,0,1-11.56,18.615,62.944,62.944,0,0,1-17.34,13.515q1.7-37.908,4.76-64.77,15.637-.339,22.27,7.48,4.418,4.932,4.42,12.75a33.746,33.746,0,0,1-2.55,12.41h0Zm-22.44-45.9v-0.68a3.483,3.483,0,0,0-1.275-3.57,7.486,7.486,0,0,0-4.5-1.19,20.179,20.179,0,0,0-9.52,2.635q-4.934,2.637-5.44,6.205a27.16,27.16,0,0,0-.34,3.4q-2.212,2.721-2.21,4.76a2.346,2.346,0,0,0,1.19,2.21q-3.914,33.66-5.78,70.21a23.369,23.369,0,0,1-3.4.17,13.289,13.289,0,0,0-8.415,3.4q-4.164,3.4-4.165,6.46a3.1,3.1,0,0,0,1.615,2.72,9.213,9.213,0,0,0,4.845,1.02,81.543,81.543,0,0,0,9.01-.51q-1.02,21.93-1.445,47.26t-0.595,31.96l-0.17,13.6q0,4.418,5.95,4.42a20.579,20.579,0,0,0,10.03-2.72q4.928-2.723,5.1-6.29,0.847-20.91,1.02-41.65,0.167-8.67.51-21.675t1.02-30.345a90.176,90.176,0,0,0,29.92-19.295,73.442,73.442,0,0,0,18.7-28.645,49.3,49.3,0,0,0,2.72-14.62q0-11.73-7.65-19.21-10.2-10.2-30.94-10.2-3.913,0-5.78.17h0Zm98.907,58.48a76.486,76.486,0,0,1-6.715,12.75,33.757,33.757,0,0,1-8.925,9.52,6.76,6.76,0,0,1-2.04-1.7,34.18,34.18,0,0,1-4.25-7.99,60.882,60.882,0,0,1-3.06-19.38,71.57,71.57,0,0,1,2.21-17.6,73.8,73.8,0,0,1,6.12-16.235,5.509,5.509,0,0,0,.68-2.38,2.409,2.409,0,0,0-1.53-2.38,11.215,11.215,0,0,1,3.4-.68,12.3,12.3,0,0,1,7.14,2.72,24.08,24.08,0,0,1,8.245,10.455,36.4,36.4,0,0,1,2.635,14.025,47.74,47.74,0,0,1-3.91,18.87h0Zm-2.38-59.67a48.163,48.163,0,0,0-6.63-.68q-15.134,0-26.775,11.985a77.123,77.123,0,0,0-17.425,28.135,5.993,5.993,0,0,0-.34,2.21q0,3.912,5.78,3.91a13.9,13.9,0,0,0,3.57-.34,80.6,80.6,0,0,0-1.02,12.92,63.756,63.756,0,0,0,2.89,19.89q2.55,8.67,8.16,13.26a20.048,20.048,0,0,0,13.09,4.59q7.477,0,15.3-4.76a56.334,56.334,0,0,0,15.13-13.94,73.65,73.65,0,0,0,10.71-19.38,58.966,58.966,0,0,0,3.91-20.57,45.061,45.061,0,0,0-3.06-16.4,36.347,36.347,0,0,0-9.01-13.515,28.78,28.78,0,0,0-14.28-7.31h0Zm62.283,39.61q-0.854.852-5.95,5.1l0.85-34.51q18.016,5.442,27.2,7.82a34.966,34.966,0,0,1-6.375,8.16,141.784,141.784,0,0,1-10.795,9.35Zm32.3,19.72q-2.894,6.8-3.57,8.5a40.773,40.773,0,0,0-22.44-15.47q7.65-6.12,15.81-14.11l3.4-3.06a99.443,99.443,0,0,0,12.75-13,20.369,20.369,0,0,0,4.59-12.835,4.581,4.581,0,0,0-1.615-3.825,7.11,7.11,0,0,0-4.5-1.275,23.518,23.518,0,0,0-4.25.68q-19.89-6.12-38.42-11.22-1.53-1.7-5.1-1.7a19.036,19.036,0,0,0-9.435,2.635q-4.678,2.637-4.845,6.2-1.192,30.771-2.04,61.71-2.55,2.211-2.55,4.59a4.342,4.342,0,0,0,2.21,3.57l-0.51,23.46a3.226,3.226,0,0,0,1.53,2.975,7.761,7.761,0,0,0,4.08.935,21.422,21.422,0,0,0,9.945-2.72q5.183-2.718,5.355-5.95l0.85-24.65a29.5,29.5,0,0,1,16.745,11.9,38.307,38.307,0,0,1,7.225,20.23,4.559,4.559,0,0,0,1.955,3.74,8.278,8.278,0,0,0,4.675,1.19,17.043,17.043,0,0,0,6.885-1.53,12.944,12.944,0,0,0,5.185-3.74q4.08-2.889,4.93-6.29a191.307,191.307,0,0,1,10.54-31.62,6.925,6.925,0,0,0,.51-2.38q0-3.57-5.61-3.57a21,21,0,0,0-8.5,1.955q-4.423,1.956-5.78,4.675h0Zm71.168-64.6q-2.213.342-6.97,0.68l2.21-22.78q0.338-3.57-4.5-6.375a19.615,19.615,0,0,0-9.945-2.805q-6.463,0-6.97,4.76l-3.06,29.41-8.67,1.19q-4.933.681-8.67,1.19a6.139,6.139,0,0,0-3.57,1.53,3.739,3.739,0,0,0-1.19,2.72,6.315,6.315,0,0,0,1.36,3.74q1.187,1.872,2.38,3.4a5.432,5.432,0,0,0,2.465,1.955,9.855,9.855,0,0,0,3.655.255l10.71-1.36q-2.55,24.822-4.08,43.605t-2.04,36.8q-0.173,3.57,4.845,6.375a20.526,20.526,0,0,0,10.115,2.805,8.287,8.287,0,0,0,4.675-1.19,4.411,4.411,0,0,0,1.955-3.57q0.51-19.548,2.21-39.61t4.59-47.26q0.51,0,8.84-1.19l5.95-.68q4.757-.678,4.76-4.42a7.581,7.581,0,0,0-1.36-3.74,14.735,14.735,0,0,0-4.165-4.59,9,9,0,0,0-5.525-.85h0Zm62.83,0q-2.212.342-6.97,0.68l2.21-22.78q0.337-3.57-4.5-6.375a19.615,19.615,0,0,0-9.945-2.805q-6.463,0-6.97,4.76l-3.06,29.41-8.67,1.19q-4.933.681-8.67,1.19a6.139,6.139,0,0,0-3.57,1.53,3.739,3.739,0,0,0-1.19,2.72,6.315,6.315,0,0,0,1.36,3.74q1.186,1.872,2.38,3.4a5.432,5.432,0,0,0,2.465,1.955,9.855,9.855,0,0,0,3.655.255l10.71-1.36q-2.55,24.822-4.08,43.605t-2.04,36.8q-0.173,3.57,4.845,6.375a20.526,20.526,0,0,0,10.115,2.805,8.287,8.287,0,0,0,4.675-1.19,4.411,4.411,0,0,0,1.955-3.57q0.51-19.548,2.21-39.61t4.59-47.26q0.51,0,8.84-1.19l5.95-.68q4.757-.678,4.76-4.42a7.581,7.581,0,0,0-1.36-3.74,14.735,14.735,0,0,0-4.165-4.59,9,9,0,0,0-5.525-.85h0Zm14.754,9.86-5.1,92.14q-0.173,4.932,6.12,4.93a19.5,19.5,0,0,0,9.52-2.635q4.756-2.634,4.93-6.2l4.93-92.31a3.536,3.536,0,0,0-1.53-3.485,8,8,0,0,0-4.42-1.105,19.5,19.5,0,0,0-9.52,2.635q-4.762,2.637-4.93,6.035h0Zm-0.34-22.44,2.04-12.58q0.337-3.228,5.27-5.78a20.689,20.689,0,0,1,9.52-2.55q5.948,0,5.27,4.25-0.51,4.251-1.87,12.75-0.51,3.57-5.27,6.12a19.715,19.715,0,0,1-9.35,2.55,7.139,7.139,0,0,1-4.335-1.19,3.466,3.466,0,0,1-1.275-3.57h0Zm77.282,12.58q-2.212.342-6.97,0.68l2.21-22.78q0.337-3.57-4.5-6.375a19.615,19.615,0,0,0-9.945-2.805q-6.464,0-6.97,4.76l-3.06,29.41-8.67,1.19q-4.933.681-8.67,1.19a6.139,6.139,0,0,0-3.57,1.53,3.739,3.739,0,0,0-1.19,2.72,6.315,6.315,0,0,0,1.36,3.74q1.186,1.872,2.38,3.4a5.432,5.432,0,0,0,2.465,1.955,9.855,9.855,0,0,0,3.655.255l10.71-1.36q-2.55,24.822-4.08,43.605t-2.04,36.8q-0.173,3.57,4.845,6.375A20.526,20.526,0,0,0,880,603.268a8.287,8.287,0,0,0,4.675-1.19,4.411,4.411,0,0,0,1.955-3.57q0.51-19.548,2.21-39.61t4.59-47.26q0.51,0,8.84-1.19l5.95-.68q4.756-.678,4.76-4.42a7.581,7.581,0,0,0-1.36-3.74,14.735,14.735,0,0,0-4.165-4.59,9,9,0,0,0-5.525-.85h0Zm56.727,64.94a76.486,76.486,0,0,1-6.715,12.75,33.757,33.757,0,0,1-8.925,9.52,6.76,6.76,0,0,1-2.04-1.7,34.18,34.18,0,0,1-4.25-7.99,60.882,60.882,0,0,1-3.06-19.38,71.57,71.57,0,0,1,2.21-17.6A73.8,73.8,0,0,1,942,520.478a5.509,5.509,0,0,0,.68-2.38,2.409,2.409,0,0,0-1.53-2.38,11.215,11.215,0,0,1,3.4-.68,12.3,12.3,0,0,1,7.14,2.72,24.08,24.08,0,0,1,8.245,10.455,36.4,36.4,0,0,1,2.635,14.025,47.74,47.74,0,0,1-3.91,18.87h0Zm-2.38-59.67a48.163,48.163,0,0,0-6.63-.68q-15.134,0-26.775,11.985a77.123,77.123,0,0,0-17.425,28.135,5.993,5.993,0,0,0-.34,2.21q0,3.912,5.78,3.91a13.9,13.9,0,0,0,3.57-.34,80.6,80.6,0,0,0-1.02,12.92,63.756,63.756,0,0,0,2.89,19.89q2.55,8.67,8.16,13.26a20.048,20.048,0,0,0,13.09,4.59q7.477,0,15.3-4.76a56.334,56.334,0,0,0,15.13-13.94,73.65,73.65,0,0,0,10.71-19.38,58.966,58.966,0,0,0,3.91-20.57,45.061,45.061,0,0,0-3.06-16.4,36.347,36.347,0,0,0-9.01-13.515,28.78,28.78,0,0,0-14.28-7.31h0Zm62.283,39.61q-0.855.852-5.95,5.1l0.85-34.51q18.015,5.442,27.2,7.82a34.731,34.731,0,0,1-6.38,8.16,139.851,139.851,0,0,1-10.79,9.35Zm32.3,19.72q-2.895,6.8-3.57,8.5a40.78,40.78,0,0,0-22.44-15.47q7.65-6.12,15.81-14.11l3.4-3.06a99.443,99.443,0,0,0,12.75-13,20.369,20.369,0,0,0,4.59-12.835,4.57,4.57,0,0,0-1.62-3.825,7.067,7.067,0,0,0-4.5-1.275,23.583,23.583,0,0,0-4.25.68q-19.89-6.12-38.42-11.22-1.53-1.7-5.1-1.7a19.05,19.05,0,0,0-9.435,2.635q-4.678,2.637-4.845,6.2-1.193,30.771-2.04,61.71-2.55,2.211-2.55,4.59a4.342,4.342,0,0,0,2.21,3.57l-0.51,23.46a3.226,3.226,0,0,0,1.53,2.975,7.761,7.761,0,0,0,4.08.935,21.375,21.375,0,0,0,9.94-2.72q5.19-2.718,5.36-5.95l0.85-24.65a29.475,29.475,0,0,1,16.74,11.9,38.2,38.2,0,0,1,7.23,20.23,4.552,4.552,0,0,0,1.95,3.74,8.293,8.293,0,0,0,4.68,1.19,16.985,16.985,0,0,0,6.88-1.53,12.866,12.866,0,0,0,5.19-3.74q4.08-2.889,4.93-6.29a191.214,191.214,0,0,1,10.54-31.62,6.925,6.925,0,0,0,.51-2.38q0-3.57-5.61-3.57a21.019,21.019,0,0,0-8.5,1.955c-2.95,1.3-4.87,2.863-5.78,4.675h0Zm105.21-64.26a3.832,3.832,0,0,0-1.96-2.635,7.489,7.489,0,0,0-3.82-.935,17.281,17.281,0,0,0-6.8,1.53,15.4,15.4,0,0,0-5.7,4,5.589,5.589,0,0,0-1.44,5.185,234.086,234.086,0,0,1,5.44,52.19,272.49,272.49,0,0,1-3.15,41.31,241.378,241.378,0,0,1-9.09,38.76,76.93,76.93,0,0,1-17.34-18.02q-1.365-2.04-5.1-2.04a18.271,18.271,0,0,0-9.61,2.975q-4.845,2.971-4.84,6.545a4.3,4.3,0,0,0,1.02,2.89q14.79,20.4,31.11,26.35a6.5,6.5,0,0,0,4.76,1.53,22.17,22.17,0,0,0,9.01-2.125c3.17-1.419,5.16-3.034,5.95-4.845a191.04,191.04,0,0,0,13.51-44.115,270.837,270.837,0,0,0,4.51-49.725,255.445,255.445,0,0,0-6.46-58.82h0Zm-26.86-24.99c-0.57-1.926.03-3.655,1.78-5.185a18.33,18.33,0,0,1,6.04-3.485,16.379,16.379,0,0,1,5.95-1.19l1.53,0.17a9.85,9.85,0,0,1,2.72.765,2.286,2.286,0,0,1,1.53,1.785q1.02,4.932,2.89,12.07a5.461,5.461,0,0,1-1.87,5.44,18.855,18.855,0,0,1-5.95,3.74,14.7,14.7,0,0,1-5.61,1.19l-1.87-.17c-2.61-.68-4.02-1.642-4.25-2.89Zm97.27,34.51q-0.51,10.032-1.27,20.74t-1.96,19.72q-1.53,11.052-2.38,16.15a57.394,57.394,0,0,1-3.48,11.645q-2.64,6.546-6.89,9.265a1.618,1.618,0,0,1-.68.51l-1.36-.34a12.967,12.967,0,0,1-4.76-1.445,15.578,15.578,0,0,1-4.08-2.805q-4.935-4.419-4.93-14.45,0-2.379.34-6.46a107.185,107.185,0,0,1,3.74-18.955q2.715-9.264,7.65-23.035,1.875-4.929,5.27-14.79a9.088,9.088,0,0,0,.34-2.04,3.545,3.545,0,0,0-1.7-3.145,7.99,7.99,0,0,0-4.42-1.105,19.262,19.262,0,0,0-8.24,1.955q-4.17,1.956-5.19,4.845-2.55,7.14-4.59,11.73-6.8,17.34-10.37,29.58a85.365,85.365,0,0,0-3.57,23.97q0,2.211.34,6.63a24.6,24.6,0,0,0,9.44,17.51,30.1,30.1,0,0,0,19.12,6.46,35.406,35.406,0,0,0,31.11-19.21,85.61,85.61,0,0,0,9.44-29.07q2.115-15.468,2.97-37.57,0-3.909.34-10.37a3.539,3.539,0,0,0-1.53-3.485,7.99,7.99,0,0,0-4.42-1.105,19.018,19.018,0,0,0-9.43,2.635q-4.68,2.637-4.85,6.035h0Zm86.25,17.17a7.4,7.4,0,0,0,5.1,1.53,20.555,20.555,0,0,0,10.37-3.06q5.265-3.06,5.27-6.29a3.557,3.557,0,0,0-1.53-2.89,86.874,86.874,0,0,0-17.43-11.73,39.569,39.569,0,0,0-17.76-4.25,38.308,38.308,0,0,0-10.37,1.53,34.752,34.752,0,0,0-15.05,8.755q-6.54,6.375-6.54,14.025a17.6,17.6,0,0,0,2.89,9.52,31.364,31.364,0,0,0,5.44,6.29q3.225,2.892,7.82,6.29,5.61,4.251,6.29,4.93l4.59,3.91q6.285,5.271,10.37,9.35a39.222,39.222,0,0,1,6.63,8.67q2.55,4.761,2.55,7.99,0,4.59-5.27,4.59-6.465,0-15.81-6.12-10.2-6.63-20.74-20.91c-1.13-1.472-2.95-2.21-5.44-2.21a18.656,18.656,0,0,0-9.95,3.145q-5.01,3.147-5.01,6.885a5.484,5.484,0,0,0,1.02,3.06q19.545,26.862,42.67,30.77a45.78,45.78,0,0,0,6.8.51,43.5,43.5,0,0,0,18.95-4.25A26.264,26.264,0,0,0,1331.43,581a20.257,20.257,0,0,0,2.04-8.5,22.388,22.388,0,0,0-3.66-11.985,54.339,54.339,0,0,0-8.07-10.2q-4.425-4.335-11.9-10.795-1.53-1.359-6.97-5.1-6.63-4.59-10.71-8.075a16.062,16.062,0,0,1-5.27-7.395,16.906,16.906,0,0,1-.85-4.08q0-3.4,3.4-3.4,4.245,0,12.15,4.5a81.509,81.509,0,0,1,11.14,7.225h0Zm73.78-27.03q-2.205.342-6.97,0.68l2.21-22.78q0.345-3.57-4.5-6.375a19.632,19.632,0,0,0-9.95-2.805c-4.3,0-6.63,1.588-6.97,4.76l-3.06,29.41-8.67,1.19q-4.92.681-8.67,1.19a6.192,6.192,0,0,0-3.57,1.53,3.758,3.758,0,0,0-1.19,2.72,6.375,6.375,0,0,0,1.36,3.74c0.8,1.248,1.59,2.38,2.38,3.4a5.488,5.488,0,0,0,2.47,1.955,9.845,9.845,0,0,0,3.65.255l10.71-1.36q-2.55,24.822-4.08,43.605t-2.04,36.8q-0.165,3.57,4.85,6.375a20.505,20.505,0,0,0,10.11,2.805,8.293,8.293,0,0,0,4.68-1.19,4.394,4.394,0,0,0,1.95-3.57q0.51-19.548,2.21-39.61t4.59-47.26q0.51,0,8.84-1.19l5.95-.68c3.18-.452,4.76-1.926,4.76-4.42a7.531,7.531,0,0,0-1.36-3.74,14.683,14.683,0,0,0-4.16-4.59,9.009,9.009,0,0,0-5.53-.85h0Zm56.73,64.94a76.163,76.163,0,0,1-6.71,12.75,33.77,33.77,0,0,1-8.93,9.52,6.76,6.76,0,0,1-2.04-1.7,34.368,34.368,0,0,1-4.25-7.99,60.882,60.882,0,0,1-3.06-19.38,71.811,71.811,0,0,1,2.21-17.6,73.7,73.7,0,0,1,6.12-16.235,5.523,5.523,0,0,0,.68-2.38,2.409,2.409,0,0,0-1.53-2.38,11.21,11.21,0,0,1,3.4-.68,12.272,12.272,0,0,1,7.14,2.72,24.1,24.1,0,0,1,8.25,10.455,36.492,36.492,0,0,1,2.63,14.025,47.652,47.652,0,0,1-3.91,18.87h0Zm-2.38-59.67a48.192,48.192,0,0,0-6.63-.68q-15.135,0-26.77,11.985a77.054,77.054,0,0,0-17.43,28.135,5.972,5.972,0,0,0-.34,2.21q0,3.912,5.78,3.91a13.845,13.845,0,0,0,3.57-.34,80.6,80.6,0,0,0-1.02,12.92,63.727,63.727,0,0,0,2.89,19.89q2.55,8.67,8.16,13.26a20.046,20.046,0,0,0,13.09,4.59q7.485,0,15.3-4.76a56.275,56.275,0,0,0,15.13-13.94,73.707,73.707,0,0,0,10.71-19.38,58.852,58.852,0,0,0,3.91-20.57,45.061,45.061,0,0,0-3.06-16.4,36.287,36.287,0,0,0-9.01-13.515,28.789,28.789,0,0,0-14.28-7.31h0Z" transform="translate(-441.25 -234.625)"/>
</svg>
