<?xml version="1.0" encoding="utf-8"?>
<!-- Generator: Adobe Illustrator 20.1.0, SVG Export Plug-In . SVG Version: 6.00 Build 0)  -->
<svg version="1.1" id="Capa_1" xmlns="http://www.w3.org/2000/svg" xmlns:xlink="http://www.w3.org/1999/xlink" x="0px" y="0px"
	 viewBox="0 0 512 370.6" style="enable-background:new 0 0 512 370.6;" xml:space="preserve">
<style type="text/css">
	.st0{fill:#DE4641;}
</style>
<g>
	<path class="st0" d="M289.1,268c-3.2-7.2-7.5-17.1-15.5-28.2c-1.8-2.5-5.3-3.1-7.8-1.3c-2.5,1.8-3.1,5.3-1.3,7.8
		c7.3,10.2,11.3,19.4,14.3,26.2c2,4.6,3.6,8.2,5.6,10.8c1.1,1.4,2.7,2.1,4.4,2.1c1.2,0,2.4-0.4,3.4-1.2c2.4-1.9,2.8-5.4,0.9-7.8
		C292.1,274.9,290.7,271.7,289.1,268z"/>
	<path class="st0" d="M197.6,184.9c-24.3-9.7-47.6-16.8-69.3-21.4c-3-0.6-5.9,1.3-6.6,4.3c-0.6,3,1.3,5.9,4.3,6.6
		c21.1,4.4,43.8,11.4,67.5,20.8c23.9,9.5,43.4,21.5,57.8,35.5c1.1,1,2.5,1.6,3.9,1.6c1.4,0,2.9-0.6,4-1.7c2.1-2.2,2.1-5.7-0.1-7.9
		C243.5,207.7,222.9,195,197.6,184.9z"/>
	<path class="st0" d="M104.1,159.6c-7.3-0.9-14.2-1.3-20.5-1.4c-3,0-5.6,2.4-5.6,5.5c0,3.1,2.4,5.6,5.5,5.6c5.9,0.1,19.7,1.4,20,1.4
		c2.8,0,5.2-2.1,5.5-4.9C109.3,162.7,107.2,159.9,104.1,159.6z"/>
	<path class="st0" d="M228.2,189.7c0.9,0.5,1.9,0.8,2.9,0.8c1.9,0,3.7-1,4.8-2.7c3.3-5.5,9-10.4,17.2-14.8c2.7-1.5,3.7-4.8,2.3-7.5
		c-1.5-2.7-4.8-3.7-7.5-2.3c-9.9,5.3-17.1,11.7-21.4,18.9C224.7,184.7,225.6,188.1,228.2,189.7z"/>
	<path class="st0" d="M507.8,201.8c-7.2-8.5-17.1-23.7-24.1-47.9c-6.9-24-21-44.9-41.8-62.2c-0.8-0.6-4.2-3.3-5-3.9
		c-15.8-12.1-35.2-22.3-57.8-30.5c-11.5-4.2-24-7.8-37.2-10.9c-0.5-0.1-2.7-0.6-3.2-0.7c-6.2-1.4-12.8-2.7-19.5-3.9
		C254,30.3,180.9,68.2,147.7,96.4c-7.2,6.1-9.2,16.6-4.8,24.9c0.6,1,1.1,2,1.7,3C84.8,127.6,29.1,162,7.1,180.7
		c-7.2,6.1-9.2,16.6-4.8,24.9c6.4,11.9,14.3,16.4,18.3,18c5.2,8,28.3,37.3,98.3,60.7c56.1,18.7,98.5,27.9,129.5,27.9
		c12.8,0,23.7-1.6,32.8-4.7c9.5,10.5,21.4,19,38.7,22.8c2.1,0.5,4.2,0.7,6.3,0.7l0,0c5.8,0,11.5-1.7,16.4-4.8l0.7-0.4
		c18.3-11.8,24.2-36,13.3-55c-5.5-9.6-10-20.5-13.4-32.5c-1.6-5.7-3.7-11.2-6.1-16.5c19.9,4.1,37.1,6.2,51.8,6.2
		c12.8,0,23.8-1.6,32.9-4.7c11,12.2,23.4,19.5,38.7,22.8c2.1,0.4,4.2,0.7,6.3,0.7c5.8,0,11.5-1.7,16.5-4.8l20.5-13.2
		c4.4-2.8,7.4-7.4,8.1-12.6C512.6,210.9,511.1,205.7,507.8,201.8z M122.4,273.7c-63.5-21.2-86-47.2-91.6-55
		c4-6.5,17.2-23.2,47.3-23.2c5.2,0,10.7,0.5,16.5,1.5c44.4,7.8,127.2,22.3,157.2,66.6c3.2,4.7,6.3,9.9,9.3,14.8
		c4,6.7,8.1,13.4,12.7,19.7C244.7,305.9,195,297.9,122.4,273.7z M346.9,276.2c8,13.9,3.7,31.5-9.6,40.1l-0.7,0.4
		c-4.3,2.7-9.5,3.7-14.4,2.7c-27.1-5.9-39.1-25.7-51.8-46.7c-3.1-5.1-6.3-10.3-9.6-15.3c-28.7-42.3-96-59.2-164.4-71.3
		c-6.4-1.1-12.5-1.7-18.4-1.7c-33.9,0-50.1,18.3-56,27.4c-2.7-1.7-6.5-5.1-9.9-11.5c-2-3.7-1.1-8.4,2.2-11.2
		c23.7-20.2,75.7-49.5,127.6-53.6c-5.3,4.3-9.1,8.2-9.3,8.5c-2.1,2.2-2,5.7,0.2,7.9c1.1,1,2.5,1.5,3.8,1.5c1.5,0,2.9-0.6,4-1.7
		c0.1-0.1,13.3-11.9,22.5-16.4c7.3-0.1,16.2,2.1,17.5,2.3c-17.5,9.6-22.2,19.2-22.8,20.5c-1.2,2.8,0.1,6.1,2.9,7.3
		c0.7,0.3,1.5,0.5,2.2,0.5c2.1,0,4.2-1.2,5.1-3.3c0.1-0.1,5.6-11.5,31-21.1c7.1,1.6,13.8,3.4,20.2,5.3
		c-16.9,8.1-23.1,20.1-23.4,20.7c-1.4,2.7-0.3,6,2.4,7.4c0.8,0.4,1.7,0.6,2.5,0.6c2,0,4-1.1,5-3c0.3-0.6,8-14.8,30.8-20
		c18.7,6.9,34,14.8,46.4,23.4c-15,5.3-23,14.5-23.4,14.9c-2,2.3-1.7,5.8,0.6,7.8c1,0.9,2.3,1.4,3.6,1.4c1.6,0,3.1-0.6,4.2-1.9
		c0.1-0.1,9.3-10.4,26.2-13.8c22.3,18.5,33.3,39,38.4,56.9C336.1,254.1,341,265.9,346.9,276.2z M330.2,208.8
		c-11.3-18.4-27.9-34.2-49.5-47.4c-26-15.8-58.9-27.4-97.8-34.6c-1.4-0.3-4.5-0.8-4.6-0.8c17.9-17.6,45.1-15.3,56.9-13.2
		c44.5,7.8,127.2,22.4,157.2,66.6c3.2,4.7,6.3,9.9,9.3,14.8c4,6.6,8.1,13.4,12.7,19.7C395.1,219.1,367.5,217.4,330.2,208.8z
		 M500.8,214.4c-0.3,2-1.5,3.8-3.2,4.9l-20.5,13.2c-4.3,2.7-9.5,3.7-14.4,2.7c-14-3.1-25.1-10.1-35.1-22.1
		c-6.2-7.5-11.5-16.2-16.6-24.7c-3.1-5.1-6.2-10.3-9.6-15.3c-28.7-42.3-96-59.2-164.4-71.3c-42.4-7.4-63.6,11.5-72.1,22.6
		c-2.1-0.2-4.3-0.3-6.4-0.3c-2.1-2.2-4-4.9-5.7-8c-2-3.7-1.1-8.4,2.2-11.2c13.4-11.4,38.5-27.7,68.6-39.5
		c23.6-9.1,58.9-18.8,93.8-12.7c1.8,0.3,3.6,0.6,5.3,1c-5,3.5-8.3,7.1-11,10c-0.9,1-1.8,1.9-2.6,2.7c-2.2,2.1-2.2,5.7-0.1,7.9
		c1.1,1.1,2.5,1.7,4,1.7c1.4,0,2.8-0.5,3.9-1.6c1-1,2-2,3-3.1c4-4.4,9-9.8,19.6-14c6.9,1.6,13.6,3.4,20.1,5.4
		c-16.8,8.1-23,20-23.3,20.7c-1.4,2.7-0.3,6,2.4,7.4c0.8,0.4,1.7,0.6,2.5,0.6c2,0,4-1.1,5-3c0.3-0.6,7.9-14.7,30.6-20
		c17.7,6.5,33.3,14.4,46.5,23.4c-14.9,5.3-22.9,14.4-23.3,14.9c-2,2.3-1.7,5.8,0.6,7.8c1,0.9,2.3,1.4,3.6,1.4c1.6,0,3.1-0.6,4.2-1.9
		c0.1-0.1,9.3-10.4,26.1-13.8c19.3,15.9,32.2,35,38.5,56.8c7.5,26.1,18.4,42.7,26.3,52C500.6,210.5,501.1,212.4,500.8,214.4z"/>
	<path class="st0" d="M420.7,165.4c-2-3.4-4.2-6.8-6.5-10c-1.8-2.5-5.3-3.1-7.8-1.3c-2.5,1.8-3.1,5.3-1.3,7.8
		c2.1,2.9,4.1,5.9,5.9,9.1c1,1.8,2.9,2.8,4.8,2.8c0.9,0,1.9-0.2,2.8-0.8C421.3,171.4,422.2,168,420.7,165.4z"/>
	<path class="st0" d="M338.1,100.6c-24.3-9.7-47.6-16.8-69.3-21.4c-3-0.6-5.9,1.3-6.6,4.3c-0.6,3,1.3,5.9,4.3,6.6
		c21.1,4.4,43.8,11.4,67.5,20.8c23.9,9.5,43.4,21.5,57.8,35.5c1.1,1,2.5,1.6,3.9,1.6c1.4,0,2.9-0.6,4-1.7c2.1-2.2,2.1-5.7-0.1-7.9
		C384.1,123.4,363.4,110.7,338.1,100.6z"/>
	<path class="st0" d="M244.6,75.3c-3.3-0.4-6.5-0.7-9.6-0.9c-3.1-0.3-5.7,2.1-6,5.1s2.1,5.7,5.1,6c3,0.2,6,0.5,9.2,0.9
		c0.2,0,0.4,0,0.7,0c2.8,0,5.2-2.1,5.5-4.9C249.9,78.4,247.7,75.6,244.6,75.3z"/>
	<path class="st0" d="M277.2,69.2c1.5,0,2.9-0.6,4-1.7c0,0,2-2.1,5.1-4.8c2.3-2,2.5-5.6,0.5-7.8c-2-2.3-5.6-2.5-7.8-0.5
		c-3.4,3-5.6,5.4-5.7,5.5c-2.1,2.2-2,5.7,0.2,7.9C274.4,68.7,275.8,69.2,277.2,69.2z"/>
	<path class="st0" d="M368.8,105.4c0.9,0.5,1.9,0.8,2.9,0.8c1.9,0,3.7-1,4.8-2.7c2.4-3.9,6.1-7.7,11.1-11.1c2.5-1.7,3.2-5.2,1.4-7.7
		c-1.7-2.5-5.2-3.2-7.7-1.4c-6.3,4.3-11.1,9.2-14.3,14.6C365.3,100.4,366.1,103.8,368.8,105.4z"/>
	<path class="st0" d="M458.8,214.7c-11.3-4-23.5-19.8-27.2-25.6c-1.7-2.6-5.1-3.3-7.7-1.6c-2.6,1.7-3.3,5.1-1.6,7.7
		c0.6,1,15.7,23.9,32.8,30c0.6,0.2,1.2,0.3,1.9,0.3c2.3,0,4.4-1.4,5.2-3.7C463.2,218.9,461.7,215.7,458.8,214.7z"/>
</g>
</svg>
