<?xml version="1.0" encoding="utf-8"?>
<!-- Generator: Adobe Illustrator 20.1.0, SVG Export Plug-In . SVG Version: 6.00 Build 0)  -->
<svg version="1.1" id="Capa_1" xmlns="http://www.w3.org/2000/svg" xmlns:xlink="http://www.w3.org/1999/xlink" x="0px" y="0px"
	 viewBox="0 0 512 370.6" style="enable-background:new 0 0 512 370.6;" xml:space="preserve">
<style type="text/css">
	.st0{fill:#DE4641;}
</style>
<path class="st0" d="M506.4,223.6c-6.1-20.5-16.3-41.8-28.1-58.6c-22.7-32.4-41.4-51.7-57.5-59.1c-1.9-0.9-10.8-3.9-13.4-4.6
	c-20.6-5.8-40.1-5.2-62.1,1.7c-3.2,1-6.9,3-11,5.7c-13.6-16.5-25.8-27.6-36.8-33.3c-2.5-1.3-12.2-4.8-14.6-5.5
	c-20.9-6.1-40.7-5.6-63,1.5c-3.8,1.2-8.3,3.7-13.1,7.3c-13.7-16.5-26-27.3-37.1-32.6c-2-1-9.9-3.7-11.9-4.4
	c-21.4-6.5-41.5-6.1-64.2,1.1C81,46.9,60.1,65.1,45,92.3C12.8,150,1.6,202.6,1.2,204.9c-2.4,11.7-1.8,34.8,9.9,50.3
	c6.8,8.9,16.4,14.1,27.8,14.9c0.5,0,2.2,0.2,4.1,0.4c13.4,1.5,28.8,2.9,39.7,2.9c3.9,0,13.1-0.8,14.9-1c4.9-0.6,10.4-1.4,16.4-2.4
	c5-0.8,10.2-1.8,15.4-2.8c1.7,5.8,4.3,11.5,8.1,16.5c6.8,8.9,16.4,14.1,27.8,14.9c0.5,0,2.2,0.2,4.1,0.4c13.4,1.5,28.8,2.6,39.7,2.9
	c11.1,0.3,25.3-2.4,31.3-3.4c4.3-0.7,8.8-1.5,13.7-2.5c1.7,6.8,4.5,13.5,8.8,19.1c6.8,8.9,16.4,14.1,27.8,14.9
	c0.5,0,11.2,1.2,14.8,1.5c10.3,1,20.9,1.8,29,1.8c3.8,0,13-0.8,14.9-1c30.6-3.5,143.5-25.6,159-56.4
	C512.1,268.2,515,252.7,506.4,223.6z M39.6,259.2c-8.3-0.6-15-4.2-19.9-10.6c-8.4-11.1-10.4-29.7-7.9-41.5
	c0.4-2.1,11.3-53.2,42.7-109.5C69,71.7,88.1,56,97,53.2c14.7-4.7,27.8-6.2,41.1-4.6c-14,11-30.9,35-43.6,58.1
	c-13.3,24.1-35.9,71.8-37.8,120.9c0,0.1,0,2.4,0,3.5c-0.1,9.2-0.3,21.4,6.3,30.4c-7.7-0.6-14.9-1.4-18.8-1.8
	C41.5,259.4,40.3,259.2,39.6,259.2z M96.3,261.6c-10.6,1.2-18.2-0.2-22.6-4.3c-6.5-5.9-6.3-17.1-6.2-26.1c0-1.2,0-2.3,0-3.3
	c1.4-34.2,14.7-76.5,36.5-116c8.9-16.1,18.8-30.9,27.9-41.8c9.6-11.4,16.3-16.1,19.4-16.8c14.1-2.8,32.9,15.1,47.1,32.3
	c-9.3,8.6-19,20.7-27.2,35.2c-11.8,21.2-20.8,41.8-27.5,59.4l-36.3,9.6c-2.5,0.7-4.2,3-4.1,5.6l3.9,64.7
	C103.3,260.7,99.6,261.2,96.3,261.6z M118.1,258.3l-3.5-59l24.7-6.5c-8.2,23.5-11.6,39.5-11.8,40.7c-1.2,5.7-1.7,14.2-0.4,23.2
	C124,257.2,121.1,257.7,118.1,258.3z M165.9,287.7c-8.3-0.6-15-4.2-19.9-10.6c-8.4-11.1-10.4-29.7-7.9-41.5
	c0.4-2.1,11.3-53.2,42.7-109.5c14.5-25.9,33.5-41.6,42.5-44.4c14.7-4.7,27.8-6.2,41.1-4.6c-14,11-30.9,35-43.6,58.1
	c-13.3,24.1-35.9,71.8-37.8,120.9c0,0.1,0,2.4,0,3.5c-0.1,9.2-0.3,21.4,6.3,30.4c-7.7-0.6-14.9-1.4-18.8-1.8
	C167.9,287.9,166.6,287.8,165.9,287.7z M222.6,290.1c-10.6,1.2-18.2-0.2-22.6-4.3c-6.5-5.9-6.3-17.1-6.2-26.1c0-1.2,0-2.3,0-3.3
	c1.4-34.2,14.7-76.5,36.5-116c8.9-16.1,18.8-30.9,27.9-41.8c9.6-11.4,16.3-16.1,19.4-16.8c14.4-2.9,33.5,15.7,48.1,33.5
	c-9.8,8.7-20.4,21.4-29.1,37c-11.2,20-19.8,39.4-26.3,56.4l-36.5,9.6c-2.5,0.7-4.2,3-4.1,5.6l3.9,64.7
	C229.7,289.2,225.9,289.8,222.6,290.1z M244.4,286.8l-3.5-59l24.8-6.5c-8.9,25.2-12.6,42.5-12.9,43.7c-1.1,5.2-1.6,12.5-0.8,20.4
	C249.4,285.9,246.9,286.4,244.4,286.8z M291.3,319.3c-8.3-0.6-15-4.2-19.9-10.6c-8.4-11.1-10.4-29.7-7.9-41.5
	c0.4-2.1,11.3-53.2,42.7-109.5c14.5-25.9,33.5-41.6,42.5-44.4c14.7-4.7,27.8-6.2,41.1-4.6c-14,11-30.9,35-43.6,58.1
	c-13.3,24.1-35.9,71.8-37.8,120.9c0,0.1,0,2.4,0,3.5c-0.1,9.2-0.3,21.4,6.3,30.4c-7.7-0.6-14.9-1.4-18.8-1.8
	C293.2,319.5,291.9,319.3,291.3,319.3z M366.3,259.3l92.8-24.4l4.2,58.4c-27,10.6-64.2,19.9-93.5,25.1L366.3,259.3z M498.4,271.3
	c-2.9,5.8-12,11.8-24.5,17.6l-4.4-61.3c-0.1-1.6-0.9-3.1-2.3-4c-1.3-0.9-3-1.2-4.6-0.8l-103.5,27.2c-2.5,0.7-4.2,3-4.1,5.6l3.9,64.7
	c-3.9,0.6-7.6,1.1-11,1.5c-2.4,0.3-4.7,0.4-6.8,0.4c0,0,0,0,0,0c-7.6,0-12.9-1.7-16.4-5.2c-5.9-6-5.7-16.8-5.6-25.5
	c0-1.2,0-2.3,0-3.3c1.4-34.2,14.7-76.5,36.5-116c8.9-16.1,18.8-30.9,27.9-41.8c9.6-11.4,16.3-16.1,19.4-16.8c1-0.2,2-0.3,3.1-0.3
	c1.8,0,3.7,0.3,5.7,0.9c0,0,0,0,0,0l0,0c14.6,4.2,33.9,23.3,57.5,57.1C493.1,205,507.2,253.7,498.4,271.3z"/>
</svg>
