<?xml version="1.0" encoding="utf-8"?>
<!-- Generator: Adobe Illustrator 20.1.0, SVG Export Plug-In . SVG Version: 6.00 Build 0)  -->
<svg version="1.1" id="Capa_1" xmlns="http://www.w3.org/2000/svg" xmlns:xlink="http://www.w3.org/1999/xlink" x="0px" y="0px"
	 viewBox="0 0 512 370.6" style="enable-background:new 0 0 512 370.6;" xml:space="preserve">
<style type="text/css">
	.st0{fill:#DE4641;}
</style>
<g>
	<path class="st0" d="M67,142.1c0.9,1.7,2.6,2.9,4.5,3.2c2.1,0.3,4-0.9,6.1-0.8c3.7,0.1,7,2.7,7.9,6.2c0.5,1.9,0.2,3.7,1.4,5.4
		c1.2,1.7,3.1,2.7,5.2,2.6c2.4-0.1,4-1.9,6.3-2.3c1.9-0.4,4-0.1,5.7,0.9c1.7,0.9,2.8,2.4,3.6,4.1c0.8,1.8,2.3,3.2,4.3,3.6
		c2,0.4,4.1-0.1,5.5-1.5c0.7-0.7,1.2-1.6,1.9-2.2c0.7-0.7,1.6-1.3,2.6-1.7c1.9-0.8,4.1-0.9,6.1-0.2c2,0.7,3.2,2.1,4.5,3.8
		c2.5,3.2,7.5,3.1,9.8-0.3c0.6-0.8,0.9-1.9,1.5-2.7c0.6-0.9,1.4-1.7,2.3-2.3c1.8-1.2,4-1.7,6.2-1.3c1.2,0.2,2.3,0.7,3.2,1.4
		c1,0.7,1.6,1.7,2.5,2.5c1.9,1.6,4.2,1.7,6.4,1.1l0.4-0.1c1.6-0.5,3-1.6,3.8-3.1c0.8-1.5,1.2-2.9,2.5-4.1c2.6-2.4,6.4-2.9,9.6-1.3
		c3.2,1.6,7.5,0.6,9.5-2.5c1-1.4,1-3.1,1.7-4.6c0.6-1.3,1.7-2.5,2.9-3.3c1.5-1,3.3-1.5,5.1-1.4c2.2,0.2,4.2,0,5.9-1.7l0.4-0.4
		c1.6-1.6,1.7-3.6,1.5-5.7c-0.1-1.8,0.4-3.6,1.4-5.1c1-1.6,2.5-2.3,4-3.3c1.6-1,2.6-2.7,2.8-4.5c0.9-6-0.6-12-3.8-17.1
		c-6.4-10.2-18.3-15.7-29.5-18.8c-16.4-4.5-34.1-4.6-50.8-2.1c-16.4,2.5-32.9,7.6-46.7,16.8c-11.9,7.9-23.9,21-20.4,36.5
		C65.1,138,65.9,140.1,67,142.1C68.4,144.8,65.6,139.4,67,142.1z M195.8,129.2c-6.4,1.1-11.9,5.2-14.8,11c-7.4-1.6-15.2,1.2-20,6.9
		c-1.6-0.9-3.3-1.6-5.1-2.1l-3.2-18.3l45.8-20.5c2.8,2.7,5.1,6.1,5.3,10.1C199.7,119.4,196.7,124,195.8,129.2z M185.7,98.5l-40,17.9
		l-39-14.7C137.9,90.3,165.9,91,185.7,98.5z M92.1,109.3l48.5,18.2l3.1,18c-2.7,1-5.2,2.5-7.2,4.5c-6.6-4.3-15.4-4.4-22.1-0.2
		c-4.8-4.7-11.7-6.7-18.2-5.5c-3.5-7.6-11.4-12.5-19.7-12.1c-1.2-7.9,4.9-14.8,11-19.7C88.6,111.7,91.7,109.5,92.1,109.3z"/>
	<path class="st0" d="M311.3,78.1c3.7,0.2,6.8,2.8,7.7,6.3c0.4,1.6,0.3,3.2-0.2,4.8c-0.6,1.8-0.8,3.6,0.1,5.4
		c0.8,1.6,2.4,2.8,4.2,3.2c2,0.4,4-0.4,6.1,0.1c3.5,0.9,6.1,4,6.3,7.7c0.1,1.9,0.4,3.5,1.8,4.9c1.3,1.3,3.2,2,5.1,1.8
		c2-0.3,3.5-1.7,5.6-2.1c1.9-0.3,4,0,5.7,1c1.5,0.9,2.7,2.2,3.4,3.8c0.7,1.6,0.7,3.4,1.9,4.8c1.1,1.3,2.8,2.2,4.5,2.2
		c2.1,0.1,3.5-1,5-2.3c3.3-2.7,8.2-2.5,11.2,0.5c0.8,0.8,1.4,1.7,1.8,2.6c0.4,0.9,0.6,1.9,1.1,2.7c1.2,1.8,3,2.6,5.1,2.8l0.4,0.1
		c1.7,0.2,3.5-0.3,4.8-1.4c1.3-1.1,2.3-2.2,3.9-2.8c3.3-1.2,6.9-0.2,9.1,2.4c1.2,1.3,2.3,2.3,4.1,2.6c1.6,0.2,3.6,0.1,5.1-0.7
		c1.6-0.8,2.2-2.1,3.3-3.3c1.1-1.2,2.7-2.1,4.3-2.5c1.9-0.4,3.9-0.1,5.7,0.8c1.9,1,3.9,1.5,6,0.6l0.5-0.2c2-0.9,3-2.5,3.6-4.5
		c0.6-1.8,1.8-3.4,3.4-4.4c1.8-1.1,3.6-1,5.5-1.5c2.3-0.6,3.5-2.4,4.5-4.4c2.8-5.4,3.3-11.7,1.9-17.6c-3.1-12.8-13.6-23-24-30.3
		c-15-10.5-32.8-17.1-50.7-20.4c-9.8-1.8-19.8-2.6-29.8-2c-8,0.5-16.2,1.9-23.6,5.1c-5.8,2.5-11.3,6.1-15.1,11.2
		c-1.7,2.3-3.1,4.9-3.9,7.6c-0.7,2.2-1.1,4.4-1.2,6.7c-0.1,2.1-0.1,4.4,1.2,6.2C307.7,77.1,309.4,78,311.3,78.1
		C312.3,78.1,308.2,78,311.3,78.1z M441.6,102.1c-5.1,1.2-9.6,4.4-12.5,8.8c-6.3-1.4-13,0.2-17.9,4.3c-6.2-4.3-14.4-4.8-21.1-1.4
		c-5.4-7.3-15.3-10.1-23.8-6.9c-0.1-0.1-0.1-0.2-0.2-0.3c2.7-6.4,3.9-13.1,4.1-19.6l69.5,1.7C444.2,96,441.7,101.8,441.6,102.1z
		 M429.3,76.3l-59.7-1.5c-1.3-9.4-4.1-17.7-6.5-23.7c19.1,1.3,38.5,7.1,54.9,17.1C422,70.6,425.8,73.3,429.3,76.3z M318.8,64.8
		c3.7-7.6,15.2-12.7,30.9-13.7c3.8,8.1,12.3,29.5,6.2,47.9c-3.2-1.1-6.7-1.4-10-0.9c-2.6-6.2-8.1-10.7-14.6-12.1
		c-0.2-7.1-4.2-13.8-10.3-17.3c-1-0.6-2.1-1.1-3.2-1.5C318,67,318.5,65.5,318.8,64.8z"/>
	<path class="st0" d="M398.2,9.4c-33.1-10.2-66.6-12.1-94.5-5.4c-29,7-48.6,22.5-55.1,43.6c-2,6.4-2.6,13.1-2.1,20
		c-1.2-0.8-2.3-1.6-3.5-2.4c-22.3-14.7-51.4-22.9-82.1-22.9c-9.1,0-18.5,0.7-27.8,2.1C95.1,50,60.4,63.5,35.5,82.4
		C12.9,99.5,0.6,119.4,0,139.1c-0.1,2.8,9.4,160,9.4,160c-0.1,2.8,0.1,5.5,0.5,8.3c3.4,22.6,22,41.2,52.6,52.5
		c19.4,7.1,42.2,10.8,66.5,10.8c12.4,0,25.1-1,38-2.9c39.5-5.9,71.6-16.5,92.8-30.8c20.1-13.5,30.7-30.3,31.3-49
		c13.8,8.3,29.4,15.2,45.6,20.2c19.8,6.1,40.9,9.2,61.2,9.2c13.2,0,26.1-1.3,38.1-4c31.8-7.1,53.7-23.1,60.1-43.9
		c0.8-2.5,1.6-8.2,1.8-9.9c0-0.1,0-0.2,0-0.3c0,0,13.3-140.1,13.6-142.5C516.9,73.5,459.1,28.2,398.2,9.4z M260.2,51.2
		c5.2-16.9,21.6-29.4,46.3-35.4c25.8-6.2,57-4.3,88,5.2c66.6,20.6,114.2,66.5,103.7,100.2c-5.1,16.5-23.7,29.4-51.1,35.6
		c-28.3,6.3-62.2,4.5-93-5c-31.3-9.7-59.2-26.6-76.7-46.4c-3.3-8.4-8.4-16.5-15.2-23.9C258,70.8,257.3,60.6,260.2,51.2z M42.9,92.1
		c23.3-17.6,56-30.3,92.1-35.7c8.7-1.3,17.5-2,26-2c61.4,0,103.2,33.5,108.1,66l0.5,7.8c-0.5,14.8-9.2,27.9-25.9,39.2
		c-19.8,13.3-50.1,23.3-87.8,28.9c-12.1,1.8-24.3,2.7-36.1,2.7c-58.4,0-102.5-21.7-107.1-52.8C9.9,128.2,20.7,109,42.9,92.1z
		 M253,326.8c-19.8,13.3-50.1,23.3-87.8,28.9c-36.1,5.4-71.1,2.8-98.5-7.3c-26.1-9.6-41.9-24.7-44.7-42.6l-7.7-129.7
		c6.4,7,14.9,13.3,25.4,18.6c21.2,10.7,49.6,16.5,80,16.5c12.4,0,25.2-1,37.9-2.9c39.5-5.9,71.6-16.5,92.8-30.8
		c8.8-5.9,15.7-12.4,20.9-19.4l7.2,121.9C281.2,297.9,272.6,313.7,253,326.8z M484.5,266c-10.9,35.2-80.9,50.1-144.1,30.6
		c-18.2-5.6-35.5-13.8-50.1-23.6c0,0-8.5-145.8-8.5-146.3c18.3,15.8,42.1,28.6,68.8,36.8c19.8,6.1,40.9,9.2,61.2,9.2
		c13.2,0,26.1-1.3,38.1-4c19.5-4.4,35.3-12.1,46-22.2l-10,111.6C485.5,261.1,484.9,264.9,484.5,266z"/>
</g>
</svg>
