<svg xmlns="http://www.w3.org/2000/svg" width="37.032" height="79.125" viewBox="0 0 37.032 79.125" fill="#b1b1b1">
  <path d="M493.19,978.054V955.8a17.332,17.332,0,0,0-9.871-15.636v-7.854H477.15V916.241h2.468a8.654,8.654,0,0,0,8.636-8.653v-1.237H463.578v1.237a8.655,8.655,0,0,0,8.637,8.653h2.467v16.071h-6.169v7.854a17.332,17.332,0,0,0-9.871,15.636v22.252h-1.233v7.418h37.015v-7.418H493.19Zm-20.975-64.285a6.186,6.186,0,0,1-6.046-4.945h19.494a6.184,6.184,0,0,1-6.045,4.945h-7.4Zm-1.234,21.016h9.87v4.43a17.25,17.25,0,0,0-9.87,0v-4.43h0ZM461.11,955.8a14.806,14.806,0,1,1,29.612,0v22.252H461.11V955.8ZM491.956,983h-32.08v-2.473h32.08V983Zm-28.965-9.774h25.956v2.48H462.991v-2.48Z" transform="translate(-457.406 -906.344)"/>
</svg>
